<?xml version="1.0" encoding="UTF-8" standalone="no"?>
<svg
   xmlns:dc="http://purl.org/dc/elements/1.1/"
   xmlns:cc="http://creativecommons.org/ns#"
   xmlns:rdf="http://www.w3.org/1999/02/22-rdf-syntax-ns#"
   xmlns:svg="http://www.w3.org/2000/svg"
   xmlns="http://www.w3.org/2000/svg"
   xmlns:sodipodi="http://sodipodi.sourceforge.net/DTD/sodipodi-0.dtd"
   xmlns:inkscape="http://www.inkscape.org/namespaces/inkscape"
   inkscape:export-ydpi="96"
   inkscape:export-xdpi="96"
   inkscape:export-filename="C:\work\repos\hugosites\diegocastroviadero.com\content\es\post\monto-un-cluster-kubernetes-con-rpi-parte-iii\featured.png"
   sodipodi:docname="featured.svg"
   inkscape:version="1.0 (4035a4fb49, 2020-05-01)"
   id="svg8"
   version="1.1"
   viewBox="0 0 190.5 142.875"
   height="540"
   width="720">
  <defs
     id="defs2">
    <style
       id="style1121">.cls-1{fill:#008fbe;}</style>
    <style
       id="style1002">.cls-1{fill:#384745;}.cls-2{fill:#ffc61c;}</style>
  </defs>
  <sodipodi:namedview
     inkscape:window-maximized="1"
     inkscape:window-y="-9"
     inkscape:window-x="-9"
     inkscape:window-height="1001"
     inkscape:window-width="1920"
     units="px"
     fit-margin-bottom="0"
     fit-margin-right="0"
     fit-margin-left="0"
     fit-margin-top="0"
     showgrid="false"
     inkscape:document-rotation="0"
     inkscape:current-layer="layer1"
     inkscape:document-units="px"
     inkscape:cy="297.74112"
     inkscape:cx="368.48375"
     inkscape:zoom="1"
     inkscape:pageshadow="2"
     inkscape:pageopacity="0.0"
     borderopacity="1.0"
     bordercolor="#666666"
     pagecolor="#ffffff"
     id="base" />
  <metadata
     id="metadata5">
    <rdf:RDF>
      <cc:Work
         rdf:about="">
        <dc:format>image/svg+xml</dc:format>
        <dc:type
           rdf:resource="http://purl.org/dc/dcmitype/StillImage" />
        <dc:title></dc:title>
      </cc:Work>
    </rdf:RDF>
  </metadata>
  <g
     transform="translate(32.347991,-98.115519)"
     id="layer1"
     inkscape:groupmode="layer"
     inkscape:label="Layer 1">
    <g
       transform="matrix(0.51712516,0,0,0.51712516,-11.399566,140.75887)"
       id="g1024">
      <path
         class="cls-1"
         d="m 163.81972,30.43153 h 12.49638 v 14.14308 c 0,1.57118 -0.22411,3.89019 -0.37392,5.6124 h 0.29962 a 42.96588,42.96588 0 0 1 3.14237,-4.71476 l 12.34717,-15.04072 h 13.46893 l -16.46209,19.82978 17.36034,30.67946 h -14.36718 l -11.67364,-21.17564 -3.7416,4.565 v 16.61064 h -12.49638 z"
         id="path1006" />
      <path
         class="cls-1"
         d="m 218.29711,65.07792 c -1.34708,4.86336 1.42137,7.93143 5.6118,7.93143 4.71415,0 7.10868,-3.74161 7.10868,-9.0544 0,-5.6867 -2.84335,-7.85591 -6.65986,-7.85591 a 9.07616,9.07616 0 0 0 -6.21043,2.39453 L 212.7596,52.65584 228.399,39.71 h -18.5576 v -9.2785 h 31.054 v 9.80223 l -11.97272,9.87777 c 7.63241,-0.74783 14.89091,4.26533 14.89091,13.99326 0,10.55128 -8.60557,17.73487 -19.45586,17.73487 -10.251,0 -18.85662,-6.36024 -16.6119,-15.266 z"
         id="path1008" />
      <path
         class="cls-1"
         d="m 259.30374,64.33009 c -0.89765,4.04 0.67354,8.67926 8.60557,8.67926 5.23727,0 7.03378,-2.09491 7.03378,-4.86458 0,-4.18982 -4.191,-5.23727 -9.12991,-7.03256 -7.40709,-2.54556 -16.53638,-6.13614 -16.53638,-16.68741 0,-9.42831 7.25849,-15.19053 19.60445,-14.89091 15.11623,0.2984 19.38156,9.2042 17.73487,16.91152 l -11.44892,1.04745 c 0.74905,-5.83651 -1.34708,-9.1299 -7.25789,-9.1299 -3.96571,0 -6.211,1.4981 -6.211,4.64046 0,4.18982 4.04062,5.46138 8.97949,7.18359 7.633,2.54313 16.68619,5.61241 16.68619,16.087 0,9.05439 -6.73416,15.56566 -19.90407,15.56566 -12.34657,0 -20.80233,-5.68792 -19.08073,-16.46209 z"
         id="path1010" />
      <path
         class="cls-2"
         d="M 121.58689,0 H 14.39255 A 14.43487,14.43487 0 0 0 0,14.39247 v 82.57744 a 14.43487,14.43487 0 0 0 14.39255,14.39247 H 121.58689 A 14.43487,14.43487 0 0 0 135.97944,96.96991 V 14.39247 A 14.43487,14.43487 0 0 0 121.58689,0 Z M 57.45811,80.98065 31.29766,96.18344 A 6.9999492,6.9999492 0 1 1 24.26348,84.079 L 50.42393,68.87626 a 6.99993,6.99993 0 1 1 7.03418,12.10439 z M 67.74961,57.81844 H 67.71816 A 6.99967,6.99967 0 0 1 60.74893,50.788 l 0.13125,-30.13725 a 7.00056,7.00056 0 0 1 6.99931,-6.96958 h 0.03145 a 6.99991,6.99991 0 0 1 6.96924,7.03042 l -0.13125,30.13725 a 7.00056,7.00056 0 0 1 -6.99932,6.9696 z m 46.2875,35.81006 A 6.997,6.997 0 0 1 104.475,96.19061 L 78.27627,81.06473 a 6.99994,6.99994 0 1 1 7,-12.12421 L 111.475,84.06639 a 6.99956,6.99956 0 0 1 2.56211,9.56211 z"
         id="path1012" />
    </g>
  </g>
  <style
     type="text/css"
     id="style960">
	.st0{fill:#FFFFFF;}
</style>
  <style
     type="text/css"
     id="style1017">
	.st0{fill:#FFFFFF;}
</style>
</svg>
