<?xml version="1.0" encoding="UTF-8" standalone="no"?>
<svg
   sodipodi:docname="logo.svg"
   inkscape:version="1.1 (c68e22c387, 2021-05-23)"
   id="svg8"
   version="1.1"
   viewBox="0 0 169.3333248 84.6667096657939"
   height="320"
   width="640"
   inkscape:export-filename="C:\work\repos\hugosites\diegocastroviadero.com\content\es\post\como-automatizar-los-fichajes-de-mi-empresa\resources\title.png"
   inkscape:export-xdpi="96"
   inkscape:export-ydpi="96"
   xmlns:inkscape="http://www.inkscape.org/namespaces/inkscape"
   xmlns:sodipodi="http://sodipodi.sourceforge.net/DTD/sodipodi-0.dtd"
   xmlns="http://www.w3.org/2000/svg"
   xmlns:svg="http://www.w3.org/2000/svg"
   xmlns:rdf="http://www.w3.org/1999/02/22-rdf-syntax-ns#"
   xmlns:cc="http://creativecommons.org/ns#"
   xmlns:dc="http://purl.org/dc/elements/1.1/">
  <defs
     id="defs2">
    <rect
       id="rect839"
       height="9.260416984558105"
       width="6.085416793823242"
       y="34.92499923706055"
       x="98.95416259765625" />
  </defs>
  <sodipodi:namedview
     inkscape:snap-global="true"
     inkscape:lockguides="true"
     inkscape:window-maximized="0"
     inkscape:window-y="4"
     inkscape:window-x="1275"
     inkscape:window-height="1352"
     inkscape:window-width="2554"
     fit-margin-bottom="0"
     fit-margin-right="0"
     fit-margin-left="0"
     fit-margin-top="0"
     units="px"
     showgrid="false"
     inkscape:document-rotation="0"
     inkscape:current-layer="layer1"
     inkscape:document-units="px"
     inkscape:cy="134.0000000707032"
     inkscape:cx="246.2500001299304"
     inkscape:zoom="1.999999998944728"
     inkscape:pageshadow="2"
     inkscape:pageopacity="1"
     borderopacity="1.0"
     bordercolor="#666666"
     pagecolor="#ffffff"
     id="base"
     inkscape:pagecheckerboard="1" />
  <metadata
     id="metadata5">
    <rdf:RDF>
      <cc:Work
         rdf:about="">
        <dc:format>image/svg+xml</dc:format>
        <dc:type
           rdf:resource="http://purl.org/dc/dcmitype/StillImage" />
      </cc:Work>
    </rdf:RDF>
  </metadata>
  <g
     transform="translate(-15.488848,-38.919855)"
     id="layer1"
     inkscape:groupmode="layer"
     inkscape:label="Layer 1">
    <text
       style="font-size:5.64444px;line-height:1.25;font-family:'Copperplate Gothic Bold';-inkscape-font-specification:'Copperplate Gothic Bold, ';letter-spacing:0px;word-spacing:0px;white-space:pre;shape-inside:url(#rect839)"
       id="text837"
       xml:space="preserve" />
    <g
       id="g2359"
       transform="matrix(0.9561710699999997,0,0,0.9561710699999997,21.86202850440795,23.54870660935437)">
      <path
         id="path845"
         style="font-style:normal;font-variant:normal;font-weight:normal;font-stretch:normal;font-size:19.7556px;line-height:1.25;font-family:'Franklin Gothic Demi';-inkscape-font-specification:'Franklin Gothic Demi';letter-spacing:0px;word-spacing:0px;opacity:1;fill:#14abe2;fill-opacity:1;stroke-width:0.349585"
         d="m 27.246653,55.79708200000001 v 13.25761699999998 h 4.06598 V 55.79708200000001 Z" />
      <path
         id="path849"
         style="font-style:normal;font-variant:normal;font-weight:normal;font-stretch:normal;font-size:19.7556px;line-height:1.25;font-family:'Franklin Gothic Demi';-inkscape-font-specification:'Franklin Gothic Demi';letter-spacing:0px;word-spacing:0px;opacity:1;fill:#14abe2;fill-opacity:1;stroke-width:0.349585"
         d="m 63.172475,54.97101 h -8.297209 v 3.56869300000001 h 6.525609 V 61.815252 h -6.525609 v 3.79810999999999 H 68.08307 v 3.441239 H 50.733033 V 51.657225 h 12.439442 z"
         sodipodi:nodetypes="ccccccccccccc" />
      <path
         id="path851"
         style="font-style:normal;font-variant:normal;font-weight:normal;font-stretch:normal;font-size:19.7556px;line-height:1.25;font-family:'Franklin Gothic Demi';-inkscape-font-specification:'Franklin Gothic Demi';letter-spacing:0px;word-spacing:0px;opacity:1;fill:#14abe2;fill-opacity:1;stroke-width:0.349585"
         d="m 64.087124,51.657365 v 13.256933 h 4.002481 V 61.87864 h 5.44178599999998 v 7.17605899999999 h 1.10201500000001 c 0.96601299999999,-3.02015899999999 1.933589,-6.03997899999999 2.900465,-9.05986099999998 v -8.337473 h -4.00248000000001 v 6.780044 h -5.44178599999999 v -6.780044 z" />
      <path
         id="path853"
         style="font-style:normal;font-variant:normal;font-weight:normal;font-stretch:normal;font-size:19.7556px;line-height:1.25;font-family:'Franklin Gothic Demi';-inkscape-font-specification:'Franklin Gothic Demi';letter-spacing:0px;word-spacing:0px;opacity:1;fill:#14abe2;fill-opacity:1;stroke-width:0.349585"
         d="m 85.66639,51.657225 5.44225499999999,17.39737599999999 H 86.724253 L 85.66639,65.473162 h -5.633436 l -1.09609900000001,3.581439 h -3.568692 L 80.93787300000001,51.65722500000001 Z M 81.01434399999999,62.26134 h 3.696146 l -1.848073,-6.105014 z" />
      <path
         id="path861"
         style="font-style:normal;font-variant:normal;font-weight:normal;font-stretch:normal;font-size:19.7556px;line-height:1.25;font-family:'Franklin Gothic Demi';-inkscape-font-specification:'Franklin Gothic Demi';letter-spacing:0px;word-spacing:0px;opacity:1;fill:#14abe2;fill-opacity:1;stroke-width:0.349585"
         d="m 136.86167,51.657365 v 13.256933 h 4.10421 v -2.755035 h 2.91889 l 2.67652,6.89543599999998 h 4.49887 L 147.84834,61.369285 c 2.01376,-0.909167 3.02064,-2.409315 3.02064,-4.499549 0,-1.070605 -0.2804,-2.04304 -0.8412,-2.91821700000001 -0.56078,-0.87518 -1.27004,-1.474208 -2.12823,-1.797089 -0.84969,-0.331379 -1.98022,-0.497065 -3.3907,-0.497065 z m 4.10421,3.097107 h 2.40886 c 0.93465,0 1.57192,0.04651 1.91179,0.13997 0.33989,0.08497 0.65472,0.31886 0.94361,0.701219 0.2889,0.382359 0.43289,0.815698 0.43289,1.300022 0,0.509813 -0.14399,0.964166 -0.43289,1.363519 -0.28889,0.39085699999999 -0.62027,0.64576 -0.99413,0.76471799999998 -0.36537,0.11045800000001 -0.95612,0.16591700000001 -1.77182,0.16591700000001 h -2.49831 z" />
      <path
         d="m 88.66803,51.657365 -0.0048,7.236142 C 89.722407,62.280653 90.78154299999998,65.667612 91.84090499999999,69.05469899999998 h 0.23078199999999 l 0.01229,-14.18551899999999 4.282422,14.18551899999999 h 2.79122299999999 L 103.52949,54.86918 l 0.0123,14.18551899999999 h 3.41528 L 106.96937,54.86918 l 4.28242,14.18551899999999 h 2.79122 L 118.41488,54.86918 l 0.0116,14.18551899999999 h 4.10353 L 122.51811,51.657365 h -6.36013 l -3.21182,10.412453 -3.04589,-10.412453 h -2.95577 -3.39071 -2.2805 L 98.06147399999997,62.069818 95.01489399999998,51.657365 Z"
         style="font-style:normal;font-variant:normal;font-weight:normal;font-stretch:normal;font-size:19.7556px;line-height:1.25;font-family:'Franklin Gothic Demi';-inkscape-font-specification:'Franklin Gothic Demi';letter-spacing:0px;word-spacing:0px;opacity:1;fill:#14abe2;fill-opacity:1;stroke-width:0.349585"
         id="path934" />
      <path
         sodipodi:nodetypes="ccccccccccccc"
         d="m 136.06103,54.97101 h -8.29721 v 3.56869300000001 h 6.52561 V 61.815252 h -6.52561 v 3.79810999999999 h 13.20781 v 3.441239 H 123.62159 V 51.657225 h 12.43944 z"
         style="font-style:normal;font-variant:normal;font-weight:normal;font-stretch:normal;font-size:19.7556px;line-height:1.25;font-family:'Franklin Gothic Demi';-inkscape-font-specification:'Franklin Gothic Demi';letter-spacing:0px;word-spacing:0px;opacity:1;fill:#14abe2;fill-opacity:1;stroke-width:0.349585"
         id="path897" />
      <path
         sodipodi:nodetypes="cccccccccc"
         d="m 31.312662,51.657225 v 3.441239 H 21.167379 V 69.054601 H 17.037892 V 55.098464 H 12.70448 v -2.004423 l 7.689393,-1.436816 z"
         style="font-style:normal;font-variant:normal;font-weight:normal;font-stretch:normal;font-size:19.7556px;line-height:1.25;font-family:'Franklin Gothic Demi';-inkscape-font-specification:'Franklin Gothic Demi';letter-spacing:0px;word-spacing:0px;opacity:1;fill:#14abe2;fill-opacity:1;stroke-width:0.349585"
         id="path899" />
      <path
         id="path869"
         style="font-style:normal;font-variant:normal;font-weight:normal;font-stretch:normal;font-size:19.7556px;line-height:1.25;font-family:'Franklin Gothic Demi';-inkscape-font-specification:'Franklin Gothic Demi';letter-spacing:0px;word-spacing:0px;opacity:1;fill:#14abe2;fill-opacity:1;stroke-width:0.349585"
         d="m 40.753014,61.848982 -5.404962,3.72460699999998 14.338496,0.0033 v 3.46525699999997 l -17.397376,4.0900000002e-4 v -6.15007699999998 l 4.227962,-2.80380199999999 -4.227962,-3.03841100000001 v -5.405869 l 17.397376,2.99999999e-6 v 3.42347500000001 l -14.185552,0.0046 5.252018,3.985279 z"
         sodipodi:nodetypes="cccccccccccccc" />
      <path
         d="m 49.686351,55.067871 -8.69867,0.0028 5.486855,0.0021 L 41.22256,59.058181 V 61.8494 l 5.404919,3.724587 -5.639798,0.0013 8.69867,0.0013 v -2.684023 l -4.227798,-2.804196 4.227798,-3.038387 z"
         style="font-style:normal;font-variant:normal;font-weight:normal;font-stretch:normal;font-size:19.7556px;line-height:1.25;font-family:'Franklin Gothic Demi';-inkscape-font-specification:'Franklin Gothic Demi';letter-spacing:0px;word-spacing:0px;opacity:1;fill:#e6e6e6;stroke-width:0.349585"
         id="path2330" />
    </g>
  </g>
</svg>
