<?xml version="1.0" encoding="UTF-8" standalone="no"?>
<svg
   width="16"
   height="16"
   viewBox="0 0 16 16"
   fill="none"
   version="1.1"
   id="svg1023"
   sodipodi:docname="homeassistant.svg"
   inkscape:version="1.1 (c68e22c387, 2021-05-23)"
   xmlns:inkscape="http://www.inkscape.org/namespaces/inkscape"
   xmlns:sodipodi="http://sodipodi.sourceforge.net/DTD/sodipodi-0.dtd"
   xmlns="http://www.w3.org/2000/svg"
   xmlns:svg="http://www.w3.org/2000/svg">
  <defs
     id="defs1027" />
  <sodipodi:namedview
     id="namedview1025"
     pagecolor="#ffffff"
     bordercolor="#111111"
     borderopacity="1"
     inkscape:pageshadow="0"
     inkscape:pageopacity="0"
     inkscape:pagecheckerboard="1"
     showgrid="false"
     inkscape:zoom="38.13333327297178"
     inkscape:cx="7.06730770349459"
     inkscape:cy="9.519230784298836"
     inkscape:window-width="2554"
     inkscape:window-height="1352"
     inkscape:window-x="1275"
     inkscape:window-y="4"
     inkscape:window-maximized="0"
     inkscape:current-layer="svg1023" />
  <path
     d="m 16.00000000000001,15 c 0,0.55 -0.45,1 -1,1 H 1 C 0.4500000000000002,16 0,15.55 0,15 V 9 C 0,8.449999999999999 0.3180000000000001,7.682066666666661 0.7073333333333335,7.292733333333331 L 7.29266666666667,0.7073666666666591 c 0.38866666666667,-0.3886666666666673 1.025333333333333,-0.3886666666666673 1.414000000000001,0 L 15.29266666666667,7.29333333333333 c 0.38866666666667,0.388666666666668 0.70733333333334,1.157333333333329 0.70733333333334,1.707333333333328 v 6.000000000000002 z"
     fill="#f2f4f9"
     id="path1019"
     style="stroke-width:1" />
  <path
     d="M 15.29266666666667,7.292066666666669 8.707333333333338,0.7066999999999987 c -0.388666666666667,-0.3886666666666638 -1.025333333333334,-0.3886666666666638 -1.413999999999998,0 L 0.7073333333333335,7.292066666666669 C 0.3186666666666669,7.680733333333338 0,8.449333333333338 0,8.999333333333337 v 6.000000000000002 c 0,0.55 0.4500000000000002,1 1,1 H 7.151333333333337 L 4.442666666666668,13.29066666666667 C 4.303333333333333,13.33866666666667 4.15466666666667,13.366 4.000000000000001,13.366 c -0.753333333333334,0 -1.366666666666668,-0.61333333333333 -1.366666666666668,-1.36666666666666 0,-0.75333333333334 0.613333333333334,-1.36666666666667 1.366666666666668,-1.36666666666667 0.753333333333332,0 1.366666666666667,0.61333333333333 1.366666666666667,1.36666666666667 0,0.15533333333333 -0.02733333333333,0.30399999999999 -0.07533333333333,0.44333333333333 l 2.108666666666668,2.10866666666667 V 6.825999999999999 C 6.94666666666667,6.603366666666668 6.633333333333339,6.138033333333338 6.633333333333339,5.600033333333329 c 0,-0.753333333333329 0.613333333333331,-1.366666666666662 1.366666666666664,-1.366666666666662 0.753333333333334,0 1.366666666666667,0.613333333333332 1.366666666666667,1.366666666666662 0,0.538000000000011 -0.313333333333333,1.003333333333341 -0.766666666666668,1.22596666666667 v 5.418000000000012 l 2.097333333333337,-2.09733333333334 c -0.0413333333333,-0.13066666666667 -0.064,-0.269333333333334 -0.064,-0.413333333333334 0,-0.753333333333339 0.61333333333333,-1.366666666666671 1.36666666666667,-1.366666666666671 0.75333333333333,0 1.36666666666666,0.61333333333333 1.36666666666666,1.366666666666671 0,0.753333333333323 -0.61333333333333,1.366666666666655 -1.36666666666666,1.366666666666655 -0.16666666666667,0 -0.32533333333334,-0.0313333333333 -0.47266666666667,-0.086 L 8.600000000000003,13.94133333333334 V 16 h 6.400000000000008 c 0.55,0 1,-0.45 1,-1 V 9 c 0,-0.550000000000001 -0.318,-1.317999999999999 -0.70733333333334,-1.707333333333331 z"
     fill="#18bcf2"
     id="path1021"
     style="stroke-width:1" />
</svg>
