<?xml version="1.0" encoding="UTF-8" standalone="no"?>
<svg
   xml:space="preserve"
   viewBox="0 0 16 16"
   version="1.1"
   id="svg4363"
   sodipodi:docname="homer.svg"
   width="16"
   height="16"
   inkscape:version="1.1 (c68e22c387, 2021-05-23)"
   xmlns:inkscape="http://www.inkscape.org/namespaces/inkscape"
   xmlns:sodipodi="http://sodipodi.sourceforge.net/DTD/sodipodi-0.dtd"
   xmlns="http://www.w3.org/2000/svg"
   xmlns:svg="http://www.w3.org/2000/svg"><defs
     id="defs4367" /><sodipodi:namedview
     id="namedview4365"
     pagecolor="#ffffff"
     bordercolor="#111111"
     borderopacity="1"
     inkscape:pageshadow="0"
     inkscape:pageopacity="0"
     inkscape:pagecheckerboard="1"
     showgrid="false"
     inkscape:zoom="35.74999992454804"
     inkscape:cx="9.748251768825863"
     inkscape:cy="8.027972044915417"
     inkscape:window-width="2554"
     inkscape:window-height="1352"
     inkscape:window-x="1275"
     inkscape:window-y="4"
     inkscape:window-maximized="0"
     inkscape:current-layer="svg4363" /><path
     d="m 8.001562994773928,0.2600498794939605 c 4.273227711927202,0 7.739950120506041,3.4698483981266985 7.739950120506041,7.7399501205060392 0,4.270101722379341 -3.4698483981267,7.73995012050604 -7.739950120506041,7.73995012050604 -4.270101722379341,0 -7.7430761100539005,-3.46672240857884 -7.7430761100539005,-7.73995012050604 0,-4.273227711927204 3.4698483981266976,-7.7399501205060392 7.7430761100539005,-7.7399501205060392 m 0.01875593728717,5.4298438446361032 c 1.287907693719097,0 2.335114192252831,1.047206498533733 2.335114192252831,2.335114192252831 0,1.287907693719099 -1.047206498533734,2.335114192252835 -2.335114192252831,2.335114192252835 -1.287907693719098,0 -2.33511419225283,-1.047206498533736 -2.33511419225283,-2.335114192252835 0,-1.287907693719095 1.047206498533729,-2.335114192252831 2.33511419225283,-2.335114192252831"
     style="clip-rule:evenodd;fill:#ffffff;fill-rule:evenodd;stroke-width:1"
     id="path4354" /><linearGradient
     id="a"
     x1="-48.69499969482422"
     x2="-47.57699966430664"
     y1="653.166015625"
     y2="653.166015625"
     gradientTransform="matrix(0,14.28792916651686,14.28792916651686,0,-9324.386244305142,695.7599338593207)"
     gradientUnits="userSpaceOnUse"><stop
       offset="0"
       style="stop-color:#206eff"
       id="stop4356" /><stop
       offset="1"
       style="stop-color:#c323ff"
       id="stop4358" /></linearGradient><path
     d="M 7.355453406119027,0.0278213268966113 C 6.276987012106675,0.1216010133324681 5.33919014774811,0.3873101249007288 4.388889325198094,0.8687125152714596 2.835272519910734,1.656461881332655 1.647396491723216,2.844337909520174 0.8627731152098816,4.394828725259672 0.2719610906639844,5.560822826612157 0.0093779686435857,6.667423126555266 0.0093779686435857,7.989716705300843 c 0,0.969056759837187 0.106283644627304196,1.634892533531767 0.400126662126321797,2.532051533768136 0.5595521290672781,1.70366430358472 1.7130422722283156,3.19163532836698 3.2604070984199515,4.2075819314221 0.722103585556098,0.47515041127501 1.825577895951344,0.91904092707139 2.71335892754412,1.10034832084738 1.244143840049032,0.25007916382895 2.619579241108264,0.20006333106316 3.804329279747922,-0.14066952965378 2.8790363735808,-0.8283872301834 5.04534713024909,-3.18538334927127 5.64241113389071,-6.142569461548613 0.10315765507944,-0.515788275397215 0.19068536241957,-1.41607326518144 0.16567744603668,-1.76305810499411 C 15.87690091359054,5.964075478286341 15.33297873226257,4.45734851621691 14.31703212920746,3.122550979279882 14.02944109080416,2.744306243988594 13.41049516032751,2.10973036577263 13.02287245639263,1.797131410986441 11.87876028187518,0.8624605361757355 10.47831696443305,0.2622705429862531 8.993471929198657,0.0684591910188159 8.60584922526378,0.0184433582530257 7.733698141410315,-0.0034385685820075 7.355453406119027,0.0278213268966113 M 7.377335332954062,0.6592712155647126 C 5.639285144342849,0.8155706929578077 4.0356525062897,1.56580818444466 2.794634655788529,2.806826034945831 1.65364847081894,3.947812219915422 0.9503008225500144,5.345129547809686 0.6970956691732016,6.967518123150007 c -0.071897759600823,0.4595204635357 -0.081275728244409,1.50360097252157 -0.018755937287171,1.934987530126509 0.1375435401059233,0.947174833002153 0.4032526516741834,1.778688052733415 0.8065053033483675,2.538303512863855 0.16255145648882,0.30634697569047 0.481402390370731,0.81275728244409 0.51266228584935,0.81275728244409 0.04376385367007,0 0.212567289254608,-0.10940963417516 0.278213069759708,-0.18130739377599 0.0406378641222,-0.0437638536701 0.162551456488818,-0.22507124744605 0.268835101116122,-0.40012666212632 0.106283644627304,-0.17505541468027 0.253205153376813,-0.36886676664771 0.325102912977637,-0.43138655760494 0.475150411275007,-0.41575660986563 1.259773787788341,-0.37824473529129 1.675530397653973,0.0812757282444 0.171929425132405,0.18755937287171 0.290717027951156,0.47202442172714 0.46264645308356,1.08159238356021 0.187559372871716,0.67208775279031 0.290717027951156,0.94404884345429 0.443890515796392,1.16599410135249 0.218819268350332,0.32197692342977 0.506410306753624,0.39700067257846 0.847143167470573,0.22194525789819 0.175055414680267,-0.090653696888 0.284465048855432,-0.24070119518536 0.531418223136521,-0.7377335332954 0.365740777099841,-0.72835556465182 0.725229575103959,-1.01907259260298 1.269151756431929,-1.01907259260298 0.459520463535696,0 0.718977596008234,0.16880343558454 1.100348320847381,0.7221035855561 0.29384301749902,0.42826056805708 0.412630620317767,0.51578827539721 0.681465721433888,0.51891426494507 0.146921508749507,0.003125989548 0.218819268350337,-0.0187559372872 0.353236818908398,-0.10315765507944 0.21881926835033,-0.13441755055806 0.35636280845625,-0.34073286071695 0.53767020223224,-0.80963129289623 0.30009499659475,-0.77211941832189 0.53141822313652,-1.0909703522038 0.93154488526285,-1.2879076937191 0.16880343558454,-0.0812757282444 0.24695317428109,-0.10003166553157 0.46577244263142,-0.0969056759837 0.54704817087583,0.003125989548 0.87527707340133,0.27821306975971 1.13473420587386,0.95030082255002 0.1312915610102,0.33448088162122 0.29384301749902,0.49703233811004 0.50641030675363,0.49703233811004 0.090653696888,0 0.50328431720576,-0.63144988866811 0.78462337651334,-1.20350597592683 0.54079619178011,-1.09722233129953 0.78149738696547,-2.228830547625527 0.7377335332954,-3.472974387674557 C 15.29546685768823,6.636163231076648 15.06101764159859,5.710870324909528 14.57648926168,4.748065544168066 14.20449650548443,4.004080031776937 13.84500770748032,3.500795714571175 13.26669964112586,2.90373171092955 12.12883944570414,1.715855682742032 10.75027805509704,0.9937520971859346 9.131015469304584,0.7280429856176747 8.643361099838129,0.6498932469211275 7.846233765133348,0.6186333514425086 7.377335332954064,0.6592712155647126 M 5.64866311298644,1.734611620029203 C 5.59864728022065,1.787753442342856 5.464229729662588,1.969060836118845 5.351694105939563,2.134738282155525 5.167260722615711,2.403573383271647 5.148504785328539,2.447337236941713 5.170386712163574,2.556746871116879 5.211024576285775,2.775566139467213 5.442347802827558,2.884975773642378 5.63303316524713,2.778692129015075 5.673671029369335,2.75681020218004 5.817466548570982,2.588006766595499 5.945632120033319,2.403573383271647 6.139443472000756,2.131612292607663 6.183207325670823,2.047210574815393 6.183207325670823,1.937800940640227 c 0,-0.278213069759709 -0.343858850264807,-0.406378641222046 -0.534544212684383,-0.203189320611024 m 5.19852061809432,0.531418223136522 c -0.42826056805707,0.159425466940956 -0.50641030675362,0.225071247446055 -0.50641030675362,0.415756609865631 0,0.16567744603668 0.0844017177923,0.271961090663984 0.24070119518536,0.30009499659474 0.10003166553158,0.01875593728717 0.64707983640741,-0.146921508749508 0.88152905249705,-0.268835101116122 0.17192942513241,-0.09065369688799 0.20006333106317,-0.337606871169083 0.0500158327658,-0.487654369466454 -0.13441755055807,-0.1312915610102 -0.21569327880247,-0.128165571462338 -0.66583577369459,0.04063786412221 M 7.783713974176111,3.7446228993044 c -0.07814973869655,0.0656457805051 -0.09690567598372,0.112535623723029 -0.09690567598372,0.231323226541781 0,0.13441755055806 0.01562994773931,0.162551456488819 0.175055414680269,0.303220986142602 0.381370724839146,0.337606871169083 0.531418223136518,0.437638536700665 0.665835773694582,0.437638536700665 0.256331142924672,0 0.403252651674181,-0.31259895478619 0.23444921608964,-0.503284317205767 C 8.674620995316749,4.116615655499966 8.227604489972499,3.750874878400125 8.133824803536642,3.700859045634336 8.015037200717889,3.638339254677095 7.889997618803414,3.653969202416404 7.783713974176111,3.744622899304399 M 4.542062813043332,4.68867174275869 C 4.479543022086092,4.71680564868945 4.417023231128856,4.78245142919455 4.388889325198102,4.84809720969965 4.345125471528032,4.95125486477909 4.354503440171622,4.995018718449154 4.479543022086092,5.36701147464472 4.554566771234782,5.592082722090779 4.648346457670632,5.807776000893248 4.692110311340698,5.851539854563313 4.845283799185938,6.004713342408546 5.154756764424266,5.914059645520551 5.207898586737917,5.698366366718082 5.239158482216534,5.579578763899326 5.004709266126893,4.857475178343232 4.901551611047449,4.751191533715925 4.798393955968006,4.654285857732209 4.673354374053531,4.629277941349311 4.542062813043332,4.688671742758688 m 7.036602472237119,0.412630620317768 c -0.11566161327089,0.05939380140938 -0.44076452624853,0.840891188374849 -0.40637864122205,0.978434728480773 0.0562678118615,0.228197236993921 0.38449671438701,0.321976923429776 0.53454421268438,0.153173487845235 0.0562678118615,-0.06251979095724 0.2219452578982,-0.456394473987835 0.33760687116909,-0.80650530334837 0.0281339059307,-0.08440171779227 -0.0625197909572,-0.290717027951156 -0.14692150874951,-0.334480881621221 -0.090653696888,-0.04688984321793 -0.21256728925461,-0.04376385367007 -0.31885093388191,0.0093779686436 M 7.614910538591574,5.407649338766926 C 7.324193510640419,5.451413192436992 7.039728461784984,5.545192878872848 6.742759454738108,5.698366366718082 6.352010761255369,5.898429697781243 5.889364308171809,6.361076150864802 5.686174987560789,6.754950833895401 5.332938168652393,7.436416555329293 5.279796346338744,8.158520140885388 5.520497541524107,8.874371747345762 5.801836600831676,9.70588496707702 6.489554301361295,10.32170490800582 7.383587312049791,10.54677615545187 c 0.246953174281091,0.0625197909572 0.362614787551982,0.0718977596008 0.715851606460372,0.0562678118615 0.70647363781679,-0.0281339059308 1.234765871405445,-0.25945713247254 1.731798209515487,-0.756489470582578 0.49703233811004,-0.497032338110039 0.728355564651819,-1.0253245716987 0.756489470582579,-1.731798209515485 0.0156299477393,-0.353236818908395 0.006251979096,-0.468898432179286 -0.0562678118615,-0.715851606460373 C 10.25949769608273,6.317312297194739 9.427984476351465,5.563948816160022 8.340140113695527,5.410775328314791 8.055675064840093,5.367011474644722 7.877493660611968,5.367011474644722 7.61491053859157,5.40764933876693 m 0.0656457805051,0.62832389912024 C 6.248853106175924,6.292304380811841 5.551757437002724,7.899063008412851 6.352010761255368,9.096317005243955 7.024098514045673,10.10288563965548 8.41203787329635,10.27794105433575 9.306070883984849,9.46830976143952 10.26574967517845,8.602410656681776 10.16884399919473,7.092557705064485 9.112259532017413,6.370454119508388 8.693376932603921,6.085989070652959 8.133824803536642,5.954697509642758 7.680556319096671,6.03597323788717 M 1.950617477865819,6.611155314693755 C 1.650522481271078,6.833100572591946 1.594254669409564,6.88936838445346 1.57237274257453,6.992526039532905 1.54736482619164,7.126943590090962 1.62238857534032,7.308250983866953 1.716168261776177,7.342636868893433 1.875593728717134,7.405156659850673 2.003759300179471,7.361392806180603 2.294476328130627,7.155077496021723 2.457027784619445,7.039415882750831 2.622705230656126,6.90499833219277 2.666469084326192,6.854982499426979 2.84465048855432,6.651793178815957 2.710232937996259,6.351698182221216 2.438271847332274,6.351698182221216 2.328862213157108,6.348572192673354 2.247586484912699,6.392336046343423 1.95061747786582,6.611155314693755 M 13.89814952979396,6.854982499426979 c -0.0531418223137,0.05314182231365 -0.0844017177923,0.125039581914477 -0.0844017177923,0.193811351967438 0,0.137543540105922 0.26570911156826,0.825261240635537 0.3532368189084,0.909662958427805 0.0656457805051,0.0656457805051 0.24695317428109,0.08752770734013 0.35948879800412,0.04376385367006 0.068771770053,-0.0250079163829 0.15942546694095,-0.190685362419573 0.15942546694095,-0.290717027951155 0,-0.118787602818752 -0.28133905930757,-0.806505303348367 -0.35948879800411,-0.87840306294919 -0.10628364462731,-0.09690567598372 -0.31885093388192,-0.08752770734013 -0.42826056805708,0.02188192683503 M 0,7.989716705300843 c 0,0.203189320611024 0.0062519790957238,0.284465048855434 0.0125039581914476,0.184433383323853 0.006251979095724,-0.100031665531585 0.006251979095724,-0.265709111568263 0,-0.365740777099842 C 0.0062519790957238,7.705251656445413 0,7.789653374237684 0,7.989716705300843 m 11.82874444910939,1.247269829596895 c -0.25007916382895,0.137543540105922 -0.37511874574343,0.228197236993918 -0.41263062031777,0.300094996594742 -0.10315765507944,0.1969373415153 0.0437638536701,0.443890515796388 0.2625831220204,0.443890515796388 0.18130739377599,0 0.8283872301834,-0.356362808456257 0.90028498978422,-0.493906348562179 0.10628364462731,-0.206315310158887 -0.0437638536701,-0.450142494892113 -0.2782130697597,-0.450142494892113 -0.068771770053,0.0031259895479 -0.25320515337682,0.08127572824441 -0.47202442172715,0.200063331063161 M 2.897792310867971,9.505821636013861 c -0.07814973869655,0.0656457805051 -0.09690567598372,0.11253562372303 -0.09690567598372,0.231323226541781 0,0.22507124744606 0.10003166553158,0.290717027951159 0.550174160423693,0.362614787551978 0.497032338110041,0.0781497386966 0.534544212684383,0.0750237491487 0.653331815503136,-0.0437638536701 C 4.132558182273418,9.92783022497519 4.138810161369145,9.780908716225679 4.02627453764611,9.64961715521548 3.95437677804529,9.56834142697108 3.89498297663591,9.546459500136041 3.56362808456255,9.49331767782238 3.063469756904651,9.405789970482279 3.010327934590999,9.405789970482279 2.897792310867971,9.505821636013861 m 0.465772442631422,2.08503502842388 c -0.125039581914476,0.0656457805051 -0.184433383323851,0.14379551920165 -0.47827640082287,0.61581994092879 -0.109409634175165,0.17818140422813 -0.284465048855431,0.35636280845626 -0.456394473987835,0.46889843217929 l -0.08752770734013,0.0562678118615 0.331354892073361,0.34073286071695 c 0.6314498886681,0.65020582595527 1.284781704171235,1.13473420587386 2.013137268823058,1.5004749829737 2.532051533768132,1.26602576688407 5.479859677401894,0.99406467622008 7.746202099601764,-0.71585160646037 0.31572494433405,-0.2375752056375 0.99406467622008,-0.85652113611416 0.99406467622008,-0.90341097933208 0,-0.0156299477393 -0.0781497386966,-0.0750237491487 -0.1719294251324,-0.13754354010592 -0.19068536241958,-0.12503958191448 -0.35011082936054,-0.34073286071695 -0.45639447398784,-0.62207192002452 -0.16255145648882,-0.43138655760495 -0.27196109066398,-0.56893009771087 -0.52829223358866,-0.64395384685955 -0.11878760281875,-0.0343858850265 -0.15317348784523,-0.0312598954786 -0.32197692342977,0.0531418223137 -0.24382718473323,0.11878760281875 -0.39074869348274,0.3282289025255 -0.59393801409376,0.84401717792271 -0.22507124744606,0.57205608725873 -0.35948879800412,0.80963129289623 -0.55642613951942,1.00969462395939 -0.47202442172715,0.47202442172715 -1.159742122256766,0.52204025449294 -1.663026439462527,0.12503958191448 -0.07502374914868,-0.0593938014094 -0.243827184733229,-0.26883510111617 -0.37824473529129,-0.46577244263146 -0.321976923429775,-0.47515041127501 -0.493906348562181,-0.58456004545018 -0.787749366061196,-0.50641030675363 -0.228197236993917,0.0593938014094 -0.425134578509215,0.29696900704688 -0.68146572143389,0.81588327199196 -0.375118745743429,0.75648947058257 -0.700221658721066,1.00344264486366 -1.328545557841304,1.00969462395939 -0.256331142924675,0.003125989548 -0.321976923429776,-0.009377968644 -0.497032338110042,-0.0937796864359 C 5.007835255674748,14.11978220865801 4.810897914159451,13.75404143155817 4.404519272937404,12.36297608275963 4.335747502884445,12.12227488757427 4.238841826900723,11.86906973419745 4.191951983682796,11.79717197459663 4.026274537646115,11.53146286302837 3.644903812806964,11.44080916614038 3.363564753499394,11.59085666443774"
     style="clip-rule:evenodd;fill:url(#a);fill-rule:evenodd;stroke-width:1"
     id="path4361" /></svg>
