<?xml version="1.0" encoding="UTF-8" standalone="no"?>
<svg
   width="16"
   height="16"
   viewBox="0 0 16 16"
   fill="none"
   version="1.1"
   id="svg1235"
   sodipodi:docname="immich.svg"
   inkscape:version="1.1 (c68e22c387, 2021-05-23)"
   xmlns:inkscape="http://www.inkscape.org/namespaces/inkscape"
   xmlns:sodipodi="http://sodipodi.sourceforge.net/DTD/sodipodi-0.dtd"
   xmlns="http://www.w3.org/2000/svg"
   xmlns:svg="http://www.w3.org/2000/svg">
  <defs
     id="defs1239" />
  <sodipodi:namedview
     id="namedview1237"
     pagecolor="#ffffff"
     bordercolor="#111111"
     borderopacity="1"
     inkscape:pageshadow="0"
     inkscape:pageopacity="0"
     inkscape:pagecheckerboard="1"
     showgrid="false"
     inkscape:zoom="34.20629051282653"
     inkscape:cx="10.80210670202448"
     inkscape:cy="11.05059900775441"
     inkscape:window-width="2554"
     inkscape:window-height="1352"
     inkscape:window-x="1275"
     inkscape:window-y="4"
     inkscape:window-maximized="0"
     inkscape:current-layer="svg1235" />
  <rect
     x="0"
     y="0"
     width="16"
     height="16"
     rx="8"
     fill="#ffffff"
     id="rect1221"
     style="stroke-width:1" />
  <rect
     x="0.06651401519775391"
     y="0.06651401519775391"
     width="15.86697196960449"
     height="15.86697196960449"
     rx="7.933485984802246"
     stroke="#e9eaec"
     stroke-width="0.133029"
     id="rect1223" />
  <g
     id="g1326"
     transform="translate(0.0261698258647307,0.0374105091978834)">
    <path
       d="M 7.588223139567637,5.701200170501921 C 8.338140074932782,6.368745601183531 8.942500553772603,7.084113992893441 9.33144257637098,7.758288664424028 9.999466077306124,6.557057474049719 10.4458402730288,5.1296512467295 10.45146556634535,4.220520981263137 c 0,-0.0064380127476 0,-0.01230234119089 0,-0.01775234208115 0,-1.345257822088339 -1.33467653381016,-1.868808492406163 -2.484403622203972,-1.868808492406163 -1.149711152718698,0 -2.484403622203976,0.523550670317824 -2.484403622203976,1.868808492406163 0,0.0183419620605 0,0.04293070876716 0,0.07258700016125 0.640853174859418,0.286459695916272 1.400474936371259,0.798281709347446 2.105564817630235,1.425844531158683 z"
       fill="#fa2921"
       id="path1225"
       style="stroke-width:1" />
    <path
       d="M 3.497264430369948,9.369688196653529 C 3.965964506932554,8.845356678254935 4.685029975269778,8.277122374907003 5.49647455226447,7.796709577132868 6.359741944742014,7.285843704208757 7.223200565320968,6.928948324272126 7.98106940256986,6.765623589990537 7.05123869512557,5.755604565353841 5.839027824595144,4.887652084391686 4.980620813028509,4.601399552251947 4.974597127834011,4.59943946421245 4.968971834517449,4.597686539949546 4.96392022550513,4.595933615686546 3.69134501762875,4.180299337265974 2.783633027247865,5.294697033923786 2.428474635899069,6.394083324620702 2.073316244550273,7.493469615317613 2.155990527061045,8.931600551992058 3.428565734937422,9.347234830412629 c 0.01727427182762,0.0056571646668 0.04055629317462,0.01327441737307 0.06869869543253,0.0224533662409 z"
       fill="#ed79b5"
       id="path1227"
       style="stroke-width:1" />
    <path
       d="m 13.51917864055863,6.375566070133916 c -0.3551583913488,-1.099386290696913 -1.26287038172968,-2.213783987354724 -2.53544558960606,-1.798149708934151 -0.017465499929,0.0056571646668 -0.040747521276,0.01325848169795 -0.0686986954325,0.02243743056576 -0.0727782282627,0.70110596247955 -0.3221715438551,1.585854645015784 -0.697918827456,2.453998354079356 -0.399602989252152,0.923376759021609 -0.889656870472509,1.722455252124939 -1.407263533971422,2.302577569110697 1.342644371369031,0.267719341977823 2.830845199263381,0.253281620321165 3.692550895579391,-0.02224620246435 0.006023685195,-0.0019441523644 0.0116489785111,-0.0039042404038 0.0166846518483,-0.0054659365654 1.27257520787638,-0.415825506521985 1.35526542606226,-1.853956443196434 1.00009109903829,-2.953151505791911 z"
       fill="#ffb400"
       id="path1229"
       style="stroke-width:1" />
    <path
       d="M 6.832378133058697,10.44448574064379 C 6.615987600635073,9.46120677885464 6.545137589061655,8.525145222439315 6.624720350599591,7.75006585606328 5.382024533568952,8.327080716401079 4.186498314886788,9.218060247908349 3.650262847175251,9.950400133618641 c -0.0036970766273,0.0050675446874 -0.0071869894781,0.0099597969486 -0.01029444612605,0.01424649355525 -0.786409631384741,1.088454417566149 -0.01279634711953,2.300824644847749 0.917416816527584,2.980082796740888 0.930021935545704,0.67944937999456 2.315947600534477,1.04474286071823 3.102548460020631,-0.0437115568479 0.01086813043029,-0.0148361135346 0.02522617371136,-0.0347397717566 0.04250044553898,-0.058738898484 -0.351094794193784,-0.61017700025776 -0.66665303287502,-1.4734443927353 -0.870055990077701,-2.39779322793909 z"
       fill="#1e83f7"
       id="path1231"
       style="stroke-width:1" />
    <path
       d="M 12.28680914100428,9.89451372098077 C 11.60112891203869,10.04164780934275 10.6872020083619,10.07657880920081 9.749801855236688,9.985442683202524 8.752818212846291,9.888665328212564 7.845695842444762,9.666984151649856 7.136924820233592,9.351266556217435 c 0.161667424069346,1.366516012695385 0.635211945867742,2.785141683025735 1.162140979310523,3.524110809584995 0.0036811409522,0.005083480363 0.0071869894781,0.009959796949 0.01029444612605,0.0142464935552 0.786393695709633,1.08845441756616 2.172319360698397,0.72316093684248 3.102532524345516,0.0437115568479 0.93003787122082,-0.67944937999455 1.70382644791232,-1.89181960727616 0.91741681652758,-2.980082796740895 -0.0108681304303,-0.0148361135346 -0.0252261737114,-0.03473977175665 -0.042500445539,-0.05873889848387 z"
       fill="#18c249"
       id="path1233"
       style="stroke-width:1" />
  </g>
</svg>
