<?xml version="1.0" encoding="UTF-8" standalone="no"?>
<svg
   width="16"
   height="16"
   version="1.1"
   id="svg1444"
   sodipodi:docname="owncloud.svg"
   inkscape:version="1.1 (c68e22c387, 2021-05-23)"
   xmlns:inkscape="http://www.inkscape.org/namespaces/inkscape"
   xmlns:sodipodi="http://sodipodi.sourceforge.net/DTD/sodipodi-0.dtd"
   xmlns="http://www.w3.org/2000/svg"
   xmlns:svg="http://www.w3.org/2000/svg">
  <defs
     id="defs1448" />
  <sodipodi:namedview
     id="namedview1446"
     pagecolor="#ffffff"
     bordercolor="#111111"
     borderopacity="1"
     inkscape:pageshadow="0"
     inkscape:pageopacity="0"
     inkscape:pagecheckerboard="1"
     showgrid="false"
     inkscape:zoom="17.875"
     inkscape:cx="31.97202797202797"
     inkscape:cy="32"
     inkscape:window-width="2554"
     inkscape:window-height="1352"
     inkscape:window-x="1275"
     inkscape:window-y="4"
     inkscape:window-maximized="0"
     inkscape:current-layer="svg1444" />
  <g
     id="g1442"
     transform="matrix(0.2502415613071493,0,0,0.2502415613071493,-0.0077299618287795,-0.0077299618287761)"
     style="stroke-width:3.99614">
    <title
       id="title1438">Layer 1</title>
    <g
       stroke="null"
       id="surface1"
       style="stroke-width:3.99614">
      <path
         stroke="null"
         id="svg_1"
         fill="#041e42"
         fill-rule="nonzero"
         d="m 13.84905,25.43899 c -0.37083,-0.65058 -0.58551,-1.39874 -0.58551,-2.19243 0,-2.45266 2.01027,-4.44341 4.48243,-4.44341 0.91081,0 1.76306,0.27324 2.47218,0.74165 -0.52697,1.17753 -0.82624,2.47868 -0.82624,3.84489 0,0.25372 0.01302,0.50094 0.03254,0.74816 -0.17566,-0.01302 -0.35131,-0.01302 -0.52697,-0.01302 -1.82811,0 -3.55211999999998,0.47492 -5.04843999999997,1.31417 z m -0.98236,17.23364 c -2.59579,-1.86064 -4.29378,-4.8923 -4.29378,-8.3078 0,-0.87177 0.117099999999999,-1.71751 0.325279999999999,-2.52421 -0.09107,-0.00651 -0.175660000000001,-0.00651 -0.26023,-0.00651 -4.749170000000002,0 -8.60707000000000022,3.83187000000001 -8.60707000000000022,8.5355 0,4.71013 3.85789999999999935,8.54202 8.60707000000000022,8.54202 C 10.44655,48.91163 12.12503,48.35863000000001 13.51074,47.4088 c -0.5725,-0.88478 -0.90428,-1.93219 -0.90428,-3.05118 0,-0.59202 0.09107,-1.15801 0.26023,-1.69148 v 0.0065 z m 0.38382,-0.92382 c 0.77419,-1.46378 2.17943,-2.55674 3.85139,-2.91456 0.16265,-0.03253 0.31879,-0.05854 0.48144,-0.07806 0.16263,-0.01952 0.32528,-0.03253 0.48793,-0.03904 0.07806,-0.0065 0.14963,-0.0065 0.22769,-0.0065 0.26023,0 0.52046,0.0195 0.78069,0.05205 -0.08457,-0.57902 -0.13011,-1.16453 -0.13011,-1.76306000000001 0,-2.86901000000001 0.94983,-5.52335000000007 2.55024,-7.67025000000004 -0.36432,-0.44889 -0.68311,-0.9238 -0.96285,-1.43776000000002 -0.07806,-0.14312999999998 -0.14963,-0.28623999999998 -0.22119,-0.43589 -0.07156,-0.14963 -0.13662,-0.29925 -0.20167,-0.44889 -0.24722,-0.59852000000001 -0.43589,-1.23609000000001 -0.5595,-1.88664999999999 -0.21469,-0.01301 -0.43589,-0.02603 -0.65708,-0.02603 -1.61342000000001,0 -3.14226,0.40987000000001 -4.46942,1.13200000000001 -0.14313,0.07808 -0.28626,0.16264999999998 -0.42939,0.24721999999999 -0.13662,0.09108 -0.27324,0.18215 -0.41637,0.27324 -1.50933,1.04092 -2.69987,2.51772000000002 -3.38297,4.24174000000001 -0.06505,0.15614000000001 -0.1171,0.30575999999999 -0.16914,0.46189999999999 -0.05205,0.15614000000002 -0.10409000000003,0.31227000000001 -0.143130000000029,0.46841 C 9.672389999999975,32.69936999999998 9.555279999999973,33.51908999999997 9.555279999999973,34.36482999999998 9.555279999999996,37.37697 11.00607,40.05734000000001 13.25053,41.74882 Z m 30.16704,-10.9361 c 1.24259,-0.65058 2.63481,-1.05392 4.11161,-1.14501 -0.37734,-4.36535 -4.07909,-7.80037 -8.57454,-7.80037 -0.16914,0 -0.33831,0.00651 -0.50745,0.01952 0.07808,0.48793 0.12361,0.98887 0.12361,1.50283 0,0.79369 -0.10409,1.56787 -0.28626,2.30302 2.15991,1.19054 3.94247,2.96661 5.13303,5.12 z M 20.47838,24.73636 c 0.02601,0.16913999999999 0.05854,0.33831 0.09758,0.51395 0.09108,0.38384 0.20169,0.76118 0.33831,1.1255 0.06505,0.16263 0.13011,0.32528 0.20167,0.48142 0.07156,0.15614 0.14313,0.30576 0.22119,0.4554 0.23421,0.44238 0.49444,0.85223 0.79371,1.24259 0.60503,-0.68311 1.27511,-1.31415 2.01027,-1.86064 0.13662,-0.10409 0.27324,-0.20818 0.42286,-0.30576 0.13662,-0.0976 0.27975,-0.18866 0.42939,-0.28626 1.97774,-1.2491 4.31329,-1.98423 6.81799,-2.02327 0.05854,0 0.1171,0 0.16913999999999,0 C 32.14312000000001,24.07929 32.30577,24.0858 32.46842,24.0858 c 0.22119,0.01301 0.44238,0.02601 0.66357,0.04553 1.50283000000001,0.13011 2.93408000000001,0.51395 4.24825,1.11248 0.13662,-0.59853 0.20817999999999,-1.21657 0.20817999999999,-1.85413 0,-0.46841 -0.03904,-0.93682 -0.11059999999999,-1.39223 -0.02603,-0.15614 -0.05856,-0.31879 -0.09758,-0.47492000000002 -0.03254,-0.15614 -0.07156,-0.31227 -0.11712,-0.46840999999999 -1.02789,-3.57813000000001 -4.34581,-6.20645 -8.27528000000001,-6.20645 -3.24636,0 -6.07633,1.78906999999998 -7.54012,4.42389 -0.08457,0.14962999999999 -0.16265,0.29927 -0.23421,0.44888999999999 -0.07806,0.15614000000002 -0.14311,0.31879 -0.21468,0.48142 -0.39685,0.98887 -0.62455,2.06233 -0.62455,3.19431000000001 0,0.27975 0.01952,0.56600999999999 0.04553,0.84575999999999 0.01301,0.16263 0.03904,0.33178 0.06505,0.50094 l -0.0065,-0.00651 z m 38.77409,14.44271000000001 c -0.26023,0 -0.50744999999999,0.02601 -0.75466999999999,0.06505 0.01302,0.21467999999999 0.02603,0.42286 0.02603,0.63756000000001 0,2.71938999999998 -1.07994999999999,5.19805999999999 -2.82999000000001,7.03269 0.86526,0.98887 2.14039000000001,1.61990999999999 3.55863,1.61990999999999 2.60229,0 4.71664,-2.09483999999999 4.71664,-4.67761 C 63.96911,41.28040000000001 61.85475,39.17906 59.25247,39.17906 Z M 57.53496000000001,39.50435 c -0.00651,-0.16914000000001 -0.01952,-0.33179000000001 -0.03253,-0.50094 -0.01952,-0.16916000000001 -0.03904,-0.33179000000001 -0.06507,-0.49443999999999 C 56.78028000000001,34.15665000000002 53.06552,30.78018 48.53754,30.61753 c -0.11058999999999,0 -0.22769,-0.00651 -0.33828999999999,-0.00651 -0.05205,0 -0.10409000000001,0 -0.14963,0.00651 -0.16265,0 -0.3253,0.00651 -0.48793,0.01952 -1.33367000000001,0.08457 -2.58928,0.45540000000001 -3.71477,1.04092 0.67658999999999,1.47680000000002 1.07994999999999,3.10323000000001 1.1515,4.81422000000001 0.00651,0.16916000000001 0.01302,0.33831 0.01302,0.50745 0,0.05205 -0.00651,0.10409000000001 -0.00651,0.14964000000001 0,0.22119 -0.00651,0.43587 -0.02601,0.65056000000001 C 44.78374,41.02016 43.39152,43.91522 41.24463,46.07512 c 1.711,1.89317000000001 4.19619,3.07721 6.9481,3.07721 2.3811,0 4.56051,-0.88478 6.21296,-2.34206 0.12361,-0.11712 0.24071,-0.22769999999999 0.36432,-0.34479999999999 0.1171,-0.11712 0.23421,-0.24073 0.35131,-0.36432 1.50281,-1.64596000000001 2.42012,-3.82537 2.42012,-6.21947999999999 0,-0.13010999999998 -0.0065,-0.25371999999998 -0.0065,-0.37733 z M 20.97281,43.90221 c -0.09107,-0.14311 -0.18215,-0.28624 -0.26672,-0.44238 -0.66359,-1.132 -1.15803,-2.36809 -1.45079,-3.68875 -0.31227,-0.05854 -0.63104,-0.09107 -0.96284,-0.09107 -0.03253,0 -0.06505,0 -0.0976,0 -0.16914,0.0065 -0.33178,0.01952 -0.48791,0.03902 -0.16265,0.01952 -0.3253,0.05205 -0.48144,0.08459 -1.39221,0.32528 -2.54373,1.25559 -3.16177,2.49819999999999 C 13.99218,42.45145 13.92711,42.60106999999999 13.86856,42.75721 c -0.05205,0.14963999999999 -0.10409,0.30577999999999 -0.14313,0.46840999999999 -0.09108,0.36432 -0.14313,0.74166000000001 -0.14313,1.132 0,0.89779 0.26023,1.73703 0.70263,2.45266 0.09108,0.13662 0.18215,0.27324000000001 0.27975,0.40334 0.10409,0.12361 0.20818,0.24722 0.31877,0.36432 0.85876,0.8978 2.06882,1.45728 3.40901,1.45728 1.99726,0 3.70826,-1.24259 4.39136,-2.97962 C 22.16336,45.52214 21.68193,44.95613999999999 21.25907,44.33809 21.16147,44.20147 21.06389,44.05185 20.97281,43.90872 Z m 23.01725,-5.97224 c 0.01301,-0.20818 0.02601,-0.41637 0.03253,-0.61805 0,-0.10409 0.0065,-0.20818 0.0065,-0.31227 0,-1.71099999999999 -0.37082000000001,-3.34394 -1.02789,-4.82074 -0.06507,-0.14963 -0.13663,-0.29927 -0.20818,-0.44889 -0.07156,-0.14313 -0.14313,-0.28626 -0.22121,-0.42937 -1.06693000000001,-1.93872 -2.66083,-3.55214 -4.58652,-4.6581 -0.14313000000002,-0.07806 -0.28626000000001,-0.15614 -0.43589,-0.2342 -0.14313,-0.07808 -0.29276,-0.14964 -0.4424,-0.22121 -1.4768,-0.6896 -3.11623,-1.09296 -4.85326000000001,-1.13198 -0.09108,0 -0.18215,-0.00651 -0.27324000000008,-0.00651 -0.1171,0 -0.23421,0 -0.34479999999999,0.00651 -0.20817999999999,0.0065 -0.41637,0.01952 -0.61805,0.03253 C 29.11148,25.23732 27.33542999999999,25.82934 25.78706,26.74664 c -0.14313,0.09108 -0.28626,0.18217 -0.42937,0.27324000000001 -0.13663,0.09108 -0.27975,0.18868 -0.41637,0.28625999999999 -0.80021,0.57250000000001 -1.53536,1.24259 -2.17291000000001,1.99075 C 22.66432,29.42701 22.56023,29.55062 22.45613999999999,29.68073 c -0.0976,0.13012 -0.19518,0.26023 -0.29276,0.39035 -1.40524,1.95822000000004 -2.23797,4.35232000000002 -2.23797,6.92858000000001 0,0.68311 0.05854,1.34669000000001 0.16913999999999,2.00377000000002 0.03253,0.18215 0.07156,0.37081999999998 0.11060000000001,0.55297999999999 0.03902,0.20167 0.09107,0.40336000000002 0.14962999999999,0.59852 0.29927,1.09296000000002 0.74816,2.12087 1.32716,3.05769 0.09108,0.14313 0.18217,0.28626 0.27325,0.42288 0.09758,0.13662 0.19516000000001,0.27975 0.29276000000001,0.41637 0.22769999999999,0.30576 0.46840999999999,0.59852 0.72213,0.87827 0.13662,0.14962999999999 0.27974999999999,0.30576 0.42287999999999,0.44889 0.13662,0.13662 0.27324,0.26674000000002 0.40984999999999,0.39035000000002 C 25.95621,47.74712 28.82523,48.95067 31.98051,48.95067 c 3.14876000000001,0 5.80961,-1.11898 7.93047,-2.96661 0.12361,-0.11059 0.24071,-0.21468 0.35781,-0.32528 0.12361,-0.1171 0.24071,-0.2342 0.35781000000001,-0.35131 1.76306,-1.80857999999999 2.9536,-4.15715 3.2984,-6.77895999999999 0.02603,-0.20167 0.04555,-0.40336 0.06507,-0.61153999999999 v 0.01302 z m 0,0"
         style="stroke-width:15.9691" />
    </g>
  </g>
</svg>
