<?xml version="1.0" encoding="UTF-8" standalone="no"?>
<svg
   id="Layer_1"
   x="0"
   y="0"
   version="1.1"
   viewBox="0 0 15.9999995 15.99999975"
   xml:space="preserve"
   sodipodi:docname="pienut.svg"
   width="16"
   height="16"
   inkscape:version="1.1 (c68e22c387, 2021-05-23)"
   xmlns:inkscape="http://www.inkscape.org/namespaces/inkscape"
   xmlns:sodipodi="http://sodipodi.sourceforge.net/DTD/sodipodi-0.dtd"
   xmlns="http://www.w3.org/2000/svg"
   xmlns:svg="http://www.w3.org/2000/svg"><defs
     id="defs24" /><sodipodi:namedview
     id="namedview24"
     pagecolor="#ffffff"
     bordercolor="#666666"
     borderopacity="1.0"
     inkscape:showpageshadow="2"
     inkscape:pageopacity="0.0"
     inkscape:pagecheckerboard="0"
     inkscape:deskcolor="#d1d1d1"
     inkscape:zoom="8.595600595464651"
     inkscape:cx="13.66978359394657"
     inkscape:cy="39.55511848461133"
     inkscape:window-width="2554"
     inkscape:window-height="1352"
     inkscape:window-x="1275"
     inkscape:window-y="4"
     inkscape:window-maximized="0"
     inkscape:current-layer="Layer_1"
     inkscape:pageshadow="0"
     showgrid="false" /><style
     type="text/css"
     id="style1">.st0{fill:#fada9d}.st1{fill:#d59950}.st2{opacity:.21;enable-background:new}.st3{fill:none;stroke:#000;stroke-width:3.83;stroke-linecap:round;stroke-linejoin:round}</style><g
     id="Layer_17"
     transform="matrix(0.0720238514221624,0,0,0.0712318369578966,0.445315324882168,1.683825563160765)"
     style="stroke-width:4.26073"><path
       d="M 96.79999999999998,32.7 111.5,18 130.5,5.3 c 0,0 14.6,-3.3 15.3,-3.4 0.7,-0.1 22.6,2.9 22.6,2.9 l 11.4,4.8 L 192.8,19.3 l 6.6,8 7.6,18.2 0.8,19.79999999999998 -11.2,23.30000000000001 -9.9,9.3 L 166.3,111.4 l -20.5,8.8 -14.9,6.5 -12.9,15.2 -12,10.1 c -0.1,0.1 -25.20000000000002,15.6 -25.20000000000002,15.6 L 55.3,175.3 l -10.4,-1 -16.2,-3.2 -7.6,-4.6 -7,3.1 -6.099999999999993,-2.2 -2.999999999999998,-6 c 0,0 1.5,-11.9 1.5,-13.1 0,-1.1999999999999 -2.5,-7.5 -2.5,-7.5 l -2.000000000000002,-19 c 0,0 5.900000000000004,-22.99999999999984 6.200000000000001,-23.49999999999984 C 8.500000000000003,97.79999999999998 19.5,81.39999999999996 19.5,81.39999999999996 c 0,0 16.90000000000001,-14.79999999999998 17.5,-15.19999999999999 C 37.6,65.79999999999995 53.7,56.8 53.7,56.8 65.5,53 77,48.2 88.09999999999999,42.4 Z"
       class="st0"
       id="path1"
       style="stroke-width:4.26073" /><path
       d="m 159.2,17.9 c 1.1,1.1 3.6,2.9 4,4.4 0.7,2.39999999999999 -2,3.89999999999999 -3.7,4.7 l -10,4.69999999999999 C 147.4,32.9 145,33.6 142.6,33.9 c -4.8,0.2 -8.9,-3.1 -12.5,-6.2 -1.7,-1.5 -3.6,-3.3 -3.5,-5.5 0.2,-1.5 0.9,-3 2.1,-4 4.6,-4.7 11.1,-7.1 17.7,-6.5 4.9,0.6 9.4,2.8 12.8,6.2 z"
       class="st1"
       id="path2"
       style="stroke-width:4.26073" /><path
       d="M 89.4,52.9 C 91.30000000000001,52 93.5,50.4 95.59999999999999,50.2 99.09999999999999,49.8 102.9,54.3 102.3,57.6 c -0.4,2.79999999999999 -3.2,4.5 -5.7,5.79999999999999 C 81.59999999999999,71.59999999999999 66.4,79.79999999999998 51.30000000000001,88 49.90000000000001,88.9 48.2,89.5 46.50000000000002,89.79999999999998 44.10000000000002,90 41.80000000000001,88.7 39.70000000000003,87.39999999999999 c -1.70000000000001,-1 -3.5,-2.20000000000002 -4,-4.20000000000002 -0.29999999999999,-1.69999999999999 0.29999999999999,-3.5 1.6,-4.69999999999999 1.29999999999999,-1.2 2.79999999999999,-2.09999999999999 4.4,-2.80000000000001 L 82,56.4 Z"
       class="st1"
       id="path3"
       style="stroke-width:4.26073" /><path
       d="m 38.1,92.7 c 1.5,2.39999999999999 -0.9,4.59999999999998 -2.2,6.59999999999998 C 32.6,104.2 29,108.9 25.1,113.3 c -1.2,1.6 -2.8,2.9 -4.7,3.8 -1.9,0.7 -4.4,0.4 -5.5,-1.3 -1.2,-1.9 -0.4,-4.3 0.4,-6.4 L 19.9,98.29999999999998 C 21,95.59999999999999 22.2,92.89999999999999 24.3,91 26.5,89.09999999999999 29.4,88.4 32.2,88.9 c 2.4,0.5 4.5,1.8 5.9,3.8 z"
       class="st1"
       id="path4"
       style="stroke-width:4.26073" /><path
       d="m 12.4,130.1 c -0.1,-3.1 0.2,-6.2 0.9,-9.3 l 3.9,1.4 c -1.6,2.7 -3.2,5.2 -4.8,7.9 z"
       class="st1"
       id="path5"
       style="stroke-width:4.26073" /><path
       d="m 19.5,151 c 5,-0.8 10,-2.1 14.8,-3.8 C 36.9,146.3 40.7,145.3 38.8,141.8 c -0.7,-1.4 -1.5,-2.7 -2.4,-3.9 -1.6,-2.3 -3.7,-4.3 -6,-5.9 -5.4,-3.7 -9.3,2.3 -11.7,6.8 -1.6,2.9 -2.6,6 -3,9.2 -0.2,0.7 -0.1,1.5 0.3,2.2 0.7,1.1 2.2,1 3.5,0.8 z"
       class="st1"
       id="path6"
       style="stroke-width:4.26073" /><path
       d="m 42.3,157 c -4.3,1.4 -8.9,2.2 -13.4,2.4 4.5,2.3 9.4,3.4 14.4,3.4 -0.4,-1.9 -0.5,-4 -1,-5.8 z"
       class="st1"
       id="path7"
       style="stroke-width:4.26073" /><path
       d="m 71.9,156.2 c 0,1 -0.2,2 -0.59999999999999,2.9 C 70.4,160.2 69.09999999999999,161 67.70000000000001,161.3 c -4.5,1.4 -9.2,2.2 -14,2.3 -0.1,0 -0.1,0 -0.2,0 -1.70000000000001,-0.1 -3,-1.5 -2.9,-3.2 0,-2 0.5,-3.9 1.4,-5.6 1.29999999999999,-2.0999999999999 3.5,-3.5 5.6,-4.6999999999999 2.7,-1.5 5.4,-2.9 8.19999999999999,-4.1999999999999 0.1,0 0.2,-0.1 0.29999999999998,-0.1 C 67.7,145.3 69.4,146.1000000000001 70.00000000000001,147.7000000000001 71.00000000000001,150.4 72.00000000000001,153.4 71.9,156.2 Z"
       class="st1"
       id="path8"
       style="stroke-width:4.26073" /><path
       d="m 39.6,132.9 c -2.4,-2.5 -4.9,-4.8 -7.5,-7 -1.8,-1.6 -2.3,-4.3 -1.1,-6.4 3.3,-5.6 7.7,-10.6 13,-14.5 1.6,-1.2 3.6,-2.4 5.6,-2.2 2.20000000000001,0.2 4,1.9 5.5,3.6 2.6,2.6 4.9,5.4 6.9,8.4 C 64,117.9 64.9,121.5 64.59999999999999,125.2 c -0.5,4.3 -3.3,8.1 -6.7,10.8 -2.2,1.7 -4.7,3.2 -7.2,4.3 -2.3,1.1 -5.1,0.3 -6.6,-1.8 -1.4,-2 -2.9,-3.8 -4.49999999999999,-5.6 z"
       class="st1"
       id="path9"
       style="stroke-width:4.26073" /><path
       d="m 104.8,130.8 c 0.6,2.9 0.3,6 -0.9,8.7 -1.7,3.4 -5.20000000000013,5.5 -8.50000000000011,7.5 l -14,8.3 c -0.3,0.2 -0.70000000000002,0.3 -1.10000000000001,0.4 C 78.7,155.9 77.2,154.8 77,153.2 76.4,148.8 76.29999999999998,144.3 78.2,140.4 c 1.5,-2.7 3.39999999999999,-5.1 5.7,-7.1 l 8.90000000000001,-9 C 93.59999999999999,123.5 94.4,122.8 95.4,122.3 102,118.7 103.9,126.2 104.8,130.8 Z"
       class="st1"
       id="path10"
       style="stroke-width:4.26073" /><path
       d="M 79,84.5 C 82.59999999999999,83.2 86.9,87.79999999999998 88.79999999999998,90.5 91,93.5 91.89999999999999,97.2 91.59999999999999,100.9 90.79999999999998,107.2 85.79999999999998,112.1 81,116.4 79.59999999999999,117.8 78,119 76.29999999999998,119.9 74.59999999999999,120.8 72.5,121 70.59999999999999,120.3 c -1.80000000000001,-0.8 -3,-2.6 -4,-4.2 L 60,105.4 c -1.3,-2.1 -2.8,-4.6 -2.3,-7.09999999999999 0.60000000000001,-3.20000000000002 3.8,-5.09999999999999 6.7,-6.5 C 69.09999999999999,89.4 73.9,86.30000000000001 79,84.5 Z"
       class="st1"
       id="path11"
       style="stroke-width:4.26073" /><path
       d="m 118.6,111.1 c 1.8,1.3 3.2,3.1 3.9,5.2 0.8,2.8 -0.2,5.9 -2,8.3 -1,1.3 -2.2,2.6 -3.4,3.7 -0.3,0.3 -0.6,0.5 -1,0.6 -1.6,0.6 -3.4,-0.2 -4,-1.8 L 104,105.2 c 5.3,1.6 10.3,2.5 14.6,5.9 z"
       class="st1"
       id="path12"
       style="stroke-width:4.26073" /><path
       d="m 99.29999999999998,72.09999999999999 c -1.69999999999999,1.3 -5.19999999999999,2.69999999999999 -3.79999999999998,5.19999999999999 1.09999999999999,2 3.7,3.40000000000002 5.09999999999999,5.30000000000001 0.3,0.40000000000001 3.2,6 2.9,6 2.6,-0.2 5.2,-0.80000000000001 7.7,-1.7 2.5,-0.90000000000001 4.5,-2.90000000000001 5.5,-5.3 C 117.1,80.5 117.2,79.29999999999998 117.1,78.19999999999997 117,74.4 115,71.09999999999999 113,68 112.2,66.79999999999998 111.2,65.4 109.8,65.29999999999998 108.6,65.09999999999999 107.4,65.89999999999999 106.4,66.7 Z"
       class="st1"
       id="path13"
       style="stroke-width:4.26073" /><path
       d="m 137.6,106.4 c 0.3,3.7 1.2,3.4 4.8,3 5.7,-0.7 11.3,-1.9 16.8,-3.6 1.4,-0.4 2.6,-1.6 3,-3 1.3,-4.2 1.6,-8.59999999999995 0.8,-12.79999999999998 -0.1,-1.60000000000001 -0.8,-3.10000000000001 -2,-4.29999999999997 -1.8,-1.40000000000002 -4.3,-0.90000000000002 -6.4,-0.40000000000002 l -16.6,4 C 137.1,89.50000000000001 136.3,89.9 135.6,90.4 c -2.6,2.19999999999999 -1.3,4.69999999999999 -0.3,7 C 136.5,100.3 137.3,103.3 137.6,106.4 Z"
       class="st1"
       id="path14"
       style="stroke-width:4.26073" /><path
       d="m 118.5,30 c 2.5,1 4.6,3 6.8,4.5 1.7,1.2 3.6,3 3.2,5.1 -0.3,1.5 -1.7,2.5 -3,3.3 l -6.3,4 c -3,1.9 -6.6,3.9 -10,2.9 -2.9,-0.9 -4.7,-3.7 -4.4,-6.7 0.3,-2.5 2.1,-4.5 3.9,-6.4 2.5,-2.8 5.1,-8.50000000000003 9.8,-6.7 z"
       class="st1"
       id="path15"
       style="stroke-width:4.26073" /><path
       d="m 123.1,53 c -1.9,1.6 -4.7,3.6 -5,6.3 C 117.6,64.2 122.9,70.89999999999999 126.7,73.29999999999998 130.2,75.5 134.6,76 138.8,75.39999999999999 c 4.1,-0.8 8.1,-2 11.9,-3.70000000000002 1.4,-0.59999999999998 3,-1.29999999999998 3.2,-2.79999999999998 0,-0.90000000000001 -0.2,-1.8 -0.7,-2.5 l -7.5,-14.1 c -1.5,-2.7 -3.2,-5.7 -6.2,-6.6 -2.5,-0.7 -5.2,0.3 -7.5,1.5 -3.2,1.7 -6.1,3.6 -8.9,5.80000000000001 z"
       class="st1"
       id="path16"
       style="stroke-width:4.26073" /><path
       d="m 150.3,43.1 c -0.7,-0.9 -2.8,-2.79999999999999 -2.4,-4 0.4,-1.2 2.9,-2.1 4,-2.6 3.1,-1.5 6.5,-2.6 9.9,-3.3 2.6,-0.7 5.4,-0.6 8,0.20000000000001 3.1,1.20000000000001 5.3,3.9 6.9,6.79999999999999 2.2,3.70000000000001 3.2,7.9 3,12.10000000000001 C 179.5,56.6 177.2,60.5 173.7,62.90000000000001 171.9,64 169.5,64.59999999999999 167.7,63.60000000000002 c -0.8,-0.5 -1.5,-1.20000000000001 -2.1,-2 z"
       class="st1"
       id="path17"
       style="stroke-width:4.26073" /><path
       d="m 186.6,73.09999999999999 c 4,3.90000000000001 2.2,12.5 0,16.69999999999999 C 183.9,94.89999999999999 179.1,98.59999999999999 173.5,100 L 172.6,84.09999999999999 C 172.3,82.19999999999997 172.5,80.29999999999998 173.1,78.5 174.6,74.4 182.6,69.2 186.6,73.09999999999999 Z"
       class="st1"
       id="path18"
       style="stroke-width:4.26073" /><path
       d="m 192.8,30.9 c -4,-1.4 -8.3,-0.4 -12.3,1.2 2.6,3.1 4.7,6.5 6.3,10.30000000000001 C 189.7,39.10000000000001 191.8,35.2 192.8,30.9 Z"
       class="st1"
       id="path19"
       style="stroke-width:4.26073" /><path
       d="m 184,22.2 c -3.9,0.4 -8.2,1.6 -12.1,2 -1.3,-4.8 -4.1,-9.1 -7.9,-12.3 8,0.4 14.6,4.3 20,10.3 z"
       class="st1"
       id="path20"
       style="stroke-width:4.26073" /><path
       d="m 198.8,46 c -0.9,4.9 -2.9,9.5 -5.9,13.5 C 195,63.8 196,68.59999999999999 195.9,73.4 c 4.7,-8.09999999999999 5.2,-18.3 2.9,-27.4 z"
       class="st1"
       id="path21"
       style="stroke-width:4.26073" /><path
       d="m 10.5,168.2 c 3.4,1.3 7.3,0.4 9.9,-2.2 18.6,11.2 42.9,9.6 62.6,0.5 C 102.7,157.4 117.9,141.2 132.1,124.9 c 14.1,-4.8 28.3,-9.6 41,-17.3 12.7,-7.69999999999999 24,-18.5 29.6,-32.29999999999999 4.7,-11.6 5.5,-25.4 1.3,-37.2 C 190.7,64 167.8,80.59999999999999 139.4,86.80000000000001 136.4,97.9 129.8,107.8 121.7,116 113.6,124.2 103.8,130.6 93.59999999999999,136 72.19999999999997,147.4 48,154.4 24,157.2 c -5,4.3 -12.1,5 -17.899999999999998,1.9 0.3,3.6 1,7.9 4.399999999999998,9.1 z"
       class="st2"
       id="path22"
       style="stroke-width:4.26073" /><path
       d="M 141.2,98.7 C 140,111.2 134.3,123 126.5,132.8 c -7.8,9.8 -17.7,17.8 -28.10000000000004,24.8 -11.39999999999999,7.7 -23.79999999999998,14.3 -37.29999999999999,16.8 -13.5,2.5 -29.10000000000005,0.7 -39.90000000000006,-7.8 -2.4,1.2 -5,1.9 -7.69999999999999,2.2 -2.7,0.1 -5.599999999999996,-0.9 -7.099999999999996,-3 C 4.900000000000003,163.7 5,160.9 5.200000000000001,158.3 5.400000000000003,154.2 7.700000000000001,149.9 6.1,146.2 -1.6,128.3 2,106.9 12.6,90.5 23.2,74.09999999999999 39.8,62.6 57.8,55 75.79999999999998,47.4 94.9,43.5 114,39.7"
       class="st3"
       id="path23" /><path
       d="m 130.9,126.7 c 18.4,-9 37.6,-13.5 53.3,-26.7 14.9,-12.40000000000001 25.4,-31.4 23.4,-50.7 C 206.3,36.9 199.8,25.2 190.5,16.9 180.8,8.8 169,3.7 156.5,2.3 146.4,1.1 136,2.3 127,7 108.8,16.5 95.7,41.6 76.29999999999998,48.5"
       class="st3"
       id="path24" /></g></svg>
