<svg role="img" viewBox="0 0 16 16" xmlns="http://www.w3.org/2000/svg" id="Tailscale--Streamline-Simple-Icons" height="16" width="16">
  <desc>
    Tailscale Streamline Icon: https://streamlinehq.com
  </desc>
  <title>Tailscale</title>
  <path d="M16 8a2 2 0 1 1 -4 0 2 2 0 0 1 4 0zm-6 6a2 2 0 1 1 -4 0 2 2 0 0 1 4 0zm0 -6a2 2 0 1 1 -4 0 2 2 0 0 1 4 0zm4 -4a2 2 0 1 1 0 -4 2 2 0 0 1 0 4zm0 -0.3333333333333333a1.6666666666666665 1.6666666666666665 0 1 0 0 -3.333333333333333 1.6666666666666665 1.6666666666666665 0 0 0 0 3.333333333333333zM2 16a2 2 0 1 1 0 -4 2 2 0 0 1 0 4zm0 -0.3333333333333333a1.6666666666666665 1.6666666666666665 0 1 0 0 -3.333333333333333 1.6666666666666665 1.6666666666666665 0 0 0 0 3.333333333333333zm12 0.3333333333333333a2 2 0 1 1 0 -4 2 2 0 0 1 0 4zm0 -0.3333333333333333a1.6666666666666665 1.6666666666666665 0 1 0 0 -3.333333333333333 1.6666666666666665 1.6666666666666665 0 0 0 0 3.333333333333333zM4 8a2 2 0 1 1 -4 0 2 2 0 0 1 4 0zm6 -6a2 2 0 1 1 -4 0 2 2 0 0 1 4 0zm-2 1.6666666666666665a1.6666666666666665 1.6666666666666665 0 1 0 0 -3.333333333333333 1.6666666666666665 1.6666666666666665 0 0 0 0 3.333333333333333zM4 2a2 2 0 1 1 -4 0 2 2 0 0 1 4 0zM2 3.6666666666666665a1.6666666666666665 1.6666666666666665 0 1 0 0 -3.333333333333333 1.6666666666666665 1.6666666666666665 0 0 0 0 3.333333333333333z" fill="#000000" stroke-width="0.6667"></path>
</svg>