<?xml version="1.0" encoding="UTF-8" standalone="no"?>
<svg
   width="16"
   height="16"
   viewBox="0 0 16 16"
   version="1.1"
   id="svg2291"
   sodipodi:docname="tandoorrecipes.svg"
   inkscape:version="1.1 (c68e22c387, 2021-05-23)"
   xmlns:inkscape="http://www.inkscape.org/namespaces/inkscape"
   xmlns:sodipodi="http://sodipodi.sourceforge.net/DTD/sodipodi-0.dtd"
   xmlns="http://www.w3.org/2000/svg"
   xmlns:svg="http://www.w3.org/2000/svg">
  <sodipodi:namedview
     id="namedview2293"
     pagecolor="#ffffff"
     bordercolor="#111111"
     borderopacity="1"
     inkscape:pageshadow="0"
     inkscape:pageopacity="0"
     inkscape:pagecheckerboard="1"
     showgrid="false"
     inkscape:zoom="8.937500004715748"
     inkscape:cx="17.06293705393404"
     inkscape:cy="47.21678319186994"
     inkscape:window-width="2554"
     inkscape:window-height="1352"
     inkscape:window-x="1275"
     inkscape:window-y="4"
     inkscape:window-maximized="0"
     inkscape:current-layer="svg2291" />
  <defs
     id="defs2256">
    <linearGradient
       id="linear0"
       gradientUnits="userSpaceOnUse"
       x1="0"
       y1="0"
       x2="1"
       y2="0"
       gradientTransform="matrix(0,0,0,0,434.1197059999999,2.992082999999999)">
      <stop
         offset="0"
         style="stop-color:rgb(15.294118%,15.294118%,15.294118%);stop-opacity:1;"
         id="stop2227" />
      <stop
         offset="1"
         style="stop-color:rgb(42.352942%,42.352942%,42.352942%);stop-opacity:1;"
         id="stop2229" />
    </linearGradient>
    <clipPath
       id="clip1">
      <path
         d="M 19,24 H 62 V 62 H 19 Z m 0,0"
         id="path2232" />
    </clipPath>
    <clipPath
       id="clip2">
      <path
         d="M 62,32 C 62,48.570312 48.570312,62 32,62 15.429688,62 2,48.570312 2,32 2,15.429688 15.429688,2 32,2 48.570312,2 62,15.429688 62,32 Z m 0,0"
         id="path2235" />
    </clipPath>
    <clipPath
       id="clip3">
      <path
         d="M 25,8 H 62 V 58 H 25 Z m 0,0"
         id="path2238" />
    </clipPath>
    <clipPath
       id="clip4">
      <path
         d="M 62,32 C 62,48.570312 48.570312,62 32,62 15.429688,62 2,48.570312 2,32 2,15.429688 15.429688,2 32,2 48.570312,2 62,15.429688 62,32 Z m 0,0"
         id="path2241" />
    </clipPath>
    <clipPath
       id="clip5">
      <path
         d="M 26,11 H 62 V 57 H 26 Z m 0,0"
         id="path2244" />
    </clipPath>
    <clipPath
       id="clip6">
      <path
         d="M 62,32 C 62,48.570312 48.570312,62 32,62 15.429688,62 2,48.570312 2,32 2,15.429688 15.429688,2 32,2 48.570312,2 62,15.429688 62,32 Z m 0,0"
         id="path2247" />
    </clipPath>
    <clipPath
       id="clip7">
      <path
         d="M 26,4 H 37 V 21 H 26 Z m 0,0"
         id="path2250" />
    </clipPath>
    <clipPath
       id="clip8">
      <path
         d="M 29.21875,5.15625 C 29.03125,4.910156 29.03125,4.570312000000002 29.214844,4.320312000000002 29.398438,4.074219000000002 29.726562,3.976562 30.015625,4.085938 c 1.46875,0.542968 3.390625,1.375 4.878906,2.5 C 37.996094,8.925781 38.84375,10.492188 39.539062,12.101562 c 0.820313,1.910157 0.941407,3.878907 0.765626,5.257813 -0.5,3.945313 -3.707032,7.203125 -8.269532,7.203125 -4.5625,0 -8.195312,-3.226562 -8.269531,-7.203125 -0.042969,-2.394531 0.804687,-4.308594 1.726563,-5.675781 0.230468,-0.339844 0.664062,-0.476563 1.046874,-0.335938 0.386719,0.136719 0.628907,0.523438 0.585938,0.929688 -0.13281200000001,0.863281 -0.21875,1.761718 -0.17578100000001,2.480468 C 27.097656,17.191406 28.660156,17.816406 30.269531,17.800781 c 1.714844,-0.015625 3.449219,-1.359375 2.824219,-4.789062 -0.546875,-3 -2.496094,-6.015624999999999 -3.875,-7.855469 z m 0,0"
         id="path2253" />
    </clipPath>
  </defs>
  <g
     id="surface1"
     transform="matrix(0.2666666666666666,0,0,0.2666666666666666,-0.533333333333333,-0.533333333333333)"
     style="stroke-width:3.75">
    <path
       style="fill:url(#linear0);fill-rule:evenodd;stroke:none;stroke-width:14.0625"
       d="M 62,32 C 62,48.570312 48.570312,62 32,62 15.429688,62 2,48.570312 2,32 2,15.429688 15.429688,2 32,2 48.570312,2 62,15.429688 62,32 Z m 0,0"
       id="path2258" />
    <g
       clip-path="url(#clip1)"
       clip-rule="nonzero"
       id="g2264"
       style="stroke-width:14.0625">
      <g
         clip-path="url(#clip2)"
         clip-rule="evenodd"
         id="g2262"
         style="stroke-width:52.7344">
        <path
           style="fill:#141414;fill-opacity:1;fill-rule:evenodd;stroke:none;stroke-width:3.75"
           d="M 19.726562,53.683594 49.441406,83.39843799999998 85.01171899999998,62.386719 47.460938,24.835938 Z m 0,0"
           id="path2260" />
      </g>
    </g>
    <g
       clip-path="url(#clip3)"
       clip-rule="nonzero"
       id="g2270"
       style="stroke-width:14.0625">
      <g
         clip-path="url(#clip4)"
         clip-rule="evenodd"
         id="g2268"
         style="stroke-width:52.7344">
        <path
           style="fill:#141414;fill-opacity:1;fill-rule:evenodd;stroke:none;stroke-width:3.75"
           d="M 25.855469,22.113281 61.179688,57.4375 74.441406,45.808594 37.105469,8.472656 l -0.351563,8.59375 z m 0,0"
           id="path2266" />
      </g>
    </g>
    <g
       clip-path="url(#clip5)"
       clip-rule="nonzero"
       id="g2276"
       style="stroke-width:14.0625">
      <g
         clip-path="url(#clip6)"
         clip-rule="evenodd"
         id="g2274"
         style="stroke-width:52.7344">
        <path
           style="fill:#141414;fill-opacity:1;fill-rule:evenodd;stroke:none;stroke-width:3.75"
           d="M 28.480469,21.363281 63.804688,56.6875 64.14843799999998,48.84375 26.8125,11.507812 26.414062,20.515625 Z m 0,0"
           id="path2272" />
      </g>
    </g>
    <path
       style="fill:#ffca75;fill-opacity:1;fill-rule:evenodd;stroke:none;stroke-width:14.0625"
       d="m 32.003906,27.78125 c 3.539063,0 6.636719,-1.488281 8.597656,-3.03125 1.988282,-1.566406 4.863282,-1.257812 6.46875,0.699219 2.640626,3.195312 4.21875,7.246093 4.21875,11.652343 0,7.210938 -4.453124,16.121094 -10.644531,19.238282 -2.664062,1.339844 -5.425781,1.980468 -8.632812,1.980468 H 32 c -3.207031,0 -5.96875,-0.640624 -8.632812,-1.980468 C 17.175781,53.222656 12.722656,44.3125 12.722656,37.101562 c 0,-4.40625 1.578125,-8.457031 4.21875,-11.652343 1.605469,-1.957031 4.480469,-2.265625 6.46875,-0.699219 1.960938,1.542969 5.058594,3.03125 8.59375,3.03125 z m 0,0"
       id="path2278" />
    <path
       style="fill:#ff6e00;fill-opacity:1;fill-rule:evenodd;stroke:none;stroke-width:14.0625"
       d="M 29.21875,5.15625 C 29.03125,4.910156 29.03125,4.570312000000003 29.214844,4.320312000000003 29.398438,4.074219000000002 29.726562,3.976562 30.015625,4.085938 c 1.46875,0.542968 3.390625,1.375 4.878906,2.5 C 37.996094,8.925781 38.84375,10.492188 39.539062,12.101562 c 0.820313,1.910157 0.941407,3.878907 0.765626,5.257813 -0.5,3.945313 -3.707032,7.203125 -8.269532,7.203125 -4.5625,0 -8.195312,-3.226562 -8.269531,-7.203125 -0.042969,-2.394531 0.804687,-4.308594 1.726563,-5.675781 0.230468,-0.339844 0.664062,-0.476563 1.046874,-0.335938 0.386719,0.136719 0.628907,0.523438 0.585938,0.929688 -0.13281200000001,0.863281 -0.21875,1.761718 -0.17578100000002,2.480468 C 27.097656,17.191406 28.660156,17.816406 30.269531,17.800781 c 1.714844,-0.015625 3.449219,-1.359375 2.824219,-4.789062 -0.546875,-3 -2.496094,-6.015624999999999 -3.875,-7.855469 z m 0,0"
       id="path2280" />
    <g
       clip-path="url(#clip7)"
       clip-rule="nonzero"
       id="g2286"
       style="stroke-width:14.0625">
      <g
         clip-path="url(#clip8)"
         clip-rule="evenodd"
         id="g2284"
         style="stroke-width:52.7344">
        <path
           style="fill:#ffcf00;fill-opacity:1;fill-rule:evenodd;stroke:none;stroke-width:3.75"
           d="M 28.046875,4.21875 C 30.734375,5.0625 33.945312,7.605469000000002 35.433594,11.398438 c 2.46875,6.300781 -0.535156,8.765624 -3.445313,9.167968 C 27.320312,21.210938 24.953125,17.324219 27.0625,11.699219 28.371094,8.210938 25.601562,3.453125 28.046875,4.21875 Z m 0,0"
           id="path2282" />
      </g>
    </g>
    <path
       style="fill:#141414;fill-opacity:1;fill-rule:evenodd;stroke:none;stroke-width:14.0625"
       d="m 28.617188,51.449219 c -0.664063,0 -1.257813,-0.222657 -1.71875,-0.59375 -0.269532,-0.21875 -0.375,-0.589844 -0.257813,-0.917969 0.117187,-0.332031 0.429687,-0.554688 0.78125,-0.554688 C 29.105469,49.375 32,49.375 32,49.375 c 0,0 2.894531,0 4.578125,0.007812 0.351563,0 0.664063,0.222657 0.78125,0.554688 0.117187,0.328125 0.011719,0.699219 -0.257813,0.917969 -0.460937,0.371093 -1.050781,0.59375 -1.71875,0.59375 z m -1.328126,-3.589844 c -0.367187,0 -0.71875,-0.148437 -0.976562,-0.40625 -0.261719,-0.261719 -0.40625,-0.613281 -0.40625,-0.980469 0,-0.765625 0.003906,-1.5625 0.003906,-1.5625 0,-0.5 -0.332031,-0.9375 -0.816406,-1.070312 -1.671875,-0.46875 -2.898438,-1.96875 -2.898438,-3.742188 0,-2.152344 1.800782,-3.898437 4.019532,-3.898437 0.851562,0 1.613281,-0.539063 1.894531,-1.339844 0.394531,-1.117187 1.503906,-2.371094 3.878906,-2.375 h 0.023438 c 2.375,0.003906 3.484375,1.257813 3.878906,2.375 0.28125,0.800781 1.042969,1.339844 1.894531,1.339844 2.21875,0 4.019532,1.746093 4.019532,3.898437 0,1.773438 -1.226563,3.273438 -2.898438,3.742188 -0.480469,0.132812 -0.816406,0.570312 -0.816406,1.070312 0,0 0.003906,0.796875 0.003906,1.5625 0,0.367188 -0.148438,0.71875 -0.40625,0.980469 -0.257812,0.257813 -0.613281,0.40625 -0.980469,0.40625 -2.34375,0 -7.070312,0 -9.417969,0 z m 0,0"
       id="path2288" />
  </g>
</svg>
