<?xml version="1.0" encoding="UTF-8" standalone="no"?>
<svg
   width="16"
   height="16"
   viewBox="0 0 16 16"
   version="1.1"
   id="svg2"
   sodipodi:docname="traefik.svg"
   inkscape:version="1.1 (c68e22c387, 2021-05-23)"
   xmlns:inkscape="http://www.inkscape.org/namespaces/inkscape"
   xmlns:sodipodi="http://sodipodi.sourceforge.net/DTD/sodipodi-0.dtd"
   xmlns="http://www.w3.org/2000/svg"
   xmlns:svg="http://www.w3.org/2000/svg">
  <defs
     id="defs2" />
  <sodipodi:namedview
     id="namedview2"
     pagecolor="#ffffff"
     bordercolor="#666666"
     borderopacity="1.0"
     inkscape:showpageshadow="2"
     inkscape:pageopacity="0.0"
     inkscape:pagecheckerboard="true"
     inkscape:deskcolor="#d1d1d1"
     showgrid="false"
     inkscape:zoom="5.416943"
     inkscape:cx="16.33762806808194"
     inkscape:cy="33.96749790426076"
     inkscape:window-width="2554"
     inkscape:window-height="1352"
     inkscape:window-x="1275"
     inkscape:window-y="4"
     inkscape:window-maximized="0"
     inkscape:current-layer="svg2"
     inkscape:pageshadow="0" />
  <path
     fill="#4b76dd"
     d="M 3.649054517044711,13.22649902669667 C 2.453959293693983,13.1261905268351 1.540097794955141,12.77480077732003 0.876086545871499,12.1606372781676 0.1991552918056867,11.53539777903045 -0.0900797577951593,10.72061678015487 0.0243885420468706,9.767987781469532 0.156080041865132,8.67197128298207 0.690856296127123,7.897806534050451 1.629333544831994,7.44610703467381 2.352416293834115,7.098410035153641 3.074277517837923,6.966100285336231 4.249061016216683,6.96548578533708 c 0.835090998847547,0 1.534178247882783,0.0664619999083 2.601273246410157,0.246770249659451 0.264001499635669,0.044930749938 0.492311249320595,0.0812347498879 0.507696749299362,0.0812347498879 0.02214249996944,0 0.0399999999448,-0.081848249887 0.08861524987771,-0.408622249436079 0.0873857498794,-0.590777999184709 0.10277399985817,-0.795088998902759 0.07938574989045,-1.03140074857664 C 7.497687011733474,5.577771537252171 7.462031511782678,5.446077037433922 7.354337261931302,5.232537037728612 7.077407762313474,4.681759038488702 6.420783513219637,4.344525788954092 5.365387264676117,4.212217039136682 5.063840515092261,4.174058789189341 4.367214766053627,4.16914053919613 4.064445016471461,4.202359539150291 3.557975267170403,4.257748039073852 3.275507767560219,4.329135288975332 2.645349018429858,4.559291788657712 2.276110043939421,4.693446538472572 2.274878043941121,4.693446538472572 2.127800294144093,4.685446538483612 1.874875294493138,4.67068153850399 1.701948794731782,4.559291788657712 1.591176544884651,4.338980038961752 1.545631044947502,4.248518289086551 1.537634794958542,4.210977289138392 1.537634794958542,4.08851728930739 c 0,-0.18338974974691 0.04925174993203,-0.28062024961273 0.220312499695962,-0.43631299939787 C 2.141335794125414,3.30327304039106 2.786268768235386,3.006038040801251 3.437967017336019,2.8780357909779 3.854590016761066,2.79680379109 4.05951726647826,2.7795730411138 4.609062515719869,2.7801885411129 5.177070514935999,2.7814385411109 5.540767764434085,2.8121887910687 6.04600726373684,2.90326704094305 6.886021012577592,3.05588479073243 7.524184261696907,3.323580790363 8.004804511033633,3.726661289806739 8.147579510836601,3.846049539641979 8.362965760539362,4.081746539316712 8.455274510411969,4.218977289127331 a 0.2664655246322687,0.2664655246322687 0 0 0 0.06461349991083,0.0763082498947 c 0.0073699999898,0 0.05354474992611,-0.0504567499304 0.103387999857325,-0.112000999845441 0.728625998994474,-0.90339624875328 1.955105747301884,-1.41540424804669 3.392666245318004,-1.414172998048389 1.01662724859702,0 1.9612599972934,0.251080249653499 2.66588074632101,0.706476749025039 0.55878374922886,0.36123249950148 1.01232674860295,0.916930498734602 1.19571399834987,1.465865997977052 0.10522974985478,0.315078999565181 0.1212299998327,0.431390999404671 0.122462999831,0.888625498773672 0,0.28492824960679 -0.00736999999,0.476932249341819 -0.0239999999669,0.566165749218671 -0.16492824977239,0.89847299876008 -0.55754599923057,1.521865747899771 -1.23879024829043,1.964948247288308 -0.5483129992433,0.356931249507419 -1.23693724829298,0.566162249218671 -2.13787574704966,0.648012999105719 -0.45292974937493,0.0418482499422 -1.28247824823014,0.0375129999482 -1.81971749748872,-0.008629999988 C 10.32422275783275,8.961820282582159 9.764216508605581,8.892884282677279 9.525443508935095,8.846727782740991 A 20.99722822102313,20.99722822102313 0 0 0 8.635583260163128,8.70149453294141 13.63096948118881,13.63096948118881 0 0 0 8.56296776026334,9.144577032329941 c -0.05967299991765,0.384620499469211 -0.06769199990658,0.481238249335881 -0.06953924990403,0.78831874891209 -0.001449999998,0.312619999568579 0.0035424999951,0.367389749492988 0.04248249994137,0.512006749293418 0.12431049982845,0.46400624935965 0.398775999449677,0.77416624893163 0.897242998761774,1.01416824860041 0.490468999323133,0.23569724967473 1.003707748614858,0.3384684995329 1.780333497543088,0.35385074951167 0.34400699952526,0.006784999991 0.52000899928237,0.001699999998 0.73478299898597,-0.020314999972 0.52123274928068,-0.0535302499261 0.75877824895287,-0.11261599984458 1.45109424799745,-0.36062074950234 0.1723134997622,-0.0615384999151 0.34892949951846,-0.11753999983778 0.39139124945987,-0.1249224998276 0.0916924998735,-0.0147699999796 0.26215899963821,0.0159999999779 0.36123724950147,0.06523024991 0.17969424975201,0.0886172498777 0.33046649954395,0.3249269995516 0.32923574954564,0.51693124928663 -5.7499999921e-4,0.22277199969256 -0.0781569998921,0.35815949950572 -0.30585274957791,0.53416224926283 -0.5433912492501,0.4209287494191 -1.23694024829298,0.67939899906241 -2.06587499714903,0.76923974893843 -0.29538974959234,0.0307574999575 -0.96986174866155,0.0363339999499 -1.29601699821146,0.008629999988 C 9.896541258422972,13.12371802683851 9.258992259302813,12.97110227704913 8.676830260106216,12.68863327743894 8.222670510732971,12.46893777774213 7.876204261211106,12.19632002811835 7.617120011568652,11.85416202859055 A 15.19406747903168,15.19406747903168 0 0 0 7.49711926173426,11.69723527880711 0.8006271988951079,0.8006271988951079 0 0 0 7.402965261864188,11.80492902865848 3.756363744816093,3.756363744816093 0 0 1 6.527261013072691,12.57786302759181 c -0.46954674935201,0.29662049959065 -1.144016748421218,0.52308374927812 -1.825875747480231,0.61354774915328 -0.203692999718897,0.0270689999626 -0.878779748787257,0.049235749932 -1.052323248547759,0.0350679999516 z M 4.820764515427713,11.94648052846314 C 5.378310014658282,11.82647952862875 5.874315763973779,11.55570677900242 6.23493601347611,11.17539427952727 6.5635582630226,10.82892478000541 6.833101012650625,10.30891728072303 6.981407262445955,9.736602031512854 c 0.0836949998845,-0.323081499554139 0.222776249692564,-1.22155549831421 0.192004499735031,-1.240017748288743 -0.01231499998301,-0.00736999999 -0.08615249988111,-0.0184599999745 -0.163694749774096,-0.0258419999643 A 19.3012057233637,19.3012057233637 0 0 1 6.518017263085451,8.414151283337911 C 5.373388764665077,8.270149783536641 4.670605765634941,8.21414953361392 4.276752266178472,8.235688783584201 3.527821267212021,8.276282783528202 3.222587017633255,8.340303533439822 2.773349768253216,8.549537033151072 2.543191768570842,8.656005033004152 2.3838047937908,8.772312532843631 2.258263793964052,8.924927532633031 2.077951044212888,9.145240532328989 1.969030044363204,9.3637047820275 1.892721044468513,9.657864281621542 c -0.05540124992355,0.21415724970446 -0.06092499991592,0.774780998930778 -0.0092399999872,0.955089498681948 0.0861554998811,0.30462024957961 0.188930999739268,0.47693074934182 0.41908349942165,0.7046272490276 0.315696724564329,0.31261949956857 0.732318223989378,0.52062174928152 1.248633723276845,0.62462424913799 0.264003999635666,0.0535222499261 0.256003999646706,0.052920249927 0.697858749036932,0.0467449999355 0.320619999557536,-0.004697499994 0.440622749391931,-0.0135524999813 0.572316999210186,-0.0418467499422 z M 12.117485255358,7.73411228427635 c 0.4658529993571,-0.0399999999448 0.7520104989622,-0.11077149984713 1.10401549847642,-0.270773499626317 0.29292849959575,-0.134155749814862 0.46277449936136,-0.27077449962632 0.62400924913885,-0.502161499307 C 14.0824385026463,6.621480285811822 14.17474500251892,6.29962903625599 14.17228625252231,5.821467786915861 14.17058625252431,5.48054128738635 14.14152950256471,5.339000037581691 14.02028300273208,5.094073787919691 13.74950925310575,4.54760228867384 13.1156530039805,4.156216539213962 12.2836422551287,4.02267028939826 c -0.20800424971295,-0.0338404999533 -0.76493799894436,-0.0276704999618 -0.97847674864967,0.009857499986 -0.40862324943609,0.0732297498989 -0.75508824895795,0.20553874971635 -1.06032149853672,0.406156499439489 -0.563701499222081,0.37169849948704 -0.953247248684496,0.931091248715059 -1.169249248386404,1.682488497678109 -0.0861564998811,0.29538749959236 -0.10830899985053,0.40800574943694 -0.184618499745218,0.9169349987346 l -0.06953899990404,0.46893049935286 0.09353924987091,0.0104524999856 c 0.283080499609341,0.0307519999576 0.921861498727802,0.105848499853929 1.292941998215692,0.15200324979023 0.23384949967729,0.0295632499592 0.52000849928238,0.0609199999159 0.63631699912188,0.069539499904 0.33785199953375,0.0258439999643 0.94216449869978,0.0233924999677 1.27324974824287,-0.004697499994 z"
     id="path2"
     style="fill-rule:nonzero;stroke-width:2.46149" />
</svg>
