<svg role="img" viewBox="0 0 16 16" xmlns="http://www.w3.org/2000/svg" id="Vaultwarden--Streamline-Simple-Icons" height="16" width="16">
  <desc>
    Vaultwarden Streamline Icon: https://streamlinehq.com
  </desc>
  <title>Vaultwarden</title>
  <path d="M7.693666666666666 0.29846666666666666c-0.09533333333333333 0.15873333333333334 -0.22226666666666664 0.34926666666666667 -0.2921333333333333 0.4190666666666667 -0.11433333333333334 0.12066666666666666 -0.12066666666666666 0.11433333333333334 -0.48893333333333333 -0.24766666666666665 -0.4444666666666666 -0.44439999999999996 -0.5143333333333333 -0.4317333333333333 -0.724 0.13973333333333332 -0.0888 0.23493333333333333 -0.19666666666666666 0.39999999999999997 -0.2856666666666666 0.4508 -0.127 0.06353333333333333 -0.1904 0.04446666666666666 -0.5079333333333333 -0.18406666666666666 -0.5334 -0.3746666666666667 -0.6285999999999999 -0.31753333333333333 -0.7302666666666666 0.4126666666666666 -0.025333333333333333 0.18419999999999997 -0.07619999999999999 0.31753333333333333 -0.13966666666666666 0.3429333333333333 -0.0508 0.019066666666666666 -0.26666666666666666 -0.04446666666666666 -0.4699333333333333 -0.146 -0.5206666666666666 -0.2477333333333333 -0.5968666666666667 -0.19053333333333333 -0.6032 0.4126666666666666 0 0.24766666666666665 -0.031733333333333336 0.4825333333333333 -0.06346666666666667 0.5143333333333333 -0.04446666666666666 0.04446666666666666 -0.2096 0.031733333333333336 -0.5206666666666666 -0.0444 -0.6095999999999999 -0.14606666666666665 -0.6477333333333333 -0.108 -0.5016666666666666 0.5015999999999999 0.07613333333333333 0.3111333333333333 0.08886666666666666 0.47626666666666667 0.0444 0.5206666666666666 -0.031733333333333336 0.031799999999999995 -0.26666666666666666 0.06353333333333333 -0.5143333333333333 0.06353333333333333 -0.6095333333333333 0.006333333333333333 -0.6604 0.08253333333333332 -0.4063333333333333 0.6032666666666666 0.2476 0.5206666666666666 0.18413333333333332 0.6730666666666667 -0.29846666666666666 0.7365999999999999 -0.7112666666666666 0.10153333333333332 -0.7556666666666666 0.19046666666666667 -0.362 0.7174666666666667 0.31753333333333333 0.4190666666666667 0.29846666666666666 0.48266666666666663 -0.22859999999999997 0.6730666666666667 -0.5650666666666666 0.216 -0.5778 0.2857333333333333 -0.13333333333333333 0.7302666666666666 0.362 0.36826666666666663 0.3683333333333333 0.3746666666666667 0.24766666666666665 0.48893333333333333 -0.0698 0.06986666666666666 -0.2603333333333333 0.19686666666666666 -0.4190666666666667 0.2921333333333333 -0.3937333333333333 0.2285333333333333 -0.3937333333333333 0.38093333333333335 0 0.6095333333333333 0.15873333333333334 0.09533333333333333 0.34926666666666667 0.22219999999999998 0.4190666666666667 0.29206666666666664 0.12066666666666666 0.11433333333333334 0.11433333333333334 0.12066666666666666 -0.24766666666666665 0.489 -0.4444666666666666 0.4444666666666666 -0.4317333333333333 0.5143333333333333 0.13973333333333332 0.7239333333333333 0.235 0.0888 0.39999999999999997 0.19673333333333332 0.4508 0.2856666666666666 0.06353333333333333 0.127 0.04446666666666666 0.19046666666666667 -0.18406666666666666 0.508 -0.3746666666666667 0.5333333333333333 -0.31753333333333333 0.6285333333333333 0.4127333333333333 0.7302 0.18413333333333332 0.025333333333333333 0.3174666666666667 0.07619999999999999 0.34286666666666665 0.13966666666666666 0.019066666666666666 0.05086666666666667 -0.0444 0.26666666666666666 -0.146 0.47 -0.2477333333333333 0.5206 -0.19053333333333333 0.5968666666666667 0.4126666666666666 0.6032 0.24766666666666665 0 0.48266666666666663 0.031733333333333336 0.5143333333333333 0.0634 0.04446666666666666 0.04446666666666666 0.031733333333333336 0.2096 -0.0444 0.5207999999999999 -0.146 0.6095333333333333 -0.108 0.6476666666666666 0.5015999999999999 0.5015999999999999 0.3111333333333333 -0.07619999999999999 0.47626666666666667 -0.08893333333333332 0.5207333333333333 -0.04446666666666666 0.031733333333333336 0.031733333333333336 0.06346666666666667 0.26666666666666666 0.06346666666666667 0.5143333333333333 0.006333333333333333 0.6095999999999999 0.08259999999999999 0.6604 0.6032666666666666 0.4064 0.5206666666666666 -0.24766666666666665 0.6730666666666667 -0.18413333333333332 0.7365999999999999 0.2984 0.1016 0.7113333333333333 0.19046666666666667 0.7556666666666666 0.7174666666666667 0.362 0.4190666666666667 -0.31753333333333333 0.48266666666666663 -0.29846666666666666 0.6731333333333334 0.22866666666666668 0.21586666666666665 0.5650666666666666 0.2793333333333333 0.5778 0.7365999999999999 0.12686666666666666 0.44439999999999996 -0.4317333333333333 0.4063333333333333 -0.43806666666666666 0.7746 0.18419999999999997 0.22866666666666668 0.3873333333333333 0.381 0.3873333333333333 0.6096666666666666 0 0.36819999999999997 -0.6222666666666666 0.3301333333333333 -0.616 0.7746 -0.18419999999999997 0.4572666666666666 0.4509333333333333 0.5206666666666666 0.4382 0.7302666666666666 -0.13333333333333333 0.08886666666666666 -0.23486666666666667 0.1968 -0.39999999999999997 0.2857333333333333 -0.4508 0.127 -0.06353333333333333 0.19053333333333333 -0.04446666666666666 0.508 0.18413333333333332 0.5333333333333333 0.3746666666666667 0.6286666666666666 0.3174666666666667 0.7302 -0.4126666666666666 0.0254 -0.18419999999999997 0.07619999999999999 -0.31753333333333333 0.13973333333333332 -0.3429333333333333 0.0508 -0.019066666666666666 0.26666666666666666 0.0444 0.46986666666666665 0.146 0.5206666666666666 0.24766666666666665 0.5969333333333333 0.19046666666666667 0.6033333333333333 -0.4126666666666666 0 -0.24766666666666665 0.031599999999999996 -0.48266666666666663 0.0634 -0.5144 0.04446666666666666 -0.04446666666666666 0.20953333333333335 -0.031733333333333336 0.5206666666666666 0.04446666666666666 0.6096666666666666 0.146 0.6477333333333333 0.108 0.5016666666666666 -0.5015999999999999 -0.07619999999999999 -0.3112 -0.08886666666666666 -0.47633333333333333 -0.04446666666666666 -0.5207999999999999 0.031799999999999995 -0.03166666666666666 0.26666666666666666 -0.0634 0.5143333333333333 -0.0634 0.6095999999999999 -0.006333333333333333 0.6604 -0.08253333333333332 0.40646666666666664 -0.6033333333333333 -0.24766666666666665 -0.5206 -0.18419999999999997 -0.6730666666666667 0.2984 -0.7365333333333333 0.7111333333333333 -0.10153333333333332 0.7555999999999999 -0.19046666666666667 0.362 -0.7174666666666667 -0.31753333333333333 -0.41913333333333336 -0.2985333333333333 -0.48266666666666663 0.2285333333333333 -0.6731333333333334 0.5651333333333333 -0.21586666666666665 0.5778666666666666 -0.2793333333333333 0.127 -0.7366666666666666 -0.4318 -0.44439999999999996 -0.4381333333333333 -0.4063333333333333 0.18413333333333332 -0.7745333333333333 0.19686666666666666 -0.12066666666666666 0.2921333333333333 -0.216 0.2921333333333333 -0.3048666666666666 0 -0.08893333333333332 -0.09533333333333333 -0.18419999999999997 -0.2921333333333333 -0.3047333333333333 -0.6222666666666666 -0.3683333333333333 -0.616 -0.33026666666666665 -0.18413333333333332 -0.7747333333333333 0.45086666666666664 -0.45719999999999994 0.4381333333333333 -0.5206666666666666 -0.13333333333333333 -0.7302 -0.23493333333333333 -0.08893333333333332 -0.4000666666666666 -0.19686666666666666 -0.45086666666666664 -0.2858 -0.06346666666666667 -0.127 -0.04446666666666666 -0.19046666666666667 0.18419999999999997 -0.5079333333333333 0.3746666666666667 -0.5334 0.3174 -0.6285999999999999 -0.41279999999999994 -0.7302666666666666 -0.18413333333333332 -0.025333333333333333 -0.3174666666666667 -0.07619999999999999 -0.34286666666666665 -0.13973333333333332 -0.019066666666666666 -0.0508 0.04446666666666666 -0.26666666666666666 0.146 -0.46986666666666665 0.24766666666666665 -0.5206666666666666 0.19053333333333333 -0.5968666666666667 -0.4126666666666666 -0.6033333333333333 -0.24766666666666665 0 -0.4826 -0.031599999999999996 -0.5144 -0.0634 -0.0444 -0.0444 -0.031733333333333336 -0.20953333333333335 0.04446666666666666 -0.5206666666666666 0.146 -0.6095333333333333 0.108 -0.6476666666666666 -0.5015999999999999 -0.5015999999999999 -0.3112 0.07613333333333333 -0.47626666666666667 0.08886666666666666 -0.5206666666666666 0.0444 -0.03186666666666667 -0.031799999999999995 -0.06353333333333333 -0.26666666666666666 -0.06353333333333333 -0.5143333333333333 -0.006333333333333333 -0.6095999999999999 -0.08253333333333332 -0.6604 -0.6033333333333333 -0.4064 -0.5206 0.2476 -0.673 0.18419999999999997 -0.7364666666666666 -0.29846666666666666 -0.1016 -0.7111333333333333 -0.19053333333333333 -0.7555999999999999 -0.7175333333333334 -0.362 -0.41913333333333336 0.3176 -0.48266666666666663 0.2985333333333333 -0.6730666666666667 -0.2285333333333333 -0.216 -0.5650666666666666 -0.2858 -0.5778 -0.7302666666666666 -0.13333333333333333 -0.3683333333333333 0.362 -0.3746666666666667 0.3683333333333333 -0.489 0.24766666666666665 -0.0698 -0.06986666666666666 -0.1968 -0.2603333333333333 -0.292 -0.4190666666666667C8.182599999999999 0.09526666666666667 8.087266666666666 0 7.9984 0c-0.08886666666666666 0 -0.18406666666666666 0.09526666666666667 -0.3047333333333333 0.29846666666666666zm0.6222666666666666 1.289c0.06986666666666666 0.06986666666666666 0.127 0.20953333333333335 0.127 0.3174666666666667 0 0.108 -0.05713333333333333 0.24766666666666665 -0.127 0.31753333333333333 -0.2730666666666667 0.27299999999999996 -0.762 0.06986666666666666 -0.762 -0.31753333333333333 0 -0.24133333333333332 0.2032 -0.4444666666666666 0.4444666666666666 -0.4444666666666666 0.108 0 0.24766666666666665 0.05713333333333333 0.31753333333333333 0.127zM7.337999999999999 2.666933333333333c0.616 0.5968666666666667 0.7048666666666665 0.5968666666666667 1.3208 0l0.45719999999999994 -0.4444666666666666 0.4444666666666666 0.127c0.508 0.13966666666666666 1.2953999999999999 0.4762 1.2953999999999999 0.5588 0 0.025333333333333333 -0.5968666666666667 1.7524666666666664 -1.3271333333333333 3.8289333333333335 -0.7302 2.0763999999999996 -1.3652 3.8923999999999994 -1.4033333333333333 4.038466666666666 -0.0444 0.15239999999999998 -0.1016 0.2730666666666667 -0.127 0.2730666666666667 -0.025333333333333333 0 -0.07619999999999999 -0.108 -0.108 -0.23493333333333333 -0.038 -0.13333333333333333 -0.6666666666666666 -1.9621333333333333 -1.4032666666666667 -4.070266666666667 -0.7428666666666667 -2.108133333333333 -1.3461333333333334 -3.848 -1.3461333333333334 -3.860666666666667 0 -0.07619999999999999 1.4096666666666666 -0.6222666666666666 1.708133333333333 -0.6540666666666666 0.019 -0.006333333333333333 0.23493333333333333 0.19046666666666667 0.4888666666666666 0.4381333333333333zm-2.2287999999999997 6.400666666666667c0.9017333333333333 2.5271999999999997 1.6191999999999998 4.6036 1.6002 4.6226666666666665 -0.04446666666666666 0.0508 -0.7175333333333334 -0.146 -1.0031999999999999 -0.29846666666666666 -0.22866666666666668 -0.11433333333333334 -0.235 -0.127 -0.31753333333333333 -0.6666666666666666 -0.05086666666666667 -0.34933333333333333 -0.12706666666666666 -0.6033333333333333 -0.20326666666666665 -0.7048666666666665 -0.12693333333333334 -0.15873333333333334 -0.146 -0.15873333333333334 -0.5778 -0.11433333333333334 -0.9524666666666667 0.108 -0.9143333333333332 0.12066666666666666 -1.289 -0.38093333333333335 -0.4064 -0.5397333333333333 -0.7873333333333333 -1.2953999999999999 -0.9715333333333334 -1.9367333333333332 -0.108 -0.35559999999999997 -0.146 -0.7111999999999999 -0.1714 -1.3969333333333334l-0.031799999999999995 -0.9208 0.5714666666666666 -0.3047333333333333c0.7683333333333333 -0.39999999999999997 0.7873333333333333 -0.4699333333333333 0.39366666666666666 -1.2509333333333332 -0.2856666666666666 -0.5651333333333333 -0.2856666666666666 -0.5333333333333333 0.08266666666666667 -1.0668 0.10153333333333332 -0.15239999999999998 0.20946666666666663 -0.254 0.23486666666666667 -0.22226666666666664 0.025333333333333333 0.0254 0.7810666666666666 2.1144666666666665 1.6826666666666665 4.6418Zm7.880199999999999 -4.140066666666666 0.1588 0.26666666666666666 -0.26039999999999996 0.5143333333333333c-0.39366666666666666 0.7873333333333333 -0.3746666666666667 0.8572 0.3873333333333333 1.2572666666666665l0.5651999999999999 0.2984v0.7175333333333334c0 0.8318666666666666 -0.11433333333333334 1.4795333333333334 -0.3873333333333333 2.1716666666666664 -0.2096 0.5269999999999999 -0.6286666666666666 1.2255333333333334 -0.9653333333333333 1.6191999999999998l-0.2158 0.254 -0.5015999999999999 -0.07619999999999999c-0.2730666666666667 -0.0444 -0.5778666666666666 -0.07613333333333333 -0.6730666666666667 -0.07613333333333333 -0.26666666666666666 0 -0.4001333333333333 0.23486666666666667 -0.489 0.8572l-0.08253333333333332 0.5524 -0.33653333333333335 0.146c-0.3873333333333333 0.17153333333333332 -0.8572666666666666 0.3112 -0.9017333333333333 0.26039999999999996 -0.025333333333333333 -0.025333333333333333 2.673333333333333 -7.6832666666666665 3.2321333333333335 -9.181866666666666l0.06346666666666667 -0.15873333333333334 0.127 0.15873333333333334c0.06986666666666666 0.08253333333333332 0.19686666666666666 0.2730666666666667 0.2793333333333333 0.41913333333333336zM2.505733333333333 5.81c0.2985333333333333 0.2921333333333333 0.12066666666666666 0.7302666666666666 -0.29833333333333334 0.7302666666666666 -0.26666666666666666 0 -0.4318666666666667 -0.15873333333333334 -0.4318666666666667 -0.4190666666666667 0 -0.4190666666666667 0.4382 -0.6095999999999999 0.7302666666666666 -0.3112zm11.480666666666666 -0.0888c0.18406666666666666 0.10153333333333332 0.23486666666666667 0.17773333333333333 0.23486666666666667 0.3999333333333333 0 0.254 -0.16513333333333333 0.41913333333333336 -0.4254 0.41913333333333336 -0.42546666666666666 0 -0.6095999999999999 -0.4318 -0.3048666666666666 -0.7302666666666666 0.17146666666666666 -0.17773333333333333 0.2858 -0.1968 0.4953333333333333 -0.0888zM4.823466666666667 12.769533333333332c0.22859999999999997 0.5460666666666667 -0.5524666666666667 0.8826 -0.8064666666666667 0.3429333333333333 -0.09526666666666667 -0.19686666666666666 -0.09526666666666667 -0.22866666666666668 0.006333333333333333 -0.38106666666666666 0.21593333333333334 -0.3301333333333333 0.6604 -0.31106666666666666 0.7999999999999999 0.03813333333333333zm7.042 -0.17146666666666666c0.15866666666666665 0.127 0.20313333333333333 0.34933333333333333 0.10153333333333332 0.5461333333333334 -0.2603333333333333 0.5079333333333333 -1.016 0.146 -0.7936666666666665 -0.3746666666666667 0.1142 -0.2857333333333333 0.4444666666666666 -0.36826666666666663 0.6921333333333333 -0.17146666666666666z" fill="#000000" stroke-width="0.6667"></path>
</svg>