<?xml version="1.0" encoding="UTF-8" standalone="no"?>
<svg
   xmlns:dc="http://purl.org/dc/elements/1.1/"
   xmlns:cc="http://creativecommons.org/ns#"
   xmlns:rdf="http://www.w3.org/1999/02/22-rdf-syntax-ns#"
   xmlns:svg="http://www.w3.org/2000/svg"
   xmlns="http://www.w3.org/2000/svg"
   xmlns:sodipodi="http://sodipodi.sourceforge.net/DTD/sodipodi-0.dtd"
   xmlns:inkscape="http://www.inkscape.org/namespaces/inkscape"
   sodipodi:docname="docker.svg"
   inkscape:version="1.0 (4035a4fb49, 2020-05-01)"
   id="svg933"
   version="1.1"
   viewBox="0 0 189.05563 135.66228"
   height="135.66228mm"
   width="189.05563mm">
  <defs
     id="defs927" />
  <sodipodi:namedview
     inkscape:window-maximized="1"
     inkscape:window-y="-9"
     inkscape:window-x="-9"
     inkscape:window-height="1001"
     inkscape:window-width="1920"
     fit-margin-bottom="0"
     fit-margin-right="0"
     fit-margin-left="0"
     fit-margin-top="0"
     showgrid="false"
     inkscape:document-rotation="0"
     inkscape:current-layer="layer1"
     inkscape:document-units="mm"
     inkscape:cy="399.2268"
     inkscape:cx="359.93675"
     inkscape:zoom="0.35"
     inkscape:pageshadow="2"
     inkscape:pageopacity="0.0"
     borderopacity="1.0"
     bordercolor="#666666"
     pagecolor="#ffffff"
     id="base" />
  <metadata
     id="metadata930">
    <rdf:RDF>
      <cc:Work
         rdf:about="">
        <dc:format>image/svg+xml</dc:format>
        <dc:type
           rdf:resource="http://purl.org/dc/dcmitype/StillImage" />
        <dc:title></dc:title>
      </cc:Work>
    </rdf:RDF>
  </metadata>
  <g
     transform="translate(-10.600068,-42.53791)"
     id="layer1"
     inkscape:groupmode="layer"
     inkscape:label="Layer 1">
    <g
       style="fill:#007bff;fill-opacity:1"
       transform="translate(215.44643,-9.827381)"
       id="g1026">
      <path
         d="m -17.655242,103.57725 c -0.512762,-0.4072 -5.299339,-4.021405 -15.393722,-4.021405 -2.665413,0.01164 -5.325269,0.240241 -7.95364,0.683685 C -42.956287,86.848436 -54.027512,80.319578 -54.52387,80.026684 l -2.710656,-1.563158 -1.782763,2.572544 c -2.232554,3.455723 -3.862387,7.265193 -4.819121,11.266487 -1.807368,7.644077 -0.708289,14.823813 3.174736,20.961883 -4.688946,2.61302 -12.210786,3.25622 -13.732933,3.31311 H -198.92842 c -3.25279,0.004 -5.89228,2.63313 -5.91,5.88565 -0.14526,10.90983 1.70312,21.75458 5.45412,32.0003 4.28995,11.25035 10.67223,19.53736 18.97565,24.6089 9.3046,5.69833 24.42157,8.95455 41.55731,8.95455 7.74118,0.0243 15.46781,-0.67627 23.07855,-2.09206 10.57962,-1.94257 20.759997,-5.64038 30.119897,-10.94105 7.71234,-4.46616 14.653419,-10.14783 20.55495,-16.82644 9.866312,-11.16885 15.744031,-23.60771 20.115212,-34.66227 0.586052,0 1.172369,0 1.742017,0 10.802408,0 17.445302,-4.32276 21.108458,-7.94517 2.434431,-2.31034 4.334933,-5.12471 5.568156,-8.24627 l 0.773377,-2.26298 z"
         id="path951"
         style="fill:#007bff;fill-opacity:1;stroke-width:0.264583" />
      <path
         d="m -187.38518,112.9308 h 16.68806 c 0.80486,0 1.45706,-0.65247 1.45706,-1.45706 v 0 -14.864825 c 0.005,-0.804862 -0.64426,-1.460764 -1.44886,-1.465262 -0.003,0 -0.006,0 -0.008,0 h -16.68806 c -0.80487,0 -1.45706,0.652462 -1.45706,1.45706 0,0.0026 0,0.0056 0,0.0082 v 14.864557 c 0,0.80486 0.65219,1.45733 1.45706,1.45733 v 0"
         id="path953"
         style="fill:#007bff;fill-opacity:1;stroke-width:0.264583" />
      <path
         d="m -164.38813,112.9308 h 16.68807 c 0.80486,0 1.45706,-0.65247 1.45706,-1.45706 v 0 -14.864825 c 0.004,-0.804862 -0.64426,-1.460764 -1.44913,-1.465262 -0.003,0 -0.006,0 -0.008,0 h -16.68806 c -0.80936,0 -1.46527,0.655902 -1.46527,1.465262 v 14.864555 c 0.005,0.80619 0.65935,1.45733 1.46553,1.45733"
         id="path955"
         style="fill:#007bff;fill-opacity:1;stroke-width:0.264583" />
      <path
         d="m -141.0413,112.9308 h 16.68807 c 0.80486,0 1.45706,-0.65247 1.45706,-1.45706 v 0 -14.864825 c 0.004,-0.804862 -0.64426,-1.460764 -1.44912,-1.465262 -0.003,0 -0.006,0 -0.008,0 h -16.68806 c -0.80486,0 -1.45706,0.652462 -1.45706,1.45706 0,0.0026 0,0.0056 0,0.0082 v 14.864557 c 2.6e-4,0.80486 0.65273,1.45733 1.45732,1.45733 v 0"
         id="path957"
         style="fill:#007bff;fill-opacity:1;stroke-width:0.264583" />
      <path
         d="m -117.97095,112.9308 h 16.68806 c 0.80619,0 1.460766,-0.65088 1.465264,-1.45706 V 96.608915 c 0,-0.80936 -0.655904,-1.465262 -1.465264,-1.465262 v 0 h -16.68806 c -0.80487,0 -1.45706,0.652462 -1.45706,1.45706 0,0.0026 0,0.0056 0,0.0082 v 14.864557 c 0,0.80486 0.65246,1.45733 1.45706,1.45733 v 0"
         id="path959"
         style="fill:#007bff;fill-opacity:1;stroke-width:0.264583" />
      <path
         d="m -164.38813,91.545584 h 16.68807 c 0.80592,-0.0045 1.45706,-0.659341 1.45706,-1.465262 V 75.215766 c 0,-0.804863 -0.65247,-1.457061 -1.45706,-1.457061 v 0 h -16.68807 c -0.80592,0 -1.46076,0.650875 -1.46526,1.457061 v 14.864556 c 0.004,0.807508 0.65775,1.460764 1.46526,1.465262"
         id="path961"
         style="fill:#007bff;fill-opacity:1;stroke-width:0.264583" />
      <path
         d="m -141.0413,91.545584 h 16.68807 c 0.80592,-0.0045 1.45706,-0.659341 1.45706,-1.465262 V 75.215766 c 0,-0.804863 -0.65246,-1.457061 -1.45706,-1.457061 v 0 h -16.68807 c -0.80486,0 -1.45706,0.652463 -1.45706,1.457061 v 0 14.864556 c 0,0.805921 0.65114,1.460764 1.45706,1.465262"
         id="path963"
         style="fill:#007bff;fill-opacity:1;stroke-width:0.264583" />
      <path
         d="m -117.97095,91.545584 h 16.68806 c 0.80751,-0.0045 1.460766,-0.657754 1.465264,-1.465262 V 75.215766 c -0.0045,-0.806186 -0.659074,-1.457061 -1.465264,-1.457061 h -16.68806 c -0.80487,0 -1.45706,0.652463 -1.45706,1.457061 v 0 14.864556 c 0,0.805921 0.65114,1.460764 1.45706,1.465262"
         id="path965"
         style="fill:#007bff;fill-opacity:1;stroke-width:0.264583" />
      <path
         d="m -117.97095,70.152435 h 16.68806 c 0.80619,0 1.460766,-0.65114 1.465264,-1.457061 V 53.822351 c -0.0045,-0.806185 -0.659074,-1.45706 -1.465264,-1.45706 h -16.68806 c -0.80487,0 -1.45706,0.652198 -1.45706,1.45706 v 0 14.872759 c 0,0.804862 0.65246,1.457325 1.45706,1.457325"
         id="path967"
         style="fill:#007bff;fill-opacity:1;stroke-width:0.264583" />
      <path
         d="m -94.697145,112.9308 h 16.688065 c 0.806185,0 1.460764,-0.65088 1.465262,-1.45706 V 96.608915 c 0,-0.80936 -0.655902,-1.465262 -1.465262,-1.465262 v 0 h -16.688065 c -0.804598,0 -1.45706,0.652462 -1.45706,1.45706 0,0.0026 0,0.0056 0,0.0082 v 14.864557 c 0,0.80486 0.652462,1.45733 1.45706,1.45733"
         id="path969"
         style="fill:#007bff;fill-opacity:1;stroke-width:0.264583" />
    </g>
  </g>
</svg>
