<?xml version="1.0" encoding="UTF-8" standalone="no"?>
<svg
   xmlns:dc="http://purl.org/dc/elements/1.1/"
   xmlns:cc="http://creativecommons.org/ns#"
   xmlns:rdf="http://www.w3.org/1999/02/22-rdf-syntax-ns#"
   xmlns:svg="http://www.w3.org/2000/svg"
   xmlns="http://www.w3.org/2000/svg"
   xmlns:sodipodi="http://sodipodi.sourceforge.net/DTD/sodipodi-0.dtd"
   xmlns:inkscape="http://www.inkscape.org/namespaces/inkscape"
   sodipodi:docname="googledomains.svg"
   inkscape:version="1.0 (4035a4fb49, 2020-05-01)"
   id="svg8"
   version="1.1"
   viewBox="0 0 35.206299 32.809288"
   height="32.809288mm"
   width="35.206299mm">
  <defs
     id="defs2" />
  <sodipodi:namedview
     inkscape:window-maximized="1"
     inkscape:window-y="-9"
     inkscape:window-x="-9"
     inkscape:window-height="1001"
     inkscape:window-width="1920"
     fit-margin-bottom="0"
     fit-margin-right="0"
     fit-margin-left="0"
     fit-margin-top="0"
     showgrid="false"
     inkscape:document-rotation="0"
     inkscape:current-layer="layer1"
     inkscape:document-units="mm"
     inkscape:cy="78.331015"
     inkscape:cx="28.607678"
     inkscape:zoom="1.979899"
     inkscape:pageshadow="2"
     inkscape:pageopacity="0.0"
     borderopacity="1.0"
     bordercolor="#666666"
     pagecolor="#ffffff"
     id="base" />
  <metadata
     id="metadata5">
    <rdf:RDF>
      <cc:Work
         rdf:about="">
        <dc:format>image/svg+xml</dc:format>
        <dc:type
           rdf:resource="http://purl.org/dc/dcmitype/StillImage" />
        <dc:title></dc:title>
      </cc:Work>
    </rdf:RDF>
  </metadata>
  <g
     transform="translate(-13.542089,-87.916787)"
     id="layer1"
     inkscape:groupmode="layer"
     inkscape:label="Layer 1">
    <g
       id="g930">
      <path
         d="m 47.531306,87.916787 c 0.661458,0 1.217083,0.529167 1.217083,1.217083 0,0.15875 -0.02646,0.3175 -0.105833,0.47625 l -12.276667,29.34229 c -0.47625,1.08479 -1.534583,1.77271 -2.69875,1.77271 h -8.387291 c -0.661458,0.0265 -1.217083,-0.50271 -1.217083,-1.16417 0,-0.15875 0.02646,-0.34396 0.07938,-0.47625 l 0.9525,-2.30187 2.090208,-12.22375 6.085416,-7.408335 3.122084,-7.46125 c 0.47625,-1.084791 1.322916,-1.772708 2.513541,-1.772708 z"
         fill="#4285f4"
         id="path861"
         style="stroke-width:0.264583" />
      <path
         d="m 33.349639,97.018454 c -4.577291,-4.524375 -11.959166,-4.445 -16.457083,0.132291 -4.497916,4.577295 -4.471458,11.932705 0.105834,16.457085 2.143125,2.11666 5.027083,3.30729 8.043333,3.36021 0.02646,-0.0794 5.635625,-8.89 5.635625,-8.89 0,0 2.672291,-11.059586 2.672291,-11.059586 z"
         fill="#fbbc04"
         id="path863"
         style="stroke-width:0.264583" />
      <path
         d="m 33.349639,97.018454 c 0,0 -8.307916,19.923126 -8.307916,19.923126 h 0.291042 c 6.402916,-0.0529 11.562291,-5.29167 11.535833,-11.69458 -0.02646,-3.09563 -1.296459,-6.058963 -3.518959,-8.228546 z"
         fill="#ea4335"
         id="path865"
         style="stroke-width:0.264583" />
    </g>
  </g>
</svg>
