<?xml version="1.0" encoding="UTF-8" standalone="no"?>
<svg
   xmlns:dc="http://purl.org/dc/elements/1.1/"
   xmlns:cc="http://creativecommons.org/ns#"
   xmlns:rdf="http://www.w3.org/1999/02/22-rdf-syntax-ns#"
   xmlns:svg="http://www.w3.org/2000/svg"
   xmlns="http://www.w3.org/2000/svg"
   xmlns:sodipodi="http://sodipodi.sourceforge.net/DTD/sodipodi-0.dtd"
   xmlns:inkscape="http://www.inkscape.org/namespaces/inkscape"
   sodipodi:docname="letsencrypt.svg"
   inkscape:version="1.0 (4035a4fb49, 2020-05-01)"
   id="svg8"
   version="1.1"
   viewBox="0 0 16.689653 17.690571"
   height="17.690571mm"
   width="16.689653mm">
  <defs
     id="defs2" />
  <sodipodi:namedview
     inkscape:window-maximized="1"
     inkscape:window-y="-9"
     inkscape:window-x="-9"
     inkscape:window-height="1001"
     inkscape:window-width="1920"
     fit-margin-bottom="0"
     fit-margin-right="0"
     fit-margin-left="0"
     fit-margin-top="0"
     showgrid="false"
     inkscape:document-rotation="0"
     inkscape:current-layer="layer1"
     inkscape:document-units="mm"
     inkscape:cy="64.674769"
     inkscape:cx="382.97472"
     inkscape:zoom="1.01"
     inkscape:pageshadow="2"
     inkscape:pageopacity="0.0"
     borderopacity="1.0"
     bordercolor="#666666"
     pagecolor="#ffffff"
     id="base" />
  <metadata
     id="metadata5">
    <rdf:RDF>
      <cc:Work
         rdf:about="">
        <dc:format>image/svg+xml</dc:format>
        <dc:type
           rdf:resource="http://purl.org/dc/dcmitype/StillImage" />
        <dc:title></dc:title>
      </cc:Work>
    </rdf:RDF>
  </metadata>
  <g
     transform="translate(-4.5046063,-131.0548)"
     id="layer1"
     inkscape:groupmode="layer"
     inkscape:label="Layer 1">
    <g
       id="g932">
      <g
         id="svg_16"
         transform="matrix(0.26458333,0,0,0.26458333,4.2585435,130.62988)">
        <path
           id="svg_17"
           d="m 46.488998,37.568001 h -8.039997 v -4.128002 c 0,-3.296997 -2.683002,-5.979 -5.98,-5.979 -3.297001,0 -5.979,2.683002 -5.979,5.979 v 4.128002 H 18.45 v -4.128002 c 0,-7.73 6.288998,-14.019999 14.02,-14.019999 7.731002,0 14.02,6.289 14.02,14.019999 v 4.128002 z"
           fill="#f9a11d" />
      </g>
      <path
         id="svg_18"
         d="M 17.416801,140.56975 H 8.2820622 c -0.3899961,0 -0.7090833,0.31908 -0.7090833,0.70908 v 6.75746 c 0,0.38999 0.3190872,0.70908 0.7090833,0.70908 h 9.1347388 c 0.389997,0 0.709083,-0.31909 0.709083,-0.70908 v -6.75746 c 0,-0.39 -0.319086,-0.70908 -0.709083,-0.70908 z m -4.10448,4.43679 v 0.91573 c 0,0.25558 -0.207434,0.46275 -0.462757,0.46275 -0.255323,0 -0.462756,-0.20743 -0.462756,-0.46275 v -0.91546 c -0.284692,-0.16166 -0.477044,-0.46673 -0.477044,-0.81756 0,-0.51912 0.420952,-0.9398 0.9398,-0.9398 0.519112,0 0.9398,0.42095 0.9398,0.9398 0,0.35057 -0.192353,0.65563 -0.477044,0.8173 z"
         fill="#2c3c69"
         style="stroke-width:0.264583" />
      <path
         id="svg_19"
         d="M 7.3560208,139.56221 H 5.1517771 c -0.3574524,0 -0.6471708,-0.28972 -0.6471708,-0.64717 0,-0.35745 0.2897184,-0.64717 0.6471708,-0.64717 h 2.2042437 c 0.3574521,0 0.6471706,0.28972 0.6471706,0.64717 0,0.35745 -0.2899836,0.64717 -0.6471706,0.64717 z"
         fill="#f9a11d"
         style="stroke-width:0.264583" />
      <path
         id="svg_20"
         d="m 8.9085958,136.09485 c -0.1444628,0 -0.2902479,-0.0482 -0.4106333,-0.14737 L 6.7543583,134.5137 c -0.2759607,-0.22701 -0.3159125,-0.63474 -0.088636,-0.91096 0.2270125,-0.27596 0.6347354,-0.31591 0.9109607,-0.0889 l 1.7436042,1.43378 c 0.2759601,0.22701 0.3159124,0.63473 0.088635,0.91096 -0.1277937,0.15584 -0.3132667,0.23627 -0.5003264,0.23627 z"
         fill="#f9a11d"
         style="stroke-width:0.264583" />
      <path
         id="svg_21"
         d="m 12.8493,134.57085 c -0.357452,0 -0.647171,-0.28972 -0.647171,-0.64717 v -2.22171 c 0,-0.35745 0.289719,-0.64717 0.647171,-0.64717 0.357453,0 0.647171,0.28972 0.647171,0.64717 v 2.22171 c 0,0.35745 -0.289719,0.64717 -0.647171,0.64717 z"
         fill="#f9a11d"
         style="stroke-width:0.264583" />
      <g
         id="svg_22"
         transform="matrix(0.26458333,0,0,0.26458333,4.2585435,130.62988)">
        <g
           id="svg_23">
          <path
             id="svg_24"
             d="M 47.362999,20.655001 C 46.655998,20.655001 45.956001,20.351 45.472,19.761999 44.613998,18.719 44.764,17.177 45.806999,16.319 l 6.59,-5.419001 c 1.044003,-0.858 2.585003,-0.706999 3.442997,0.336 0.858002,1.042999 0.708,2.584999 -0.334999,3.443001 l -6.589996,5.418999 C 48.459999,20.472999 47.91,20.655 47.362999,20.655001 Z"
             fill="#f9a11d" />
        </g>
      </g>
      <path
         id="svg_25"
         d="m 20.547088,139.56221 h -2.225147 c -0.357452,0 -0.64717,-0.28972 -0.64717,-0.64717 0,-0.35745 0.289718,-0.64717 0.64717,-0.64717 h 2.225147 c 0.357452,0 0.647171,0.28972 0.647171,0.64717 0,0.35745 -0.289719,0.64717 -0.647171,0.64717 z"
         fill="#f9a11d"
         style="stroke-width:0.264583" />
    </g>
  </g>
</svg>
