<svg xmlns="http://www.w3.org/2000/svg" height="511.99994pt" version="1.1" viewBox="1 1 511.99994 511.99994" width="511.99994pt">
<g id="surface1">
<path d="M 476.691406 0 L 35.308594 0 C 15.808594 0 0 15.808594 0 35.308594 L 0 476.691406 C 0 496.191406 15.808594 512 35.308594 512 L 476.691406 512 C 496.191406 512 512 496.191406 512 476.691406 L 512 35.308594 C 512 15.808594 496.191406 0 476.691406 0 Z M 97.105469 264.828125 C 77.601562 264.828125 61.792969 249.019531 61.792969 229.519531 C 61.792969 210.015625 77.601562 194.207031 97.105469 194.207031 C 116.605469 194.207031 132.414062 210.015625 132.414062 229.519531 C 132.414062 249.019531 116.605469 264.828125 97.105469 264.828125 Z M 97.105469 132.414062 C 77.601562 132.414062 61.792969 116.605469 61.792969 97.105469 C 61.792969 77.601562 77.601562 61.792969 97.105469 61.792969 C 116.605469 61.792969 132.414062 77.601562 132.414062 97.105469 C 132.414062 116.605469 116.605469 132.414062 97.105469 132.414062 Z M 459.035156 459.035156 L 194.207031 459.035156 L 194.207031 52.964844 L 459.035156 52.964844 Z M 459.035156 459.035156 " style=" stroke:none;fill-rule:nonzero;fill:rgb(67.45098%,67.058824%,69.411765%);fill-opacity:1;" />
<path d="M 370.757812 459.035156 L 459.035156 459.035156 L 459.035156 52.964844 L 370.757812 52.964844 Z M 370.757812 459.035156 " style=" stroke:none;fill-rule:nonzero;fill:rgb(87.843137%,87.843137%,88.627451%);fill-opacity:1;" />
<path d="M 282.484375 52.964844 L 282.484375 459.035156 L 370.757812 459.035156 L 370.757812 52.964844 Z M 282.484375 52.964844 " style=" stroke:none;fill-rule:nonzero;fill:rgb(87.843137%,87.843137%,88.627451%);fill-opacity:1;" />
<path d="M 194.207031 52.964844 L 194.207031 459.035156 L 282.480469 459.035156 L 282.480469 52.964844 Z M 194.207031 52.964844 " style=" stroke:none;fill-rule:nonzero;fill:rgb(87.843137%,87.843137%,88.627451%);fill-opacity:1;" />
<path d="M 132.414062 97.105469 C 132.414062 116.605469 116.605469 132.414062 97.105469 132.414062 C 77.601562 132.414062 61.792969 116.605469 61.792969 97.105469 C 61.792969 77.601562 77.601562 61.792969 97.105469 61.792969 C 116.605469 61.792969 132.414062 77.601562 132.414062 97.105469 Z M 132.414062 97.105469 " style=" stroke:none;fill-rule:nonzero;fill:rgb(14.117647%,53.333333%,100%);fill-opacity:1;" />
<path d="M 132.414062 229.519531 C 132.414062 249.019531 116.605469 264.828125 97.105469 264.828125 C 77.601562 264.828125 61.792969 249.019531 61.792969 229.519531 C 61.792969 210.015625 77.601562 194.207031 97.105469 194.207031 C 116.605469 194.207031 132.414062 210.015625 132.414062 229.519531 Z M 132.414062 229.519531 " style=" stroke:none;fill-rule:nonzero;fill:rgb(14.117647%,53.333333%,100%);fill-opacity:1;" />
<path d="M 379.585938 459.035156 L 361.929688 459.035156 L 361.929688 441.378906 L 379.585938 441.378906 Z M 379.585938 423.722656 L 361.929688 423.722656 L 361.929688 406.070312 L 379.585938 406.070312 Z M 379.585938 388.414062 L 361.929688 388.414062 L 361.929688 370.757812 L 379.585938 370.757812 Z M 379.585938 353.101562 L 361.929688 353.101562 L 361.929688 335.449219 L 379.585938 335.449219 Z M 379.585938 317.792969 L 361.929688 317.792969 L 361.929688 300.136719 L 379.585938 300.136719 Z M 379.585938 282.484375 L 361.929688 282.484375 L 361.929688 264.828125 L 379.585938 264.828125 Z M 379.585938 247.171875 L 361.929688 247.171875 L 361.929688 229.515625 L 379.585938 229.515625 Z M 379.585938 211.863281 L 361.929688 211.863281 L 361.929688 194.207031 L 379.585938 194.207031 Z M 379.585938 176.550781 L 361.929688 176.550781 L 361.929688 158.898438 L 379.585938 158.898438 Z M 379.585938 141.242188 L 361.929688 141.242188 L 361.929688 123.585938 L 379.585938 123.585938 Z M 379.585938 105.929688 L 361.929688 105.929688 L 361.929688 88.277344 L 379.585938 88.277344 Z M 379.585938 70.621094 L 361.929688 70.621094 L 361.929688 52.964844 L 379.585938 52.964844 Z M 379.585938 70.621094 " style=" stroke:none;fill-rule:nonzero;fill:rgb(12.941176%,25.098039%,60.392157%);fill-opacity:1;" />
<path d="M 291.308594 459.035156 L 273.65625 459.035156 L 273.65625 441.378906 L 291.308594 441.378906 Z M 291.308594 423.722656 L 273.65625 423.722656 L 273.65625 406.070312 L 291.308594 406.070312 Z M 291.308594 388.414062 L 273.65625 388.414062 L 273.65625 370.757812 L 291.308594 370.757812 Z M 291.308594 353.101562 L 273.65625 353.101562 L 273.65625 335.449219 L 291.308594 335.449219 Z M 291.308594 317.792969 L 273.65625 317.792969 L 273.65625 300.136719 L 291.308594 300.136719 Z M 291.308594 282.484375 L 273.65625 282.484375 L 273.65625 264.828125 L 291.308594 264.828125 Z M 291.308594 247.171875 L 273.65625 247.171875 L 273.65625 229.515625 L 291.308594 229.515625 Z M 291.308594 211.863281 L 273.65625 211.863281 L 273.65625 194.207031 L 291.308594 194.207031 Z M 291.308594 176.550781 L 273.65625 176.550781 L 273.65625 158.898438 L 291.308594 158.898438 Z M 291.308594 141.242188 L 273.65625 141.242188 L 273.65625 123.585938 L 291.308594 123.585938 Z M 291.308594 105.929688 L 273.65625 105.929688 L 273.65625 88.277344 L 291.308594 88.277344 Z M 291.308594 70.621094 L 273.65625 70.621094 L 273.65625 52.964844 L 291.308594 52.964844 Z M 291.308594 70.621094 " style=" stroke:none;fill-rule:nonzero;fill:rgb(12.941176%,25.098039%,60.392157%);fill-opacity:1;" />
<path d="M 229.519531 79.449219 L 247.171875 79.449219 L 247.171875 132.414062 L 229.519531 132.414062 Z M 229.519531 79.449219 " style=" stroke:none;fill-rule:nonzero;fill:rgb(14.117647%,53.333333%,100%);fill-opacity:1;" />
<path d="M 317.792969 79.449219 L 335.449219 79.449219 L 335.449219 132.414062 L 317.792969 132.414062 Z M 317.792969 79.449219 " style=" stroke:none;fill-rule:nonzero;fill:rgb(14.117647%,53.333333%,100%);fill-opacity:1;" />
<path d="M 406.070312 79.449219 L 423.722656 79.449219 L 423.722656 132.414062 L 406.070312 132.414062 Z M 406.070312 79.449219 " style=" stroke:none;fill-rule:nonzero;fill:rgb(14.117647%,53.333333%,100%);fill-opacity:1;" />
</g>
</svg>