<?xml version="1.0" encoding="UTF-8" standalone="no"?>
<svg
   xmlns:dc="http://purl.org/dc/elements/1.1/"
   xmlns:cc="http://creativecommons.org/ns#"
   xmlns:rdf="http://www.w3.org/1999/02/22-rdf-syntax-ns#"
   xmlns:svg="http://www.w3.org/2000/svg"
   xmlns="http://www.w3.org/2000/svg"
   xmlns:sodipodi="http://sodipodi.sourceforge.net/DTD/sodipodi-0.dtd"
   xmlns:inkscape="http://www.inkscape.org/namespaces/inkscape"
   sodipodi:docname="nginx.svg"
   inkscape:version="1.0 (4035a4fb49, 2020-05-01)"
   id="svg8"
   version="1.1"
   viewBox="0 0 46.169792 52.453644"
   height="52.453644mm"
   width="46.169792mm">
  <defs
     id="defs2" />
  <sodipodi:namedview
     inkscape:window-maximized="1"
     inkscape:window-y="-9"
     inkscape:window-x="-9"
     inkscape:window-height="1001"
     inkscape:window-width="1920"
     fit-margin-bottom="0"
     fit-margin-right="0"
     fit-margin-left="0"
     fit-margin-top="0"
     showgrid="false"
     inkscape:document-rotation="0"
     inkscape:current-layer="layer1"
     inkscape:document-units="mm"
     inkscape:cy="224.83928"
     inkscape:cx="316.01428"
     inkscape:zoom="1"
     inkscape:pageshadow="2"
     inkscape:pageopacity="0.0"
     borderopacity="1.0"
     bordercolor="#666666"
     pagecolor="#ffffff"
     id="base" />
  <metadata
     id="metadata5">
    <rdf:RDF>
      <cc:Work
         rdf:about="">
        <dc:format>image/svg+xml</dc:format>
        <dc:type
           rdf:resource="http://purl.org/dc/dcmitype/StillImage" />
        <dc:title></dc:title>
      </cc:Work>
    </rdf:RDF>
  </metadata>
  <g
     transform="translate(-22.221221,-56.927939)"
     id="layer1"
     inkscape:groupmode="layer"
     inkscape:label="Layer 1">
    <g
       id="g911">
      <path
         class="st2"
         d="m 22.591638,96.278095 c 0.238125,0.423333 0.582083,0.740833 1.005416,0.978958 l 20.372917,11.747497 v 0 c 0.846666,0.50271 1.878541,0.50271 2.69875,0 L 67.041637,97.257053 c 0.846667,-0.47625 1.349375,-1.375833 1.349375,-2.354791 v -23.495 0 c 0,-0.978958 -0.502708,-1.878541 -1.349375,-2.354791 l -20.372916,-11.7475 v 0 c -0.846667,-0.502709 -1.878542,-0.502709 -2.69875,0 v 0 l -20.372917,11.7475 c -0.873125,0.47625 -1.375833,1.375833 -1.375833,2.354791 v 0 23.521458 c 0,0.47625 0.105833,0.926042 0.370417,1.349375"
         id="path861"
         style="stroke-width:0.264583" />
      <path
         class="st1"
         d="m 38.784137,92.124137 c 0,1.455208 -1.164166,2.619375 -2.619375,2.619375 -1.455208,0 -2.619374,-1.164167 -2.619374,-2.619375 v 0 -17.965208 c 0,-1.402292 1.243541,-2.54 2.963333,-2.54 1.243541,0 2.69875,0.502708 3.571875,1.5875 l 0.79375,0.9525 10.95375,13.096875 v -13.043959 0 c 0,-1.455208 1.164166,-2.619375 2.619375,-2.619375 1.455208,0 2.619375,1.164167 2.619375,2.619375 v 0 17.965209 c 0,1.402291 -1.243542,2.54 -2.963334,2.54 -1.243541,0 -2.69875,-0.502709 -3.571875,-1.5875 l -11.7475,-14.022917 z"
         id="path863"
         style="stroke-width:0.264583" />
    </g>
  </g>
  <style
     type="text/css"
     id="style833">
	.st0{fill:#999999;}
	.st1{fill:#FFFFFF;}
	.st2{fill:#009639;}
</style>
</svg>
