<?xml version="1.0" encoding="UTF-8" standalone="no"?>
<svg
   xmlns:dc="http://purl.org/dc/elements/1.1/"
   xmlns:cc="http://creativecommons.org/ns#"
   xmlns:rdf="http://www.w3.org/1999/02/22-rdf-syntax-ns#"
   xmlns:svg="http://www.w3.org/2000/svg"
   xmlns="http://www.w3.org/2000/svg"
   xmlns:sodipodi="http://sodipodi.sourceforge.net/DTD/sodipodi-0.dtd"
   xmlns:inkscape="http://www.inkscape.org/namespaces/inkscape"
   sodipodi:docname="quarkus.svg"
   inkscape:version="1.0 (4035a4fb49, 2020-05-01)"
   id="svg8"
   version="1.1"
   viewBox="0 0 50.588333 50.593632"
   height="50.593632mm"
   width="50.588333mm">
  <defs
     id="defs2" />
  <sodipodi:namedview
     inkscape:window-maximized="1"
     inkscape:window-y="-9"
     inkscape:window-x="-9"
     inkscape:window-height="1001"
     inkscape:window-width="1920"
     fit-margin-bottom="0"
     fit-margin-right="0"
     fit-margin-left="0"
     fit-margin-top="0"
     showgrid="false"
     inkscape:document-rotation="0"
     inkscape:current-layer="layer1"
     inkscape:document-units="mm"
     inkscape:cy="147.03856"
     inkscape:cx="576.14285"
     inkscape:zoom="0.35"
     inkscape:pageshadow="2"
     inkscape:pageopacity="0.0"
     borderopacity="1.0"
     bordercolor="#666666"
     pagecolor="#ffffff"
     id="base" />
  <metadata
     id="metadata5">
    <rdf:RDF>
      <cc:Work
         rdf:about="">
        <dc:format>image/svg+xml</dc:format>
        <dc:type
           rdf:resource="http://purl.org/dc/dcmitype/StillImage" />
        <dc:title></dc:title>
      </cc:Work>
    </rdf:RDF>
  </metadata>
  <g
     transform="translate(46.604462,-109.26271)"
     id="layer1"
     inkscape:groupmode="layer"
     inkscape:label="Layer 1">
    <g
       id="g925">
      <path
         d="m -13.518316,118.15271 -7.789333,4.49527 7.789333,4.49792 z"
         fill="#4695eb"
         id="path849"
         style="stroke-width:0.264583" />
      <path
         d="m -29.096983,118.15271 v 8.99319 l 7.789334,-4.49792 z"
         fill="#ff004a"
         id="path851"
         style="stroke-width:0.264583" />
      <path
         d="m -13.518316,127.1459 -7.789333,-4.49792 -7.789334,4.49792 7.789334,4.49792 z"
         fill="#ffffff"
         id="path853"
         style="stroke-width:0.264583" />
      <path
         d="m -37.309649,132.37671 7.789333,4.49792 v -8.99319 z"
         fill="#4695eb"
         id="path855"
         style="stroke-width:0.264583" />
      <path
         d="m -29.520316,145.86782 7.789333,-4.49527 -7.789333,-4.49792 z"
         fill="#ff004a"
         id="path857"
         style="stroke-width:0.264583" />
      <path
         d="m -29.520316,127.88144 v 8.99319 l 7.789333,4.49792 v -8.99584 z"
         fill="#ffffff"
         id="path859"
         style="stroke-width:0.264583" />
      <path
         d="m -13.094983,145.86782 v -8.99319 l -7.789333,4.49792 z"
         fill="#4695eb"
         id="path861"
         style="stroke-width:0.264583" />
      <path
         d="m -5.3056497,132.37671 -7.7893333,-4.49527 v 8.99319 z"
         fill="#ff004a"
         id="path863"
         style="stroke-width:0.264583" />
      <path
         d="m -20.884316,141.37255 7.789333,-4.49792 v -8.99319 l -7.789333,4.49527 z"
         fill="#ffffff"
         id="path865"
         style="stroke-width:0.264583" />
      <path
         d="M -4.4034205,109.26271 H -38.211878 a 8.4163957,8.4163957 0 0 0 -8.392584,8.39259 v 33.80845 a 8.4163957,8.4163957 0 0 0 8.392584,8.39259 h 23.153687 l -6.249458,-15.17915 -4.532313,9.58321 h -12.371916 a 2.8336875,2.8336875 0 0 1 -2.796646,-2.79665 V 117.6553 a 2.8336875,2.8336875 0 0 1 2.796646,-2.79665 h 33.8084575 a 2.8336875,2.8336875 0 0 1 2.7966458,2.79665 v 33.80845 a 2.8336875,2.8336875 0 0 1 -2.7966458,2.79665 h -7.3368955 l 2.3045205,5.59594 h 5.0270833 A 8.4163957,8.4163957 0 0 0 3.983871,151.46375 V 117.6553 a 8.4163957,8.4163957 0 0 0 -8.3872915,-8.39259 z"
         fill="#4695eb"
         id="path867"
         style="stroke-width:0.264583" />
    </g>
  </g>
</svg>
