<?xml version="1.0" encoding="UTF-8" standalone="no"?>
<!-- Created with Inkscape (http://www.inkscape.org/) -->

<svg
   xmlns:dc="http://purl.org/dc/elements/1.1/"
   xmlns:cc="http://creativecommons.org/ns#"
   xmlns:rdf="http://www.w3.org/1999/02/22-rdf-syntax-ns#"
   xmlns:svg="http://www.w3.org/2000/svg"
   xmlns="http://www.w3.org/2000/svg"
   xmlns:sodipodi="http://sodipodi.sourceforge.net/DTD/sodipodi-0.dtd"
   xmlns:inkscape="http://www.inkscape.org/namespaces/inkscape"
   width="135.46667mm"
   height="118.53339mm"
   viewBox="0 0 135.46667 118.53339"
   version="1.1"
   id="svg8"
   inkscape:version="0.92.4 (5da689c313, 2019-01-14)"
   sodipodi:docname="scheduled.svg">
  <defs
     id="defs2" />
  <sodipodi:namedview
     id="base"
     pagecolor="#ffffff"
     bordercolor="#666666"
     borderopacity="1.0"
     inkscape:pageopacity="0.0"
     inkscape:pageshadow="2"
     inkscape:zoom="0.35"
     inkscape:cx="-124.00001"
     inkscape:cy="-44.571307"
     inkscape:document-units="mm"
     inkscape:current-layer="layer1"
     showgrid="false"
     fit-margin-top="0"
     fit-margin-left="0"
     fit-margin-right="0"
     fit-margin-bottom="0"
     inkscape:window-width="1920"
     inkscape:window-height="986"
     inkscape:window-x="-11"
     inkscape:window-y="-11"
     inkscape:window-maximized="1" />
  <metadata
     id="metadata5">
    <rdf:RDF>
      <cc:Work
         rdf:about="">
        <dc:format>image/svg+xml</dc:format>
        <dc:type
           rdf:resource="http://purl.org/dc/dcmitype/StillImage" />
        <dc:title></dc:title>
      </cc:Work>
    </rdf:RDF>
  </metadata>
  <g
     inkscape:label="Layer 1"
     inkscape:groupmode="layer"
     id="layer1"
     transform="translate(-6.3500017,-18.507112)">
    <g
       id="g828"
       transform="matrix(-0.24579803,0,0,0.24579803,141.81667,10.040599)">
      <path
         id="path815"
         d="m 275.531,172.228 -0.05,120.493 c 0,4.575 1.816,8.948 5.046,12.177 l 86.198,86.181 24.354,-24.354 -81.153,-81.136 0.05,-113.361 z"
         inkscape:connector-curvature="0" />
      <path
         id="path817"
         d="m 310.011,34.445 c -121.23,0 -221.563,90.033 -238.367,206.674 H 0 l 86.114,86.114 86.114,-86.114 h -65.78 C 122.925,143.53 207.803,68.891 310.011,68.891 c 113.966,0 206.674,92.707 206.674,206.674 0,113.967 -92.707,206.674 -206.674,206.674 -64.064,0 -123.469,-28.996 -162.978,-79.555 l -27.146,21.192 c 46.084,58.968 115.379,92.808 190.124,92.808 132.955,0 241.119,-108.181 241.119,-241.119 0,-132.938 -108.164,-241.119 -241.119,-241.12 z"
         inkscape:connector-curvature="0" />
    </g>
  </g>
</svg>
