<?xml version="1.0" encoding="UTF-8" standalone="no"?>
<!-- Created with Inkscape (http://www.inkscape.org/) -->

<svg
   xmlns:dc="http://purl.org/dc/elements/1.1/"
   xmlns:cc="http://creativecommons.org/ns#"
   xmlns:rdf="http://www.w3.org/1999/02/22-rdf-syntax-ns#"
   xmlns:svg="http://www.w3.org/2000/svg"
   xmlns="http://www.w3.org/2000/svg"
   xmlns:sodipodi="http://sodipodi.sourceforge.net/DTD/sodipodi-0.dtd"
   xmlns:inkscape="http://www.inkscape.org/namespaces/inkscape"
   width="167.68727mm"
   height="80.433556mm"
   viewBox="0 0 167.68727 80.433556"
   version="1.1"
   id="svg8"
   inkscape:version="0.92.4 (5da689c313, 2019-01-14)"
   sodipodi:docname="image.svg">
  <defs
     id="defs2" />
  <sodipodi:namedview
     id="base"
     pagecolor="#ffffff"
     bordercolor="#666666"
     borderopacity="1.0"
     inkscape:pageopacity="0.0"
     inkscape:pageshadow="2"
     inkscape:zoom="0.98994949"
     inkscape:cx="614.40181"
     inkscape:cy="56.769424"
     inkscape:document-units="mm"
     inkscape:current-layer="layer1"
     showgrid="false"
     fit-margin-top="0"
     fit-margin-left="0"
     fit-margin-right="0"
     fit-margin-bottom="0"
     inkscape:window-width="1920"
     inkscape:window-height="986"
     inkscape:window-x="-11"
     inkscape:window-y="-11"
     inkscape:window-maximized="1" />
  <metadata
     id="metadata5">
    <rdf:RDF>
      <cc:Work
         rdf:about="">
        <dc:format>image/svg+xml</dc:format>
        <dc:type
           rdf:resource="http://purl.org/dc/dcmitype/StillImage" />
        <dc:title></dc:title>
      </cc:Work>
    </rdf:RDF>
  </metadata>
  <g
     inkscape:label="Layer 1"
     inkscape:groupmode="layer"
     id="layer1"
     transform="translate(-10.810121,-14.252737)">
    <g
       style="fill:#666666;fill-opacity:1"
       id="g914"
       transform="matrix(0.08973874,0,0,0.08973874,102.79069,83.747142)">
      <path
         inkscape:connector-curvature="0"
         d="M 504.1,98.8 V 32.9 h 20.2 c 10.1,0 18.2,3 24.3,9.2 6.1,6.1 9.1,14 9.1,23.8 0,9.8 -3,17.7 -9.1,23.8 -6.1,6.1 -14.2,9.2 -24.3,9.2 h -20.2 z m 8.5,-8.1 h 11.7 c 7.6,0 13.6,-2.2 18.1,-6.5 4.5,-4.3 6.7,-10.5 6.7,-18.3 0,-7.8 -2.2,-13.9 -6.7,-18.3 C 537.9,43.2 531.8,41 524.2,41 h -11.7 v 49.7 z"
         id="path888"
         style="fill:#666666;fill-opacity:1" />
      <path
         inkscape:connector-curvature="0"
         d="m 568.8,59.1 c 9.2,-9.1 24.1,-9.1 33.3,0 4.4,4.6 6.7,10.8 6.5,17.2 0.2,6.4 -2.2,12.5 -6.6,17.2 -9.2,9.1 -24.1,9.1 -33.3,0 -4.4,-4.6 -6.7,-10.8 -6.5,-17.2 -0.1,-6.4 2.2,-12.6 6.6,-17.2 z m 6.3,29 c 5.4,5.7 14.4,6 20.1,0.6 0.2,-0.2 0.4,-0.4 0.6,-0.6 2.9,-3 4.4,-6.9 4.4,-11.8 0,-4.9 -1.5,-8.8 -4.4,-11.8 -5.4,-5.7 -14.4,-6 -20.1,-0.6 -0.2,0.2 -0.4,0.4 -0.6,0.6 -2.9,3 -4.4,6.9 -4.4,11.8 0.1,4.9 1.5,8.8 4.4,11.8 z"
         id="path890"
         style="fill:#666666;fill-opacity:1" />
      <path
         inkscape:connector-curvature="0"
         d="M 614.7,98.8 V 53.7 h 8.1 V 60 h 0.3 c 1.5,-2.3 3.6,-4.2 6,-5.5 2.4,-1.4 5.2,-2.2 8,-2.2 7,0 11.7,2.9 14.3,8.6 3.3,-5.5 9.3,-8.8 15.7,-8.6 5.3,0 9.4,1.7 12.1,5.1 2.7,3.4 4,8 4,13.8 v 27.6 h -8.5 V 72.5 c 0,-4.5 -0.8,-7.8 -2.5,-9.7 -1.7,-1.9 -4.2,-2.9 -7.5,-2.9 -3.3,0 -6.3,1.6 -8.2,4.2 -2.2,2.7 -3.4,6.2 -3.3,9.7 v 24.9 h -8.5 V 72.5 c 0,-4.5 -0.8,-7.8 -2.5,-9.7 -1.7,-1.9 -4.2,-2.9 -7.5,-2.9 -3.3,0 -6.3,1.6 -8.2,4.2 -2.2,2.8 -3.3,6.2 -3.3,9.7 v 24.9 h -8.5 z"
         id="path892"
         style="fill:#666666;fill-opacity:1" />
      <path
         inkscape:connector-curvature="0"
         d="m 705.4,100.3 c -4.4,0.1 -8.6,-1.3 -12,-4.1 -3.2,-2.7 -5,-6.8 -4.8,-10.9 -0.2,-4.6 2,-8.9 5.7,-11.5 4.1,-2.9 9.1,-4.4 14.1,-4.2 5,0 9,0.9 12.2,2.8 v -1.3 c 0.1,-3 -1.1,-6 -3.4,-8 -2.3,-2 -5.3,-3.1 -8.4,-3 -2.3,0 -4.6,0.6 -6.7,1.8 -1.9,1.1 -3.4,2.8 -4.1,4.8 l -7.7,-3.3 c 1.3,-3 3.5,-5.6 6.2,-7.5 3.1,-2.3 7.1,-3.5 12.1,-3.5 5.8,0 10.6,1.7 14.3,5.1 3.8,3.4 5.7,8.1 5.7,14.3 v 27.3 h -8.1 v -6.3 h -0.4 c -3.2,4.9 -8.2,7.5 -14.7,7.5 z m 1.4,-7.8 c 3.6,0 7,-1.4 9.5,-3.9 2.7,-2.3 4.3,-5.7 4.3,-9.2 -2.4,-2 -6,-3 -10.8,-3 -4.1,0 -7.2,0.9 -9.3,2.7 -1.9,1.5 -3.1,3.8 -3.1,6.3 0,2.1 1,4.1 2.8,5.2 2,1.3 4.3,2 6.6,1.9 z"
         id="path894"
         style="fill:#666666;fill-opacity:1" />
      <path
         inkscape:connector-curvature="0"
         d="m 745.4,42.4 c -2.5,2.2 -6.3,1.9 -8.5,-0.7 -1.9,-2.2 -1.9,-5.6 0,-7.8 2.5,-2.2 6.3,-1.9 8.5,0.7 1.9,2.2 1.9,5.6 0,7.8 z m 0,56.4 h -8.5 V 53.7 h 8.5 z"
         id="path896"
         style="fill:#666666;fill-opacity:1" />
      <path
         inkscape:connector-curvature="0"
         d="M 762.3,53.7 V 60 h 0.4 c 1.4,-2.3 3.4,-4.2 5.8,-5.5 2.6,-1.5 5.5,-2.3 8.5,-2.2 5.6,0 9.8,1.7 12.8,5.2 2.9,3.4 4.4,8 4.4,13.8 v 27.6 h -8.5 V 72.5 C 785.7,64.2 782,60 774.6,60 c -3.4,-0.1 -6.5,1.5 -8.5,4.2 -2.2,2.8 -3.4,6.2 -3.3,9.7 v 24.9 h -8.5 V 53.7 Z"
         id="path898"
         style="fill:#666666;fill-opacity:1" />
      <path
         inkscape:connector-curvature="0"
         d="m 818.7,100.3 c -5,0 -9.2,-1.2 -12.5,-3.7 -3.2,-2.3 -5.7,-5.5 -7.2,-9.2 l 7.5,-3.1 c 2.4,5.6 6.5,8.5 12.2,8.5 2.3,0.1 4.5,-0.5 6.5,-1.7 1.6,-1 2.5,-2.7 2.5,-4.6 0,-2.9 -2.1,-4.9 -6.2,-6 l -9.1,-2.2 c -3,-0.8 -5.8,-2.2 -8.2,-4.2 -2.5,-2 -4,-5.1 -3.9,-8.3 0,-3.9 2,-7.6 5.3,-9.7 3.7,-2.5 8.1,-3.8 12.6,-3.7 3.7,-0.1 7.4,0.9 10.7,2.7 3.1,1.7 5.4,4.5 6.7,7.8 l -7.4,3 c -1.7,-4 -5.1,-6 -10.3,-6 -2.2,-0.1 -4.4,0.5 -6.3,1.6 -1.6,0.8 -2.6,2.5 -2.6,4.2 0,2.6 2,4.3 6,5.2 l 8.9,2.2 c 4.2,1 7.4,2.7 9.4,5.1 2,2.2 3,5.1 3,8.1 0,4 -1.8,7.7 -5,10.1 -3.1,2.5 -7.4,3.9 -12.6,3.9 z"
         id="path900"
         style="fill:#666666;fill-opacity:1" />
      <path
         inkscape:connector-curvature="0"
         d="m 218.8,100.3 c -20.5,0 -37.8,-16.7 -37.8,-37.2 0,-20.5 17.2,-37.2 37.8,-37.2 9.5,-0.2 18.7,3.5 25.5,10.2 l -7.2,7.2 c -4.9,-4.7 -11.5,-7.3 -18.3,-7.2 -14.7,0 -26.7,12 -26.7,26.7 v 0.3 c -0.2,14.7 11.6,26.9 26.3,27.1 h 0.4 c 9.7,0 15.2,-3.9 18.8,-7.4 2.9,-2.9 4.8,-7.1 5.5,-12.8 H 218.5 V 59.7 H 253 c 0.4,2.1 0.6,4.2 0.5,6.4 0,7.6 -2.1,17.1 -8.8,23.8 -6.4,6.7 -14.8,10.4 -25.9,10.4 z"
         id="path902"
         style="fill:#666666;fill-opacity:1" />
      <path
         inkscape:connector-curvature="0"
         d="m 305.2,76.3 c 0,13.3 -10.7,24 -24,24 -13.3,0 -24,-10.7 -24,-24 0,-13.3 10.7,-24 24,-24 13.1,-0.2 23.8,10.3 24,23.3 z m -10.5,0 c 0,-8.6 -6.2,-14.5 -13.5,-14.5 -7.3,0 -13.5,5.9 -13.5,14.5 0,8.6 6.3,14.5 13.5,14.5 7.2,0 13.5,-6 13.5,-14.5 z"
         id="path904"
         style="fill:#666666;fill-opacity:1" />
      <path
         inkscape:connector-curvature="0"
         d="m 357.5,76.3 c 0,13.3 -10.7,24 -24,24 -13.3,0 -24,-10.7 -24,-24 0,-13.3 10.7,-24 24,-24 13.1,-0.2 23.8,10.3 24,23.3 z m -10.5,0 c 0,-8.6 -6.2,-14.5 -13.5,-14.5 -7.3,0 -13.5,5.8 -13.5,14.5 0,8.7 6.2,14.5 13.5,14.5 7.3,0 13.5,-6 13.5,-14.5 z"
         id="path906"
         style="fill:#666666;fill-opacity:1" />
      <path
         inkscape:connector-curvature="0"
         d="m 407.6,53.8 v 43.1 c 0,17.7 -10.4,25 -22.8,25 -9.3,0 -17.7,-5.6 -21.2,-14.2 l 9.2,-3.8 c 1.6,3.9 5.6,8.5 12.1,8.5 7.9,0 12.8,-4.9 12.8,-14.1 v -3.5 h -0.4 c -3.2,3.6 -7.8,5.6 -12.6,5.4 -12,0 -23,-10.4 -23,-23.9 0,-13.5 11,-24.1 23,-24.1 4.8,-0.1 9.4,1.8 12.6,5.3 h 0.4 v -3.9 h 9.9 z m -9.3,22.6 c 0,-8.4 -5.6,-14.6 -12.8,-14.6 -7.2,0 -13.3,6.2 -13.3,14.6 0,8.4 6.1,14.4 13.3,14.4 7.2,0 12.8,-6.1 12.8,-14.4 z"
         id="path908"
         style="fill:#666666;fill-opacity:1" />
      <path
         inkscape:connector-curvature="0"
         d="M 425.7,28.3 V 98.8 H 415.1 V 28.3 Z"
         id="path910"
         style="fill:#666666;fill-opacity:1" />
      <path
         inkscape:connector-curvature="0"
         d="m 466.5,84.2 8.2,5.4 c -4.5,6.7 -12,10.7 -20,10.6 -13.6,0 -23.8,-10.5 -23.8,-24 0,-14.3 10.3,-24 22.6,-24 12.3,0 18.5,10 20.5,15.3 l 1.1,2.8 -32,13.3 c 2.5,4.8 6.3,7.3 11.6,7.3 5.3,0 9,-2.7 11.8,-6.7 z m -25.2,-8.6 21.4,-8.9 c -1.2,-3 -4.7,-5.1 -8.9,-5.1 -7.3,0.3 -12.9,6.5 -12.5,13.7 z"
         id="path912"
         style="fill:#666666;fill-opacity:1" />
    </g>
    <g
       id="g985"
       transform="matrix(2.7311271,0,0,2.7311271,57.76284,-293.32855)">
      <path
         id="path916"
         d="m 43.445844,117.29367 c 0.413595,0 0.761014,0.33088 0.761014,0.76101 0,0.0993 -0.01654,0.19853 -0.06617,0.29779 l -7.676315,18.34706 c -0.297788,0.67829 -0.95954,1.10843 -1.687466,1.10843 h -5.244379 c -0.413595,0.0165 -0.761014,-0.31433 -0.761014,-0.72793 0,-0.0993 0.01654,-0.21506 0.04963,-0.29778 l 0.595576,-1.43931 1.306959,-7.64323 3.80507,-4.63226 1.952167,-4.66535 c 0.297788,-0.67829 0.827189,-1.10843 1.571659,-1.10843 z"
         inkscape:connector-curvature="0"
         style="fill:#4285f4;stroke-width:0.16543783" />
      <path
         id="path918"
         d="m 34.578376,122.98473 c -2.862074,-2.82899 -7.477789,-2.77935 -10.290233,0.0827 -2.812443,2.86207 -2.795899,7.46125 0.06618,10.29023 1.340046,1.32351 3.143318,2.06798 5.02931,2.10106 0.01654,-0.0496 3.523825,-5.55871 3.523825,-5.55871 0,0 1.670922,-6.9153 1.670922,-6.9153 z"
         inkscape:connector-curvature="0"
         style="fill:#fbbc04;stroke-width:0.16543783" />
      <path
         id="path920"
         d="m 34.578376,122.98473 c 0,0 -5.194747,12.45747 -5.194747,12.45747 h 0.181981 c 4.003596,-0.0331 7.229633,-3.30876 7.21309,-7.31235 -0.01654,-1.93562 -0.810646,-3.78853 -2.200324,-5.14512 z"
         inkscape:connector-curvature="0"
         style="fill:#ea4335;stroke-width:0.16543783" />
    </g>
    <g
       style="fill:none"
       id="g836"
       transform="matrix(0.05794758,0,0,0.05794758,10.810121,26.092522)">
      <path
         id="path825"
         transform="scale(64)"
         d="M 8,0 C 3.58,0 0,3.58 0,8 c 0,3.54 2.29,6.53 5.47,7.59 0.4,0.07 0.55,-0.17 0.55,-0.38 0,-0.19 -0.01,-0.82 -0.01,-1.49 C 4,14.09 3.48,13.23 3.32,12.78 3.23,12.55 2.84,11.84 2.5,11.65 2.22,11.5 1.82,11.13 2.49,11.12 3.12,11.11 3.57,11.7 3.72,11.94 4.44,13.15 5.59,12.81 6.05,12.6 6.12,12.08 6.33,11.73 6.56,11.53 4.78,11.33 2.92,10.64 2.92,7.58 2.92,6.71 3.23,5.99 3.74,5.43 3.66,5.23 3.38,4.41 3.82,3.31 c 0,0 0.67,-0.21 2.2,0.82 0.64,-0.18 1.32,-0.27 2,-0.27 0.68,0 1.36,0.09 2,0.27 1.53,-1.04 2.2,-0.82 2.2,-0.82 0.44,1.1 0.16,1.92 0.08,2.12 0.51,0.56 0.82,1.27 0.82,2.15 0,3.07 -1.87,3.75 -3.65,3.95 0.29,0.25 0.54,0.73 0.54,1.48 0,1.07 -0.01,1.93 -0.01,2.2 0,0.21 0.15,0.46 0.55,0.38 C 13.71,14.53 16,11.53 16,8 16,3.58 12.42,0 8,0 Z"
         inkscape:connector-curvature="0"
         style="clip-rule:evenodd;fill:#1b1f23;fill-rule:evenodd" />
    </g>
    <text
       xml:space="preserve"
       style="font-style:normal;font-variant:normal;font-weight:normal;font-stretch:normal;font-size:7.63471699px;line-height:1.25;font-family:'Viner Hand ITC';-inkscape-font-specification:'Viner Hand ITC';letter-spacing:0px;word-spacing:0px;fill:#1b1f23;fill-opacity:1;stroke:none;stroke-width:0.35787734"
       x="17.334682"
       y="92.307671"
       id="text989"><tspan
         sodipodi:role="line"
         id="tspan987"
         x="17.334682"
         y="92.307671"
         style="font-style:normal;font-variant:normal;font-weight:normal;font-stretch:normal;font-family:Arial;-inkscape-font-specification:Arial;fill:#1b1f23;fill-opacity:1;stroke-width:0.35787734"><tspan
   style="font-style:normal;font-variant:normal;font-weight:bold;font-stretch:normal;font-family:Arial;-inkscape-font-specification:'Arial Bold';stroke-width:0.35787734"
   id="tspan991">github</tspan>:pages</tspan></text>
    <g
       id="g1234"
       transform="translate(0,-1.0583333)">
      <g
         transform="matrix(0.13927236,0,0,0.13927236,65.563727,29.929873)"
         id="svg_1">
        <g
           id="svg_2">
          <g
             id="svg_3">
            <path
               d="M 76.621002,68.878998 V 37.472 h 7.629997 v 24.796997 h 12.153999 v 6.609001 H 76.621001 v 9.99e-4 z"
               id="svg_4"
               inkscape:connector-curvature="0"
               style="fill:#2c3c69" />
            <path
               d="m 121.547,58.098999 c 0,0.295998 0,0.592003 0,0.888 0,0.295997 -0.015,0.576004 -0.044,0.843002 H 105.49 c 0.059,0.620995 0.244,1.182999 0.555,1.685997 0.311,0.502998 0.71,0.938004 1.197,1.308998 0.488,0.370003 1.035,0.658005 1.642,0.864006 0.605,0.208 1.234,0.310997 1.885,0.310997 1.153,0 2.13,-0.213997 2.928,-0.642998 0.799,-0.429001 1.449,-0.983002 1.952,-1.664001 l 5.05699,3.194 c -1.03498,1.507996 -2.40199,2.668999 -4.10299,3.482002 -1.701,0.811996 -3.676,1.219994 -5.922,1.219994 -1.657,0 -3.224,-0.259995 -4.702,-0.775993 -1.479,-0.518005 -2.772,-1.271004 -3.882,-2.263 -1.108,-0.990005 -1.981,-2.210007 -2.616996,-3.659004 -0.635994,-1.448997 -0.953003,-3.104996 -0.953003,-4.969002 0,-1.802994 0.309998,-3.437996 0.931,-4.900997 0.620999,-1.463001 1.463999,-2.706001 2.528999,-3.726002 1.064,-1.021 2.32,-1.811996 3.771,-2.373997 1.448,-0.561001 3.016,-0.843002 4.701,-0.843002 1.626,0 3.12,0.274002 4.48,0.820999 1.36,0.546997 2.528,1.338001 3.505,2.373001 0.976,1.035 1.73599,2.292 2.284,3.771 0.546,1.478001 0.819,3.165001 0.819,5.056 z m -6.698,-2.794998 c 0,-1.153 -0.362,-2.144001 -1.087,-2.972 -0.725,-0.827 -1.812,-1.242001 -3.26,-1.242001 -0.71,0 -1.36,0.111 -1.952,0.333 -0.59199,0.222 -1.108,0.525002 -1.553,0.909 -0.443,0.384998 -0.798,0.835999 -1.064,1.354 -0.266,0.517998 -0.414,1.057999 -0.443,1.618 h 9.359 z"
               id="svg_5"
               inkscape:connector-curvature="0"
               style="fill:#2c3c69" />
            <path
               d="m 133.168,52.200001 v 8.461002 c 0,1.038994 0.2,1.816994 0.60001,2.337997 0.39799,0.519997 1.11499,0.778 2.151,0.778 0.35399,0 0.73098,-0.028 1.13099,-0.089 0.39901,-0.05901 0.73101,-0.147003 0.998,-0.266006 l 0.089,5.323006 c -0.50299,0.176994 -1.13899,0.332001 -1.90699,0.465996 -0.76999,0.133003 -1.538,0.199005 -2.307,0.199005 -1.479,0 -2.722,-0.186005 -3.727,-0.556007 C 129.19,68.484002 128.384,67.949998 127.77901,67.252 127.172,66.556001 126.73599,65.725999 126.47,64.762002 126.203,63.799005 126.071,62.724 126.071,61.538003 v -9.338001 h -3.549 v -5.412003 h 3.504 v -5.810997 h 7.142 v 5.810997 h 5.19 v 5.412003 h -5.19 z"
               id="svg_6"
               inkscape:connector-curvature="0"
               style="fill:#2c3c69" />
            <path
               d="m 161.91299,53.307999 c -0.59201,-0.560997 -1.28601,-1.034 -2.085,-1.418999 -0.79801,-0.383999 -1.64099,-0.577 -2.528,-0.577 -0.681,0 -1.30899,0.133999 -1.885,0.398998 -0.57699,0.267002 -0.865,0.726002 -0.865,1.375 0,0.621002 0.317,1.064003 0.953,1.331001 0.636,0.266998 1.664,0.562 3.08299,0.887001 0.82801,0.177998 1.664,0.43 2.50701,0.754997 0.843,0.324997 1.604,0.754005 2.28399,1.286003 0.68001,0.531998 1.22701,1.182999 1.64202,1.951996 0.41299,0.769005 0.62098,1.686005 0.62098,2.75 0,1.391006 -0.28099,2.565002 -0.84298,3.526001 -0.56201,0.960999 -1.29401,1.737 -2.19602,2.329002 -0.902,0.592002 -1.91499,1.019997 -3.03799,1.286003 -1.12399,0.266998 -2.248,0.398994 -3.371,0.398994 -1.80499,0 -3.571,-0.287994 -5.302,-0.864998 C 149.161,68.146002 147.719,67.294996 146.566,66.170995 l 4.08099,-4.303001 c 0.649,0.710007 1.448,1.302002 2.395,1.774002 0.946,0.473999 1.952,0.709999 3.017,0.709999 0.592,0 1.176,-0.140999 1.752,-0.421997 0.577,-0.279999 0.86501,-0.776001 0.86501,-1.485001 0,-0.681 -0.35401,-1.182999 -1.06401,-1.509003 -0.71,-0.324997 -1.818,-0.664993 -3.327,-1.020996 -0.769,-0.177002 -1.53799,-0.413002 -2.30699,-0.709 -0.77001,-0.295998 -1.457,-0.694 -2.06202,-1.197998 -0.60598,-0.502007 -1.10199,-1.123001 -1.48599,-1.863007 -0.384,-0.737995 -0.576,-1.625996 -0.576,-2.660995 0,-1.331001 0.28,-2.462002 0.843,-3.394001 0.562,-0.931999 1.286,-1.692001 2.174,-2.284 0.88701,-0.591999 1.87001,-1.027 2.949,-1.308998 1.079,-0.281998 2.151,-0.422001 3.217,-0.422001 1.655,0 3.274,0.259998 4.856,0.776001 1.582,0.517998 2.921,1.293999 4.015,2.328999 l -3.995,4.127998 z"
               id="svg_7"
               inkscape:connector-curvature="0"
               style="fill:#2c3c69" />
            <path
               d="M 179.56799,68.878998 V 37.472 h 21.114 v 6.388 h -13.795 v 5.944 h 13.041 v 6.077 h -13.041 v 6.521 h 14.594 v 6.476997 z"
               id="svg_8"
               inkscape:connector-curvature="0"
               style="fill:#2c3c69" />
            <path
               d="M 220.675,68.878998 V 56.813004 c 0,-0.621002 -0.053,-1.212002 -0.155,-1.774002 -0.104,-0.562 -0.274,-1.057003 -0.511,-1.486 -0.237,-0.428001 -0.569,-0.769001 -0.998,-1.021 -0.429,-0.25 -0.96899,-0.377003 -1.619,-0.377003 -0.65001,0 -1.22,0.127003 -1.70799,0.377003 -0.487,0.251999 -0.89501,0.599998 -1.22001,1.042999 -0.32499,0.443001 -0.569,0.953999 -0.731,1.529999 -0.16299,0.577 -0.244,1.175999 -0.244,1.797001 v 11.976997 h -7.319 v -22.091 h 7.05301 v 3.061001 h 0.089 c 0.26699,-0.473 0.613,-0.938 1.043,-1.396 0.428,-0.459 0.932,-0.850998 1.50801,-1.175999 0.57699,-0.325001 1.20498,-0.591999 1.88598,-0.799 0.68001,-0.206001 1.40401,-0.311001 2.17301,-0.311001 1.479,0 2.735,0.266998 3.77099,0.799 1.036,0.532002 1.87001,1.220001 2.50701,2.062 0.636,0.842999 1.09401,1.812 1.375,2.904999 0.28,1.095001 0.421,2.189003 0.421,3.283001 v 13.661999 h -7.321 v 9.99e-4 z"
               id="svg_9"
               inkscape:connector-curvature="0"
               style="fill:#2c3c69" />
            <path
               d="m 246.71301,53.929001 c -0.41501,-0.532001 -0.977,-0.959999 -1.686,-1.285999 -0.70999,-0.325001 -1.43601,-0.488003 -2.174,-0.488003 -0.77,0 -1.464,0.155003 -2.085,0.466 -0.62101,0.310997 -1.153,0.726002 -1.59701,1.242001 -0.44299,0.518002 -0.79199,1.117001 -1.04299,1.797001 -0.251,0.681004 -0.377,1.404003 -0.377,2.174 0,0.768997 0.11799,1.493004 0.35499,2.173004 0.23601,0.681 0.58301,1.279999 1.04201,1.796997 0.45799,0.517998 1.005,0.924995 1.642,1.220001 0.636,0.295998 1.35299,0.443001 2.151,0.443001 0.73801,0 1.47099,-0.139999 2.19501,-0.421005 0.72401,-0.281006 1.30899,-0.687996 1.75198,-1.220001 l 4.03702,4.924004 c -0.91703,0.887001 -2.10102,1.582001 -3.54901,2.084999 -1.44899,0.501999 -2.987,0.753998 -4.61299,0.753998 -1.74501,0 -3.37401,-0.266998 -4.88701,-0.798996 -1.512,-0.531998 -2.82601,-1.308998 -3.941,-2.329002 -1.11599,-1.019997 -1.99299,-2.253998 -2.63299,-3.702995 -0.64,-1.448997 -0.959,-3.090004 -0.959,-4.924004 0,-1.804001 0.31898,-3.431 0.959,-4.880001 0.64,-1.447998 1.51699,-2.683998 2.63299,-3.703999 1.11499,-1.021 2.43,-1.804001 3.941,-2.351002 1.513,-0.546997 3.127,-0.820999 4.843,-0.820999 0.798,0 1.589,0.074 2.373,0.223 0.783,0.147003 1.53699,0.348 2.26199,0.599003 0.72501,0.251003 1.39002,0.562 1.996,0.931999 0.60599,0.369999 1.13202,0.776001 1.57502,1.219997 l -4.21201,4.877003 z"
               id="svg_10"
               inkscape:connector-curvature="0"
               style="fill:#2c3c69" />
            <path
               d="m 268.03201,52.776001 c -0.32599,-0.089 -0.64401,-0.146999 -0.95401,-0.177002 -0.30999,-0.03 -0.61398,-0.045 -0.90899,-0.045 -0.97599,0 -1.797,0.177998 -2.46201,0.530998 -0.66498,0.354 -1.19699,0.781002 -1.59698,1.283001 -0.39902,0.500999 -0.68802,1.047001 -0.86503,1.636997 -0.177,0.589996 -0.26599,1.105003 -0.26599,1.548004 v 11.324997 h -7.27499 V 46.813999 h 7.009 v 3.194 h 0.089 c 0.56201,-1.132 1.35901,-2.055 2.396,-2.77 1.03402,-0.715 2.23202,-1.071999 3.59302,-1.071999 0.29498,0 0.58398,0.016 0.86499,0.045 0.27999,0.029 0.51001,0.074 0.68801,0.133003 z"
               id="svg_11"
               inkscape:connector-curvature="0"
               style="fill:#2c3c69" />
            <path
               d="m 285.12201,72.206001 c -0.44299,1.153 -0.939,2.181 -1.48599,3.083 -0.547,0.901001 -1.19702,1.669998 -1.95102,2.306999 -0.754,0.636002 -1.642,1.114998 -2.66199,1.441002 -1.01999,0.324997 -2.22601,0.487999 -3.61499,0.487999 -0.681,0 -1.38299,-0.045 -2.10602,-0.134003 -0.72598,-0.089 -1.354,-0.207001 -1.88598,-0.353996 L 272.215,72.916 c 0.354,0.116997 0.746,0.213997 1.17602,0.288002 0.42798,0.073 0.81998,0.110001 1.17499,0.110001 1.12399,0 1.93701,-0.259003 2.44,-0.776001 0.50199,-0.518005 0.931,-1.249001 1.28601,-2.195 l 0.70999,-1.818001 -9.22699,-21.736 h 8.073 l 4.92398,14.195 h 0.133 l 4.392,-14.195 h 7.71802 z"
               id="svg_12"
               inkscape:connector-curvature="0"
               style="fill:#2c3c69" />
            <path
               d="m 321.496,57.745003 c 0,1.537994 -0.237,3.016998 -0.70999,4.435997 -0.474,1.419998 -1.16101,2.668999 -2.06201,3.748001 -0.90201,1.080002 -2.004,1.945 -3.30499,2.596001 -1.30201,0.649002 -2.78,0.975998 -4.43702,0.975998 -1.35998,0 -2.64599,-0.273003 -3.85901,-0.82 -1.21301,-0.546997 -2.15799,-1.293999 -2.83898,-2.239998 h -0.088 v 13.085999 h -7.27502 V 46.787999 H 303.841 V 49.494 h 0.133 c 0.681,-0.887001 1.61899,-1.662998 2.81698,-2.328999 C 307.98801,46.5 309.39999,46.167 311.02701,46.167 c 1.59698,0 3.04498,0.311001 4.34698,0.931999 1.301,0.621002 2.40201,1.464001 3.305,2.528 0.90298,1.063999 1.59701,2.299999 2.08502,3.704002 0.488,1.404999 0.73199,2.876999 0.73199,4.414002 z m -7.05301,0 c 0,-0.709999 -0.11001,-1.403999 -0.332,-2.085003 -0.22201,-0.68 -0.548,-1.278999 -0.97699,-1.797001 -0.42901,-0.516998 -0.96902,-0.938 -1.61902,-1.264 -0.64999,-0.326 -1.40399,-0.487999 -2.26199,-0.487999 -0.828,0 -1.56799,0.162998 -2.21799,0.487999 -0.651,0.325001 -1.20602,0.754002 -1.664,1.285999 -0.45901,0.532001 -0.81302,1.139 -1.06402,1.818001 -0.25199,0.681004 -0.37699,1.375004 -0.37699,2.085003 0,0.709999 0.125,1.404999 0.37699,2.084999 0.251,0.681 0.60501,1.285995 1.06402,1.818001 0.45798,0.531998 1.013,0.961998 1.664,1.286995 0.64899,0.325005 1.38999,0.487 2.21799,0.487 0.85699,0 1.61099,-0.161995 2.26199,-0.487 0.651,-0.325005 1.19001,-0.754997 1.61902,-1.286995 0.42902,-0.531998 0.75498,-1.146004 0.97699,-1.841003 0.22101,-0.693001 0.332,-1.394997 0.332,-2.104996 z"
               id="svg_13"
               inkscape:connector-curvature="0"
               style="fill:#2c3c69" />
            <path
               d="m 333.11801,52.200001 v 8.461002 c 0,1.038994 0.20001,1.816994 0.60001,2.337997 0.39798,0.519997 1.11499,0.778 2.151,0.778 0.354,0 0.73099,-0.028 1.13098,-0.089 0.39902,-0.05901 0.73102,-0.147003 0.99802,-0.266006 l 0.089,5.323006 c -0.50299,0.176994 -1.139,0.332001 -1.90698,0.465996 -0.77002,0.133003 -1.53802,0.199005 -2.307,0.199005 -1.47901,0 -2.72202,-0.186005 -3.72702,-0.556007 -1.00599,-0.369995 -1.81199,-0.903999 -2.417,-1.601997 -0.60699,-0.695999 -1.043,-1.526001 -1.30899,-2.489998 C 326.15302,63.799005 326.021,62.724 326.021,61.538003 v -9.338001 h -3.54898 v -5.412003 h 3.50399 v -5.810997 h 7.142 v 5.810997 h 5.19 v 5.412003 h -5.19 z"
               id="svg_14"
               inkscape:connector-curvature="0"
               style="fill:#2c3c69" />
          </g>
        </g>
        <path
           d="m 145.00999,36.869999 c -2.18299,0 -3.89199,1.573002 -3.89199,3.582001 0,2.116001 1.43899,3.536999 3.582,3.536999 0.183,0 0.35599,-0.017 0.51899,-0.05 -0.343,1.566002 -1.852,2.690002 -3.27799,2.915001 l -0.29001,0.046 v 3.376999 l 0.376,-0.036 c 1.73,-0.165001 3.439,-0.951 4.691,-2.157001 1.632,-1.572998 2.49501,-3.843998 2.49501,-6.568001 0,-2.691998 -1.76799,-4.646 -4.20301,-4.646 z"
           id="svg_15"
           inkscape:connector-curvature="0"
           style="fill:#2c3c69" />
      </g>
      <g
         transform="translate(27.846502,-105.67352)"
         id="g1131">
        <g
           id="svg_16"
           transform="matrix(0.26458333,0,0,0.26458333,58.020407,120.55967)">
          <path
             style="fill:#f9a11d"
             inkscape:connector-curvature="0"
             id="svg_17"
             d="m 46.488998,37.568001 h -8.039997 v -4.128002 c 0,-3.296997 -2.683002,-5.979 -5.98,-5.979 -3.297001,0 -5.979,2.683002 -5.979,5.979 v 4.128002 H 18.45 v -4.128002 c 0,-7.73 6.288998,-14.019999 14.02,-14.019999 7.731002,0 14.02,6.289 14.02,14.019999 v 4.128002 z" />
        </g>
        <path
           style="fill:#2c3c69;stroke-width:0.26458332"
           inkscape:connector-curvature="0"
           id="svg_18"
           d="m 71.178665,130.49954 h -9.134739 c -0.389996,0 -0.709084,0.31908 -0.709084,0.70908 v 6.75746 c 0,0.38999 0.319088,0.70908 0.709084,0.70908 h 9.134739 c 0.389996,0 0.709083,-0.31909 0.709083,-0.70908 v -6.75746 c 0,-0.39 -0.319087,-0.70908 -0.709083,-0.70908 z m -4.104481,4.43679 v 0.91573 c 0,0.25558 -0.207433,0.46275 -0.462756,0.46275 -0.255323,0 -0.462757,-0.20743 -0.462757,-0.46275 v -0.91546 c -0.284691,-0.16166 -0.477044,-0.46673 -0.477044,-0.81756 0,-0.51912 0.420952,-0.9398 0.939801,-0.9398 0.519112,0 0.939799,0.42095 0.939799,0.9398 0,0.35057 -0.192352,0.65563 -0.477043,0.8173 z" />
        <path
           style="fill:#f9a11d;stroke-width:0.26458332"
           inkscape:connector-curvature="0"
           id="svg_19"
           d="m 61.117884,129.492 h -2.204243 c -0.357453,0 -0.647171,-0.28972 -0.647171,-0.64717 0,-0.35745 0.289718,-0.64717 0.647171,-0.64717 h 2.204243 c 0.357452,0 0.647171,0.28972 0.647171,0.64717 0,0.35745 -0.289984,0.64717 -0.647171,0.64717 z" />
        <path
           style="fill:#f9a11d;stroke-width:0.26458332"
           inkscape:connector-curvature="0"
           id="svg_20"
           d="m 62.670459,126.02464 c -0.144462,0 -0.290248,-0.0482 -0.410633,-0.14737 l -1.743604,-1.43378 c -0.275961,-0.22701 -0.315913,-0.63474 -0.08864,-0.91096 0.227013,-0.27596 0.634736,-0.31591 0.910961,-0.0889 l 1.743604,1.43378 c 0.27596,0.22701 0.315912,0.63473 0.08863,0.91096 -0.127794,0.15584 -0.313267,0.23627 -0.500327,0.23627 z" />
        <path
           style="fill:#f9a11d;stroke-width:0.26458332"
           inkscape:connector-curvature="0"
           id="svg_21"
           d="m 66.611164,124.50064 c -0.357453,0 -0.647172,-0.28972 -0.647172,-0.64717 v -2.22171 c 0,-0.35745 0.289719,-0.64717 0.647172,-0.64717 0.357452,0 0.64717,0.28972 0.64717,0.64717 v 2.22171 c 0,0.35745 -0.289719,0.64717 -0.64717,0.64717 z" />
        <g
           id="svg_22"
           transform="matrix(0.26458333,0,0,0.26458333,58.020407,120.55967)">
          <g
             id="svg_23">
            <path
               style="fill:#f9a11d"
               inkscape:connector-curvature="0"
               id="svg_24"
               d="M 47.362999,20.655001 C 46.655998,20.655001 45.956001,20.351 45.472,19.761999 44.613998,18.719 44.764,17.177 45.806999,16.319 l 6.59,-5.419001 c 1.044003,-0.858 2.585003,-0.706999 3.442997,0.336 0.858002,1.042999 0.708,2.584999 -0.334999,3.443001 l -6.589996,5.418999 C 48.459999,20.472999 47.91,20.655 47.362999,20.655001 Z" />
          </g>
        </g>
        <path
           style="fill:#f9a11d;stroke-width:0.26458332"
           inkscape:connector-curvature="0"
           id="svg_25"
           d="m 74.308952,129.492 h -2.225147 c -0.357453,0 -0.647171,-0.28972 -0.647171,-0.64717 0,-0.35745 0.289718,-0.64717 0.647171,-0.64717 h 2.225147 c 0.357451,0 0.64717,0.28972 0.64717,0.64717 0,0.35745 -0.289719,0.64717 -0.64717,0.64717 z" />
      </g>
    </g>
    <g
       id="g1180"
       transform="translate(-0.02197863,-9.0448577)">
      <path
         inkscape:connector-curvature="0"
         id="path1161"
         d="M 94.47978,56.724695 V 71.424519"
         style="fill:none;stroke:#1b1f23;stroke-width:2.5;stroke-linecap:round;stroke-linejoin:miter;stroke-miterlimit:4;stroke-dasharray:none;stroke-opacity:1" />
      <path
         inkscape:connector-curvature="0"
         id="path1161-5"
         d="M 101.82969,64.074607 H 87.129871"
         style="fill:none;stroke:#1b1f23;stroke-width:2.5;stroke-linecap:round;stroke-linejoin:miter;stroke-miterlimit:4;stroke-dasharray:none;stroke-opacity:1" />
    </g>
  </g>
</svg>
