<?xml version="1.0" encoding="UTF-8" standalone="no"?>
<svg
   width="640"
   height="360"
   viewBox="0 0 169.3333333333333 95.25"
   version="1.1"
   id="svg8"
   inkscape:version="1.1 (c68e22c387, 2021-05-23)"
   sodipodi:docname="featured.svg"
   inkscape:export-filename="C:\work\repos\hugosites\dicastro.github.io\content\es\blog\2020\10\22\monto-un-cluster-kubernetes-con-rpi-parte-iv\featured.png"
   inkscape:export-xdpi="96"
   inkscape:export-ydpi="96"
   xmlns:inkscape="http://www.inkscape.org/namespaces/inkscape"
   xmlns:sodipodi="http://sodipodi.sourceforge.net/DTD/sodipodi-0.dtd"
   xmlns:xlink="http://www.w3.org/1999/xlink"
   xmlns="http://www.w3.org/2000/svg"
   xmlns:svg="http://www.w3.org/2000/svg"
   xmlns:rdf="http://www.w3.org/1999/02/22-rdf-syntax-ns#"
   xmlns:cc="http://creativecommons.org/ns#"
   xmlns:dc="http://purl.org/dc/elements/1.1/">
  <defs
     id="defs2">
    <style
       id="style1121">.cls-1{fill:#008fbe;}</style>
    <style
       id="style1002">.cls-1{fill:#384745;}.cls-2{fill:#ffc61c;}</style>
    <path
       d="M 44.041,343.222 V 209.58 H 9.288 A 9.333,9.333 0 0 1 2.633,193.704 L 189.639,3.497 c 4.517,-4.594 11.903,-4.657 16.498,-0.14 l 0.12,0.12 L 303.858,102.271 V 83.974 a 7.778,7.778 0 0 1 7.778,-7.77800000000002 h 32.4100000000001 a 7.778,7.778 0 0 1 7.779,7.77800000000002 V 151.112 L 393.393,193.73 a 9.333,9.333 0 0 1 -6.682,15.85 H 351.825 V 343.222 A 7.778,7.778 0 0 1 344.047,351 H 51.819 A 7.778,7.778 0 0 1 44.041,343.222 Z m 206.393,-163.26 a 15.029,15.029 0 0 0 1.46,-6.486 c 0,-8.308 -6.71,-15.043 -14.989,-15.043 -8.278,0 -14.989,6.735 -14.989,15.043 0,8.308 6.711,15.044 14.99,15.044 2.314,0 4.505,-0.527 6.462,-1.467 l 21.518,21.596 v 20.918 l -26.981,27.078 v -19.84 a 15.046,15.046 0 0 0 9.993,-14.187 c 0,-8.308 -6.711,-15.044 -14.99,-15.044 -8.278,0 -14.99,6.736 -14.99,15.044 0,6.55 4.172,12.122 9.994,14.187 v 29.868 l -24.983,25.073 V 144.464 l 20.519,-20.592 a 14.886,14.886 0 0 0 6.4619999999999,1.466 C 238.1889999999999,125.338 244.9,118.603 244.9,110.294 244.9,101.986 238.1889999999999,95.251 229.9099999999999,95.251 c -8.2779999999999,0 -14.989,6.735 -14.989,15.04299999999999 0,2.323 0.524,4.522 1.4600000000001,6.486 l -18.4480000000001,18.515 -18.449,-18.515 a 15.029,15.029 0 0 0 1.46,-6.486 c 0,-8.308 -6.71,-15.04299999999999 -14.989,-15.04299999999999 -8.278,0 -14.989,6.735 -14.989,15.04299999999999 0,8.309 6.711,15.044 14.99,15.044 2.314,0 4.505,-0.527 6.462,-1.466 l 20.518,20.592 v 105.16 l -35.974,-36.104 v -28.865 a 15.046,15.046 0 0 0 9.993,-14.187 c 0,-8.309 -6.711,-15.044 -14.99,-15.044 -8.278,0 -14.99,6.735 -14.99,15.044 0,6.55 4.172,12.122 9.994,14.187 v 18.837 l -27.98,-28.081 v -27.863 a 15.046,15.046 0 0 0 9.993,-14.187 c 0,-8.308 -6.711,-15.044 -14.99,-15.044 -8.278,0 -14.99,6.736 -14.99,15.044 0,6.55 4.17199999999998,12.122 9.99399999999999,14.187 v 32.017 l 30.907,31.018 h -17.77 c -2.058,-5.843 -7.61,-10.029 -14.137,-10.029 -8.27799999999999,0 -14.98999999999998,6.735 -14.98999999999998,15.043 0,8.309 6.71200000000002,15.044 14.98999999999998,15.044 6.527,0 12.08,-4.186 14.137,-10.03 h 27.763 l 43.04,43.196 v 75.074 l -22.983,-23.0659999999999 v -28.866 a 15.046,15.046 0 0 0 9.993,-14.187 c 0,-8.308 -6.7110000000001,-15.043 -14.99,-15.043 -8.278,0 -14.9900000000001,6.735 -14.9900000000001,15.043 0,6.55 4.172,12.122 9.994,14.187 v 18.837 l -33.4389999999999,-33.558 a 15.029,15.029 0 0 0 1.4609999999999,-6.486 c 0,-8.308 -6.7099999999999,-15.043 -14.9899999999999,-15.043 -8.2780000000001,0 -14.98900000000006,6.735 -14.98900000000006,15.043 0,8.308 6.71099999999996,15.043 14.98999999999995,15.043 2.3140000000001,0 4.506,-0.526 6.462,-1.466 l 33.439,33.5589999999999 h -17.77 c -2.058,-5.843 -7.61,-10.0299999999999 -14.137,-10.0299999999999 -8.278,0 -14.99,6.736 -14.99,15.044 0,8.308 6.712,15.043 14.99,15.043 6.527,0 12.079,-4.186 14.137,-10.029 h 27.763 l 27.98,28.081 h 14.132 l 28.98,-29.083 h 26.763 c 2.0579999999999,5.842 7.61,10.028 14.137,10.028 8.278,0 14.99,-6.735 14.99,-15.0429999999999 0,-8.3079999999999 -6.712,-15.043 -14.99,-15.043 -6.527,0 -12.0790000000001,4.186 -14.137,10.0290000000001 H 229.84 l -26.91,27.006 V 305.93 l 32.049,-32.164 h 51.746 c 2.058,5.843 7.61,10.029 14.1360000000001,10.029 8.279,0 14.99,-6.735 14.99,-15.043 0,-8.309 -6.711,-15.044 -14.99,-15.044 -6.5260000000001,0 -12.078,4.186 -14.1360000000001,10.03 H 244.97 l 29.908,-30.016 V 208.65 l 21.517,-21.596 a 14.886,14.886 0 0 0 6.463,1.467 c 8.278,0 14.99,-6.736 14.99,-15.044 0,-8.308 -6.712,-15.043 -14.99,-15.043 -8.278,0 -14.99,6.735 -14.99,15.043 0,2.323 0.525,4.522 1.461,6.486 l -14.451,14.504 V 148.55 a 15.046,15.046 0 0 0 9.993,-14.187 c 0,-8.309 -6.711,-15.044 -14.99,-15.044 -8.278,0 -14.99,6.735 -14.99,15.044 0,6.55 4.172,12.122 9.994,14.187 v 45.915 L 250.433,179.961 Z M 120.987,323.909 c -3.311,0 -5.996,-2.694 -5.996,-6.017 0,-3.323 2.685,-6.017 5.996,-6.017 3.312,0 5.996,2.694 5.996,6.017 0,3.323 -2.684,6.017 -5.996,6.017 z m 43.97,-45.13 c -3.312,0 -5.997,-2.694 -5.997,-6.017 0,-3.323 2.685,-6.017 5.996,-6.017 3.312,0 5.996,2.694 5.996,6.017 0,3.323 -2.684,6.017 -5.996,6.017 z m -51.964,-7.02 c -3.312,0 -5.996,-2.694 -5.996,-6.017 0,-3.323 2.684,-6.017 5.996,-6.017 3.311,0 5.996,2.694 5.996,6.017 0,3.323 -2.685,6.017 -5.996,6.017 z m -4.997,-50.144 c -3.311,0 -5.995,-2.694 -5.995,-6.018 0,-3.323 2.684,-6.017 5.995,-6.017 3.312,0 5.996,2.694 5.996,6.017 0,3.324 -2.684,6.018 -5.996,6.018 z m 124.912,7.02 c -3.311,0 -5.995,-2.694 -5.995,-6.017 0,-3.324 2.684,-6.018 5.995,-6.018 3.312,0 5.996,2.694 5.996,6.018 0,3.323 -2.684,6.017 -5.996,6.017 z m 67.952,46.133 c -3.31,0 -5.995,-2.694 -5.995,-6.017 0,-3.324 2.684,-6.0179999999999 5.995,-6.0179999999999 3.312,0 5.996,2.694 5.996,6.0179999999999 0,3.323 -2.684,6.017 -5.996,6.017 z m -25.981,48.138 c -3.312,0 -5.996,-2.694 -5.996,-6.017 0,-3.323 2.6840000000001,-6.017 5.996,-6.017 3.311,0 5.996,2.694 5.996,6.017 0,3.323 -2.685,6.017 -5.996,6.017 z m 27.98,-143.412 c -3.3109999999999,0 -5.9959999999999,-2.695 -5.9959999999999,-6.018 0,-3.323 2.685,-6.017 5.9959999999999,-6.017 3.311,0 5.996,2.694 5.996,6.017 0,3.323 -2.685,6.018 -5.996,6.018 z m -32.9769999999999,-39.113 c -3.311,0 -5.996,-2.694 -5.996,-6.017 0,-3.324 2.685,-6.018 5.996,-6.018 3.312,0 5.9959999999999,2.694 5.9959999999999,6.018 0,3.323 -2.684,6.017 -5.9959999999999,6.017 z m -39.972,-24.07 c -3.311,0 -5.995,-2.693 -5.995,-6.017 0,-3.323 2.684,-6.017 5.995,-6.017 3.312,0 5.996,2.694 5.996,6.017 0,3.324 -2.684,6.018 -5.996,6.018 z M 165.955,116.311 c -3.31,0 -5.995,-2.693 -5.995,-6.017 0,-3.323 2.684,-6.017 5.995,-6.017 3.3120000000001,0 5.9960000000001,2.694 5.9960000000001,6.017 0,3.324 -2.684,6.018 -5.9960000000001,6.018 z m -51.9629999999999,23.067 c -3.3110000000001,0 -5.996,-2.694 -5.996,-6.017 0,-3.324 2.685,-6.018 5.996,-6.018 3.311,0 5.9959999999999,2.694 5.9959999999999,6.018 0,3.323 -2.685,6.017 -5.9959999999999,6.017 z M 151.965,176.485 c -3.311,0 -5.995,-2.694 -5.995,-6.017 0,-3.324 2.684,-6.018 5.995,-6.018 3.3120000000001,0 5.996,2.694 5.996,6.018 0,3.323 -2.6839999999999,6.017 -5.996,6.017 z m 84.94,3.009 c -3.31,0 -5.995,-2.695 -5.995,-6.018 0,-3.323 2.684,-6.017 5.995,-6.017 3.312,0 5.996,2.694 5.996,6.017 0,3.323 -2.684,6.018 -5.996,6.018 z"
       id="a" />
  </defs>
  <sodipodi:namedview
     id="base"
     pagecolor="#e5e5e5"
     bordercolor="#666666"
     borderopacity="1.0"
     inkscape:pageopacity="1"
     inkscape:pageshadow="2"
     inkscape:zoom="1"
     inkscape:cx="368.5"
     inkscape:cy="217"
     inkscape:document-units="px"
     inkscape:current-layer="layer1"
     inkscape:document-rotation="0"
     showgrid="false"
     fit-margin-top="0"
     fit-margin-left="0"
     fit-margin-right="0"
     fit-margin-bottom="0"
     units="px"
     inkscape:window-width="2554"
     inkscape:window-height="1352"
     inkscape:window-x="1275"
     inkscape:window-y="4"
     inkscape:window-maximized="0"
     inkscape:pagecheckerboard="1" />
  <metadata
     id="metadata5">
    <rdf:RDF>
      <cc:Work
         rdf:about="">
        <dc:format>image/svg+xml</dc:format>
        <dc:type
           rdf:resource="http://purl.org/dc/dcmitype/StillImage" />
      </cc:Work>
    </rdf:RDF>
  </metadata>
  <g
     inkscape:label="Layer 1"
     inkscape:groupmode="layer"
     id="layer1"
     transform="translate(32.347991,-98.115519)">
    <g
       transform="matrix(0.0656166666666685,0,0,0.0656166666666689,35.91450899999954,109.3768385167491)"
       fill="none"
       fill-rule="evenodd"
       id="g961"
       style="stroke-width:1.33065">
      <path
         d="M 0,0 H 500 V 500 H 0 Z"
         fill="#41bdf5"
         id="path950"
         style="stroke-width:1.33151" />
      <g
         transform="translate(52,70)"
         id="g959"
         style="stroke-width:1.33065">
        <mask
           id="b"
           fill="#ffffff">
          <use
             height="100%"
             width="100%"
             y="0"
             x="0"
             xlink:href="#a"
             id="use952" />
        </mask>
        <g
           mask="url(#b)"
           fill="#ffffff"
           id="g957"
           style="stroke-width:1.33151">
          <path
             d="M 0,0 H 396 V 351 H 0 Z"
             id="path955"
             style="stroke-width:1.33065" />
        </g>
      </g>
    </g>
    <g
       transform="matrix(1.695609415556914,0,0,1.694982658390408,-17.6470611688366,-52.47740185400675)"
       id="g988"
       style="stroke-width:1.04848">
      <path
         style="fill-rule:evenodd"
         d="m 21.279149,123.46261 v -1.10596 c 0,-0.38894 0.314854,-0.70379 0.703791,-0.70379 0.388938,0 0.703792,0.31485 0.703792,0.70379 v 1.10596 m -3.775604,0 v -1.10596 c 0,-0.38894 0.314854,-0.70379 0.703791,-0.70379 a 0.7011458199999998,0.7011458199999998 0 0 1 0.703792,0.70114 v 1.10596 m -3.77825,0.003 V 122.357 c 0,-0.38894 0.314854,-0.70379 0.703792,-0.70379 0.38893699999999,0 0.703792,0.31485 0.703792,0.70379 v 1.10596 m -3.77825,0 V 122.357 c 0,-0.38894 0.314854,-0.70379 0.703791,-0.70379 0.388938,0 0.703792,0.31485 0.703792,0.70379 v 1.10596 m -3.77825,0 V 122.357 c 0,-0.38894 0.314854,-0.70379 0.703792,-0.70379 0.388937,0 0.703791,0.31485 0.703791,0.70379 v 1.10596 m -3.775603900000126,0 V 122.357 c 0,-0.38894 0.314854199999997,-0.70379 0.703791900000127,-0.70379 0.388937,0 0.703791,0.31485 0.703791,0.70379 v 1.10596 m 11.848042,10.55423 v 1.23825 c 0,0.38893 -0.314854,0.70379 -0.703792,0.70379 -0.388937,0 -0.703791,-0.31486 -0.703791,-0.70379 v -1.23825 m -0.960438,0 v 1.23825 c 0,0.38893 -0.314854,0.70379 -0.703792,0.70379 -0.388937,0 -0.703791,-0.31486 -0.703791,-0.70379 v -1.23825 m -0.963083,0 v 1.23825 c 0,0.38893 -0.314855,0.70379 -0.703792,0.70379 -0.388938,0 -0.703792,-0.31486 -0.703792,-0.70379 v -1.23825 m -0.963083,0 v 1.23825 c 0,0.38893 -0.314854,0.70379 -0.703792,0.70379 -0.388937,0 -0.703791,-0.31486 -0.703791,-0.70379 v -1.23825 m -0.963084,0 v 1.23825 c 0,0.38893 -0.314854,0.70379 -0.703791,0.70379 -0.388938,0 -0.703792,-0.31486 -0.703792,-0.70379 v -1.23825 m -0.960438,0.0688 v 1.1721 c 0,0.38894 -0.314854,0.70379 -0.703791,0.70379 -0.388937700000128,0 -0.703791900000127,-0.31485 -0.703791900000127,-0.70379 v -1.1721"
         fill="#ffffff"
         stroke="#000000"
         stroke-width="0.604199"
         id="path896" />
      <path
         style="fill-rule:evenodd"
         fill="#ffffff"
         stroke="#000000"
         stroke-width="0.671333"
         d="M 23.041274,123.46261 H 9.076565399999999 A 0.25664583,0.25664583 0 0 0 8.8199196,123.71925 v 10.04359 c 0,0.14023 0.1137709,0.25664 0.256645799999999,0.25664 H 23.038628 c 0.140229,0 0.256646,-0.11377 0.256646,-0.25664 v -10.04359 c 0,-0.14287 -0.113771,-0.25664 -0.254,-0.25664 z"
         id="path898" />
      <path
         fill="#000000"
         fill-rule="nonzero"
         d="m 13.04267,129.32048 h 0.759354 v 2.05052 h 4.564062 v -2.05052 h 0.759354 l -0.764646,-0.76729 v -1.34144 h -0.476249 v 0.86784 l -1.801813,-1.80182 z"
         id="path900"
         style="stroke-width:0.27741" />
      <path
         style="fill:none;fill-rule:evenodd"
         stroke="#000000"
         stroke-linecap="round"
         stroke-linejoin="round"
         stroke-width="0.544001"
         d="m 13.04267,129.32048 h 0.759354 v 2.05052 h 4.564062 v -2.05052 h 0.759354 l -0.764646,-0.76729 v -1.34144 h -0.476249 v 0.86784 l -1.801813,-1.80182 z"
         id="path902" />
      <path
         style="fill:none;fill-rule:evenodd"
         d="M 8.767003,133.4083 H 4.5812947 v -1.02923 h 3.137958300000001 v -1.02923 H 4.5812947 v -1.02659 h 3.137958300000001 v -1.02923 H 4.5812947 v -1.02922 h 3.137958300000001 v -1.02659 H 4.5812947 v -3.16971"
         stroke="#000000"
         stroke-linecap="round"
         stroke-linejoin="round"
         stroke-width="0.598928"
         id="path904" />
    </g>
    <g
       transform="matrix(1.070156032509185,0,0,1.070156032509185,-29.30670243500255,-40.93254316674178)"
       id="g1085"
       style="stroke-width:0.934444">
      <path
         id="path1115"
         d="m 76.447665,203.06161 c 0.06258,-0.0253 0.164985,-0.0253 0.227566,0 0.06258,0.0252 0.01138,0.0459 -0.11378300000001,0.0459 -0.12516199999999,0 -0.17636399999999,-0.0207 -0.11378299999998,-0.0459 z m 7.78276099999999,-0.002 c 0.08761,-0.0229 0.23097899999999,-0.0229 0.31859199999998,0 0.08761,0.0229 0.01593,0.0416 -0.15929599999998,0.0416 -0.17522599999999,0 -0.24690900000002,-0.0187 -0.159296,-0.0416 z m 12.308026,-4.44306 c 1.6e-5,-2.50322 0.01172,-3.51417 0.026,-2.24656 0.01428,1.26762 0.01427,3.31571 -2.999999998e-5,4.55132 -0.0143,1.23561 -0.02598,0.19847 -0.02597,-2.30476 z M 122.44596,202.70516 c 0.004,-0.10605 0.0259,-0.12761 0.055,-0.055 0.0263,0.0657 0.0231,0.14422 -0.007,0.17447 -0.0302,0.0302 -0.0518,-0.0235 -0.0478,-0.11947 z m -13.17481,-1.35781 c 3.6e-4,-0.40052 0.0163,-0.55305 0.0356,-0.33895 0.0192,0.2141 0.019,0.5418 -6.4e-4,0.72821 -0.0196,0.18642 -0.0353,0.0112 -0.035,-0.38926 z M 98.443967,200.3911 c 0,-0.72594 0.01414,-1.02291 0.03141,-0.65994 0.01728,0.36297 0.01728,0.95691 0,1.31988 -0.01728,0.36297 -0.03141,0.066 -0.03141,-0.65994 z m -15.85181900000001,-3.23144 c 9.9999999999e-4,-0.20026 0.01965,-0.27146 0.04142,-0.15823 0.02177,0.11323 0.02095,0.27707 -0.0018,0.3641 -0.02278,0.087 -0.0406,-0.006 -0.03959,-0.20587 z M 128.61151,196.41478 c 0.0657,-0.0263 0.14422,-0.0231 0.17446,0.007 0.0302,0.0302 -0.0235,0.0518 -0.11947,0.0478 -0.10604,-0.004 -0.12761,-0.0259 -0.055,-0.055 z m -30.17102199999999,-2.02441 c 0.0079,-0.1918 0.06531,-0.32569 0.149359,-0.34828 0.0922,-0.0248 0.10226099999998,-0.0122 0.03097,0.0388 -0.05806,0.0415 -0.125275,0.19825 -0.149359,0.34828 -0.04012,0.24989 -0.04271,0.24663 -0.03097,-0.0388 z M 109.2643,194.25436 c 0.0116,-0.096 0.0826,-0.19126 0.15769,-0.21174 0.0878,-0.0239 0.10081,-0.0104 0.0364,0.038 -0.0551,0.0414 -0.12604,0.13664 -0.15769,0.21174 -0.0404,0.0959 -0.0513,0.0847 -0.0364,-0.038 z m 10.97277,-0.20626 c 0.0657,-0.0263 0.14422,-0.0231 0.17447,0.007 0.0302,0.0302 -0.0235,0.0518 -0.11947,0.0478 -0.10604,-0.004 -0.12761,-0.0259 -0.055,-0.055 z m -40.148348,-0.18777 c 0.51316200000001,-0.0162 1.35288100000001,-0.0162 1.86604200000001,0 0.51316199999999,0.0162 0.0933,0.0295 -0.933021,0.0295 -1.02632300000002,0 -1.44618199999999,-0.0133 -0.93302100000001,-0.0295 z m 3.595545,-4.7317899999999 c 0.187742,-0.0196 0.49495600000002,-0.0196 0.68269800000002,0 0.187742,0.0196 0.03414,0.0357 -0.34134900000001,0.0357 -0.375484,0 -0.52909099999998,-0.0161 -0.34134900000001,-0.0357 z M 91.881167,187.92049 c 0,-0.27536 0.01706,-0.388 0.03792,-0.25033 0.02086,0.13768 0.02086,0.36297 0,0.5006500000001 -0.02086,0.1376799999999 -0.03792,0.025 -0.03792,-0.2503200000001 z m -15.113658,-1.24867 c 0.13836600000002,-0.0209 0.34317500000002,-0.0204 0.45513200000002,0.001 0.11195699999999,0.0216 -0.0013,0.0387 -0.25157400000002,0.038 -0.25032299999998,-6.899999999e-4 -0.34192399999999,-0.0184 -0.203558,-0.0393 z m 12.799109,-2.55169 c -0.113225,-0.14437 -0.11000599999998,-0.14759 0.03437,-0.0344 0.151627,0.11891 0.19984599999998,0.19366 0.12492799999998,0.19366 -0.0189,0 -0.09059,-0.0717 -0.15929599999998,-0.1593 z"
         style="fill:#d1d1d1;stroke-width:0.085059" />
      <path
         id="path1113"
         d="m 76.81176999999999,203.06161 c 0.06258,-0.0253 0.164986,-0.0253 0.22756699999998,0 0.06258,0.0252 0.01138,0.0459 -0.11378299999998,0.0459 -0.12516200000002,0 -0.17636400000001,-0.0207 -0.113784,-0.0459 z m 7.00903700000001,0 c 0.06258,-0.0253 0.164985,-0.0253 0.22756599999998,0 0.06258,0.0252 0.01138,0.0459 -0.11378299999998,0.0459 -0.125162,0 -0.17636400000001,-0.0207 -0.113783,-0.0459 z m 38.635713,-0.71344 c 0.002,-0.1502 0.0223,-0.20062 0.0453,-0.11205 0.0231,0.0886 0.0216,0.21145 -0.003,0.27307 -0.0249,0.0616 -0.0438,-0.0108 -0.042,-0.16102 z m -13.18744,-2.23015 c 0,-0.32542 0.0165,-0.45855 0.0367,-0.29584 0.0202,0.16271 0.0202,0.42897 0,0.59168 -0.0202,0.1627 -0.0367,0.0296 -0.0367,-0.29584 z m -17.392433,0.38882 c 0.187742,-0.0196 0.49495600000006,-0.0196 0.68269800000006,0 0.187742,0.0196 0.03414,0.0357 -0.34134900000005,0.0357 -0.375484,0 -0.52909099999998,-0.0161 -0.34134900000001,-0.0357 z m 20.894133,-0.001 c 0.31487,-0.0178 0.80641,-0.0177 1.09232,3.6e-4 0.28591,0.018 0.0283,0.0326 -0.57248,0.0324 -0.60078,-1.8e-4 -0.8347,-0.0149 -0.51984,-0.0327 z m -14.323522,-3.61909 c -5.499999996e-5,-1.25161 0.01277,-1.77626 0.02849,-1.16588 0.01573,0.61037 0.01577,1.63442 9.1e-5,2.27566 -0.01566,0.64123 -0.02852,0.14184 -0.028581,-1.10978 z m 14.456492,-0.29506 c 0.33794,-0.0175 0.89093,-0.0175 1.22886,0 0.33794,0.0175 0.0614,0.0318 -0.61443,0.0318 -0.67587,0 -0.95236,-0.0143 -0.61443,-0.0318 z m 15.15697,-0.17893 c 0.11323,-0.0218 0.27708,-0.0209 0.3641,0.002 0.087,0.0228 -0.006,0.0406 -0.20587,0.0396 -0.20025,-0.001 -0.27146,-0.0197 -0.15823,-0.0414 z m 11.6942,-0.66384 c 0,-0.17522 0.0187,-0.24691 0.0416,-0.15929 0.0229,0.0876 0.0229,0.23098 0,0.31859 -0.0229,0.0876 -0.0416,0.0159 -0.0416,-0.1593 z m 0,-1.00129 c 0,-0.17522 0.0187,-0.24691 0.0416,-0.15929 0.0229,0.0876 0.0229,0.23098 0,0.31859 -0.0229,0.0876 -0.0416,0.0159 -0.0416,-0.1593 z m -30.50779,-0.23515 c 0.004,-0.10604 0.0259,-0.12761 0.055,-0.055 0.0263,0.0657 0.0231,0.14422 -0.007,0.17446 -0.0302,0.0302 -0.0518,-0.0235 -0.0478,-0.11947 z m -21.42116000000001,-0.46232 c 0.06258,-0.0252 0.164985,-0.0252 0.22756600000001,0 0.06258,0.0253 0.01138,0.0459 -0.113783,0.0459 -0.12516100000001,0 -0.17636400000002,-0.0207 -0.11378300000001,-0.0459 z m 10.92886200000001,-0.002 c 0.06571,-0.0263 0.14421999999999,-0.0231 0.17446799999999,0.007 0.03025,0.0302 -0.02352,0.0518 -0.11947199999999,0.0478 -0.106042,-0.004 -0.12761,-0.0259 -0.055,-0.055 z m 10.832148,0 c 0.0657,-0.0263 0.14422,-0.0231 0.17447,0.007 0.0302,0.0302 -0.0235,0.0518 -0.11948,0.0478 -0.10604,-0.004 -0.12761,-0.0259 -0.055,-0.055 z m 10.963,-5.5e-4 c 0.0876,-0.0229 0.23098,-0.0229 0.31859,0 0.0876,0.0229 0.0159,0.0416 -0.1593,0.0416 -0.17522,0 -0.24691,-0.0187 -0.15929,-0.0416 z m 10.61027,5.5e-4 c 0.0657,-0.0263 0.14422,-0.0231 0.17446,0.007 0.0302,0.0302 -0.0235,0.0518 -0.11947,0.0478 -0.10604,-0.004 -0.12761,-0.0259 -0.055,-0.055 z m -48.61381400000002,-4.91909 c 0.16271,-0.0202 0.428962,-0.0202 0.591672,0 0.16271000000002,0.0202 0.02958,0.0367 -0.29583600000001,0.0367 -0.32541899999998,0 -0.458545,-0.0165 -0.29583599999999,-0.0367 z M 77.58549499999999,186.672 c 0.13767799999998,-0.0208 0.36296799999998,-0.0208 0.50064599999999,0 0.13767700000001,0.0209 0.02503,0.0379 -0.25032299999998,0.0379 -0.27535500000002,0 -0.38800000000002,-0.0171 -0.25032300000001,-0.0379 z"
         style="fill:#bebebe;stroke-width:0.085059" />
      <path
         id="path1111"
         d="m 77.181565,203.05971 c 0.06571,-0.0263 0.14422,-0.0231 0.174468,0.007 0.03025,0.0302 -0.02352,0.0518 -0.11947200000002,0.0478 C 77.13052,203.11051 77.108951,203.08861 77.181561,203.05951 Z m 6.094144,-0.002 c 0.113229,-0.0218 0.27707700000001,-0.0209 0.36410600000001,0.002 0.08703,0.0228 -0.0056,0.0406 -0.205871,0.0396 -0.20025800000001,-0.001 -0.27146399999999,-0.0197 -0.158235,-0.0414 z M 122.45315,201.93874 c 0,-0.12516 0.0207,-0.17637 0.0459,-0.11379 0.0252,0.0626 0.0252,0.16499 0,0.22757 -0.0252,0.0626 -0.0459,0.0114 -0.0459,-0.11378 z m -31.57779399999998,-1.4306 c 0.13767699999998,-0.0208 0.362968,-0.0208 0.50064500000001,0 0.13767799999999,0.0209 0.02503,0.0379 -0.25032299999999,0.0379 -0.27535400000001,0 -0.38800000000001,-0.0171 -0.25032200000001,-0.0379 z M 93.015539,200.50896 c 0.11322800000001,-0.0218 0.27707599999998,-0.0209 0.36410499999998,0.002 0.08703,0.0228 -0.0056,0.0406 -0.20587099999999,0.0396 C 92.97351499999999,200.54956 92.90230999999998,200.53096 93.015539,200.50916 Z m 21.617721,-0.002 c 0.18774,-0.0196 0.49495,-0.0196 0.6827,0 0.18774,0.0196 0.0341,0.0357 -0.34135,0.0357 -0.37549,0 -0.52909,-0.0161 -0.34135,-0.0357 z m 13.60845,-0.35808 c 0.0626,-0.0252 0.16499,-0.0252 0.22757,0 0.0626,0.0252 0.0114,0.0459 -0.11379,0.0459 -0.12516,0 -0.17636,-0.0207 -0.11378,-0.0459 z m 10.65172,-0.006 c 0.16361,-0.0203 0.40938,-0.0198 0.54616,9.3e-4 0.13678,0.0208 0.003,0.0373 -0.29746,0.0368 -0.30039,-5.4e-4 -0.4123,-0.0175 -0.2487,-0.0378 z m -29.62528,-1.07186 c 5.4e-4,-0.30039 0.0175,-0.4123 0.0378,-0.2487 0.0203,0.16361 0.0198,0.40938 -9.3e-4,0.54616 -0.0208,0.13678 -0.0373,0.003 -0.0368,-0.29746 z m 2.86757,-2.47438 c 0.0657,-0.0263 0.14422,-0.0231 0.17447,0.007 0.0302,0.0302 -0.0235,0.0518 -0.11948,0.0478 -0.10604,-0.004 -0.12761,-0.0259 -0.055,-0.055 z m 2.68132,-9.1e-4 c 0.0886,-0.0231 0.21145,-0.0216 0.27308,0.003 0.0616,0.0249 -0.0108,0.0438 -0.16103,0.042 -0.15019,-0.002 -0.20061,-0.0223 -0.11205,-0.0453 z m -38.460402,-0.0882 c 0.06258,-0.0253 0.16498600000004,-0.0253 0.22756600000001,0 0.06258,0.0252 0.01138,0.0459 -0.11378299999997,0.0459 -0.12516100000002,0 -0.17636300000001,-0.0207 -0.11378300000004,-0.0459 z M 127.05837,196.41093 c 0.16271,-0.0202 0.42896,-0.0202 0.59167,0 0.16271,0.0202 0.0296,0.0367 -0.29584,0.0367 -0.32542,0 -0.45854,-0.0165 -0.29583,-0.0367 z m 12.69317,-1.16301 c 0.002,-0.1502 0.0223,-0.20062 0.0453,-0.11205 0.0231,0.0886 0.0216,0.21145 -0.003,0.27308 -0.0249,0.0616 -0.0438,-0.0108 -0.042,-0.16103 z m -30.48681,-0.22757 c 0,-0.22529 0.0178,-0.31745 0.0395,-0.20481 0.0217,0.11265 0.0217,0.29698 0,0.40962 -0.0217,0.11265 -0.0395,0.0205 -0.0395,-0.20481 z m 21.55566,-0.50823 c 0.004,-0.10604 0.0259,-0.12761 0.055,-0.055 0.0263,0.0657 0.0231,0.14422 -0.007,0.17446 -0.0302,0.0302 -0.0518,-0.0235 -0.0478,-0.11947 z M 88.190076,194.0498 c 0.06258,-0.0252 0.164985,-0.0252 0.227566,0 0.06258,0.0253 0.01138,0.0459 -0.113783,0.0459 -0.12516200000002,0 -0.17636400000001,-0.0207 -0.113783,-0.0459 z m 5.78490699999999,-0.008 c 0.49073,-0.0164 1.26900600000002,-0.0163 1.72950200000001,1.8e-4 0.46049699999999,0.0165 0.05899,0.0299 -0.89223600000001,0.0298 -0.95122599999999,-8e-5 -1.327996,-0.0136 -0.837266,-0.03 z m 5.09448500000002,0.005 c 0.08857,-0.0231 0.211451,-0.0216 0.273079,0.003 0.06163,0.0249 -0.01084,0.0438 -0.16102800000002,0.042 -0.150194,-0.002 -0.20061699999998,-0.0223 -0.11205099999998,-0.0453 z M 104.80713,194.0418 c 0.49073,-0.0164 1.26901,-0.0163 1.7295,1.8e-4 0.4605,0.0165 0.059,0.0299 -0.89223,0.0298 -0.95123,-8e-5 -1.328,-0.0136 -0.83727,-0.03 z m 10.7819,9e-5 c 0.4631,-0.0165 1.2209,-0.0165 1.68399,0 0.4631,0.0165 0.0842,0.03 -0.84199,0.03 -0.92619,0 -1.30509,-0.0135 -0.842,-0.03 z m 5.5071,0.005 c 0.0876,-0.0229 0.23098,-0.0229 0.3186,0 0.0876,0.0229 0.0159,0.0416 -0.1593,0.0416 -0.17523,0 -0.24691,-0.0187 -0.1593,-0.0416 z m 7.1018,-3.7e-4 c 0.0886,-0.0231 0.21145,-0.0216 0.27308,0.003 0.0616,0.0249 -0.0108,0.0438 -0.16103,0.042 -0.15019,-0.002 -0.20062,-0.0222 -0.11205,-0.0453 z M 81.454119,189.12837 c 0.16271000000002,-0.0202 0.428962,-0.0202 0.59167200000002,0 0.16271,0.0202 0.02958,0.0367 -0.29583600000001,0.0367 -0.32541999999998,0 -0.45854599999998,-0.0165 -0.29583600000001,-0.0367 z m -2.867333,-2.45818 c 0.187742,-0.0196 0.494956,-0.0196 0.682698,0 0.187742,0.0196 0.03413,0.0357 -0.34134899999998,0.0357 -0.375484,0 -0.52909099999999,-0.0161 -0.34134900000002,-0.0357 z m 5.82742500000002,0.003 c 0.08857,-0.0231 0.21145099999998,-0.0216 0.27307899999998,0.003 0.06163,0.0249 -0.01084,0.0438 -0.161029,0.042 -0.150193,-0.002 -0.20061599999998,-0.0223 -0.11204999999998,-0.0453 z"
         style="fill:#aeaeae;stroke-width:0.085059" />
      <path
         id="path1109"
         d="m 77.586747,203.05657 c 0.13836599999999,-0.0209 0.343175,-0.0204 0.45513199999999,0.001 0.11195700000002,0.0216 -0.0013,0.0387 -0.25157399999999,0.038 -0.25032300000001,-7.3e-4 -0.34192400000002,-0.0184 -0.203558,-0.0393 z m 4.82315,9e-5 c 0.13767699999998,-0.0208 0.362968,-0.0208 0.50064500000001,0 0.13767799999999,0.0209 0.02503,0.0379 -0.25032299999999,0.0379 C 82.38486399999999,203.09456 82.272219,203.07746 82.409897,203.05666 Z m 23.166233,0.005 c 0.0626,-0.0252 0.16498,-0.0252 0.22756,0 0.0626,0.0252 0.0114,0.0459 -0.11378,0.0459 -0.12516,0 -0.17636,-0.0207 -0.11378,-0.0459 z m 1.18903,-0.002 c 0.0657,-0.0263 0.14422,-0.0231 0.17447,0.007 0.0302,0.0302 -0.0235,0.0518 -0.11948,0.0478 -0.10604,-0.004 -0.12761,-0.0259 -0.055,-0.055 z m -5.97631,-0.57497 c 0,-0.12517 0.0207,-0.17637 0.0459,-0.11379 0.0252,0.0626 0.0252,0.16499 0,0.22757 -0.0253,0.0626 -0.0459,0.0114 -0.0459,-0.11378 z m 21.66767,-0.95578 c 0.002,-0.1502 0.0223,-0.20062 0.0453,-0.11205 0.0231,0.0886 0.0216,0.21145 -0.003,0.27308 -0.0249,0.0616 -0.0438,-0.0108 -0.042,-0.1610300000001 z M 93.566325,200.51095 c 0.06571,-0.0263 0.14422,-0.0231 0.174468,0.007 0.03025,0.0302 -0.02352,0.0518 -0.119473,0.0478 -0.106041,-0.004 -0.12761000000002,-0.0259 -0.05499,-0.055 z M 127.1518,200.14226 c 0.2141,-0.0192 0.54179,-0.019 0.72821,6.4e-4 0.18642,0.0196 0.0113,0.0353 -0.38927,0.035 -0.40051,-3.7e-4 -0.55304,-0.0163 -0.33894,-0.0356 z m 10.51115,4.5e-4 c 0.18774,-0.0196 0.49495,-0.0196 0.6827,0 0.18774,0.0196 0.0341,0.0357 -0.34135,0.0357 -0.37549,0 -0.5291,-0.0161 -0.34135,-0.0357 z m -28.3854,-3.16512 c 9e-5,-0.90116 0.0137,-1.25751 0.0303,-0.79188 0.0166,0.46563 0.0165,1.20295 -1.8e-4,1.63848 -0.0167,0.43553 -0.0302,0.0546 -0.0301,-0.8466 z m 5.95307,-0.38077 c 0.0657,-0.0263 0.14422,-0.0231 0.17447,0.007 0.0302,0.0302 -0.0235,0.0518 -0.11948,0.0478 -0.10604,-0.004 -0.12761,-0.0259 -0.055,-0.055 z m -38.23439100000208,-0.0956 c 0.21409799999998,-0.0192 0.541793,-0.0189 0.728212,6.4e-4 0.186419,0.0196 0.01125,0.0353 -0.389268,0.035 -0.40051700000001,-3.6e-4 -0.55304099999998,-0.0163 -0.338944,-0.0356 z M 125.96605,196.41112 c 0.16271,-0.0202 0.42896,-0.0202 0.59167,0 0.16271,0.0202 0.0296,0.0367 -0.29583,0.0367 -0.32542,0 -0.45855,-0.0165 -0.29584,-0.0367 z m 13.06403,0.003 c 0.0886,-0.0231 0.21145,-0.0216 0.27308,0.003 0.0616,0.0249 -0.0108,0.0438 -0.16103,0.042 -0.1502,-0.002 -0.20062,-0.0222 -0.11205,-0.0453 z m -8.20969,-1.62849 c 0.004,-0.10604 0.0259,-0.12761 0.055,-0.055 0.0263,0.0657 0.0231,0.14422 -0.007,0.17446 -0.0302,0.0302 -0.0518,-0.0235 -0.0478,-0.11947 z m -45.77911099999997,-0.31101 c 0,-0.12516 0.02066,-0.17636 0.04591,-0.11378 0.02525,0.0626 0.02525,0.16499 0,0.22757 -0.02525,0.0626 -0.04591,0.0114 -0.04591,-0.11379 z m 4.554333,-0.43208 c 0.63536899999998,-0.0156 1.700378,-0.0157 2.36668799999998,-9e-5 0.66631100000001,0.0156 0.14646400000001,0.0284 -1.15521399999999,0.0284 -1.301678,4.99999999e-5 -1.84684100000001,-0.0127 -1.211474,-0.0283 z M 100.52416,194.0424999999999 c 0.63832,-0.0156 1.68285,-0.0156 2.32117,0 0.63833,0.0156 0.11606,0.0284 -1.16058,0.0284 -1.27665,0 -1.79891399999997,-0.0128 -1.16059,-0.0284 z m 10.65553,-6e-5 c 0.69139,-0.0155 1.79736,-0.0155 2.45772,8e-5 0.66036,0.0155 0.0947,0.0282 -1.25706,0.0281 -1.35174,-4e-5 -1.89204,-0.0127 -1.20066,-0.0282 z m 10.73568,9.9999999998e-4 c 0.23781,-0.0188 0.62695,-0.0188 0.86475,0 0.23781,0.0187 0.0432,0.0341 -0.43237,0.0341 -0.47562,0 -0.67018,-0.0153 -0.43238,-0.0341 z m 5.46159,0.002 c 0.13768,-0.0209 0.36297,-0.0209 0.50064,0 0.13768,0.0209 0.025,0.0379 -0.25032,0.0379 -0.27535,0 -0.388,-0.0171 -0.25032,-0.0379 z m 4.68786,-0.002 c 0.3129,-0.0178 0.82493,-0.0178 1.13783,0 0.3129000000001,0.0178 0.0569,0.0323 -0.5689099999999,0.0323 -0.62581,0 -0.8818200000001,-0.0145 -0.5689200000001,-0.0323 z m -51.70301799999997,-4.9138800000001 c 0.16270900000001,-0.0202 0.428962,-0.0202 0.59167199999999,0 0.16270900000002,0.0202 0.02958,0.0367 -0.29583599999998,0.0367 -0.32541999999999,0 -0.458546,-0.0165 -0.29583600000001,-0.0367 z m 0.36410499999999,-2.4599 c 0.66335599999999,-0.0155 1.748846,-0.0155 2.412201,0 0.663355,0.0156 0.12061,0.0283 -1.20610000000001,0.0283 -1.32671100000002,0 -1.869456,-0.0127 -1.20610099999999,-0.0283 z"
         style="fill:#9f9f9f;stroke-width:0.085059" />
      <path
         id="path1107"
         d="m 78.541273,203.05524 c 0.21277399999998,-0.0192 0.56094999999999,-0.0192 0.773725,0 0.21277399999998,0.0192 0.03869,0.0348 -0.38686300000002,0.0348 -0.42554799999999,0 -0.59963599999999,-0.0157 -0.38686199999998,-0.0348 z m 2.958359,0.001 c 0.13767799999998,-0.0209 0.362968,-0.0209 0.50064599999999,0 0.13767700000001,0.0208 0.02503,0.0379 -0.25032299999998,0.0379 -0.27535500000002,0 -0.38800000000002,-0.0171 -0.25032300000001,-0.0379 z M 105.94592,203.05924 c 0.0657,-0.0263 0.14422,-0.0231 0.17447,0.007 0.0302,0.0302 -0.0235,0.0518 -0.11947,0.0478 -0.10604,-0.004 -0.12761,-0.0259 -0.055,-0.055 z m 0.44944,0.002 c 0.0626,-0.0252 0.16499,-0.0252 0.22757,0 0.0626,0.0252 0.0114,0.0459 -0.11378,0.0459 -0.12516,0 -0.17637,-0.0207 -0.11379,-0.0459 z m 5.1948,-0.008 c 1.21753,-0.0143 3.1837,-0.0143 4.36927,4e-5 1.18558,0.0144 0.18942,0.0261 -2.21368,0.0261 -2.4031,-2e-5 -3.37311,-0.0118 -2.15559,-0.0261 z m -10.7884,-1.20616 c 0,-0.27535 0.0171,-0.388 0.0379,-0.25032 0.0209,0.13768 0.0209,0.36297 0,0.50064 -0.0209,0.13768 -0.0379,0.025 -0.0379,-0.25032 z m 21.6442,-0.69028 c 0.004,-0.10604 0.0259,-0.12761 0.055,-0.055 0.0263,0.0657 0.0231,0.14422 -0.007,0.17447 -0.0302,0.0302 -0.0518,-0.0235 -0.0478,-0.11947 z m 1.19891,-1.01617 c 0.58826,-0.0159 1.55087,-0.0159 2.13913,0 0.58825,0.0159 0.10695,0.0288 -1.06956,0.0288 -1.17652,0 -1.65782,-0.013 -1.06957,-0.0288 z m 12.88025,0.002 c 0.16271,-0.0202 0.42896,-0.0202 0.59167,0 0.16271,0.0202 0.0296,0.0367 -0.29584,0.0367 -0.32542,0 -0.45854,-0.0165 -0.29583,-0.0367 z m -58.25895700000005,-3.64091 c 0.16159300000001,-0.0201 0.44832700000002,-0.0204 0.63718500000002,-7.2e-4 0.18885899999999,0.0197 0.05665,0.0362 -0.29380500000001,0.0366 -0.350452,3.6e-4 -0.50497299999999,-0.0157 -0.34338000000001,-0.0358 z M 123.82295,196.40902 c 0.33574,-0.0175 0.90921,-0.0176 1.27437,-2.7e-4 0.36515,0.0173 0.0905,0.0316 -0.61045,0.0318 -0.7009,1.9e-4 -0.99967,-0.014 -0.66392,-0.0315 z m 13.52497,-7e-5 c 0.31487,-0.0178 0.80641,-0.0177 1.09232,3.6e-4 0.28591,0.018 0.0283,0.0326 -0.57248,0.0324 -0.60078,-1.8e-4 -0.8347,-0.0149 -0.51984,-0.0327 z m -6.50558,-0.93381 c 0,-0.32541 0.0165,-0.45854 0.0367,-0.29583 0.0202,0.16271 0.0202,0.42896 0,0.59167 -0.0202,0.16271 -0.0367,0.0296 -0.0367,-0.29584 z m -45.80824700000002,-0.69028 c 0.0044,-0.10604 0.02594,-0.12761 0.055,-0.055 0.02629,0.0657 0.02306,0.14422 -0.0072,0.17446 -0.03025,0.0302 -0.05176,-0.0235 -0.04781,-0.11947 z M 124.14552,194.0418 c 0.56323,-0.016 1.48487,-0.016 2.0481,0 0.56322,0.016 0.1024,0.029 -1.02405,0.029 -1.12645,0 -1.58728,-0.0131 -1.02405,-0.029 z m 11.06549,-1.9e-4 c 0.84176,-0.015 2.19351,-0.015 3.00388,7e-5 0.81037,0.0151 0.12165,0.0274 -1.53048,0.0273 -1.65213,-4e-5 -2.31516,-0.0124 -1.4734,-0.0274 z m -55.53190700000001,-4.91003 c 0.08761,-0.0229 0.23098000000003,-0.0229 0.31859300000002,0 0.08761,0.0229 0.01593,0.0416 -0.15929600000001,0.0416 -0.17522599999994,0 -0.24691,-0.0187 -0.15929700000001,-0.0416 z"
         style="fill:#8f8f8f;stroke-width:0.085059" />
      <path
         id="path1105"
         d="m 87.607453,202.30265 c 0,-0.42555 0.01568,-0.59963 0.03484,-0.38686 0.01916,0.21277 0.01916,0.56095 0,0.77372 -0.01917,0.21278 -0.03484,0.0387 -0.03484,-0.38686 z M 100.7956,201.11931 c 0,-0.17523 0.0187,-0.24691 0.0416,-0.1593 0.0229,0.0876 0.0229,0.23098 0,0.3186 -0.0229,0.0876 -0.0416,0.0159 -0.0416,-0.1593 z m 21.65036,-0.23515 c 0.004,-0.10604 0.0259,-0.12761 0.055,-0.055 0.0263,0.0657 0.0231,0.14422 -0.007,0.17447 -0.0302,0.0303 -0.0518,-0.0235 -0.0478,-0.11947 z m -6.7955,-2.31359 c 0,-1.07639 0.0132,-1.51673 0.0293,-0.97853 0.0161,0.53819 0.0161,1.41887 0,1.95706 -0.0161,0.5382 -0.0293,0.0979 -0.0293,-0.97853 z m 15.18878,-2.13912 c 7.3e-4,-0.25032 0.0184,-0.34192 0.0393,-0.20356 0.0209,0.13837 0.0204,0.34318 -9.9999999998e-4,0.45514 -0.0216,0.11195 -0.0387,-0.001 -0.038,-0.25158 z m -54.60958799999998,-0.72821 c -2.7700000001e-4,-0.45058 0.01511,-0.64639 0.03421,-0.43512 0.01909,0.21126 0.01932,0.57992 5.0400000002e-4,0.81924 -0.01881,0.23931 -0.03443,0.0665 -0.03471,-0.38412 z M 107.3607,194.884 c -2.8e-4,-0.45058 0.0151,-0.64638 0.0342,-0.43512 0.0191,0.21126 0.0193,0.57992 5.5e-4,0.81924 -0.0189,0.23932 -0.0345,0.0665 -0.0348,-0.38412 z M 87.602924,194.56541 c 0,-0.27535 0.01707,-0.388 0.03792,-0.25032 0.02086,0.13768 0.02086,0.36297 0,0.50064 -0.02086,0.13768 -0.03792,0.025 -0.03792,-0.25032 z m -8.916663,-2.86733 c 3.27e-4,-0.40052 0.01633,-0.55304 0.03556,-0.33894 0.01923,0.21409 0.01896,0.54179 -6.01e-4,0.72821 -0.01956,0.18642 -0.03529,0.0113 -0.034959,-0.38927 z m -2.459784,-4.41478 c 0,-0.32542 0.01652,-0.45854 0.03671,-0.29584 0.02019,0.16271 0.02019,0.42897 0,0.59168 -0.02019,0.16271 -0.03671,0.0296 -0.03671,-0.29584 z"
         style="fill:#858585;stroke-width:0.085059" />
      <path
         id="path1103"
         d="m 80.088722,203.05524 c 0.21277499999998,-0.0192 0.560951,-0.0192 0.773725,0 0.21277399999998,0.0192 0.03869,0.0348 -0.38686200000001,0.0348 -0.42554899999999,0 -0.599637,-0.0157 -0.38686299999999,-0.0348 z m 4.94537099999998,-0.89671 c 0.0044,-0.10604 0.02594,-0.12761 0.055,-0.055 0.02629,0.0657 0.02306,0.14422 -0.0072,0.17447 -0.03025,0.0302 -0.05176,-0.0235 -0.04781,-0.11947 z M 87.609323,200.66418 c 0,-0.52568 0.01505,-0.74073 0.03343,-0.47789 0.01839,0.26284 0.01839,0.69294 0,0.95578 -0.01839,0.26283 -0.03343,0.0478 -0.03343,-0.47789 z M 100.7956,200.57318 c 0,-0.17522 0.0187,-0.24691 0.0416,-0.15929 0.0229,0.0876 0.0229,0.23097 0,0.31859 -0.0229,0.0876 -0.0416,0.0159 -0.0416,-0.1593 z m 34.86602,-0.42942 c 0.13836,-0.0209 0.34317,-0.0204 0.45513,0.001 0.11196,0.0216 -0.001,0.0387 -0.25158,0.038 -0.25032,-7.3e-4 -0.34192,-0.0184 -0.20355,-0.0393 z m -4.82362,-2.93855 c 0,-0.22529 0.0178,-0.31746 0.0395,-0.20481 0.0217,0.11264 0.0217,0.29697 0,0.40961 -0.0217,0.11265 -0.0395,0.0205 -0.0395,-0.2048 z m -23.47637,-0.6827 c 2.7e-4,-0.50065 0.0155,-0.69384 0.034,-0.42933 0.0185,0.26452 0.0182,0.67414 -4.6e-4,0.91027 -0.0187,0.23613 -0.0338,0.0197 -0.0335,-0.48094 z M 87.61101499999999,196.1584 c 1.8199999998e-4,-0.65084 0.01466,-0.90514 0.03222,-0.56513 0.01756,0.34002 0.01743,0.87252 -2.7300000001e-4,1.18335 -0.01772,0.31082 -0.03209,0.0326 -0.03193,-0.61822 z m -8.158416,0.34524 c 0.113229,-0.0218 0.27707599999999,-0.0209 0.36410499999998,0.002 0.08703,0.0228 -0.0056,0.0406 -0.20586999999999,0.0396 -0.200259,-0.001 -0.27146400000001,-0.0197 -0.15823500000002,-0.0414 z M 122.78119,196.41264 c 0.11322,-0.0218 0.27707,-0.0209 0.3641,0.002 0.087,0.0228 -0.006,0.0406 -0.20587,0.0396 -0.20026,-0.001 -0.27146,-0.0197 -0.15823,-0.0414 z m 12.51507,-0.003 c 0.28787,-0.0181 0.75893,-0.0181 1.0468,0 0.28787,0.0181 0.0523,0.0328 -0.5234,0.0328 -0.57574,0 -0.81127,-0.0148 -0.5234,-0.0328 z m -59.06486800000002,-2.43596 c 2.0499999999e-4,-0.55071 0.0152,-0.76426 0.03332,-0.47457 0.01812,0.2897 0.01795,0.74028 -3.7400000001e-4,1.00129 -0.01832,0.2610200000001 -0.03315,0.024 -0.03294,-0.52672 z m 2.44969900000001,-1.18334 c 6.8199999998e-4,-0.2503299999999 0.01836,-0.3419299999999 0.03928,-0.20356 0.02092,0.13836 0.02036,0.34317 -0.0012,0.45513 -0.02161,0.11196 -0.03872,-0.001 -0.03804,-0.25157 z m 0,-2.18464 c 6.8199999998e-4,-0.2503199999999 0.01836,-0.3419199999999 0.03928,-0.20355 0.02092,0.13836 0.02036,0.34317 -0.0012,0.45513 -0.02161,0.11195 -0.03872,-0.001 -0.03804,-0.25158 z m -2.44809200000002,-1.59296 c 0,-0.67587 0.01433,-0.95236 0.03184,-0.61443 0.01751,0.33794 0.01751,0.89092 0,1.22886 -0.01751,0.33794 -0.03184,0.0614 -0.03184,-0.61443 z"
         style="fill:#7e7e7e;stroke-width:0.085059" />
      <path
         id="path1101"
         d="m 107.36832,199.84494 c 0,-1.37677 0.0127,-1.94 0.0281,-1.25161 0.0155,0.68838 0.0155,1.81484 0,2.50322 -0.0155,0.68839 -0.0281,0.12516 -0.0281,-1.25161 z m 23.46263,2.13912 c 0.002,-0.15019 0.0223,-0.20062 0.0453,-0.11205 0.0231,0.0886 0.0216,0.21145 -0.003,0.27308 -0.0249,0.0616 -0.0438,-0.0108 -0.042,-0.16103 z m -30.03168,-2.04809 c 0,-0.22529 0.0178,-0.31746 0.0394,-0.20481 0.0217,0.11264 0.0217,0.29697 0,0.40962 -0.0217,0.11264 -0.0394,0.0205 -0.0394,-0.20481 z m 28.10957,-0.14413 c 0.004,-0.10604 0.0259,-0.12761 0.055,-0.055 0.0263,0.0657 0.0231,0.14422 -0.007,0.17446 -0.0302,0.0303 -0.0518,-0.0235 -0.0478,-0.11947 z m -41.29727700000002,-1.26678 c 1.8200000001e-4,-0.70091 0.01443,-0.97561 0.03175,-0.61045 0.01732,0.36516 0.01721,0.93863 -2.7299999998e-4,1.27437 -0.01745,0.33575 -0.03162,0.037 -0.03148,-0.66392 z M 130.83616,197.88787 c 0.001,-0.20025 0.0196,-0.27146 0.0414,-0.15823 0.0218,0.11323 0.0209,0.27707 -0.002,0.3641 -0.0228,0.087 -0.0406,-0.006 -0.0396,-0.20587 z M 85.041279,195.47567 c 0,-0.12516 0.02066,-0.17636 0.04591,-0.11378 0.02525,0.0626 0.02525,0.16499 0,0.22757 -0.02525,0.0626 -0.04591,0.0114 -0.04591,-0.11379 z m -8.80709,-3.86862 c 1.1499999999e-4,-0.80103 0.01404,-1.11654 0.03095,-0.70113 0.0169,0.41541 0.01681,1.0708 -2.09e-4,1.45642 -0.01702,0.38563 -0.03085,0.0457 -0.03074,-0.75529 z m 2.43523999999999,-1.59296 c 0,-0.12516 0.02066,-0.17636 0.04591,-0.11378 0.02525,0.0626 0.02525,0.16498 0,0.22756 -0.02525,0.0626 -0.04591,0.0114 -0.04591,-0.11378 z"
         style="fill:#767676;stroke-width:0.085059" />
      <path
         id="path1099"
         d="m 89.82223399999999,203.05371 c 1.21059099999998,-0.0143 3.21772399999999,-0.0143 4.460296,-3e-5 1.24257199999998,0.0143 0.252089,0.026 -2.20107400000002,0.0261 -2.45316199999999,1e-5 -3.46981199999999,-0.0117 -2.25922199999998,-0.026 z m 9.19998799999999,0.008 c 0.06258,-0.0252 0.164986,-0.0252 0.22756600000001,0 0.06258,0.0253 0.01138,0.0459 -0.11378300000001,0.0459 -0.12516099999999,0 -0.17636299999998,-0.0207 -0.113783,-0.0459 z M 76.21508699999999,202.4393 c 0.0019,-0.15019 0.02226,-0.20061 0.04534,-0.11205 0.02308,0.0886 0.02156,0.21145 -0.0034,0.27308 -0.02494,0.0616 -0.04382,-0.0108 -0.04196,-0.16103 z m 8.81900599999999,-0.73579 c 0.0044,-0.10605 0.02594,-0.12761 0.055,-0.055 0.02629,0.0657 0.02306,0.14422 -0.0072,0.17447 -0.03025,0.0302 -0.05176,-0.0235 -0.04781,-0.11947 z M 130.85146,199.98159 c -9e-5,-1.00129 0.0132,-1.42333 0.0296,-0.93786 0.0163,0.48546 0.0164,1.3047 1.8e-4,1.82053 -0.0163,0.51582 -0.0296,0.11862 -0.0297,-0.88267 z m -54.63300000000001,1.31988 c 0,-0.17522 0.01873,-0.24691 0.04163,-0.15929 0.0229,0.0876 0.0229,0.23098 0,0.31859 -0.0229,0.0876 -0.04163,0.0159 -0.04163,-0.1593 z M 134.75135,200.14384 c 0.13837,-0.0209 0.34318,-0.0204 0.45513,9.9999999998e-4 0.11196,0.0216 -0.001,0.0387 -0.25157,0.038 -0.25032,-7.3e-4 -0.34192,-0.0184 -0.20356,-0.0393 z m -5.82858,-0.75392 c 0,-0.17523 0.0187,-0.24691 0.0416,-0.1593 0.0229,0.0876 0.0229,0.23098 0,0.31859 -0.0229,0.0876 -0.0416,0.0159 -0.0416,-0.15929 z m -28.11504,-0.6827 c 2.7e-4,-0.50064 0.0155,-0.69384 0.034,-0.42932 0.0184,0.26451 0.0182,0.67413 -4.6e-4,0.91026 -0.0187,0.23613 -0.0338,0.0197 -0.0335,-0.48094 z m -6.73800099999998,-0.72821 c 3.6500000003e-4,-0.40052 0.01633,-0.55304 0.03556,-0.33894 0.01923,0.21409 0.01896,0.54179 -6.3799999998e-4,0.72821 -0.01956,0.18642 -0.03529,0.0113 -0.03496,-0.38927 z M 122.87684,197.59824 c 0.0657,-0.0263 0.14422,-0.0231 0.17447,0.007 0.0302,0.0302 -0.0235,0.0518 -0.11948,0.0478 -0.10604,-0.004 -0.12761,-0.0259 -0.055,-0.055 z m 0.72252,-0.004 c 0.21278,-0.0192 0.56095,-0.0192 0.77373,0 0.21277,0.0192 0.0387,0.0348 -0.38687,0.0348 -0.42554,0 -0.59963,-0.0157 -0.38686,-0.0348 z m 14.33667,-2.8e-4 c 0.2378,-0.0187 0.62694,-0.0187 0.86475,0 0.2378,0.0188 0.0432,0.0341 -0.43238,0.0341 -0.47561,0 -0.67018,-0.0153 -0.43237,-0.0341 z M 80.1342360000001,196.50581 c 0.08761,-0.0229 0.23097899999999,-0.0229 0.31859199999998,0 0.08761,0.0229 0.01593,0.0416 -0.159296,0.0416 -0.17522600000001,0 -0.246909,-0.0187 -0.15929599999998,-0.0416 z m 11.607501,-0.003 c 0.16360699999998,-0.0203 0.40937799999998,-0.0199 0.54615899999997,9.2e-4 0.13678100000003,0.0208 0.0029,0.0374 -0.297466,0.0368 -0.30038799999998,-5.5e-4 -0.41229899999999,-0.0175 -0.24869299999997,-0.0378 z m -6.688795,-0.43466 c 6.8199999998e-4,-0.25033 0.01836,-0.34193 0.03928,-0.20356 0.02092,0.13836 0.02036,0.34317 -0.0012,0.45513 -0.02161,0.11196 -0.03872,-9.9999999998e-4 -0.03804,-0.25157 z M 134.02189,196.41257 c 0.13768,-0.0209 0.36297,-0.0209 0.5006400000001,0 0.1376799999999,0.0208 0.025,0.0379 -0.25032,0.0379 -0.27535,0 -0.388,-0.0171 -0.2503200000001,-0.0379 z m -55.01979599999997,-7.2791 c 0.06571,-0.0263 0.14421999999999,-0.0231 0.17446799999999,0.007 0.03025,0.0302 -0.02352,0.0518 -0.119473,0.0478 -0.10603999999998,-0.004 -0.12760999999999,-0.0259 -0.055,-0.055 z"
         style="fill:#6f6f6f;stroke-width:0.085059" />
      <path
         id="path1097"
         d="m 99.568381,203.05604 c 0.16271,-0.0202 0.428962,-0.0202 0.591669,0 0.16271,0.0202 0.0296,0.0367 -0.295833,0.0367 C 99.538797,203.09274 99.40567099999998,203.07624 99.568381,203.05604 Z m 20.982849,5.5e-4 c 0.13836,-0.0209 0.34317,-0.0204 0.45513,0.001 0.11196,0.0216 -0.001,0.0387 -0.25157,0.038 -0.25033,-7.3e-4 -0.34193,-0.0184 -0.20356,-0.0393 z m 10.79107,0.003 c 0.0657,-0.0263 0.14422,-0.0231 0.17447,0.007 0.0302,0.0302 -0.0235,0.0518 -0.11948,0.0478 -0.10604,-0.004 -0.12761,-0.0259 -0.055,-0.055 z m -55.12200300000002,-1.1667 c 9.9999999999e-4,-0.20025 0.01965,-0.27146 0.04142,-0.15823 0.02177,0.11323 0.02095,0.27708 -0.0018,0.3641 -0.02278,0.087 -0.0406,-0.006 -0.03959,-0.20587 z m 8.84028600000002,-1.22885 c 0,-0.52568 0.01505,-0.74073 0.03343,-0.47789 0.01839,0.26284 0.01839,0.69294 0,0.95578 -0.01839,0.26283 -0.03343,0.0478 -0.03343,-0.47789 z m 48.871527,-0.52045 c 0.13837,-0.0209 0.34318,-0.0204 0.45514,0.001 0.11195,0.0216 -0.001,0.0387 -0.25158,0.038 -0.25032,-7.3e-4 -0.34192,-0.0184 -0.20356,-0.0393 z m -43.86338100000001,-1.25457 c 1.82e-4,-0.65084 0.01466,-0.90514 0.03222,-0.56513 0.01756,0.34002 0.01743,0.87253 -2.7300000002e-4,1.18335 -0.01772,0.31082 -0.03209,0.0326 -0.03193,-0.61822 z M 111.7324,198.34287 c 1.9e-4,-0.60078 0.0149,-0.8347 0.0327,-0.51984 0.0178,0.31487 0.0177,0.80641 -3.6e-4,1.09232 -0.018,0.28591 -0.0326,0.0283 -0.0324,-0.57248 z m 17.20046,0.091 c 3.6e-4,-0.40051 0.0163,-0.55304 0.0356,-0.33894 0.0192,0.2141 0.019,0.54179 -6.4e-4,0.72821 -0.0196,0.18642 -0.0353,0.0113 -0.035,-0.38927 z m -34.87996300000003,0.40962 c 0,-0.12516 0.02066,-0.17636 0.04591,-0.11378 0.02525,0.0626 0.02525,0.16498 0,0.22756 -0.02525,0.0626 -0.04591,0.0114 -0.04591,-0.11378 z M 100.80435,197.25053 c 3.6e-4,-0.35045 0.0169,-0.48266 0.0366,-0.29381 0.0197,0.18886 0.0194,0.47559 -7.3e-4,0.63719 -0.0201,0.16159 -0.0362,0.007 -0.0358,-0.34338 z m -15.74757400000003,-0.18205 c 4.0099999998e-4,-0.35046 0.01686,-0.48267 0.03656,-0.29381 0.01971,0.18886 0.01937,0.47559 -7.38e-4,0.63718 -0.02011,0.1616 -0.03623,0.007 -0.03582,-0.34337 z M 125.05578,197.5935 c 0.21278,-0.0192 0.56096,-0.0192 0.77373,0 0.21277,0.0192 0.0387,0.0348 -0.38686,0.0348 -0.42555,0 -0.59964,-0.0157 -0.38687,-0.0348 z m 10.96869,-6.4e-4 c 0.28787,-0.0181 0.75893,-0.0181 1.04681,0 0.28787,0.0181 0.0523,0.0328 -0.52341,0.0328 -0.57574,0 -0.81127,-0.0148 -0.5234,-0.0328 z M 94.04571099999998,197.1519 c 0.0044,-0.10604 0.02594,-0.12761 0.055,-0.055 0.0263,0.0657 0.02306,0.14422 -0.0072,0.17447 -0.03025,0.0302 -0.05176,-0.0235 -0.04781,-0.11947 z m -13.31874199999999,-0.64845 c 0.113229,-0.0218 0.27707599999999,-0.0209 0.36410600000001,0.002 0.08703,0.0228 -0.0056,0.0406 -0.205871,0.0396 -0.20025800000001,-0.001 -0.27146399999999,-0.0197 -0.158235,-0.0414 z m 10.1939,1.8e-4 c 0.112645,-0.0217 0.29697400000001,-0.0217 0.40961900000001,0 0.112645,0.0217 0.02048,0.0394 -0.20481000000001,0.0394 -0.22528999999999,0 -0.317454,-0.0178 -0.204809,-0.0394 z m 1.683989,0.001 c 0.08761,-0.0229 0.23098,-0.0229 0.31859300000001,0 0.08761,0.0229 0.01593,0.0416 -0.159297,0.0416 -0.17522500000001,0 -0.246909,-0.0187 -0.15929600000001,-0.0416 z m -13.942616,-2.9032 c 0.0044,-0.10604 0.02594,-0.12761 0.05499,-0.055 0.0263,0.0657 0.02306,0.14422 -0.0072,0.17446 -0.03025,0.0302 -0.05176,-0.0235 -0.04781,-0.11947 z"
         style="fill:#5f5f5f;stroke-width:0.085059" />
      <path
         id="path1095"
         d="m 121.36921,203.05669 c 0.13768,-0.0208 0.36297,-0.0208 0.50065,0 0.13768,0.0209 0.025,0.0379 -0.25032,0.0379 -0.27536,0 -0.388,-0.0171 -0.25033,-0.0379 z m 10.24617,0.003 c 0.0657,-0.0263 0.14422,-0.0231 0.17447,0.007 0.0302,0.0302 -0.0235,0.0518 -0.11948,0.0478 -0.10604,-0.004 -0.12761,-0.0259 -0.055,-0.055 z m 1.09232,0 c 0.0657,-0.0263 0.14422,-0.0231 0.17446,0.007 0.0302,0.0302 -0.0235,0.0518 -0.11947,0.0478 -0.10604,-0.004 -0.12761,-0.0259 -0.055,-0.055 z m -42.667152,-2.90376 c 0.0044,-0.10604 0.02594,-0.12761 0.05499,-0.055 0.0263,0.0657 0.02306,0.14422 -0.0072,0.17447 -0.03025,0.0302 -0.05176,-0.0235 -0.04781,-0.11947 z M 111.72369,199.79941 c 7.3e-4,-0.25033 0.0184,-0.34193 0.0393,-0.20356 0.0209,0.13837 0.0204,0.34317 -0.001,0.45513 -0.0216,0.11196 -0.0387,-0.001 -0.038,-0.25157 z m 21.70653,0.34933 c 0.0626,-0.0252 0.16498,-0.0252 0.22756,0 0.0626,0.0252 0.0114,0.0459 -0.11378,0.0459 -0.1251599999999,0 -0.1763599999999,-0.0207 -0.11378,-0.0459 z m -48.3685629999997,-1.44165 c 1.8300000005e-4,-0.60077 0.01491,-0.8347 0.03274,-0.51983 0.01783,0.31486 0.01768,0.8064 -3.2799999998e-4,1.09231 -0.01801,0.28591 -0.03259,0.0283 -0.03241,-0.57248 z M 94.052897,199.20774 c 0,-0.12517 0.02066,-0.17637 0.04591,-0.11379 0.02525,0.0626 0.02525,0.16499 0,0.22757 -0.02525,0.0626 -0.04591,0.0114 -0.04591,-0.11378 z m -3.99658100000001,-1.77502 c 0.001,-0.20026 0.01965,-0.27146 0.04143,-0.15823 0.02177,0.11323 0.02095,0.27707 -0.0018,0.3641 -0.02278,0.087 -0.0406,-0.006 -0.03959,-0.20587 z M 126.51461,197.59352 c 0.2141,-0.0192 0.5418,-0.019 0.72822,6.4e-4 0.18641,0.0196 0.0112,0.0353 -0.38927,0.035 -0.40052,-3.7e-4 -0.55304,-0.0163 -0.33895,-0.0356 z m 7.78036,-1.8e-4 c 0.23781,-0.0187 0.62694,-0.0187 0.86475,0 0.23781,0.0188 0.0432,0.0341 -0.43238,0.0341 -0.47561,0 -0.67018,-0.0153 -0.43237,-0.0341 z m -22.59013,-0.44132 c 0.004,-0.10605 0.0259,-0.12761 0.055,-0.055 0.0263,0.0657 0.0231,0.14422 -0.007,0.17447 -0.0302,0.0302 -0.0518,-0.0235 -0.0478,-0.11947 z m -17.65912899999999,-0.27308 c 0.0044,-0.10605 0.02594,-0.12761 0.055,-0.055 0.0263,0.0657 0.02306,0.14422 -0.0072,0.17447 -0.03025,0.0302 -0.05176,-0.0235 -0.04781,-0.11947 z m -12.681557,-0.37535 c 0.11322899999999,-0.0218 0.27707599999998,-0.0209 0.36410600000001,0.002 0.08703,0.0228 -0.0056,0.0406 -0.20587100000002,0.0396 -0.20025799999999,-0.001 -0.27146399999998,-0.0197 -0.15823499999999,-0.0414 z m 11.788595,0.001 c 0.08857,-0.0231 0.21145199999998,-0.0216 0.27307899999998,0.003 0.06163,0.0249 -0.01083,0.0438 -0.161028,0.042 -0.150194,-0.002 -0.20061699999998,-0.0223 -0.11205099999998,-0.0453 z m -14.49050699999999,-7.1810999999999 c 0.0044,-0.1060400000001 0.02594,-0.12761 0.05499,-0.055 0.0263,0.0657 0.02306,0.14422 -0.0072,0.1744700000001 -0.03025,0.0303 -0.05176,-0.0235 -0.04781,-0.11947 z"
         style="fill:#505050;stroke-width:0.085059" />
      <path
         id="path1093"
         d="m 122.14863,203.05971 c 0.0657,-0.0263 0.14422,-0.0231 0.17447,0.007 0.0302,0.0302 -0.0235,0.0518 -0.11948,0.0478 -0.10604,-0.004 -0.12761,-0.0259 -0.055,-0.055 z m 9.87193,-0.003 c 0.13836,-0.0209 0.34317,-0.0204 0.45513,9.9999999998e-4 0.11196,0.0216 -9.9999999998e-4,0.0387 -0.25157,0.038 -0.25033,-7.3e-4 -0.34193,-0.0184 -0.20356,-0.0393 z m -11.92244,-0.43533 c 7.3e-4,-0.25032 0.0184,-0.34192 0.0393,-0.20355 0.0209,0.13836 0.0204,0.34317 -0.001,0.45513 -0.0216,0.11196 -0.0387,-0.001 -0.038,-0.25158 z m -2.01424,-0.0455 c 0,-0.12516 0.0207,-0.17636 0.0459,-0.11378 0.0252,0.0626 0.0252,0.16498 0,0.22756 -0.0252,0.0626 -0.0459,0.0114 -0.0459,-0.11378 z m -40.90495200000001,-1.88774 c 0.264517,-0.0185 0.67413599999999,-0.0183 0.910264,4.6e-4 0.23612799999999,0.0187 0.01971,0.0337 -0.48094000000002,0.0335 -0.50064599999999,-2.4e-4 -0.69384099999999,-0.0155 -0.42932399999998,-0.034 z M 139.64996,199.97404 c 0.004,-0.10604 0.0259,-0.12761 0.055,-0.055 0.0263,0.0657 0.0231,0.14422 -0.007,0.17447 -0.0302,0.0302 -0.0518,-0.0235 -0.0478,-0.11948 z m -45.59369000000001,-0.35652 c 0.0019,-0.15019 0.02226,-0.20061 0.04534,-0.11205 0.02308,0.0886 0.02156,0.21146 -0.0034,0.27308 -0.02493,0.0616 -0.04382,-0.0108 -0.04196,-0.16103 z M 127.74106,197.59526 c 0.13768,-0.0209 0.36297,-0.0209 0.50065,0 0.13768,0.0209 0.025,0.0379 -0.25032,0.0379 -0.27536,0 -0.388,-0.0171 -0.25033,-0.0379 z m 5.96793,0.003 c 0.0657,-0.0263 0.14422,-0.0231 0.17446,0.007 0.0302,0.0302 -0.0235,0.0518 -0.11947,0.0478 -0.10604,-0.004 -0.12761,-0.0259 -0.055,-0.055 z m -43.66844200000003,-0.6281 c 0.0044,-0.10604 0.02594,-0.12761 0.05499,-0.055 0.0263,0.0657 0.02306,0.14421 -0.0072,0.17446 -0.03025,0.0302 -0.05176,-0.0235 -0.04781,-0.11947 z m -8.039209,-0.46641 c 0.11322899999999,-0.0218 0.27707699999999,-0.0209 0.36410599999999,0.002 0.08703,0.0228 -0.0056,0.0406 -0.205871,0.0396 -0.20025799999999,-0.001 -0.27146399999998,-0.0196 -0.15823499999999,-0.0414 z M 118.09678,194.56555 c 0,-0.27535 0.0171,-0.388 0.0379,-0.25032 0.0209,0.13768 0.0209,0.36297 0,0.5006400000001 -0.0208,0.1376799999999 -0.0379,0.025 -0.0379,-0.2503200000001 z m 10.81206,0.21998 c 0.004,-0.10604 0.0259,-0.12761 0.055,-0.055 0.0263,0.0657 0.0231,0.14422 -0.007,0.17446 -0.0302,0.0302 -0.0518,-0.0235 -0.0478,-0.11947 z m -8.82238,-0.49306 c 0,-0.12516 0.0207,-0.17636 0.0459,-0.11378 0.0252,0.0626 0.0252,0.16498 0,0.22756 -0.0252,0.0626 -0.0459,0.0114 -0.0459,-0.11378 z m -30.22796500000002,-6.24289 c 0.0044,-0.10604 0.02594,-0.12761 0.05499,-0.055 0.0263,0.0657 0.02306,0.14422 -0.0072,0.17447 -0.03025,0.0302 -0.05176,-0.0235 -0.04781,-0.11947 z m -0.72821200000001,-0.18205 c 0.0044,-0.10604 0.02594,-0.12761 0.05499,-0.055 0.0263,0.0657 0.02306,0.14422 -0.0072,0.17447 -0.03025,0.0302 -0.05176,-0.0235 -0.04781,-0.11947 z m 0.73539700000002,-0.31101 c 0,-0.12516 0.02066,-0.17636 0.04591,-0.11378 0.02525,0.0626 0.02525,0.16498 0,0.22756 -0.02525,0.0626 -0.04591,0.0114 -0.04591,-0.11378 z"
         style="fill:#3e3e3e;stroke-width:0.085059" />
      <path
         id="path1091"
         d="m 118.11107,198.70711 c -2e-5,-2.05264 0.0119,-2.90535 0.0266,-1.89489 0.0146,1.01045 0.0147,2.68989 4e-5,3.73208 -0.0146,1.04219 -0.0266,0.21546 -0.0266,-1.83719 z m 2.00275,-0.3641 c 2e-5,-2.15278 0.0119,-3.02045 0.0265,-1.92816 0.0145,1.09229 0.0145,2.85365 -4e-5,3.91414 -0.0145,1.06048 -0.0264,0.16679 -0.0264,-1.98598 z m -41.162928,2.34493 c 0.287871,-0.0181 0.75893299999998,-0.0181 1.04680399999999,0 0.287871,0.0181 0.05234,0.0328 -0.523402,0.0328 -0.57574200000001,0 -0.811273,-0.0148 -0.52340199999999,-0.0328 z M 139.67682,198.88916 c 1.8e-4,-0.55071 0.0152,-0.76426 0.0333,-0.47456 0.0181,0.2897 0.018,0.74028 -3.7e-4,1.00129 -0.0183,0.26101 -0.0331,0.024 -0.0329,-0.52673 z m -37.01354,-2.38889 c 0.41303,-0.0169 1.0889,-0.0169 1.50194,0 0.41303,0.0169 0.0751,0.0307 -0.75097,0.0307 -0.82607,0 -1.164,-0.0138 -0.75097,-0.0307 z"
         style="fill:#2d2d2d;stroke-width:0.085059" />
      <path
         id="path1089"
         d="m 98.513192,202.66676 c 0,-0.12516 0.02066,-0.17637 0.04591,-0.11378 0.02525,0.0626 0.02525,0.16498 0,0.22756 -0.02525,0.0626 -0.04591,0.0114 -0.04591,-0.11378 z m 6.572778,-1.22886 c 2.7e-4,-0.50064 0.0155,-0.69384 0.034,-0.42932 0.0184,0.26452 0.0182,0.67413 -4.6e-4,0.91026 -0.0187,0.23613 -0.0337,0.0197 -0.0335,-0.48094 z m -24.223523,-0.7496 c 0.237807,-0.0188 0.62694499999999,-0.0188 0.864751,0 0.237807,0.0188 0.04324,0.0341 -0.43237500000001,0.0341 -0.47561299999998,0 -0.67018199999998,-0.0153 -0.43237599999999,-0.0341 z M 101.38891,196.50375 c 0.11265,-0.0217 0.29697,-0.0217 0.40962,0 0.11264,0.0217 0.0205,0.0395 -0.20481,0.0395 -0.22529,0 -0.31746,-0.0178 -0.20481,-0.0395 z m 27.54002,-0.93705 c 0,-0.27535 0.0171,-0.388 0.0379,-0.25032 0.0209,0.13768 0.0209,0.36297 0,0.50064 -0.0209,0.13768 -0.0379,0.025 -0.0379,-0.25032 z M 89.657644,192.22148 c -0.113225,-0.14437 -0.110005,-0.14759 0.03437,-0.0344 0.151627,0.11892 0.19984700000001,0.19367 0.12492799999998,0.19367 -0.0189,0 -0.09059,-0.0717 -0.159296,-0.1593 z m -4.62355100000002,-3.80794 c 0.0044,-0.10604 0.02594,-0.12761 0.055,-0.055 0.02629,0.0657 0.02306,0.14422 -0.0072,0.17447 -0.03025,0.0302 -0.05176,-0.0235 -0.04781,-0.11948 z"
         style="fill:#1d1d1d;stroke-width:0.085059" />
      <path
         id="path1087"
         d="m 76.288368,201.89392 v -1.13872 h 2.76360200000001 c 1.519981,0 2.954402,-0.0262 3.18760199999998,-0.0581 l 0.42400100000002,-0.0581 -0.02443,-2.05824 -0.02443,-2.05825 -3.163169,-0.0239 -3.163169,-0.0239 v -4.86874 -4.86873 h 4.362025 4.36202399999999 l 0.05916,0.56892 c 0.03254,0.3129 0.02552,0.83516 -0.0156,1.16058 l -0.07476,0.59167 -3.16307800000001,0.0239 -3.16307699999999,0.0239 v 2.41102 2.41102 h 2.90146799999999 c 1.59580699999997,0 3.02985599999998,0.0257 3.18677599999998,0.0571 l 0.28530900000001,0.0571 -0.02361,4.4715 -0.02361,4.4715 -4.346513,0.0236 -4.34651300000002,0.0236 z m 11.378306,-3.32335 v -4.46029 h 4.414782 4.414783 v 4.46029 4.46029 H 92.081456 87.666674 Z M 94.071126,200.2318 c 0.03103,-0.18774 0.05687,-1.08452 0.05742,-1.99284 8.1900000001e-4,-1.42258 -0.01896,-1.65915 -0.14298300000002,-1.70674 -0.187753,-0.072 -3.62046699999999,-0.072 -3.80821999999999,0 -0.12522900000002,0.0481 -0.143985,0.31485 -0.143985,2.04809 v 1.99284 h 1.990672 1.99067199999999 z m 4.48558,2.37674 c -0.03184,-0.23228 -0.05789,-2.23941 -0.05789,-4.46029 v -4.03797 h 4.414784 4.41479 v 4.46029 4.46029 h -1.07787 -1.07787 l -0.0597,-1.84328 c -0.0328,-1.01381 -0.0598,-2.46357 -0.06,-3.2217 -1.8e-4,-1.17281 -0.0217,-1.38665 -0.14422,-1.43366 -0.18864,-0.0724 -3.35177,-0.0697 -3.79291,0.003 l -0.34135,0.0564 v 3.21953 3.21953 H 99.6945219999999 98.61457799999989 l -0.05789,-0.42233 z m 10.831154,0.13787 c -0.0313,-0.15646 -0.0569,-2.16359 -0.0569,-4.4603 v -4.17583 h 4.36927 4.36927 v 4.46029 4.46029 h -4.31238 -4.31238 z m 6.31496,-4.17584 v -2.00258 h -1.94733 c -1.69174,0 -1.95458,0.0189 -2.00258,0.14399 -0.0755,0.19662 -0.0704,3.72465 0.005,3.80049 0.0334,0.0334 0.93454,0.0607 2.00258,0.0607 h 1.9419 z m 4.46029,0.003 v -4.46309 h 4.36927 4.36927 v 1.13667 1.13666 l -3.20868,0.0239 -3.20868,0.0239 v 0.59167 0.59168 l 3.20868,0.0239 3.20868,0.0239 v 1.22653 1.22652 l -3.20868,0.0239 -3.20868,0.0239 -0.0455,1.41091 -0.0455,1.41091 -1.11507,0.0256 -1.11508,0.0256 v -4.4631 z m 10.74112,-0.004 v -4.46117 l 4.39203,0.0236 4.39203,0.0236 0.0255,1.11391 0.0256,1.1139 -3.21147,0.0239 -3.21148,0.0239 -0.0277,0.53772 c -0.019,0.36856 0.01,0.5614 0.091,0.61303 0.0653,0.0414 1.50122,0.076 3.1909,0.0767 l 3.07214,0.001 v 1.22767 1.22768 l -3.16317,0.0239 -3.16317,0.0239 -0.0251,1.43367 -0.0251,1.43366 h -1.18103 -1.18104 z m -41.231067,-6.41233 -0.209879,-0.2234 0.35946800000001,-0.43654 c 0.48953299999999,-0.59449 0.692966,-0.95504 0.990995,-1.75642 0.225889,-0.60739 0.25458500000001,-0.8082 0.26015699999999,-1.82052 0.0049,-0.89048 -0.03112,-1.24667 -0.16570399999999,-1.63848 -0.25704500000001,-0.74834 -0.631688,-1.45381 -1.059415,-1.99492 l -0.382214,-0.48354 L 89.700315,183.56968 89.93406000000001,183.33594 90.14547,183.5573 c 0.96456400000001,1.00995 1.71247000000001,2.93298 1.70645000000002,4.38766 -0.003,0.72769 -0.324338,2.02449 -0.679714,2.74318 -0.315759,0.63857 -1.072558,1.69251 -1.215335,1.69251 -0.04061,0 -0.168274,-0.10054 -0.283708,-0.22341 z m -1.35368699999999,-1.35293 -0.20145500000001,-0.21444 0.40758200000002,-0.60781 c 0.22417,-0.33429 0.45051699999999,-0.76085 0.502994,-0.9479 0.351518,-1.25293 0.108957,-2.52864 -0.666173,-3.50361 l -0.271671,-0.34171 0.21435099999998,-0.22817 0.21435000000001,-0.22816 0.262507,0.25128 C 89.726595,185.88804 90.11772,187.76685 89.66587500000001,189.22975 c -0.17540299999999,0.56789 -0.84553199999999,1.6892 -1.05031299999999,1.75746 -0.05205,0.0174 -0.18528499999999,-0.065 -0.296086,-0.1829 z m -1.521028,-1.5224 c -0.17194000000001,-0.18999 -0.171724,-0.19721 0.01572,-0.52677 0.32605100000001,-0.57327 0.347318,-0.95651 0.08489,-1.52973 -0.16892799999999,-0.36898 -0.20769300000002,-0.5489 -0.143933,-0.66804 C 86.909429,186.26905 87.09557400000001,186.27743 87.327606,186.58317 c 0.498497,0.65678 0.55551600000001,1.60161 0.144818,2.39967 -0.25752799999998,0.50043 -0.42465699999998,0.5746 -0.67396999999998,0.29911 z"
         style="fill:#131313;stroke-width:0.085059" />
    </g>
  </g>
  <style
     id="style960"
     type="text/css">
	.st0{fill:#FFFFFF;}
</style>
  <style
     id="style1017"
     type="text/css">
	.st0{fill:#FFFFFF;}
</style>
</svg>
