<?xml version="1.0" encoding="UTF-8" standalone="no"?>
<svg
   xmlns:dc="http://purl.org/dc/elements/1.1/"
   xmlns:cc="http://creativecommons.org/ns#"
   xmlns:rdf="http://www.w3.org/1999/02/22-rdf-syntax-ns#"
   xmlns:svg="http://www.w3.org/2000/svg"
   xmlns="http://www.w3.org/2000/svg"
   xmlns:xlink="http://www.w3.org/1999/xlink"
   xmlns:sodipodi="http://sodipodi.sourceforge.net/DTD/sodipodi-0.dtd"
   xmlns:inkscape="http://www.inkscape.org/namespaces/inkscape"
   width="720"
   height="540"
   viewBox="0 0 190.5 142.875"
   version="1.1"
   id="svg1769"
   inkscape:version="1.0 (4035a4fb49, 2020-05-01)"
   sodipodi:docname="featured.svg"
   inkscape:export-filename="C:\work\repos\hugosites\diegocastroviadero.com\content\es\post\como-exponer-homeassistant-a-internet\featured.png"
   inkscape:export-xdpi="96"
   inkscape:export-ydpi="96">
  <defs
     id="defs1763">
    <path
       id="a"
       d="M44.041 343.222V209.58H9.288a9.333 9.333 0 0 1-6.655-15.876L189.639 3.497c4.517-4.594 11.903-4.657 16.498-.14l.12.12 97.601 98.794V83.974a7.778 7.778 0 0 1 7.778-7.778h32.41a7.778 7.778 0 0 1 7.779 7.778v67.138l41.568 42.618a9.333 9.333 0 0 1-6.682 15.85h-34.886v133.642a7.778 7.778 0 0 1-7.778 7.778H51.819a7.778 7.778 0 0 1-7.778-7.778zm206.393-163.26a15.029 15.029 0 0 0 1.46-6.486c0-8.308-6.71-15.043-14.989-15.043-8.278 0-14.989 6.735-14.989 15.043s6.711 15.044 14.99 15.044c2.314 0 4.505-.527 6.462-1.467l21.518 21.596v20.918l-26.981 27.078v-19.84a15.046 15.046 0 0 0 9.993-14.187c0-8.308-6.711-15.044-14.99-15.044-8.278 0-14.99 6.736-14.99 15.044 0 6.55 4.172 12.122 9.994 14.187v29.868l-24.983 25.073V144.464l20.519-20.592a14.886 14.886 0 0 0 6.462 1.466c8.279 0 14.99-6.735 14.99-15.044 0-8.308-6.711-15.043-14.99-15.043-8.278 0-14.989 6.735-14.989 15.043 0 2.323.524 4.522 1.46 6.486l-18.448 18.515-18.449-18.515a15.029 15.029 0 0 0 1.46-6.486c0-8.308-6.71-15.043-14.989-15.043-8.278 0-14.989 6.735-14.989 15.043 0 8.309 6.711 15.044 14.99 15.044 2.314 0 4.505-.527 6.462-1.466l20.518 20.592v105.16l-35.974-36.104v-28.865a15.046 15.046 0 0 0 9.993-14.187c0-8.309-6.711-15.044-14.99-15.044-8.278 0-14.99 6.735-14.99 15.044 0 6.55 4.172 12.122 9.994 14.187v18.837l-27.98-28.081v-27.863a15.046 15.046 0 0 0 9.993-14.187c0-8.308-6.711-15.044-14.99-15.044-8.278 0-14.99 6.736-14.99 15.044 0 6.55 4.172 12.122 9.994 14.187v32.017l30.907 31.018h-17.77c-2.058-5.843-7.61-10.029-14.137-10.029-8.278 0-14.99 6.735-14.99 15.043 0 8.309 6.712 15.044 14.99 15.044 6.527 0 12.08-4.186 14.137-10.03h27.763l43.04 43.196v75.074l-22.983-23.066v-28.866a15.046 15.046 0 0 0 9.993-14.187c0-8.308-6.711-15.043-14.99-15.043-8.278 0-14.99 6.735-14.99 15.043 0 6.55 4.172 12.122 9.994 14.187v18.837l-33.439-33.558a15.029 15.029 0 0 0 1.461-6.486c0-8.308-6.71-15.043-14.99-15.043-8.278 0-14.989 6.735-14.989 15.043s6.711 15.043 14.99 15.043c2.314 0 4.506-.526 6.462-1.466l33.439 33.559h-17.77c-2.058-5.843-7.61-10.03-14.137-10.03-8.278 0-14.99 6.736-14.99 15.044s6.712 15.043 14.99 15.043c6.527 0 12.079-4.186 14.137-10.029h27.763l27.98 28.081h14.132l28.98-29.083h26.763c2.058 5.842 7.61 10.028 14.137 10.028 8.278 0 14.99-6.735 14.99-15.043s-6.712-15.043-14.99-15.043c-6.527 0-12.079 4.186-14.137 10.029H229.84l-26.91 27.006V305.93l32.049-32.164h51.746c2.058 5.843 7.61 10.029 14.136 10.029 8.279 0 14.99-6.735 14.99-15.043 0-8.309-6.711-15.044-14.99-15.044-6.526 0-12.078 4.186-14.136 10.03H244.97l29.908-30.016v-25.072l21.517-21.596a14.886 14.886 0 0 0 6.463 1.467c8.278 0 14.99-6.736 14.99-15.044s-6.712-15.043-14.99-15.043-14.99 6.735-14.99 15.043c0 2.323.525 4.522 1.461 6.486l-14.451 14.504V148.55a15.046 15.046 0 0 0 9.993-14.187c0-8.309-6.711-15.044-14.99-15.044-8.278 0-14.99 6.735-14.99 15.044 0 6.55 4.172 12.122 9.994 14.187v45.915l-14.452-14.504zM120.987 323.909c-3.311 0-5.996-2.694-5.996-6.017 0-3.323 2.685-6.017 5.996-6.017 3.312 0 5.996 2.694 5.996 6.017 0 3.323-2.684 6.017-5.996 6.017zm43.97-45.13c-3.312 0-5.997-2.694-5.997-6.017 0-3.323 2.685-6.017 5.996-6.017 3.312 0 5.996 2.694 5.996 6.017 0 3.323-2.684 6.017-5.996 6.017zm-51.964-7.02c-3.312 0-5.996-2.694-5.996-6.017 0-3.323 2.684-6.017 5.996-6.017 3.311 0 5.996 2.694 5.996 6.017 0 3.323-2.685 6.017-5.996 6.017zm-4.997-50.144c-3.311 0-5.995-2.694-5.995-6.018 0-3.323 2.684-6.017 5.995-6.017 3.312 0 5.996 2.694 5.996 6.017 0 3.324-2.684 6.018-5.996 6.018zm124.912 7.02c-3.311 0-5.995-2.694-5.995-6.017 0-3.324 2.684-6.018 5.995-6.018 3.312 0 5.996 2.694 5.996 6.018 0 3.323-2.684 6.017-5.996 6.017zm67.952 46.133c-3.31 0-5.995-2.694-5.995-6.017 0-3.324 2.684-6.018 5.995-6.018 3.312 0 5.996 2.694 5.996 6.018 0 3.323-2.684 6.017-5.996 6.017zm-25.981 48.138c-3.312 0-5.996-2.694-5.996-6.017 0-3.323 2.684-6.017 5.996-6.017 3.311 0 5.996 2.694 5.996 6.017 0 3.323-2.685 6.017-5.996 6.017zm27.98-143.412c-3.311 0-5.996-2.695-5.996-6.018s2.685-6.017 5.996-6.017c3.311 0 5.996 2.694 5.996 6.017 0 3.323-2.685 6.018-5.996 6.018zm-32.977-39.113c-3.311 0-5.996-2.694-5.996-6.017 0-3.324 2.685-6.018 5.996-6.018 3.312 0 5.996 2.694 5.996 6.018 0 3.323-2.684 6.017-5.996 6.017zm-39.972-24.07c-3.311 0-5.995-2.693-5.995-6.017 0-3.323 2.684-6.017 5.995-6.017 3.312 0 5.996 2.694 5.996 6.017 0 3.324-2.684 6.018-5.996 6.018zm-63.955 0c-3.31 0-5.995-2.693-5.995-6.017 0-3.323 2.684-6.017 5.995-6.017 3.312 0 5.996 2.694 5.996 6.017 0 3.324-2.684 6.018-5.996 6.018zm-51.963 23.067c-3.311 0-5.996-2.694-5.996-6.017 0-3.324 2.685-6.018 5.996-6.018 3.311 0 5.996 2.694 5.996 6.018 0 3.323-2.685 6.017-5.996 6.017zm37.973 37.107c-3.311 0-5.995-2.694-5.995-6.017 0-3.324 2.684-6.018 5.995-6.018 3.312 0 5.996 2.694 5.996 6.018 0 3.323-2.684 6.017-5.996 6.017zm84.94 3.009c-3.31 0-5.995-2.695-5.995-6.018s2.684-6.017 5.995-6.017c3.312 0 5.996 2.694 5.996 6.017 0 3.323-2.684 6.018-5.996 6.018z" />
    <style
       id="style1501">.cls-1,.cls-2{fill:none;}.cls-1{clip-rule:evenodd;}.cls-3{fill:#fff;}.cls-4{clip-path:url(#clip-path);}.cls-5{clip-path:url(#clip-path-2);}.cls-6{fill:#f28021;}.cls-7{clip-path:url(#clip-path-3);}.cls-8{fill:#faae41;}.cls-9{clip-path:url(#clip-path-5);}.cls-10{fill:#414142;}.cls-11{clip-path:url(#clip-path-7);}.cls-12{clip-path:url(#clip-path-9);}.cls-13{clip-path:url(#clip-path-11);}.cls-14{clip-path:url(#clip-path-13);}.cls-15{clip-path:url(#clip-path-15);}.cls-16{clip-path:url(#clip-path-17);}.cls-17{clip-path:url(#clip-path-19);}.cls-18{clip-path:url(#clip-path-21);}.cls-19{clip-path:url(#clip-path-23);}.cls-20{isolation:isolate;}.cls-21{clip-path:url(#clip-path-25);}.cls-22{clip-path:url(#clip-path-26);}</style>
    <clipPath
       transform="translate(9.58 9.58)"
       id="clip-path">
      <path
         id="path1503"
         d="m 326.67,80.19 c 1.14,-3.94 0.72,-7.58 -1.2,-10.26 a 10.39,10.39 0 0 0 -8.25,-4.09 L 249.8,65 a 1.34,1.34 0 0 1 -1.06,-0.57 1.38,1.38 0 0 1 -0.14,-1.22 1.8,1.8 0 0 1 1.57,-1.2 l 68.05,-0.86 c 8.07,-0.37 16.81,-6.93 19.87,-14.93 L 342,36 a 2.33,2.33 0 0 0 0.11,-1.34 44.3,44.3 0 0 0 -85.22,-4.59 19.93,19.93 0 0 0 -31.79,14 20.14,20.14 0 0 0 0.52,7 28.38,28.38 0 0 0 -27.22,32.49 1.32,1.32 0 0 0 1.3,1.14 h 124.48 a 1.64,1.64 0 0 0 1.57,-1.18 z"
         class="cls-1" />
    </clipPath>
    <clipPath
       transform="translate(9.58 9.58)"
       id="clip-path-2">
      <rect
         id="rect1506"
         height="642.10999"
         width="5458.8701"
         y="-72.839996"
         x="-109.25"
         class="cls-2" />
    </clipPath>
    <clipPath
       transform="translate(9.58 9.58)"
       id="clip-path-3">
      <path
         id="path1509"
         d="m 348.18,36.78 c -0.62,0 -1.25,0 -1.87,0 a 1.07,1.07 0 0 0 -1,0.78 l -2.65,9.17 c -1.14,3.94 -0.72,7.58 1.2,10.26 a 10.38,10.38 0 0 0 8.25,4.09 l 14.37,0.87 a 1.3,1.3 0 0 1 1,0.56 1.37,1.37 0 0 1 0.15,1.23 1.8,1.8 0 0 1 -1.56,1.2 l -14.93,0.86 c -8.11,0.37 -16.85,6.93 -19.91,14.93 l -1.03,2.87 a 0.8,0.8 0 0 0 0.75,1.09 h 51.39 a 1.37,1.37 0 0 0 1.32,-1 36.94,36.94 0 0 0 -35.48,-46.91"
         class="cls-1" />
    </clipPath>
    <clipPath
       transform="translate(9.58 9.58)"
       id="clip-path-5">
      <polygon
         id="polygon1512"
         points="50.76,99.49 50.76,122.78 65.63,122.78 65.63,130.24 42.25,130.24 42.25,99.49 "
         class="cls-1" />
    </clipPath>
    <clipPath
       transform="translate(9.58 9.58)"
       id="clip-path-7">
      <path
         id="path1515"
         d="m 74.44,115 v -0.09 c 0,-8.83 7.11,-16 16.58,-16 9.47,0 16.49,7.08 16.49,15.91 v 0.09 c 0,8.83 -7.11,16 -16.58,16 -9.47,0 -16.5,-7.07 -16.5,-15.9 m 24.39,0 v -0.09 c 0,-4.44 -3.2,-8.31 -7.89,-8.31 -4.69,0 -7.77,3.78 -7.77,8.22 v 0.09 c 0,4.44 3.2,8.3 7.85,8.3 4.65,0 7.81,-3.78 7.81,-8.22"
         class="cls-1" />
    </clipPath>
    <clipPath
       transform="translate(9.58 9.58)"
       id="clip-path-9">
      <path
         id="path1518"
         d="M 117.94,116.75 V 99.48 h 8.64 v 17.09 c 0,4.44 2.24,6.55 5.66,6.55 3.42,0 5.66,-2 5.66,-6.33 V 99.48 h 8.64 v 17.05 c 0,9.93 -5.66,14.28 -14.39,14.28 -8.73,0 -14.22,-4.44 -14.22,-14.06"
         class="cls-1" />
    </clipPath>
    <clipPath
       transform="translate(9.58 9.58)"
       id="clip-path-11">
      <path
         id="path1521"
         d="m 159.56,99.49 h 11.85 c 11,0 17.33,6.33 17.33,15.2 v 0.09 c 0,8.87 -6.45,15.46 -17.5,15.46 h -11.68 z m 12,23.2 c 5.09,0 8.47,-2.81 8.47,-7.78 v -0.09 c 0,-4.92 -3.38,-7.78 -8.47,-7.78 h -3.47 v 15.64 z"
         class="cls-1" />
    </clipPath>
    <clipPath
       transform="translate(9.58 9.58)"
       id="clip-path-13">
      <polygon
         id="polygon1524"
         points="225.67,99.49 225.67,106.96 209.62,106.96 209.62,112.19 224.14,112.19 224.14,119.26 209.62,119.26 209.62,130.24 201.11,130.24 201.11,99.49 "
         class="cls-1" />
    </clipPath>
    <clipPath
       transform="translate(9.58 9.58)"
       id="clip-path-15">
      <polygon
         id="polygon1527"
         points="246.02,99.49 246.02,122.78 260.9,122.78 260.9,130.24 237.51,130.24 237.51,99.49 "
         class="cls-1" />
    </clipPath>
    <clipPath
       transform="translate(9.58 9.58)"
       id="clip-path-17">
      <path
         id="path1530"
         d="m 283.14,99.27 h 8.2 l 13.07,31 h -9.13 L 293,124.75 h -11.8 l -2.2,5.49 h -9 z m 7.46,18.85 -3.42,-8.74 -3.47,8.74 z"
         class="cls-1" />
    </clipPath>
    <clipPath
       transform="translate(9.58 9.58)"
       id="clip-path-19">
      <path
         id="path1533"
         d="m 315.37,99.48 h 14.53 c 4.7,0 7.94,1.23 10,3.34 a 9.54,9.54 0 0 1 2.72,7.16 v 0.09 a 9.73,9.73 0 0 1 -6.31,9.45 l 7.33,10.72 h -9.84 l -6.18,-9.32 h -3.73 v 9.32 h -8.51 z m 14.13,14.76 c 2.9,0 4.56,-1.41 4.56,-3.65 v -0.09 c 0,-2.42 -1.75,-3.65 -4.61,-3.65 h -5.57 v 7.38 z"
         class="cls-1" />
    </clipPath>
    <clipPath
       transform="translate(9.58 9.58)"
       id="clip-path-21">
      <polygon
         id="polygon1536"
         points="379.6,99.49 379.6,106.74 363.32,106.74 363.32,111.39 378.06,111.39 378.06,118.11 363.32,118.11 363.32,122.99 379.81,122.99 379.81,130.24 354.9,130.24 354.9,99.49 "
         class="cls-1" />
    </clipPath>
    <clipPath
       transform="translate(9.58 9.58)"
       id="clip-path-23">
      <rect
         id="rect1539"
         height="31.99"
         width="32.77"
         y="98.870003"
         class="cls-2"
         x="0" />
    </clipPath>
    <clipPath
       transform="translate(9.58 9.58)"
       id="clip-path-25">
      <rect
         id="rect1542"
         height="34.5"
         width="34.5"
         y="97.75"
         class="cls-2"
         x="0" />
    </clipPath>
    <clipPath
       transform="translate(9.58 9.58)"
       id="clip-path-26">
      <path
         id="path1545"
         d="m 23.61,118.56 a 7.52,7.52 0 0 1 -7,4.61 c -4.65,0 -7.85,-3.87 -7.85,-8.31 v -0.09 c 0,-4.44 3.12,-8.22 7.77,-8.22 a 7.71,7.71 0 0 1 7.3,5.1 h 9 C 31.39,104.33 24.97,98.86 16.64,98.86 7.1,98.87 0,106 0,114.86 V 115 c 0,8.83 7,15.91 16.49,15.91 a 16.18,16.18 0 0 0 16.11,-12.3 z"
         class="cls-1" />
    </clipPath>
  </defs>
  <sodipodi:namedview
     id="base"
     pagecolor="#ffffff"
     bordercolor="#666666"
     borderopacity="1.0"
     inkscape:pageopacity="0.0"
     inkscape:pageshadow="2"
     inkscape:zoom="1.4142136"
     inkscape:cx="352.9649"
     inkscape:cy="266.98718"
     inkscape:document-units="px"
     inkscape:current-layer="layer1"
     inkscape:document-rotation="0"
     showgrid="false"
     units="px"
     inkscape:window-width="1920"
     inkscape:window-height="1001"
     inkscape:window-x="-9"
     inkscape:window-y="-9"
     inkscape:window-maximized="1" />
  <metadata
     id="metadata1766">
    <rdf:RDF>
      <cc:Work
         rdf:about="">
        <dc:format>image/svg+xml</dc:format>
        <dc:type
           rdf:resource="http://purl.org/dc/dcmitype/StillImage" />
        <dc:title />
      </cc:Work>
    </rdf:RDF>
  </metadata>
  <g
     inkscape:label="Layer 1"
     inkscape:groupmode="layer"
     id="layer1">
    <g
       id="g2449"
       transform="matrix(0.05682303,0,0,0.05682303,61.357849,54.676111)" />
    <g
       id="g2451"
       transform="matrix(0.05682303,0,0,0.05682303,61.357849,54.676111)" />
    <g
       id="g2453"
       transform="matrix(0.05682303,0,0,0.05682303,61.357849,54.676111)" />
    <g
       id="g2455"
       transform="matrix(0.05682303,0,0,0.05682303,61.357849,54.676111)" />
    <g
       id="g2457"
       transform="matrix(0.05682303,0,0,0.05682303,61.357849,54.676111)" />
    <g
       id="g2459"
       transform="matrix(0.05682303,0,0,0.05682303,61.357849,54.676111)" />
    <g
       id="g2461"
       transform="matrix(0.05682303,0,0,0.05682303,61.357849,54.676111)" />
    <g
       id="g2463"
       transform="matrix(0.05682303,0,0,0.05682303,61.357849,54.676111)" />
    <g
       id="g2465"
       transform="matrix(0.05682303,0,0,0.05682303,61.357849,54.676111)" />
    <g
       id="g2467"
       transform="matrix(0.05682303,0,0,0.05682303,61.357849,54.676111)" />
    <g
       id="g2469"
       transform="matrix(0.05682303,0,0,0.05682303,61.357849,54.676111)" />
    <g
       id="g2471"
       transform="matrix(0.05682303,0,0,0.05682303,61.357849,54.676111)" />
    <g
       id="g2473"
       transform="matrix(0.05682303,0,0,0.05682303,61.357849,54.676111)" />
    <g
       id="g2475"
       transform="matrix(0.05682303,0,0,0.05682303,61.357849,54.676111)" />
    <g
       id="g2477"
       transform="matrix(0.05682303,0,0,0.05682303,61.357849,54.676111)" />
    <g
       transform="matrix(0.72578536,0,0,0.72578536,135.63296,-32.783895)"
       id="g930">
      <path
         d="m 47.531306,87.916787 c 0.661458,0 1.217083,0.529167 1.217083,1.217083 0,0.15875 -0.02646,0.3175 -0.105833,0.47625 l -12.276667,29.34229 c -0.47625,1.08479 -1.534583,1.77271 -2.69875,1.77271 h -8.387291 c -0.661458,0.0265 -1.217083,-0.50271 -1.217083,-1.16417 0,-0.15875 0.02646,-0.34396 0.07938,-0.47625 l 0.9525,-2.30187 2.090208,-12.22375 6.085416,-7.408335 3.122084,-7.46125 c 0.47625,-1.084791 1.322916,-1.772708 2.513541,-1.772708 z"
         fill="#4285f4"
         id="path861"
         style="stroke-width:0.264583" />
      <path
         d="m 33.349639,97.018454 c -4.577291,-4.524375 -11.959166,-4.445 -16.457083,0.132291 -4.497916,4.577295 -4.471458,11.932705 0.105834,16.457085 2.143125,2.11666 5.027083,3.30729 8.043333,3.36021 0.02646,-0.0794 5.635625,-8.89 5.635625,-8.89 0,0 2.672291,-11.059586 2.672291,-11.059586 z"
         fill="#fbbc04"
         id="path863"
         style="stroke-width:0.264583" />
      <path
         d="m 33.349639,97.018454 c 0,0 -8.307916,19.923126 -8.307916,19.923126 h 0.291042 c 6.402916,-0.0529 11.562291,-5.29167 11.535833,-11.69458 -0.02646,-3.09563 -1.296459,-6.058963 -3.518959,-8.228546 z"
         fill="#ea4335"
         id="path865"
         style="stroke-width:0.264583" />
    </g>
    <g
       id="g2625"
       fill-rule="evenodd"
       fill="none"
       transform="matrix(0.03439584,0,0,0.03439584,27.421528,63.776787)">
      <path
         id="path2614"
         fill="#41bdf5"
         d="M 0,0 H 500 V 500 H 0 Z" />
      <g
         id="g2623"
         transform="translate(52,70)">
        <mask
           fill="#ffffff"
           id="b">
          <use
             id="use2616"
             xlink:href="#a"
             x="0"
             y="0"
             width="100%"
             height="100%" />
        </mask>
        <g
           id="g2621"
           fill="#ffffff"
           mask="url(#b)">
          <path
             id="path2619"
             d="M 0,0 H 396 V 351 H 0 Z" />
        </g>
      </g>
    </g>
    <rect
       style="fill:none;stroke:#41bdf5;stroke-width:0.661458;stroke-linejoin:round;stroke-miterlimit:4;stroke-dasharray:none;stroke-opacity:1"
       id="rect3002"
       width="35.098053"
       height="43.763466"
       x="18.567257"
       y="50.589806"
       ry="1.8016183" />
    <g
       id="g2577"
       transform="matrix(0.32478648,0,0,0.32478648,26.394282,30.40826)">
      <path
         id="path2411"
         d="m 87.993133,72.857719 c 0,1.144132 -0.262409,2.14757 -0.765918,2.954457 -0.173992,1.301474 -0.594312,2.529931 -1.215388,3.643777 -0.035,0.113418 -0.07597,0.228599 -0.124101,0.346165 -2.605336,2.459869 -6.117908,3.967384 -9.983181,3.967384 -3.865842,0 -7.378414,-1.507515 -9.983807,-3.967384 -0.0475,-0.117566 -0.08904,-0.232747 -0.124101,-0.346165 -0.621076,-1.113846 -1.041453,-2.342303 -1.21482,-3.643777 -0.503509,-0.806887 -0.766542,-1.810325 -0.766542,-2.954457 0,-1.71651 1.213001,-2.789386 1.924311,-3.304202 0.140694,-0.258886 0.292696,-0.511805 0.454812,-0.75819 -0.0036,-0.02853 -0.0053,-0.05699 -0.0065,-0.08609 -0.04989,-1.386368 0.492827,-2.720516 1.527688,-3.755434 0.290933,-0.290366 0.606188,-0.523113 0.955933,-0.704776 -0.282012,-0.05341 -0.489246,-0.103929 -0.535557,-0.115805 -0.294513,-0.07364 -0.524249,-0.296844 -0.609768,-0.580675 -0.425718,-0.220871 -0.708356,-0.474984 -0.760576,-0.523113 -0.141319,-0.131829 -0.231554,-0.305764 -0.260647,-0.490439 -0.392477,-0.233941 -0.597892,-0.436401 -0.654317,-0.495781 -0.178141,-0.188198 -0.259454,-0.444697 -0.226838,-0.69648 -0.205415,-0.185243 -0.331335,-0.334858 -0.360428,-0.370486 -0.174561,-0.214337 -0.232747,-0.497543 -0.162116,-0.760576 -0.15973,-0.207802 -0.246385,-0.367532 -0.265421,-0.403728 -0.003,-0.0059 -0.0059,-0.01188 -0.0089,-0.01779 -0.119953,-0.244623 -0.115805,-0.531977 0.01068,-0.772452 -0.146661,-0.216723 -0.223258,-0.384749 -0.240475,-0.425718 -0.114612,-0.263602 -0.08847,-0.567605 0.06949,-0.807512 0.02199,-0.03387 0.04631,-0.06529 0.07183,-0.09501 -0.206041,-0.283831 -0.224451,-0.675683 -0.01546,-0.984402 0.162684,-0.23985 0.444128,-0.372305 0.733869,-0.372305 h 0.367531 l 0.0012,-0.0024 c 0.14666,-0.288547 0.44231,-0.472028 0.765917,-0.472028 0.21911,0 0.453619,0.01307 0.681024,0.03267 0.159105,-0.182857 0.392477,-0.293321 0.643635,-0.293321 0.09262,0 0.191778,0.0071 0.293889,0.01841 0.162684,-0.207802 0.422763,-0.32713 0.692331,-0.32713 0.05165,0 0.10393,0.0041 0.155582,0.01307 0.274285,0.04807 0.512998,0.106259 0.720232,0.169787 0.03443,-0.02966 0.07182,-0.05699 0.111032,-0.08075 0.136546,-0.08313 0.290366,-0.125295 0.444697,-0.125295 0.133591,0 0.26775,0.03148 0.39009,0.09438 0.102111,0.05228 0.197119,0.104498 0.285593,0.15615 0.02199,0.01244 0.04336,0.02551 0.06472,0.03801 0.109839,-0.04927 0.229167,-0.0754 0.350314,-0.0754 0.100349,0 0.201892,0.01779 0.29923,0.05461 0.168026,0.06296 0.346166,0.169787 0.517772,0.292696 0.102736,-0.04154 0.211381,-0.06233 0.320595,-0.06233 0.112226,0 0.225019,0.02199 0.33071,0.06648 0.205415,0.08671 0.412081,0.230985 0.603233,0.39367 0.04393,-0.0065 0.08785,-0.01011 0.132398,-0.01011 0.191778,0 0.382362,0.06472 0.537319,0.190585 0.06057,0.04926 1.354945,1.11447 1.7385,2.679546 0.382987,-1.565133 1.677302,-2.630281 1.737876,-2.679546 0.154956,-0.125863 0.345541,-0.190585 0.537318,-0.190585 0.04455,0 0.08904,0.0036 0.133023,0.01011 0.190584,-0.162685 0.397193,-0.306958 0.602665,-0.39367 0.106259,-0.04455 0.218485,-0.06648 0.331335,-0.06648 0.108646,0 0.217291,0.0208 0.320027,0.06233 0.171606,-0.122909 0.349689,-0.229793 0.517772,-0.292696 0.09796,-0.03682 0.199506,-0.05461 0.299855,-0.05461 0.120522,0 0.23985,0.02614 0.349689,0.0754 0.02136,-0.01307 0.04273,-0.02551 0.06529,-0.03801 0.08847,-0.05165 0.183481,-0.10393 0.284967,-0.15615 0.122908,-0.06296 0.256499,-0.09438 0.39009,-0.09438 0.154388,0 0.308777,0.04216 0.444697,0.125295 0.03978,0.02375 0.0766,0.05108 0.111601,0.08075 0.206608,-0.06353 0.445322,-0.121715 0.719607,-0.169787 0.05222,-0.0089 0.103929,-0.01307 0.155581,-0.01307 0.269568,0 0.529591,0.119328 0.692332,0.32713 0.102111,-0.01131 0.201267,-0.01841 0.293889,-0.01841 0.251726,0 0.484473,0.110464 0.644202,0.293321 0.227974,-0.0196 0.463733,-0.03267 0.683411,-0.03267 0.324175,0 0.62045,0.183481 0.764156,0.474415 5.68e-4,0 5.68e-4,0 5.68e-4,0 h 0.37168 c 0.28974,0 0.57056,0.133591 0.732108,0.374634 0.207233,0.309345 0.188197,0.700003 -0.01841,0.982073 0.02614,0.02966 0.05046,0.06114 0.07245,0.09501 0.157343,0.23985 0.183482,0.543853 0.0695,0.807512 -0.01779,0.04097 -0.09438,0.208995 -0.240475,0.425718 0.125863,0.240475 0.130636,0.527261 0.01011,0.771884 -0.003,0.0065 -0.006,0.01244 -0.0089,0.01841 -0.01898,0.0362 -0.105066,0.195926 -0.264795,0.403727 0.07063,0.263034 0.01188,0.54624 -0.162685,0.760577 -0.02853,0.03563 -0.154388,0.185243 -0.360428,0.370486 0.03267,0.251726 -0.0487,0.508225 -0.226838,0.69648 -0.0558,0.05938 -0.26184,0.26184 -0.653692,0.495781 -0.02966,0.184674 -0.119953,0.35861 -0.261272,0.490439 -0.05222,0.04807 -0.33429,0.302242 -0.760008,0.523113 -0.08609,0.283831 -0.315254,0.507032 -0.610393,0.580675 -0.04631,0.01188 -0.253544,0.06233 -0.535557,0.115805 0.349689,0.181663 0.665568,0.41441 0.955934,0.704776 1.034918,1.034918 1.577577,2.369009 1.528312,3.755434 -0.0012,0.02909 -0.0036,0.05762 -0.0065,0.08609 0.161491,0.246385 0.313493,0.499361 0.454187,0.75819 0.711538,0.514703 1.924539,1.587635 1.924539,3.304145 z"
         style="fill:#222123;stroke-width:0.056823" />
      <path
         id="path2413"
         d="m 68.177067,58.351368 c 0,0 3.518141,1.067591 5.89806,3.238515 0.425036,-0.229281 1.173339,-0.793136 1.070773,-1.887377 -0.142228,-1.517005 -1.517004,-2.631134 -1.517004,-2.631134 v 0.54516 c 0,0 -0.616303,-0.805921 -1.066682,-0.995539 l -0.118533,0.521465 c 0,0 -0.639998,-0.663693 -1.019291,-0.805921 0,0 0.118533,0.260704 0,0.592607 0,0 -0.260704,-0.379294 -1.090377,-0.805921 v 0.568855 c 0,0 -0.331847,-0.355541 -1.422167,-0.54516 0,0 0.260704,0.213314 0.402989,0.616303 0,0 -0.900702,-0.308151 -1.398529,-0.308151 l 0.43856,0.43856 c 0,0 -1.007415,-0.177743 -1.765889,-0.177743 l 0.355542,0.474018 h -1.517061 c 0,0 0.639997,0.639998 0.639997,1.066682 h -0.687388 c 0,0 0.308151,0.71114 1.019292,1.042987 0,0 -0.237009,0.118532 -0.805921,0.118532 0,0 0.308151,0.592608 0.948149,0.94815 l -0.616303,0.07114 c 0,0 0.521465,0.639998 1.279996,0.877007 l -0.734836,0.142228 c 0,0 0.426684,0.450379 1.445862,0.782169 l -0.568855,0.165923 c 0,0 0.687388,0.639998 1.493309,0.639998 l -0.49777,0.260704 c 0,0 0.94815,0.237009 1.635538,0.237009 l -0.426684,0.426684 c 0,0 3.305566,0.457255 3.919823,-1.957497 -0.52908,-0.622496 -1.912834,-1.91164 -5.2946,-3.660255 z"
         style="fill:#81c756;stroke-width:0.056823" />
      <g
         transform="matrix(0.05682303,0,0,0.05682303,61.357849,54.676111)"
         id="g2421">
        <path
           id="path2415"
           d="m 255.997,230.703 c 27.949,0 52.977,-14.183 55.898,-27.532 2.921,-13.349 -15.434,-37.96 -55.898,-37.96 -40.464,0 -58.817,24.612 -55.898,37.96 2.92,13.35 27.949,27.532 55.898,27.532 z"
           style="fill:#cb1948" />
        <path
           id="path2417"
           d="M 315.183,505.125 C 296.187,509.618 276.365,512 256,512 c -20.376,0 -40.187,-2.382 -59.183,-6.875 -0.293,-1.881 -0.251,-3.657 0.125,-5.277 3.082,-13.343 29.529,-19.968 59.058,-19.968 29.529,0 55.965,6.625 59.058,19.968 0.376,1.609 0.418,3.396 0.125,5.277 z"
           style="fill:#cb1948" />
        <path
           id="path2419"
           d="m 162.297,409.506 c -19.489,-22.183 -43.204,-36.546 -57.858,-27.779 -14.655,8.769 -25.12,43.776 3.096,75.892 28.216,32.116 64.28,26.243 74.862,12.84 10.581,-13.404 -0.611,-38.77 -20.1,-60.953 z"
           style="fill:#cb1948" />
      </g>
      <path
         id="path2423"
         d="m 71.700038,64.634177 c 0.24718,0.01659 0.378442,0.300991 0.230815,0.499872 -0.416115,0.560388 -1.015654,1.266926 -1.810097,1.963917 -0.980311,0.85979 -1.953349,1.475922 -2.612723,1.84834 -0.206609,0.116714 -0.458846,-0.03063 -0.46737,-0.26775 -0.04699,-1.310283 0.535046,-2.377646 1.278632,-3.121233 0.785522,-0.785635 1.786403,-1.02986 3.380743,-0.923146 z"
         style="fill:#cb1948;stroke-width:0.056823" />
      <g
         transform="matrix(0.05682303,0,0,0.05682303,61.357849,54.676111)"
         id="g2431">
        <path
           id="path2425"
           d="m 91.225,270.332 c -17.52,11.68 -32.954,27.114 -32.954,49.64 0,22.526 6.466,41.506 19.605,54.646 13.14,13.14 25.318,-39.64 25.863,-52.144 0.815,-18.669 6.048,-60.694 -12.514,-52.142 z"
           style="fill:#cb1948" />
        <ellipse
           id="ellipse2427"
           ry="56.728001"
           rx="63.812"
           cy="404.793"
           cx="256"
           style="fill:#cb1948" />
        <ellipse
           id="ellipse2429"
           ry="64.918999"
           rx="55.964001"
           cy="296.672"
           cx="184.48199"
           style="fill:#cb1948"
           transform="matrix(-0.7071,-0.7071,0.7071,-0.7071,105.1524,636.8993)" />
      </g>
      <path
         id="path2433"
         d="m 83.631681,58.351368 c 0,0 -3.518141,1.067591 -5.89806,3.238515 -0.425036,-0.229281 -1.173339,-0.793136 -1.070773,-1.887377 0.142228,-1.517005 1.517004,-2.631134 1.517004,-2.631134 v 0.54516 c 0,0 0.616303,-0.805921 1.066682,-0.995539 l 0.118533,0.521465 c 0,0 0.639998,-0.663693 1.019292,-0.805921 0,0 -0.118533,0.260704 0,0.592607 0,0 0.260704,-0.379294 1.090377,-0.805921 v 0.568855 c 0,0 0.331846,-0.355541 1.422167,-0.54516 0,0 -0.260704,0.213314 -0.402989,0.616303 0,0 0.900702,-0.308151 1.398528,-0.308151 l -0.43856,0.43856 c 0,0 1.007415,-0.177743 1.765889,-0.177743 l -0.355541,0.474018 h 1.517004 c 0,0 -0.639998,0.639998 -0.639998,1.066682 h 0.687388 c 0,0 -0.308151,0.71114 -1.019291,1.042987 0,0 0.237009,0.118532 0.805921,0.118532 0,0 -0.308151,0.592608 -0.948149,0.94815 l 0.616302,0.07114 c 0,0 -0.521464,0.639998 -1.279995,0.877007 l 0.734835,0.142228 c 0,0 -0.426684,0.450379 -1.445919,0.782169 l 0.568856,0.165923 c 0,0 -0.687388,0.639998 -1.493309,0.639998 l 0.497769,0.260704 c 0,0 -0.948149,0.237009 -1.635537,0.237009 l 0.426684,0.426684 c 0,0 -3.305566,0.457255 -3.919823,-1.957497 0.529193,-0.622496 1.912947,-1.91164 5.294713,-3.660255 z"
         style="fill:#81c756;stroke-width:0.056823" />
      <g
         transform="matrix(0.05682303,0,0,0.05682303,61.357849,54.676111)"
         id="g2439">
        <path
           id="path2435"
           d="m 255.997,230.703 c -27.949,0 -52.977,-14.183 -55.898,-27.532 -2.92,-13.349 15.434,-37.96 55.898,-37.96 40.464,0 58.817,24.612 55.898,37.96 -2.921,13.35 -27.949,27.532 -55.898,27.532 z"
           style="fill:#cb1948" />
        <path
           id="path2437"
           d="m 349.697,409.506 c 19.489,-22.183 43.204,-36.546 57.858,-27.779 14.655,8.769 25.12,43.776 -3.096,75.892 -28.216,32.116 -64.28,26.243 -74.862,12.84 -10.581,-13.404 0.611,-38.77 20.1,-60.953 z"
           style="fill:#cb1948" />
      </g>
      <path
         id="path2441"
         d="m 80.10871,64.634177 c -0.24718,0.01659 -0.378441,0.300991 -0.230758,0.499872 0.416115,0.560388 1.015655,1.266926 1.810097,1.963917 0.980311,0.85979 1.953349,1.475922 2.612723,1.84834 0.206609,0.116714 0.458846,-0.03063 0.46737,-0.26775 0.04699,-1.310283 -0.535103,-2.377646 -1.278632,-3.121233 -0.785578,-0.785635 -1.786459,-1.02986 -3.3808,-0.923146 z"
         style="fill:#cb1948;stroke-width:0.056823" />
      <g
         transform="matrix(0.05682303,0,0,0.05682303,61.357849,54.676111)"
         id="g2447">
        <path
           id="path2443"
           d="m 420.769,270.332 c 17.52,11.68 32.954,27.114 32.954,49.64 0,22.526 -6.466,41.506 -19.605,54.646 -13.14,13.14 -25.318,-39.64 -25.863,-52.144 -0.815,-18.669 -6.049,-60.694 12.514,-52.142 z"
           style="fill:#cb1948" />
        <ellipse
           id="ellipse2445"
           ry="64.918999"
           rx="55.964001"
           cy="296.68201"
           cx="327.50601"
           style="fill:#cb1948"
           transform="matrix(-0.7071,0.7071,-0.7071,-0.7071,768.8735,274.8859)" />
      </g>
    </g>
    <g
       transform="matrix(0.74679706,0,0,0.83772131,-1.7050752,-29.238054)"
       id="g1761">
      <polygon
         class="cls-3"
         points="381.07,70.9 381.07,88.74 381.07,94.04 263.67,94.27 261.95,64.57 351.7,44.95 355.28,46.66 358.63,52.49 "
         id="polygon1552"
         transform="matrix(0.26458333,0,0,0.26458333,57.920763,105.90194)" />
      <g
         class="cls-4"
         clip-path="url(#clip-path)"
         id="g1558"
         transform="matrix(0.26458333,0,0,0.26458333,57.920763,105.90194)">
        <g
           class="cls-5"
           clip-path="url(#clip-path-2)"
           id="g1556">
          <rect
             y="0"
             class="cls-6"
             x="198.06"
             width="163.23"
             height="103.85"
             id="rect1554" />
        </g>
      </g>
      <g
         class="cls-7"
         clip-path="url(#clip-path-3)"
         id="g1564"
         transform="matrix(0.26458333,0,0,0.26458333,57.920763,105.90194)">
        <g
           class="cls-5"
           clip-path="url(#clip-path-2)"
           id="g1562">
          <rect
             class="cls-8"
             x="330.14001"
             y="36.779999"
             width="74.050003"
             height="67.07"
             id="rect1560" />
        </g>
      </g>
    </g>
    <path
       id="path3152"
       d="m 99.160206,49.206756 c -12.26682,0 -22.230468,9.963649 -22.230468,22.230469 0,12.26682 9.963648,22.230469 22.230468,22.230469 12.266824,-10e-7 22.230474,-9.96365 22.230474,-22.230469 0,-12.266819 -9.96365,-22.230467 -22.230474,-22.230469 z m 0,1.851563 c 11.265884,1e-6 20.378914,9.113025 20.378914,20.378906 0,11.265881 -9.11303,20.378905 -20.378914,20.378906 -11.265881,0 -20.378906,-9.113024 -20.378906,-20.378906 0,-11.265882 9.113025,-20.378906 20.378906,-20.378906 z"
       style="color:#000000;font-style:normal;font-variant:normal;font-weight:normal;font-stretch:normal;font-size:medium;line-height:normal;font-family:sans-serif;font-variant-ligatures:normal;font-variant-position:normal;font-variant-caps:normal;font-variant-numeric:normal;font-variant-alternates:normal;font-variant-east-asian:normal;font-feature-settings:normal;font-variation-settings:normal;text-indent:0;text-align:start;text-decoration:none;text-decoration-line:none;text-decoration-style:solid;text-decoration-color:#000000;letter-spacing:normal;word-spacing:normal;text-transform:none;writing-mode:lr-tb;direction:ltr;text-orientation:mixed;dominant-baseline:auto;baseline-shift:baseline;text-anchor:start;white-space:normal;shape-padding:0;shape-margin:0;inline-size:0;clip-rule:nonzero;display:inline;overflow:visible;visibility:visible;isolation:auto;mix-blend-mode:normal;color-interpolation:sRGB;color-interpolation-filters:linearRGB;solid-color:#000000;solid-opacity:1;vector-effect:none;fill:#666666;fill-opacity:1;fill-rule:nonzero;stroke:none;stroke-width:1.85208;stroke-linecap:butt;stroke-linejoin:round;stroke-miterlimit:4;stroke-dasharray:none;stroke-dashoffset:0;stroke-opacity:1;color-rendering:auto;image-rendering:auto;shape-rendering:auto;text-rendering:auto;enable-background:accumulate;stop-color:#000000" />
    <path
       id="path3142"
       style="color:#000000;font-style:normal;font-variant:normal;font-weight:normal;font-stretch:normal;font-size:medium;line-height:normal;font-family:sans-serif;font-variant-ligatures:normal;font-variant-position:normal;font-variant-caps:normal;font-variant-numeric:normal;font-variant-alternates:normal;font-variant-east-asian:normal;font-feature-settings:normal;font-variation-settings:normal;text-indent:0;text-align:start;text-decoration:none;text-decoration-line:none;text-decoration-style:solid;text-decoration-color:#000000;letter-spacing:normal;word-spacing:normal;text-transform:none;writing-mode:lr-tb;direction:ltr;text-orientation:mixed;dominant-baseline:auto;baseline-shift:baseline;text-anchor:start;white-space:normal;shape-padding:0;shape-margin:0;inline-size:0;clip-rule:nonzero;display:inline;overflow:visible;visibility:visible;isolation:auto;mix-blend-mode:normal;color-interpolation:sRGB;color-interpolation-filters:linearRGB;solid-color:#000000;solid-opacity:1;vector-effect:none;fill:#666666;fill-opacity:1;fill-rule:nonzero;stroke:none;stroke-width:1.96797083;stroke-linecap:butt;stroke-linejoin:miter;stroke-miterlimit:4;stroke-dasharray:none;stroke-dashoffset:0;stroke-opacity:1;color-rendering:auto;image-rendering:auto;shape-rendering:auto;text-rendering:auto;enable-background:accumulate;stop-color:#000000"
       d="m 54.664313,71.011684 v 1.984375 h 20.329509 c -0.03227,-0.515644 -0.05012,-1.03523 -0.05012,-1.559076 0,-0.142213 0.0032,-0.28366 0.0057,-0.425299 z m 22.279261,1.170472 c 0.0011,0.02966 0.0021,0.05926 0.0031,0.08888 -0.0011,-0.02965 -0.0021,-0.05921 -0.0031,-0.08888 z" />
    <path
       id="path3261"
       style="color:#000000;font-style:normal;font-variant:normal;font-weight:normal;font-stretch:normal;font-size:medium;line-height:normal;font-family:sans-serif;font-variant-ligatures:normal;font-variant-position:normal;font-variant-caps:normal;font-variant-numeric:normal;font-variant-alternates:normal;font-variant-east-asian:normal;font-feature-settings:normal;font-variation-settings:normal;text-indent:0;text-align:start;text-decoration:none;text-decoration-line:none;text-decoration-style:solid;text-decoration-color:#000000;letter-spacing:normal;word-spacing:normal;text-transform:none;writing-mode:lr-tb;direction:ltr;text-orientation:mixed;dominant-baseline:auto;baseline-shift:baseline;text-anchor:start;white-space:normal;shape-padding:0;shape-margin:0;inline-size:0;clip-rule:nonzero;display:inline;overflow:visible;visibility:visible;isolation:auto;mix-blend-mode:normal;color-interpolation:sRGB;color-interpolation-filters:linearRGB;solid-color:#000000;solid-opacity:1;vector-effect:none;fill:#666666;fill-opacity:1;fill-rule:nonzero;stroke:none;stroke-width:1.91082083;stroke-linecap:butt;stroke-linejoin:miter;stroke-miterlimit:4;stroke-dasharray:none;stroke-dashoffset:0;stroke-opacity:1;color-rendering:auto;image-rendering:auto;shape-rendering:auto;text-rendering:auto;enable-background:accumulate;stop-color:#000000"
       d="M 152.27747,57.599585 140.4043,70.507841 h -17.0341 c 0.0117,0.308533 0.0196,0.617778 0.0196,0.929142 0,0.329279 -0.009,0.656775 -0.0217,0.982885 h 17.87436 L 153.6836,58.894596 Z m -31.24821,12.908256 v 1.912027 h 0.31987 c 0.0142,-0.325924 0.0227,-0.653436 0.0227,-0.982885 0,-0.311533 -0.008,-0.620755 -0.0207,-0.929142 z" />
    <path
       style="color:#000000;font-style:normal;font-variant:normal;font-weight:normal;font-stretch:normal;font-size:medium;line-height:normal;font-family:sans-serif;font-variant-ligatures:normal;font-variant-position:normal;font-variant-caps:normal;font-variant-numeric:normal;font-variant-alternates:normal;font-variant-east-asian:normal;font-feature-settings:normal;font-variation-settings:normal;text-indent:0;text-align:start;text-decoration:none;text-decoration-line:none;text-decoration-style:solid;text-decoration-color:#000000;letter-spacing:normal;word-spacing:normal;text-transform:none;writing-mode:lr-tb;direction:ltr;text-orientation:mixed;dominant-baseline:auto;baseline-shift:baseline;text-anchor:start;white-space:normal;shape-padding:0;shape-margin:0;inline-size:0;clip-rule:nonzero;display:inline;overflow:visible;visibility:visible;isolation:auto;mix-blend-mode:normal;color-interpolation:sRGB;color-interpolation-filters:linearRGB;solid-color:#000000;solid-opacity:1;vector-effect:none;fill:#666666;fill-opacity:1;fill-rule:nonzero;stroke:none;stroke-width:1.85208333;stroke-linecap:butt;stroke-linejoin:round;stroke-miterlimit:4;stroke-dasharray:none;stroke-dashoffset:0;stroke-opacity:1;color-rendering:auto;image-rendering:auto;shape-rendering:auto;text-rendering:auto;enable-background:accumulate;stop-color:#000000"
       d="m 99.160206,49.206756 c -12.26682,0 -22.230468,9.963649 -22.230468,22.230469 0,12.26682 9.963648,22.230469 22.230468,22.230469 12.266824,-10e-7 22.230474,-9.96365 22.230474,-22.230469 0,-12.266819 -9.96365,-22.230467 -22.230474,-22.230469 z m 0,1.851563 c 11.265884,1e-6 20.378914,9.113025 20.378914,20.378906 0,11.265881 -9.11303,20.378905 -20.378914,20.378906 -11.265881,0 -20.378906,-9.113024 -20.378906,-20.378906 0,-11.265882 9.113025,-20.378906 20.378906,-20.378906 z"
       id="path3263" />
    <g
       transform="matrix(0.15132409,0,0,0.15132409,29.260377,75.372918)"
       id="g911">
      <path
         class="st2"
         d="m 22.591638,96.278095 c 0.238125,0.423333 0.582083,0.740833 1.005416,0.978958 l 20.372917,11.747497 v 0 c 0.846666,0.50271 1.878541,0.50271 2.69875,0 L 67.041637,97.257053 c 0.846667,-0.47625 1.349375,-1.375833 1.349375,-2.354791 v -23.495 0 c 0,-0.978958 -0.502708,-1.878541 -1.349375,-2.354791 l -20.372916,-11.7475 v 0 c -0.846667,-0.502709 -1.878542,-0.502709 -2.69875,0 v 0 l -20.372917,11.7475 c -0.873125,0.47625 -1.375833,1.375833 -1.375833,2.354791 v 0 23.521458 c 0,0.47625 0.105833,0.926042 0.370417,1.349375"
         id="path861-8"
         style="stroke-width:0.264583" />
      <path
         class="st1"
         d="m 38.784137,92.124137 c 0,1.455208 -1.164166,2.619375 -2.619375,2.619375 -1.455208,0 -2.619374,-1.164167 -2.619374,-2.619375 v 0 -17.965208 c 0,-1.402292 1.243541,-2.54 2.963333,-2.54 1.243541,0 2.69875,0.502708 3.571875,1.5875 l 0.79375,0.9525 10.95375,13.096875 v -13.043959 0 c 0,-1.455208 1.164166,-2.619375 2.619375,-2.619375 1.455208,0 2.619375,1.164167 2.619375,2.619375 v 0 17.965209 c 0,1.402291 -1.243542,2.54 -2.963334,2.54 -1.243541,0 -2.69875,-0.502709 -3.571875,-1.5875 l -11.7475,-14.022917 z"
         id="path863-7"
         style="stroke-width:0.264583" />
    </g>
    <g
       transform="matrix(1.3460561,0,0,1.3460561,129.65004,-85.908271)"
       id="g932">
      <g
         id="svg_16"
         transform="matrix(0.26458333,0,0,0.26458333,4.2585435,130.62988)">
        <path
           id="svg_17"
           d="m 46.488998,37.568001 h -8.039997 v -4.128002 c 0,-3.296997 -2.683002,-5.979 -5.98,-5.979 -3.297001,0 -5.979,2.683002 -5.979,5.979 v 4.128002 H 18.45 v -4.128002 c 0,-7.73 6.288998,-14.019999 14.02,-14.019999 7.731002,0 14.02,6.289 14.02,14.019999 v 4.128002 z"
           fill="#f9a11d" />
      </g>
      <path
         id="svg_18"
         d="M 17.416801,140.56975 H 8.2820622 c -0.3899961,0 -0.7090833,0.31908 -0.7090833,0.70908 v 6.75746 c 0,0.38999 0.3190872,0.70908 0.7090833,0.70908 h 9.1347388 c 0.389997,0 0.709083,-0.31909 0.709083,-0.70908 v -6.75746 c 0,-0.39 -0.319086,-0.70908 -0.709083,-0.70908 z m -4.10448,4.43679 v 0.91573 c 0,0.25558 -0.207434,0.46275 -0.462757,0.46275 -0.255323,0 -0.462756,-0.20743 -0.462756,-0.46275 v -0.91546 c -0.284692,-0.16166 -0.477044,-0.46673 -0.477044,-0.81756 0,-0.51912 0.420952,-0.9398 0.9398,-0.9398 0.519112,0 0.9398,0.42095 0.9398,0.9398 0,0.35057 -0.192353,0.65563 -0.477044,0.8173 z"
         fill="#2c3c69"
         style="stroke-width:0.264583" />
      <path
         id="svg_19"
         d="M 7.3560208,139.56221 H 5.1517771 c -0.3574524,0 -0.6471708,-0.28972 -0.6471708,-0.64717 0,-0.35745 0.2897184,-0.64717 0.6471708,-0.64717 h 2.2042437 c 0.3574521,0 0.6471706,0.28972 0.6471706,0.64717 0,0.35745 -0.2899836,0.64717 -0.6471706,0.64717 z"
         fill="#f9a11d"
         style="stroke-width:0.264583" />
      <path
         id="svg_20"
         d="m 8.9085958,136.09485 c -0.1444628,0 -0.2902479,-0.0482 -0.4106333,-0.14737 L 6.7543583,134.5137 c -0.2759607,-0.22701 -0.3159125,-0.63474 -0.088636,-0.91096 0.2270125,-0.27596 0.6347354,-0.31591 0.9109607,-0.0889 l 1.7436042,1.43378 c 0.2759601,0.22701 0.3159124,0.63473 0.088635,0.91096 -0.1277937,0.15584 -0.3132667,0.23627 -0.5003264,0.23627 z"
         fill="#f9a11d"
         style="stroke-width:0.264583" />
      <path
         id="svg_21"
         d="m 12.8493,134.57085 c -0.357452,0 -0.647171,-0.28972 -0.647171,-0.64717 v -2.22171 c 0,-0.35745 0.289719,-0.64717 0.647171,-0.64717 0.357453,0 0.647171,0.28972 0.647171,0.64717 v 2.22171 c 0,0.35745 -0.289719,0.64717 -0.647171,0.64717 z"
         fill="#f9a11d"
         style="stroke-width:0.264583" />
      <g
         id="svg_22"
         transform="matrix(0.26458333,0,0,0.26458333,4.2585435,130.62988)">
        <g
           id="svg_23">
          <path
             id="svg_24"
             d="M 47.362999,20.655001 C 46.655998,20.655001 45.956001,20.351 45.472,19.761999 44.613998,18.719 44.764,17.177 45.806999,16.319 l 6.59,-5.419001 c 1.044003,-0.858 2.585003,-0.706999 3.442997,0.336 0.858002,1.042999 0.708,2.584999 -0.334999,3.443001 l -6.589996,5.418999 C 48.459999,20.472999 47.91,20.655 47.362999,20.655001 Z"
             fill="#f9a11d" />
        </g>
      </g>
      <path
         id="svg_25"
         d="m 20.547088,139.56221 h -2.225147 c -0.357452,0 -0.64717,-0.28972 -0.64717,-0.64717 0,-0.35745 0.289718,-0.64717 0.64717,-0.64717 h 2.225147 c 0.357452,0 0.647171,0.28972 0.647171,0.64717 0,0.35745 -0.289719,0.64717 -0.647171,0.64717 z"
         fill="#f9a11d"
         style="stroke-width:0.264583" />
    </g>
    <circle
       r="1.8190107"
       cy="99.027771"
       cx="36.116283"
       id="path1140"
       style="fill:none;fill-opacity:0.59322;stroke:#41bdf5;stroke-width:0.661458;stroke-linejoin:round;stroke-miterlimit:4;stroke-dasharray:none;stroke-opacity:1" />
    <path
       id="path1142"
       d="m 36.116283,92.842751 v 4.373197"
       style="fill:none;stroke:#41bdf5;stroke-width:0.818923;stroke-linecap:butt;stroke-linejoin:miter;stroke-miterlimit:4;stroke-dasharray:none;stroke-opacity:1" />
    <path
       transform="scale(0.26458333)"
       d="M 413.00391 344.79688 C 411.00038 345.82401 408.95709 346.78435 406.86523 347.65234 C 408.95906 346.78754 410.99962 345.82199 413.00391 344.79688 z M 416.81836 351.40625 C 414.74345 352.48113 412.62442 353.48138 410.46094 354.39844 L 441.36328 407.92383 L 517.60352 407.92383 L 517.60352 400.91797 L 445.40039 400.91797 L 416.81836 351.40625 z "
       style="color:#000000;font-style:normal;font-variant:normal;font-weight:normal;font-stretch:normal;font-size:medium;line-height:normal;font-family:sans-serif;font-variant-ligatures:normal;font-variant-position:normal;font-variant-caps:normal;font-variant-numeric:normal;font-variant-alternates:normal;font-variant-east-asian:normal;font-feature-settings:normal;font-variation-settings:normal;text-indent:0;text-align:start;text-decoration:none;text-decoration-line:none;text-decoration-style:solid;text-decoration-color:#000000;letter-spacing:normal;word-spacing:normal;text-transform:none;writing-mode:lr-tb;direction:ltr;text-orientation:mixed;dominant-baseline:auto;baseline-shift:baseline;text-anchor:start;white-space:normal;shape-padding:0;shape-margin:0;inline-size:0;clip-rule:nonzero;display:inline;overflow:visible;visibility:visible;opacity:1;isolation:auto;mix-blend-mode:normal;color-interpolation:sRGB;color-interpolation-filters:linearRGB;solid-color:#000000;solid-opacity:1;vector-effect:none;fill:#666666;fill-opacity:1;fill-rule:nonzero;stroke:none;stroke-width:6.99999;stroke-linecap:butt;stroke-linejoin:miter;stroke-miterlimit:4;stroke-dasharray:none;stroke-dashoffset:0;stroke-opacity:1;color-rendering:auto;image-rendering:auto;shape-rendering:auto;text-rendering:auto;enable-background:accumulate;stop-color:#000000;stop-opacity:1"
       id="path1786" />
  </g>
  <style
     id="style833"
     type="text/css">
	.st0{fill:#999999;}
	.st1{fill:#FFFFFF;}
	.st2{fill:#009639;}
</style>
</svg>
