<?xml version="1.0" encoding="UTF-8" standalone="no"?>
<!-- Created with Inkscape (http://www.inkscape.org/) -->

<svg
   width="640"
   height="360"
   viewBox="0 0 169.3333320414225 95.25000269148096"
   version="1.1"
   id="svg5"
   inkscape:version="1.1 (c68e22c387, 2021-05-23)"
   sodipodi:docname="energydatum-logo-texto.svg"
   inkscape:export-filename="C:\work\repos\hugosites\dicastro.github.io\content\es\projects\enegydatum\featured.png"
   inkscape:export-xdpi="96"
   inkscape:export-ydpi="96"
   xmlns:inkscape="http://www.inkscape.org/namespaces/inkscape"
   xmlns:sodipodi="http://sodipodi.sourceforge.net/DTD/sodipodi-0.dtd"
   xmlns="http://www.w3.org/2000/svg"
   xmlns:svg="http://www.w3.org/2000/svg">
  <sodipodi:namedview
     id="namedview7"
     pagecolor="#e5e5e5"
     bordercolor="#111111"
     borderopacity="1"
     inkscape:pageshadow="0"
     inkscape:pageopacity="1"
     inkscape:pagecheckerboard="1"
     inkscape:document-units="mm"
     showgrid="false"
     inkscape:zoom="1.555429299179299"
     inkscape:cx="376.4234094786122"
     inkscape:cy="167.7993336873062"
     inkscape:window-width="2554"
     inkscape:window-height="1352"
     inkscape:window-x="1275"
     inkscape:window-y="4"
     inkscape:window-maximized="0"
     inkscape:current-layer="layer1"
     units="px"
     width="640px" />
  <defs
     id="defs2">
    <inkscape:path-effect
       effect="offset"
       id="path-effect2415"
       is_visible="true"
       lpeversion="1"
       linejoin_type="miter"
       unit="px"
       offset="-32"
       miter_limit="4"
       attempt_force_join="false"
       update_on_knot_move="true" />
    <inkscape:path-effect
       effect="offset"
       id="path-effect2391"
       is_visible="true"
       lpeversion="1"
       linejoin_type="miter"
       unit="px"
       offset="-20"
       miter_limit="4"
       attempt_force_join="false"
       update_on_knot_move="true" />
    <inkscape:path-effect
       effect="offset"
       id="path-effect2387"
       is_visible="true"
       lpeversion="1"
       linejoin_type="miter"
       unit="mm"
       offset="-3.2"
       miter_limit="4"
       attempt_force_join="false"
       update_on_knot_move="true" />
    <inkscape:path-effect
       effect="bounding_box"
       id="path-effect2385"
       is_visible="true"
       lpeversion="1"
       linkedpath=""
       visualbounds="false" />
    <inkscape:path-effect
       effect="offset"
       id="path-effect2383"
       is_visible="true"
       lpeversion="1"
       linejoin_type="miter"
       unit="mm"
       offset="0"
       miter_limit="4"
       attempt_force_join="false"
       update_on_knot_move="true" />
    <inkscape:path-effect
       effect="offset"
       id="path-effect2381"
       is_visible="true"
       lpeversion="1"
       linejoin_type="miter"
       unit="px"
       offset="9"
       miter_limit="7.5"
       attempt_force_join="false"
       update_on_knot_move="true" />
  </defs>
  <g
     inkscape:label="Capa 1"
     inkscape:groupmode="layer"
     id="layer1">
    <g
       id="g112127"
       inkscape:export-filename="C:\work\repos\energydatum\docs\assets\img\logo_35x35.png"
       inkscape:export-xdpi="9.935833"
       inkscape:export-ydpi="9.935833"
       transform="matrix(0.30058171098138,0,0,0.30058171098138,-5.425278751027364,17.40720889180758)"
       style="stroke-width:3.32688">
      <path
         id="rect33"
         style="fill:#2b67ac;stroke-width:0.405642"
         d="m 55.139603,55.793974 c -6.89366299999999,0 -12.443685,5.549506 -12.443685,12.443169 V 132.82441 c 0,6.89366 5.550022,12.44369 12.443685,12.44369 h 64.587277 c 6.89366,0 12.44316,-5.55003 12.44316,-12.44369 V 68.237143 c 0,-6.893663 -5.5495,-12.44316899999999 -12.44316,-12.44316899999999 z m 0,5.291151 H 119.4349 c 0.58954,-0.0093 1.18186,0.02561 1.75958,0.149344 1.80401,0.366712 3.44451,1.468083 4.4664,2.9993 C 126.4439,65.387033 126.87041,66.77455799999998 126.87941,68.16789599999998 126.8802,89.622979 126.87967,111.07838 126.87994,132.53347 c 0.009,0.58954 -0.0256,1.18134 -0.14935,1.75907 -0.36669,1.804 -1.46809,3.44449 -2.9993,4.46639 -1.15325,0.78302 -2.54078,1.20953 -3.93412,1.21853 -21.455083,8e-4 -42.910495,2.7e-4 -64.365581,5.3e-4 -0.589542,0.009 -1.181335,-0.0256 -1.759066,-0.14935 -1.804001,-0.36671 -3.44501499999999,-1.46808 -4.46691,-2.9993 -0.78301299999999,-1.15325 -1.209215,-2.54078 -1.218015,-3.93412 -7.94e-4,-21.45213 -2.65e-4,-42.90465800000443 -5.29e-4,-64.35679400000321 -0.0093,-0.59246800000004 0.0254,-1.18716100000006 0.149344,-1.76785000000001 0.366718,-1.803995 1.468083,-3.44449899999999 2.99930100000001,-4.46639399999997 1.172443,-0.79627399999998 2.587307,-1.22364499999999 4.003889,-1.21904700000001 z" />
      <path
         style="fill:#2b67ac;stroke-width:1.53312"
         id="path2411"
         width="89.47422790527344"
         height="89.47422790527344"
         x="42.69587326049805"
         y="55.79392623901367"
         ry="12.44343566894531"
         sodipodi:type="rect"
         d="m 55.138671875,64.2109375 c -1.04009410438491,-0.006053375131 -2.07514469927193,0.4099951394037 -2.81535752050396,1.14191991978826 -0.75310005961661,0.72763607742354 -1.19628480647302,1.76029161574444 -1.20929983329964,2.80703278297007 -0.001710449521,5.26829376913486 -2.4481046565e-4,10.53660680185092 -7.332711964e-4,15.80490798250278 2.1770807294e-4,16.30390723791588 -4.3541977842e-4,32.60781787495118 3.2657028746e-4,48.91172298838618 0.006562354709,1.0792220910096 0.47049450553597,2.1464188153037 1.26037900251329,2.8827246027703 0.7525740556632,0.715851476483 1.79221200701659,1.11143902422 2.82953666842712,1.0903635985824 21.52511338592075,-2.177099307e-4 43.0502301709821,4.354222562e-4 64.57534143241943,-3.265702875e-4 1.0792220910093,-0.00656235471 2.1464188153041,-0.4704945055361 2.8827246027703,-1.2603790025132 0.7158514764823,-0.7525740556635 1.1114390242209,-1.7922120070165 1.0903635985824,-2.8295366684272 -2.174680419e-4,-21.5244621719628 4.349381683e-4,-43.04892773557963 -3.262067551e-4,-64.57338778774142 -0.00644585367,-1.04744084108151 -0.4432123639894,-2.08368493585293 -1.1925302776087,-2.8162415276999 -0.7353719465908,-0.73576223434073 -1.7669210397264,-1.15824475141446 -2.806382593789,-1.15871872919662 C 98.2147002160849,64.21082871486365 76.67668582514045,64.21099189247442 55.138671875,64.2109375 Z"
         inkscape:path-effect="#path-effect2415" />
      <rect
         style="opacity:1;fill:#142f4e;fill-opacity:1;stroke:none;stroke-width:16.323;stroke-miterlimit:4;stroke-dasharray:none"
         id="rect68933"
         width="29.20013236999512"
         height="51.47404479980469"
         x="55.90744781494141"
         y="74.96335601806641"
         ry="1.278861165046692" />
      <path
         d="M 80.51723599999999,98.18115299999999 V 103.2196 q 0,4.47863 -2.59760100000001,8.57657 -2.57520799999999,4.09794 -7.38972799999999,4.09794 -2.776746,0 -4.70255400000002,-1.20923 -1.90341499999998,-1.23162 -3.62768499999999,-4.50102 -1.701876,-3.29179 -1.701876,-6.96426 v -5.03844700000001 q 0,-4.45623000000002 2.57520800000002,-8.55417 2.575208,-4.120333 7.38972799999997,-4.120333 2.75435299999999,0 4.657768,1.20922799999998 1.92580700000001,1.20922800000001 3.650077,4.50101600000002 1.74666300000001,3.26939499999999 1.74666300000003,6.964259 z m -4.61298100000001,0 q 0,-3.73965100000001 -2.08256,-6.53879000000002 -1.18683500000002,-1.54512499999998 -3.336574,-1.54512499999998 -2.08256,0 -3.40375400000001,1.701877 -1.992987,2.57520799999999 -1.992987,6.38203799999999 V 103.2196 q 0,3.76205 2.10495299999999,6.53879 1.16444199999999,1.54513 3.336574,1.54513 2.06016699999999,0 3.38136,-1.70188 1.99298799999998,-2.57521 1.99298799999998,-6.38204 z"
         style="font-weight:bold;font-size:45.8611px;line-height:1.25;font-family:'Courier New';-inkscape-font-specification:'Courier New Bold';fill:#ffffff;stroke-width:0.880237"
         id="path111990" />
      <path
         style="color:#000000;fill:#142f4e;stroke-width:16.323;-inkscape-stroke:none"
         d="M 91.036826,74.623146 H 117.67924 c 0.70849,0 1.27886,0.57037200000001 1.27886,1.27886100000001 V 124.81833 c 0,0.70849 -0.57037,1.27886 -1.27886,1.27886 H 91.036826 c -0.708489,0 -1.27886100000002,-0.57037 -1.27886100000002,-1.27886 V 75.90200699999998 c 0,-0.708489 0.57037200000002,-1.27886099999999 1.27886100000002,-1.27886099999998 z"
         id="rect2521" />
      <path
         id="path111998"
         style="color:#000000;fill:#ffffff;stroke-width:61.6929;-inkscape-stroke:none"
         d="m 403.14062,401.37305 -37.32421,9.64843 c -3.78038,1.01561 -6.2623699999999,2.20051 -7.44727,3.55469 -1.18489,1.29774 -1.77734,3.10264 -1.77734,5.41602 0,2.53906 0.7892800000001,4.68448 2.3691400000001,6.43359 1.63628,1.74914 3.55534,2.62305 5.7558599999999,2.62305 1.24131,0 3.1033,-0.3385400000001 5.5859300000001,-1.01563 l 15.48829,-4.0625 v 52.61719 h 17.3496 z"
         transform="scale(0.26458333)" />
      <path
         id="path112019"
         style="color:#000000;fill:#ffffff;stroke-width:61.6929;-inkscape-stroke:none"
         d="m 356.5918,282.04102 v 10.12109 c 0,9.25347 2.14344,18.028 6.43164,26.32227 4.34461,8.23784 8.91493,13.90842 13.71094,17.01171 4.85243,3.04688 10.77692,4.57032 17.77343,4.57032 12.13108,0 21.44097,-5.1627700000001 27.92969,-15.48829 6.54513,-10.32551 9.81836,-21.13129 9.81836,-32.41601 v -10.12109 h -17.43555 v 10.12109 c 0,9.59201 -2.50954,17.63238 -7.53125,24.12109 -3.32898,4.2882 -7.59027,6.4336 -12.78125,6.4336 -5.47308,0 -9.67535,-1.94662 -12.60937,-5.83985 -5.30382,-6.99652 -7.95703,-15.2356700000001 -7.95703,-24.71484 v -10.12109 z"
         transform="scale(0.26458333)" />
    </g>
    <text
       xml:space="preserve"
       style="font-style:normal;font-weight:normal;font-size:20.8933px;line-height:1.25;font-family:sans-serif;fill:#333333;fill-opacity:1;stroke:none;stroke-width:0.264584"
       x="35.50796890258789"
       y="55.02620315551758"
       id="text3010"
       inkscape:export-filename="C:\work\repos\hugosites\dicastro.github.io\content\es\projects\enegydatum\featured.png"
       inkscape:export-xdpi="96"
       inkscape:export-ydpi="96"><tspan
         sodipodi:role="line"
         id="tspan3008"
         style="font-style:normal;font-variant:normal;font-weight:normal;font-stretch:normal;font-size:20.8933px;font-family:'Microsoft Sans Serif';-inkscape-font-specification:'Microsoft Sans Serif';stroke-width:0.264584;fill:#333333"
         x="35.50796890258789"
         y="55.02620315551758">EnergyDatum</tspan></text>
  </g>
</svg>
