<?xml version="1.0" encoding="UTF-8" standalone="no"?>
<svg
   xmlns:dc="http://purl.org/dc/elements/1.1/"
   xmlns:cc="http://creativecommons.org/ns#"
   xmlns:rdf="http://www.w3.org/1999/02/22-rdf-syntax-ns#"
   xmlns:svg="http://www.w3.org/2000/svg"
   xmlns="http://www.w3.org/2000/svg"
   xmlns:xlink="http://www.w3.org/1999/xlink"
   xmlns:sodipodi="http://sodipodi.sourceforge.net/DTD/sodipodi-0.dtd"
   xmlns:inkscape="http://www.inkscape.org/namespaces/inkscape"
   inkscape:export-ydpi="96"
   inkscape:export-xdpi="96"
   inkscape:export-filename="C:\work\repos\hugosites\diegocastroviadero.com\content\es\post\monto-un-cluster-kubernetes-con-rpi-parte-ii\featured.png"
   sodipodi:docname="featured.svg"
   inkscape:version="1.0 (4035a4fb49, 2020-05-01)"
   id="svg8"
   version="1.1"
   viewBox="0 0 190.4976 142.8732"
   height="540"
   width="720">
  <defs
     id="defs2">
    <style
       id="style1121">.cls-1{fill:#008fbe;}</style>
  </defs>
  <sodipodi:namedview
     inkscape:window-maximized="1"
     inkscape:window-y="-9"
     inkscape:window-x="-9"
     inkscape:window-height="1001"
     inkscape:window-width="1920"
     units="px"
     showgrid="false"
     inkscape:document-rotation="0"
     inkscape:current-layer="layer1"
     inkscape:document-units="px"
     inkscape:cy="238.26969"
     inkscape:cx="181.90003"
     inkscape:zoom="1"
     inkscape:pageshadow="2"
     inkscape:pageopacity="0.0"
     borderopacity="1.0"
     bordercolor="#666666"
     pagecolor="#ffffff"
     id="base" />
  <metadata
     id="metadata5">
    <rdf:RDF>
      <cc:Work
         rdf:about="">
        <dc:format>image/svg+xml</dc:format>
        <dc:type
           rdf:resource="http://purl.org/dc/dcmitype/StillImage" />
        <dc:title></dc:title>
      </cc:Work>
    </rdf:RDF>
  </metadata>
  <g
     id="layer1"
     inkscape:groupmode="layer"
     inkscape:label="Layer 1">
    <g
       transform="translate(1.4279444)"
       id="g1190">
      <g
         transform="matrix(0.16102715,0,0,0.16102715,7.1653608,46.207014)"
         id="g1035">
        <path
           d="M 259.8,152.9 C 259.8,211.9 212,259.7 153,259.7 94,259.7 46.2,211.9 46.2,152.9 46.2,93.9 94,46.1 153,46.1 c 0,0 0,0 0,0 59,0 106.8,47.8 106.8,106.8 0,0 0,0 0,0"
           id="path1021" />
        <path
           class="st0"
           d="m 154.8,112.9 27.6,68.2 -41.7,-32.9 z m 49.1,83.9 -42.5,-102.3 c -1,-2.8 -3.7,-4.6 -6.6,-4.5 -3,-0.1 -5.7,1.7 -6.8,4.5 l -46.7,112.2 h 16 l 18.5,-46.3 55.1,44.5 c 2.2,1.8 3.8,2.6 5.9,2.6 4.2,0.1 7.7,-3.2 7.8,-7.4 0,-0.1 0,-0.1 0,-0.2 0,-1 -0.3,-2.1 -0.7,-3.1"
           id="path1023" />
      </g>
      <g
         id="g1078"
         transform="matrix(0.08599108,0,0,0.08600893,138.64098,54.234255)">
        <g
           display="none"
           id="BK">
	<rect
   id="rect1058"
   fill="#ffffff"
   display="inline"
   x="-4600"
   y="-580"
   width="5100"
   height="4060" />

</g>
        <g
           id="Comp">
	<g
   id="_x36_1">
		<path
   id="path1061"
   fill="#dd4814"
   d="m 237.25,228.29 c 5.179,0 9.377,4.198 9.377,9.373 0,5.182 -4.198,9.377 -9.377,9.377 -5.175,0 -9.373,-4.195 -9.373,-9.377 0,-5.17 4.2,-9.37 9.37,-9.37 z m 52.67,-28.3 h -78.766 l -113.48,-74.984 4.703,-11.338 85.476,17.551 0.254,-64.803 43.551,50.526 70.793,-76.946 10.516,6.241 -34.411,101.43 103.69,-29.983 C 350.796,48.378 280.936,0.054 199.996,0.054 89.726,0.053 0.006,89.773 0.006,200.054 c 0,60.146 26.688,114.18 68.846,150.87 v -38.185 c 0,-10.358 8.393,-18.747 18.75,-18.747 10.354,0 18.75,8.393 18.75,18.747 v 63.995 c 4.085,2.173 8.252,4.212 12.499,6.103 v -70.098 c 0,-10.358 8.393,-18.747 18.747,-18.747 10.358,0 18.75,8.393 18.75,18.747 v 82.513 c 4.124,0.921 8.29,1.718 12.503,2.381 v -84.89 c 0,-10.358 8.396,-18.747 18.75,-18.747 10.354,0 18.747,8.393 18.747,18.747 v 87.018 c 0,0.067 -0.007,0.127 -0.007,0.198 4.198,-0.134 8.372,-0.395 12.506,-0.787 v -161.44 c 0,-10.354 8.393,-18.747 18.747,-18.747 10.354,0 18.75,8.396 18.75,18.747 v 154.23 c 82.93,-24.39 143.65,-101.18 143.65,-191.91 0,-23.054 -3.934,-45.202 -11.144,-65.829 l -98.94,65.77 z" />

	</g>

</g>
      </g>
      <g
         id="g1119"
         transform="matrix(1.2030469,0,0,1.2283806,51.486667,35.229406)">
        <ellipse
           style="stroke-width:0.134366"
           ry="18.846561"
           rx="19.243431"
           id="circle1080"
           fill="#dd4814"
           cx="35.18914"
           cy="28.97151" />
        <g
           transform="matrix(0.13577337,0,0,0.13297323,35.18914,28.97151)"
           fill="#ffffff"
           id="U">
          <circle
             id="circle1082"
             r="18.921499"
             cx="-96.377197"
             cy="0" />
          <path
             id="path1084"
             d="M -45.6059,68.395 C -62.1655,57.3316 -74.4844,40.4175 -79.6011,20.6065 -73.623,15.7354 -69.8047,8.3164 -69.8047,0 c 0,-8.3164 -3.8183,-15.7354 -9.7964,-20.6065 5.1167,-19.811 17.4356,-36.7251 33.9952,-47.7885 l 13.8344,23.1738 C -45.9824,-35.2197 -55.2754,-18.7026 -55.2754,0 c 0,18.7026 9.293,35.2197 23.5039,45.2212 z" />
        </g>
        <use
           id="use1087"
           transform="matrix(-0.5,0.84816481,-0.8842621,-0.5,78.402119,13.611074)"
           xlink:href="#U"
           x="0"
           y="0"
           width="100%"
           height="100%" />
        <use
           id="use1089"
           transform="matrix(-0.5,-0.84816481,0.8842621,-0.5,27.165302,73.303455)"
           xlink:href="#U"
           x="0"
           y="0"
           width="100%"
           height="100%" />
      </g>
    </g>
    <path
       style="stroke-width:0.267323"
       class="cls-1"
       d="m 101.86238,13.177812 h 4.23707 v 1.686808 a 5.6137877,5.6137877 0 0 1 4.50172,-2.162645 5.3464645,5.3464645 0 0 1 4.71559,2.673233 c 1.51305,-2.162644 3.80668,-2.673233 5.40527,-2.673233 2.20541,0 4.15154,1.037215 5.19142,2.855014 0.34485,0.606822 0.95167,1.946111 0.95167,4.584593 V 31.38787 h -4.23974 V 21.352554 c 0,-2.031655 -0.21654,-2.855011 -0.3903,-3.242629 -0.26732,-0.692368 -0.90891,-1.603939 -2.42194,-1.603939 a 3.1330283,3.1330283 0 0 0 -2.51017,1.336616 c -0.73515,1.037213 -0.82068,2.595708 -0.82068,4.151528 v 9.39374 h -4.23976 V 21.352554 c 0,-2.031655 -0.21652,-2.855011 -0.39028,-3.242629 -0.26733,-0.692368 -0.90891,-1.603939 -2.42196,-1.603939 a 3.1303549,3.1303549 0 0 0 -2.50748,1.336616 c -0.73515,1.037213 -0.82336,2.595708 -0.82336,4.151528 v 9.39374 h -4.23707 z m -14.676047,0 h 4.239748 v 1.644037 a 7.3380225,7.3380225 0 0 1 1.772348,-1.51305 4.8946883,4.8946883 0 0 1 2.59571,-0.606824 6.2874423,6.2874423 0 0 1 3.330841,0.866128 l -1.740269,3.849454 a 3.8387615,3.8387615 0 0 0 -2.162645,-0.649595 c -0.908898,0 -1.817794,0.128308 -2.638476,0.994443 -1.168208,1.253746 -1.168208,2.983326 -1.168208,4.194301 v 9.431164 h -4.226378 z m -19.233909,9.169186 c 0,3.157087 1.988884,5.795568 5.06043,5.795568 2.673232,0 5.145971,-1.946115 5.145971,-5.752797 0,-3.980443 -2.464719,-5.881111 -5.145971,-5.881111 -3.071546,0 -5.06043,2.595708 -5.06043,5.83834 m 9.947098,-9.169186 h 4.247766 V 31.38787 h -4.245093 v -1.903343 a 6.9931756,6.9931756 0 0 1 -5.448047,2.464721 c -5.613788,0 -8.821668,-4.670137 -8.821668,-9.687794 0,-5.926556 4.065986,-9.559479 8.867113,-9.559479 a 6.6376357,6.6376357 0 0 1 5.407949,2.595709 z"
       id="path1127" />
    <g
       id="g1026"
       transform="matrix(0.1906194,0,0,0.1906194,116.27765,95.620069)"
       style="fill:#007bff;fill-opacity:1">
      <path
         style="fill:#007bff;fill-opacity:1;stroke-width:0.264583"
         id="path951"
         d="m -17.655242,103.57725 c -0.512762,-0.4072 -5.299339,-4.021405 -15.393722,-4.021405 -2.665413,0.01164 -5.325269,0.240241 -7.95364,0.683685 C -42.956287,86.848436 -54.027512,80.319578 -54.52387,80.026684 l -2.710656,-1.563158 -1.782763,2.572544 c -2.232554,3.455723 -3.862387,7.265193 -4.819121,11.266487 -1.807368,7.644077 -0.708289,14.823813 3.174736,20.961883 -4.688946,2.61302 -12.210786,3.25622 -13.732933,3.31311 H -198.92842 c -3.25279,0.004 -5.89228,2.63313 -5.91,5.88565 -0.14526,10.90983 1.70312,21.75458 5.45412,32.0003 4.28995,11.25035 10.67223,19.53736 18.97565,24.6089 9.3046,5.69833 24.42157,8.95455 41.55731,8.95455 7.74118,0.0243 15.46781,-0.67627 23.07855,-2.09206 10.57962,-1.94257 20.759997,-5.64038 30.119897,-10.94105 7.71234,-4.46616 14.653419,-10.14783 20.55495,-16.82644 9.866312,-11.16885 15.744031,-23.60771 20.115212,-34.66227 0.586052,0 1.172369,0 1.742017,0 10.802408,0 17.445302,-4.32276 21.108458,-7.94517 2.434431,-2.31034 4.334933,-5.12471 5.568156,-8.24627 l 0.773377,-2.26298 z" />
      <path
         style="fill:#007bff;fill-opacity:1;stroke-width:0.264583"
         id="path953"
         d="m -187.38518,112.9308 h 16.68806 c 0.80486,0 1.45706,-0.65247 1.45706,-1.45706 v 0 -14.864825 c 0.005,-0.804862 -0.64426,-1.460764 -1.44886,-1.465262 -0.003,0 -0.006,0 -0.008,0 h -16.68806 c -0.80487,0 -1.45706,0.652462 -1.45706,1.45706 0,0.0026 0,0.0056 0,0.0082 v 14.864557 c 0,0.80486 0.65219,1.45733 1.45706,1.45733 v 0" />
      <path
         style="fill:#007bff;fill-opacity:1;stroke-width:0.264583"
         id="path955"
         d="m -164.38813,112.9308 h 16.68807 c 0.80486,0 1.45706,-0.65247 1.45706,-1.45706 v 0 -14.864825 c 0.004,-0.804862 -0.64426,-1.460764 -1.44913,-1.465262 -0.003,0 -0.006,0 -0.008,0 h -16.68806 c -0.80936,0 -1.46527,0.655902 -1.46527,1.465262 v 14.864555 c 0.005,0.80619 0.65935,1.45733 1.46553,1.45733" />
      <path
         style="fill:#007bff;fill-opacity:1;stroke-width:0.264583"
         id="path957"
         d="m -141.0413,112.9308 h 16.68807 c 0.80486,0 1.45706,-0.65247 1.45706,-1.45706 v 0 -14.864825 c 0.004,-0.804862 -0.64426,-1.460764 -1.44912,-1.465262 -0.003,0 -0.006,0 -0.008,0 h -16.68806 c -0.80486,0 -1.45706,0.652462 -1.45706,1.45706 0,0.0026 0,0.0056 0,0.0082 v 14.864557 c 2.6e-4,0.80486 0.65273,1.45733 1.45732,1.45733 v 0" />
      <path
         style="fill:#007bff;fill-opacity:1;stroke-width:0.264583"
         id="path959"
         d="m -117.97095,112.9308 h 16.68806 c 0.80619,0 1.460766,-0.65088 1.465264,-1.45706 V 96.608915 c 0,-0.80936 -0.655904,-1.465262 -1.465264,-1.465262 v 0 h -16.68806 c -0.80487,0 -1.45706,0.652462 -1.45706,1.45706 0,0.0026 0,0.0056 0,0.0082 v 14.864557 c 0,0.80486 0.65246,1.45733 1.45706,1.45733 v 0" />
      <path
         style="fill:#007bff;fill-opacity:1;stroke-width:0.264583"
         id="path961"
         d="m -164.38813,91.545584 h 16.68807 c 0.80592,-0.0045 1.45706,-0.659341 1.45706,-1.465262 V 75.215766 c 0,-0.804863 -0.65247,-1.457061 -1.45706,-1.457061 v 0 h -16.68807 c -0.80592,0 -1.46076,0.650875 -1.46526,1.457061 v 14.864556 c 0.004,0.807508 0.65775,1.460764 1.46526,1.465262" />
      <path
         style="fill:#007bff;fill-opacity:1;stroke-width:0.264583"
         id="path963"
         d="m -141.0413,91.545584 h 16.68807 c 0.80592,-0.0045 1.45706,-0.659341 1.45706,-1.465262 V 75.215766 c 0,-0.804863 -0.65246,-1.457061 -1.45706,-1.457061 v 0 h -16.68807 c -0.80486,0 -1.45706,0.652463 -1.45706,1.457061 v 0 14.864556 c 0,0.805921 0.65114,1.460764 1.45706,1.465262" />
      <path
         style="fill:#007bff;fill-opacity:1;stroke-width:0.264583"
         id="path965"
         d="m -117.97095,91.545584 h 16.68806 c 0.80751,-0.0045 1.460766,-0.657754 1.465264,-1.465262 V 75.215766 c -0.0045,-0.806186 -0.659074,-1.457061 -1.465264,-1.457061 h -16.68806 c -0.80487,0 -1.45706,0.652463 -1.45706,1.457061 v 0 14.864556 c 0,0.805921 0.65114,1.460764 1.45706,1.465262" />
      <path
         style="fill:#007bff;fill-opacity:1;stroke-width:0.264583"
         id="path967"
         d="m -117.97095,70.152435 h 16.68806 c 0.80619,0 1.460766,-0.65114 1.465264,-1.457061 V 53.822351 c -0.0045,-0.806185 -0.659074,-1.45706 -1.465264,-1.45706 h -16.68806 c -0.80487,0 -1.45706,0.652198 -1.45706,1.45706 v 0 14.872759 c 0,0.804862 0.65246,1.457325 1.45706,1.457325" />
      <path
         style="fill:#007bff;fill-opacity:1;stroke-width:0.264583"
         id="path969"
         d="m -94.697145,112.9308 h 16.688065 c 0.806185,0 1.460764,-0.65088 1.465262,-1.45706 V 96.608915 c 0,-0.80936 -0.655902,-1.465262 -1.465262,-1.465262 v 0 h -16.688065 c -0.804598,0 -1.45706,0.652462 -1.45706,1.45706 0,0.0026 0,0.0056 0,0.0082 v 14.864557 c 0,0.80486 0.652462,1.45733 1.45706,1.45733" />
    </g>
    <g
       transform="matrix(0.37436192,0,0,0.37436192,125.4528,3.7829755)"
       id="g1360">
      <path
         style="fill:#222123;stroke-width:0.0930164"
         d="m 52.331745,29.762368 c 0,1.872885 -0.42955,3.515462 -1.253768,4.836295 -0.284816,2.130448 -0.972859,4.14137 -1.989528,5.964677 -0.0573,0.185661 -0.124363,0.374205 -0.203148,0.566656 -4.264802,4.026681 -10.014705,6.494406 -16.34196,6.494406 -6.328185,0 -12.078088,-2.467725 -16.342983,-6.494406 -0.07776,-0.192451 -0.145757,-0.380995 -0.203148,-0.566656 -1.016669,-1.823307 -1.704805,-3.834229 -1.988598,-5.964677 -0.824218,-1.320833 -1.254791,-2.96341 -1.254791,-4.836295 0,-2.80984 1.985621,-4.566083 3.15,-5.408812 0.230309,-0.423782 0.479128,-0.837798 0.744504,-1.241117 -0.0059,-0.04669 -0.0087,-0.0933 -0.0107,-0.14092 -0.08167,-2.269415 0.806731,-4.453347 2.500746,-6.147455 0.476244,-0.475314 0.992299,-0.856309 1.564815,-1.153682 -0.46164,-0.08744 -0.800871,-0.170127 -0.87668,-0.189568 C 19.344405,15.360265 18.96834,14.994896 18.82835,14.530279 18.131471,14.168725 17.668808,13.752755 17.583326,13.67397 17.351994,13.458172 17.204284,13.173449 17.156659,12.871146 16.514195,12.488197 16.177941,12.15678 16.085575,12.059578 15.793969,11.751507 15.660863,11.331631 15.714254,10.919475 15.378,10.616242 15.171875,10.37133 15.124251,10.313008 14.838504,9.9621505 14.743256,9.4985567 14.858875,9.0679838 14.597406,8.7278228 14.455556,8.4663536 14.424395,8.4071022 c -0.0048,-0.00967 -0.0097,-0.01944 -0.0146,-0.029114 C 14.213434,7.9775524 14.220224,7.5071684 14.427279,7.113523 14.187204,6.7587584 14.061817,6.4837089 14.033633,6.416644 13.846019,5.9851409 13.888807,5.4875031 14.147393,5.0947878 14.18339,5.03935 14.223201,4.987912 14.264965,4.9392644 13.927688,4.4746474 13.89755,3.8332063 14.239665,3.3278481 14.505971,2.9352258 14.966681,2.7184046 15.440972,2.7184046 h 0.60163 l 0.002,-0.00391 c 0.240076,-0.4723373 0.72404,-0.7726873 1.253768,-0.7726873 0.358672,0 0.74255,0.021394 1.114802,0.053484 0.260446,-0.2993268 0.642464,-0.4801507 1.053597,-0.4801507 0.151617,0 0.31393,0.011627 0.481081,0.030137 0.266306,-0.340161 0.692042,-0.5354955 1.133312,-0.5354955 0.08455,0 0.170127,0.00679 0.254679,0.021394 0.44899,0.078692 0.839752,0.1739407 1.178983,0.2779331 0.05637,-0.048555 0.117572,-0.093295 0.181754,-0.1321764 0.223518,-0.136083 0.475314,-0.20510115 0.727946,-0.20510115 0.218682,0 0.438294,0.0515311 0.638558,0.15450025 0.16715,0.085575 0.322674,0.1710572 0.4675,0.2556091 0.036,0.020371 0.07097,0.041764 0.105946,0.062228 0.179801,-0.080645 0.375135,-0.1234328 0.573446,-0.1234328 0.164267,0 0.330488,0.029114 0.489825,0.089389 0.275049,0.1030622 0.566656,0.277933 0.847565,0.4791275 0.168174,-0.067995 0.346021,-0.102039 0.524799,-0.102039 0.183707,0 0.368345,0.035997 0.541355,0.1088292 0.336255,0.141943 0.674555,0.3781117 0.987462,0.6444177 0.0719,-0.010697 0.143804,-0.016557 0.216729,-0.016557 0.31393,0 0.625907,0.1059457 0.879563,0.311977 0.09915,0.080645 2.217976,1.8243309 2.845837,4.3862818 0.626931,-2.562044 2.745658,-4.3056366 2.844814,-4.3862818 0.253656,-0.2060313 0.565633,-0.311977 0.879563,-0.311977 0.07292,0 0.145757,0.00586 0.217751,0.016557 0.311977,-0.266306 0.650185,-0.5024747 0.986532,-0.6444177 0.173941,-0.072925 0.357649,-0.1088292 0.542379,-0.1088292 0.177847,0 0.355695,0.034044 0.523869,0.102039 0.280909,-0.2011945 0.572423,-0.3761584 0.847565,-0.4791275 0.16036,-0.060275 0.326581,-0.089389 0.490848,-0.089389 0.197287,0 0.392622,0.042788 0.572423,0.1234328 0.03497,-0.021394 0.06995,-0.041764 0.106876,-0.062228 0.144826,-0.084552 0.300349,-0.170127 0.466477,-0.2556091 0.201194,-0.1030622 0.419876,-0.15450025 0.638557,-0.15450025 0.252726,0 0.505452,0.0690181 0.727947,0.20510115 0.06511,0.038881 0.125386,0.083622 0.182684,0.1321764 0.338208,-0.1039924 0.72897,-0.1992412 1.17796,-0.2779331 0.08548,-0.014604 0.170127,-0.021394 0.254679,-0.021394 0.44127,0 0.866913,0.1953345 1.133312,0.5354955 0.16715,-0.01851 0.329464,-0.030137 0.481081,-0.030137 0.412062,0 0.793058,0.1808239 1.054527,0.4801507 0.373182,-0.032091 0.759107,-0.053484 1.118708,-0.053484 0.530659,0 1.015646,0.30035 1.250885,0.776594 9.3e-4,0 9.3e-4,0 9.3e-4,0 h 0.60842 c 0.474291,0 0.933978,0.2186816 1.198424,0.6132572 0.339231,0.5063813 0.30807,1.1458691 -0.03014,1.6076026 0.04279,0.048555 0.0826,0.1000856 0.118596,0.1555234 0.257563,0.3926223 0.30035,0.8902601 0.113759,1.3218562 -0.02911,0.067065 -0.1545,0.3421144 -0.393645,0.696879 0.206031,0.3936454 0.213845,0.8630992 0.01656,1.2635349 -0.0048,0.010697 -0.0098,0.020371 -0.0146,0.030137 -0.03107,0.059252 -0.171987,0.3207206 -0.433456,0.6608816 0.115619,0.430573 0.01944,0.8941667 -0.266306,1.2450238 -0.04669,0.05832 -0.252726,0.303234 -0.590003,0.606467 0.05348,0.412063 -0.07972,0.831939 -0.371322,1.140103 -0.09134,0.0972 -0.428619,0.428619 -1.070061,0.811568 -0.04855,0.302303 -0.196357,0.587026 -0.427689,0.802824 -0.08548,0.07869 -0.547216,0.494755 -1.244095,0.856309 -0.140919,0.464617 -0.516055,0.829986 -0.999182,0.950535 -0.07581,0.01944 -0.415039,0.102039 -0.876679,0.189568 0.572423,0.297373 1.089501,0.678368 1.564815,1.153682 1.694107,1.694108 2.582414,3.877947 2.501769,6.147455 -0.002,0.04762 -0.0059,0.09432 -0.0107,0.14092 0.264353,0.403319 0.513172,0.817428 0.74348,1.241117 1.164752,0.842543 3.150373,2.598879 3.150373,5.408719 z"
         id="path1194" />
      <path
         style="fill:#81c756;stroke-width:0.0930164"
         d="m 19.893853,6.0162084 c 0,0 5.759018,1.7475923 9.654825,5.3012846 C 30.24444,10.942171 31.469373,10.01917 31.301479,8.2279526 31.068659,5.7446935 28.81822,3.9209207 28.81822,3.9209207 v 0.8923995 c 0,0 -1.008856,-1.3192518 -1.746104,-1.6296475 l -0.194033,0.8536116 c 0,0 -1.047643,-1.0864317 -1.668528,-1.3192518 0,0 0.194032,0.4267593 0,0.9700682 0,0 -0.426759,-0.6208846 -1.784892,-1.3192518 v 0.9311873 c 0,0 -0.543216,-0.5820037 -2.328014,-0.8923994 0,0 0.426759,0.3491836 0.659672,1.0088559 0,0 -1.474403,-0.504428 -2.28932,-0.504428 l 0.717901,0.7179007 c 0,0 -1.649088,-0.2909553 -2.890671,-0.2909553 l 0.582003,0.7759429 h -2.483352 c 0,0 1.047644,1.0476438 1.047644,1.746104 h -1.125219 c 0,0 0.504428,1.1641004 1.668528,1.7073162 0,0 -0.387972,0.1940322 -1.319252,0.1940322 0,0 0.504428,0.9700682 1.552072,1.5520719 l -1.008856,0.1164565 c 0,0 0.853612,1.0476442 2.095288,1.4356152 l -1.202889,0.23282 c 0,0 0.698461,0.737248 2.366803,1.280371 l -0.931187,0.271608 c 0,0 1.125219,1.047644 2.444471,1.047644 l -0.814824,0.426759 c 0,0 1.552072,0.387972 2.677292,0.387972 l -0.698461,0.69846 c 0,0 5.411044,0.748503 6.416551,-3.204323 -0.866075,-1.018994 -3.131211,-3.1292576 -8.66699,-5.9916516 z"
         id="path1196" />
      <g
         id="g1204"
         transform="matrix(0.09301641,0,0,0.09301641,8.73114,0)">
	<path
   style="fill:#cb1948"
   d="m 255.997,230.703 c 27.949,0 52.977,-14.183 55.898,-27.532 2.921,-13.349 -15.434,-37.96 -55.898,-37.96 -40.464,0 -58.817,24.612 -55.898,37.96 2.92,13.35 27.949,27.532 55.898,27.532 z"
   id="path1198" />

	<path
   style="fill:#cb1948"
   d="M 315.183,505.125 C 296.187,509.618 276.365,512 256,512 c -20.376,0 -40.187,-2.382 -59.183,-6.875 -0.293,-1.881 -0.251,-3.657 0.125,-5.277 3.082,-13.343 29.529,-19.968 59.058,-19.968 29.529,0 55.965,6.625 59.058,19.968 0.376,1.609 0.418,3.396 0.125,5.277 z"
   id="path1200" />

	<path
   style="fill:#cb1948"
   d="m 162.297,409.506 c -19.489,-22.183 -43.204,-36.546 -57.858,-27.779 -14.655,8.769 -25.12,43.776 3.096,75.892 28.216,32.116 64.28,26.243 74.862,12.84 10.581,-13.404 -0.611,-38.77 -20.1,-60.953 z"
   id="path1202" />

</g>
      <path
         style="fill:#cb1948;stroke-width:0.0930164"
         d="m 25.660778,16.300847 c 0.404621,0.02716 0.619489,0.492708 0.377832,0.818265 -0.681159,0.917328 -1.662575,2.073894 -2.963037,3.214833 -1.604719,1.407432 -3.197532,2.416009 -4.276895,3.025638 -0.338208,0.191056 -0.751107,-0.05014 -0.76506,-0.438293 -0.07692,-2.144866 0.875843,-3.892086 2.093055,-5.109299 1.285859,-1.286044 2.92425,-1.685829 5.534105,-1.511144 z"
         id="path1206" />
      <g
         id="g1214"
         transform="matrix(0.09301641,0,0,0.09301641,8.73114,0)">
	<path
   style="fill:#cb1948"
   d="m 91.225,270.332 c -17.52,11.68 -32.954,27.114 -32.954,49.64 0,22.526 6.466,41.506 19.605,54.646 13.14,13.14 25.318,-39.64 25.863,-52.144 0.815,-18.669 6.048,-60.694 -12.514,-52.142 z"
   id="path1208" />

	<ellipse
   style="fill:#cb1948"
   cx="256"
   cy="404.793"
   rx="63.812"
   ry="56.728001"
   id="ellipse1210" />

	
		<ellipse
   transform="matrix(-0.7071,-0.7071,0.7071,-0.7071,105.1524,636.8993)"
   style="fill:#cb1948"
   cx="184.48199"
   cy="296.672"
   rx="55.964001"
   ry="64.918999"
   id="ellipse1212" />

</g>
      <path
         style="fill:#81c756;stroke-width:0.0930164"
         d="m 45.19227,6.0162084 c 0,0 -5.759018,1.7475923 -9.654824,5.3012846 -0.695763,-0.375322 -1.920696,-1.298323 -1.752801,-3.0895404 0.23282,-2.4832591 2.483259,-4.3070319 2.483259,-4.3070319 v 0.8923995 c 0,0 1.008856,-1.3192518 1.746104,-1.6296475 l 0.194032,0.8536116 c 0,0 1.047644,-1.0864317 1.668529,-1.3192518 0,0 -0.194033,0.4267593 0,0.9700682 0,0 0.426759,-0.6208846 1.784892,-1.3192518 v 0.9311873 c 0,0 0.543215,-0.5820037 2.328014,-0.8923994 0,0 -0.426759,0.3491836 -0.659672,1.0088559 0,0 1.474403,-0.504428 2.28932,-0.504428 l -0.717901,0.7179007 c 0,0 1.649088,-0.2909553 2.890671,-0.2909553 L 47.209889,4.114953 h 2.48326 c 0,0 -1.047644,1.0476438 -1.047644,1.746104 h 1.125219 c 0,0 -0.504428,1.1641004 -1.668528,1.7073162 0,0 0.387971,0.1940322 1.319252,0.1940322 0,0 -0.504428,0.9700682 -1.552072,1.5520719 l 1.008856,0.1164565 c 0,0 -0.853612,1.0476442 -2.095288,1.4356152 l 1.202888,0.23282 c 0,0 -0.69846,0.737248 -2.366895,1.280371 l 0.931187,0.271608 c 0,0 -1.125219,1.047644 -2.444471,1.047644 l 0.814824,0.426759 c 0,0 -1.552072,0.387972 -2.677292,0.387972 l 0.69846,0.69846 c 0,0 -5.411043,0.748503 -6.416551,-3.204323 0.866262,-1.018994 3.131398,-3.1292576 8.667176,-5.9916516 z"
         id="path1216" />
      <g
         id="g1222"
         transform="matrix(0.09301641,0,0,0.09301641,8.73114,0)">
	<path
   style="fill:#cb1948"
   d="m 255.997,230.703 c -27.949,0 -52.977,-14.183 -55.898,-27.532 -2.92,-13.349 15.434,-37.96 55.898,-37.96 40.464,0 58.817,24.612 55.898,37.96 -2.921,13.35 -27.949,27.532 -55.898,27.532 z"
   id="path1218" />

	<path
   style="fill:#cb1948"
   d="m 349.697,409.506 c 19.489,-22.183 43.204,-36.546 57.858,-27.779 14.655,8.769 25.12,43.776 -3.096,75.892 -28.216,32.116 -64.28,26.243 -74.862,12.84 -10.581,-13.404 0.611,-38.77 20.1,-60.953 z"
   id="path1220" />

</g>
      <path
         style="fill:#cb1948;stroke-width:0.0930164"
         d="m 39.425346,16.300847 c -0.404621,0.02716 -0.619489,0.492708 -0.37774,0.818265 0.68116,0.917328 1.662576,2.073894 2.963038,3.214833 1.604719,1.407432 3.197532,2.416009 4.276895,3.025638 0.338207,0.191056 0.751107,-0.05014 0.76506,-0.438293 0.07692,-2.144866 -0.875936,-3.892086 -2.093056,-5.109299 -1.285951,-1.286044 -2.924342,-1.685829 -5.534197,-1.511144 z"
         id="path1224" />
      <g
         id="g1230"
         transform="matrix(0.09301641,0,0,0.09301641,8.73114,0)">
	<path
   style="fill:#cb1948"
   d="m 420.769,270.332 c 17.52,11.68 32.954,27.114 32.954,49.64 0,22.526 -6.466,41.506 -19.605,54.646 -13.14,13.14 -25.318,-39.64 -25.863,-52.144 -0.815,-18.669 -6.049,-60.694 12.514,-52.142 z"
   id="path1226" />

	
		<ellipse
   transform="matrix(-0.7071,0.7071,-0.7071,-0.7071,768.8735,274.8859)"
   style="fill:#cb1948"
   cx="327.50601"
   cy="296.68201"
   rx="55.964001"
   ry="64.918999"
   id="ellipse1228" />

</g>
    </g>
    <g
       transform="matrix(0.09301641,0,0,0.09301641,8.73114,0)"
       id="g1232">
</g>
    <g
       transform="matrix(0.09301641,0,0,0.09301641,8.73114,0)"
       id="g1234">
</g>
    <g
       transform="matrix(0.09301641,0,0,0.09301641,8.73114,0)"
       id="g1236">
</g>
    <g
       transform="matrix(0.09301641,0,0,0.09301641,8.73114,0)"
       id="g1238">
</g>
    <g
       transform="matrix(0.09301641,0,0,0.09301641,8.73114,0)"
       id="g1240">
</g>
    <g
       transform="matrix(0.09301641,0,0,0.09301641,8.73114,0)"
       id="g1242">
</g>
    <g
       transform="matrix(0.09301641,0,0,0.09301641,8.73114,0)"
       id="g1244">
</g>
    <g
       transform="matrix(0.09301641,0,0,0.09301641,8.73114,0)"
       id="g1246">
</g>
    <g
       transform="matrix(0.09301641,0,0,0.09301641,8.73114,0)"
       id="g1248">
</g>
    <g
       transform="matrix(0.09301641,0,0,0.09301641,8.73114,0)"
       id="g1250">
</g>
    <g
       transform="matrix(0.09301641,0,0,0.09301641,8.73114,0)"
       id="g1252">
</g>
    <g
       transform="matrix(0.09301641,0,0,0.09301641,8.73114,0)"
       id="g1254">
</g>
    <g
       transform="matrix(0.09301641,0,0,0.09301641,8.73114,0)"
       id="g1256">
</g>
    <g
       transform="matrix(0.09301641,0,0,0.09301641,8.73114,0)"
       id="g1258">
</g>
    <g
       transform="matrix(0.09301641,0,0,0.09301641,8.73114,0)"
       id="g1260">
</g>
  </g>
  <style
     type="text/css"
     id="style960">
	.st0{fill:#FFFFFF;}
</style>
  <style
     type="text/css"
     id="style1017">
	.st0{fill:#FFFFFF;}
</style>
</svg>
