<?xml version="1.0" encoding="UTF-8" standalone="no"?>
<svg
   inkscape:export-ydpi="96"
   inkscape:export-xdpi="96"
   inkscape:export-filename="C:\work\repos\hugosites\dicastro.github.io\content\es\blog\2020\09\27\monto-un-cluster-kubernetes-con-rpi-parte-ii\featured.png"
   sodipodi:docname="featured.svg"
   inkscape:version="1.1 (c68e22c387, 2021-05-23)"
   id="svg8"
   version="1.1"
   viewBox="0 0 179.9144 95.24879999999999"
   height="360"
   width="680"
   xmlns:inkscape="http://www.inkscape.org/namespaces/inkscape"
   xmlns:sodipodi="http://sodipodi.sourceforge.net/DTD/sodipodi-0.dtd"
   xmlns:xlink="http://www.w3.org/1999/xlink"
   xmlns="http://www.w3.org/2000/svg"
   xmlns:svg="http://www.w3.org/2000/svg"
   xmlns:rdf="http://www.w3.org/1999/02/22-rdf-syntax-ns#"
   xmlns:cc="http://creativecommons.org/ns#"
   xmlns:dc="http://purl.org/dc/elements/1.1/">
  <defs
     id="defs2">
    <style
       id="style1121">.cls-1{fill:#008fbe;}</style>
  </defs>
  <sodipodi:namedview
     inkscape:window-maximized="0"
     inkscape:window-y="4"
     inkscape:window-x="1275"
     inkscape:window-height="1352"
     inkscape:window-width="2554"
     units="px"
     showgrid="false"
     inkscape:document-rotation="0"
     inkscape:current-layer="layer1"
     inkscape:document-units="px"
     inkscape:cy="239"
     inkscape:cx="182.5"
     inkscape:zoom="1"
     inkscape:pageshadow="2"
     inkscape:pageopacity="1"
     borderopacity="1.0"
     bordercolor="#666666"
     pagecolor="#e5e5e5"
     id="base"
     inkscape:pagecheckerboard="1" />
  <metadata
     id="metadata5">
    <rdf:RDF>
      <cc:Work
         rdf:about="">
        <dc:format>image/svg+xml</dc:format>
        <dc:type
           rdf:resource="http://purl.org/dc/dcmitype/StillImage" />
      </cc:Work>
    </rdf:RDF>
  </metadata>
  <g
     id="layer1"
     inkscape:groupmode="layer"
     inkscape:label="Layer 1">
    <g
       id="g1097"
       transform="translate(20.38959588439688,0.4573589375117236)">
      <g
         transform="matrix(0.6758081352405644,0,0,0.6758081352405644,6.162706651461517,1.344356316320945)"
         id="g1190"
         style="stroke-width:1.47971">
        <g
           transform="matrix(0.16102715,0,0,0.16102715,7.165360800000001,46.207014)"
           id="g1035"
           style="stroke-width:1.47971">
          <path
             d="M 259.8,152.9 C 259.8,211.9 212,259.7 153,259.7 94,259.7 46.2,211.9 46.2,152.9 46.2,93.9 94,46.1 153,46.1 c 0,0 0,0 0,0 C 212,46.1 259.8,93.9 259.8,152.9 c 0,0 0,0 0,0"
             id="path1021"
             style="stroke-width:1.47971" />
          <path
             class="st0"
             d="m 154.8,112.9 27.6,68.2 -41.7,-32.9 z m 49.1,83.9 -42.5,-102.29999999999999 c -1,-2.79999999999997 -3.7,-4.60000000000001 -6.6,-4.5 -3,-0.10000000000001 -5.7,1.70000000000003 -6.8,4.5 L 101.3,206.7 h 16 l 18.5,-46.3 55.1,44.5 c 2.2,1.8000000000001 3.8,2.6 5.9,2.6 4.2,0.1 7.7,-3.2 7.8,-7.4 0,-0.1 0,-0.1 0,-0.2 0,-1 -0.3,-2.1 -0.7,-3.1"
             id="path1023"
             style="stroke-width:1.47971" />
        </g>
        <g
           id="g1078"
           transform="matrix(0.08599108,0,0,0.08600893,138.64098,54.234255)"
           style="stroke-width:1.47971">
          <g
             display="none"
             id="BK"
             style="stroke-width:2.18954">
            <rect
               id="rect1058"
               fill="#ffffff"
               display="inline"
               x="-4600"
               y="-580"
               width="5100"
               height="4060"
               style="stroke-width:3.23989" />
          </g>
          <g
             id="Comp"
             style="stroke-width:1.47971">
            <g
               id="_x36_1"
               style="stroke-width:1.47971">
              <path
                 id="path1061"
                 fill="#dd4814"
                 d="m 237.25,228.29 c 5.179,0 9.377,4.198 9.377,9.373 0,5.182 -4.198,9.377 -9.377,9.377 -5.175,0 -9.373,-4.195 -9.373,-9.377 0,-5.17 4.2,-9.37 9.37,-9.37 z m 52.67,-28.3 h -78.766 l -113.48,-74.984 4.703,-11.338 85.476,17.551 0.254,-64.80299999999998 L 231.658,116.942 l 70.793,-76.94599999999995 10.516,6.241 L 278.556,147.667 382.246,117.684 C 350.796,48.378 280.936,0.054 199.996,0.054 89.72599999999998,0.053 0.006,89.77299999999999 0.006,200.054 0.006,260.2 26.694,314.234 68.852,350.924 v -38.185 c 0,-10.358 8.393,-18.747 18.75,-18.747 10.354,0 18.75,8.393 18.75,18.747 v 63.995 c 4.085,2.173 8.252,4.212 12.499,6.103 v -70.098 c 0,-10.358 8.393,-18.747 18.747,-18.747 10.358,0 18.75,8.393 18.75,18.747 v 82.513 c 4.124,0.921 8.29,1.718 12.503,2.3809999999999 v -84.8900000000001 c 0,-10.358 8.396,-18.747 18.75,-18.747 10.354,0 18.747,8.393 18.747,18.747 V 399.761 c 0,0.067 -0.007,0.127 -0.007,0.198 4.198,-0.1340000000001 8.372,-0.395 12.506,-0.787 v -161.44 c 0,-10.354 8.393,-18.747 18.747,-18.747 10.354,0 18.75,8.396 18.75,18.747 v 154.23 c 82.93,-24.39 143.65,-101.18 143.65,-191.91 0,-23.054 -3.934,-45.202 -11.144,-65.829 l -98.94,65.77 z"
                 style="stroke-width:2.18954" />
            </g>
          </g>
        </g>
        <g
           id="g1119"
           transform="matrix(1.2030469,0,0,1.2283806,51.486667,35.229406)"
           style="stroke-width:1.47971">
          <ellipse
             style="stroke-width:0.198823"
             ry="18.84656143188477"
             rx="19.24343109130859"
             id="circle1080"
             fill="#dd4814"
             cx="35.18914031982422"
             cy="28.97150993347168" />
          <g
             transform="matrix(0.13577337,0,0,0.13297323,35.18914,28.97151)"
             fill="#ffffff"
             id="U"
             style="stroke-width:2.18954">
            <circle
               id="circle1082"
               r="18.92149925231934"
               cx="-96.377197265625"
               cy="0"
               style="stroke-width:1.47971" />
            <path
               id="path1084"
               d="M -45.6059,68.39499999999999 C -62.1655,57.3316 -74.48439999999999,40.4175 -79.6011,20.6065 c 5.9781,-4.8711 9.79640000000001,-12.2901 9.79640000000001,-20.6065 0,-8.316399999999999 -3.81829999999999,-15.7354 -9.79640000000001,-20.6065 5.11670000000001,-19.81100000000001 17.4356,-36.7251 33.99519999999999,-47.7885 L -31.7715,-45.22120000000001 C -45.9824,-35.21970000000001 -55.2754,-18.7026 -55.2754,0 c 0,18.7026 9.293,35.21970000000001 23.50390000000001,45.22120000000001 z"
               style="stroke-width:1.47971" />
          </g>
          <use
             id="use1087"
             transform="matrix(-0.5,0.8481648099999999,-0.8842621000000001,-0.5,78.40211899999998,13.611074)"
             xlink:href="#U"
             x="0"
             y="0"
             width="100%"
             height="100%"
             style="stroke-width:1.47971" />
          <use
             id="use1089"
             transform="matrix(-0.5,-0.8481648099999999,0.8842621000000001,-0.5,27.165302,73.30345499999998)"
             xlink:href="#U"
             x="0"
             y="0"
             width="100%"
             height="100%"
             style="stroke-width:1.47971" />
        </g>
      </g>
      <path
         style="stroke-width:0.267323"
         class="cls-1"
         d="m 74.03711528823609,10.25002887059168 h 2.86344637558372 v 1.13995856898887 a 3.793843397173418,3.793843397173418 0 0 1 3.04229899857518,-1.461533084637328 3.613184203874877,3.613184203874877 0 0 1 3.18683408445905,1.806592608793538 c 1.02253149902573,-1.4615324088292 2.57258531225756,-1.806592608793538 3.65292543917175,-1.806592608793538 1.4904340195409,0 2.80564450577663,0.700958334993539 3.50840386945059,1.929441687425697 0.2330524354377,0.41009524424295 0.64314632806439,1.31519764588115 0.64314632806439,3.09830524616695 v 7.60033292165833 h -2.86525078330483 v -6.78194819250979 c 0,-1.37300897700217 -0.14633949360498,-1.92943966000131 -0.26376791518439,-2.19139505776698 -0.18065703071251,-0.46790792698024 -0.61424877220152,-1.08395502462962 -1.63676675506454,-1.08395502462962 a 2.117326013078916,2.117326013078916 0 0 0 -1.69639330683681,0.9032959664927 c -0.4968203506221,0.70095698337728 -0.55462222042924,1.75420058310902 -0.55462222042924,2.80563639607899 v 6.3483659123347 h -2.86526429946751 v -6.78194819250979 c 0,-1.37300897700217 -0.1463259774423,-1.92943966000131 -0.26375439902169,-2.19139505776698 -0.18066378879386,-0.46790792698024 -0.61424877220151,-1.08395502462962 -1.63678027122724,-1.08395502462962 a 2.115519307610164,2.115519307610164 0 0 0 -1.69457538295302,0.9032959664927 c -0.4968203506221,0.70095698337728 -0.55643338623166,1.75420058310902 -0.55643338623166,2.80563639607899 v 6.3483659123347 h -2.86344637558375 z m -9.91819195577288,0 h 2.86525618976992 v 1.11105357923649 a 4.959095302078307,4.959095302078307 0 0 1 1.19776719687734,-1.02253149902573 3.30787017260681,3.30787017260681 0 0 1 1.75420193472527,-0.410096595859217 4.249104656195649,4.249104656195649 0 0 1 2.25100944499282,0.585336348559638 l -1.17608794770695,2.60149232943433 A 2.594266250948273,2.594266250948273 0 0 0 69.54953706648427,12.6762814473256 c -0.61424066250387,0 -1.22847997339149,0.0867115902164 -1.78310354543697,0.67205266943303 -0.78948447005311,0.84729174632531 -0.78948447005311,2.01615598087469 -0.78948447005311,2.83454273744763 v 6.37365735598794 h -2.85622063500175 z m -12.9984321746767,6.19661049233389 c 0,2.13358507826223 1.3441039872498,3.91669200273989 3.4198797618154,3.91669200273989 1.80659193298542,0 3.47768906551202,-1.31520034911369 3.47768906551202,-3.88778701298752 0,-2.69001576126135 -1.66567715128198,-3.97450265805277 -3.47768906551202,-3.97450265805277 -2.07577577456561,0 -3.4198797618154,1.75420058310902 -3.4198797618154,3.94559766830038 m 6.72232975043515,-6.19661049233387 h 2.87067481939826 V 22.5565342101942 h -2.86886838425277 v -1.28629468355318 a 4.726044961645817,4.726044961645817 0 0 1 -3.68183448377295,1.66567850289826 c -3.79384359991586,0 -5.96175500079136,-3.15611657728797 -5.96175500079136,-6.54708999773473 0,-4.00521475875877 2.74782641657424,-6.460373676861334 5.99246710149736,-6.460373676861334 a 4.485768204823203,4.485768204823203 0 0 1 3.65473592916608,1.754201258917153 z"
         id="path1127" />
      <g
         id="g1026"
         transform="matrix(0.1288221412546753,0,0,0.1288221412546753,83.77907202592534,65.96517683878505)"
         style="fill:#007bff;fill-opacity:1;stroke-width:1.47971">
        <path
           style="fill:#007bff;fill-opacity:1;stroke-width:0.391506"
           id="path951"
           d="m -17.655242,103.57725 c -0.512762,-0.4072 -5.299339,-4.021405 -15.393722,-4.021405 -2.665413,0.01164 -5.325269,0.240241 -7.95364,0.683685 C -42.95628700000001,86.848436 -54.027512,80.319578 -54.52387,80.026684 l -2.710656,-1.563158 -1.78276300000001,2.57254399999999 c -2.232554,3.45572300000001 -3.862387,7.265193 -4.81912100000001,11.266487 -1.80736799999999,7.64407699999998 -0.70828899999997,14.823813 3.17473600000001,20.961883 C -65.35062,115.87746 -72.87246,116.52066 -74.39460699999999,116.57755 H -198.92842 c -3.25279,0.004 -5.89228,2.63313 -5.91,5.88565 -0.14526,10.90983 1.70312,21.75458 5.45412,32.0003 4.28995,11.25035 10.67223,19.53736 18.97565,24.6089 9.3046,5.69833 24.42157,8.95455 41.55731,8.95455 7.74118,0.0243 15.46781,-0.67627 23.07855,-2.09206 10.57962,-1.94257 20.75999700000012,-5.64038 30.11989700000016,-10.94105 7.71233999999998,-4.46616 14.65341899999999,-10.14783 20.55494999999999,-16.8264399999999 9.86631199999996,-11.16885 15.74403099999994,-23.60771 20.11521199999992,-34.6622700000001 0.58605200000002,0 1.17236900000002,0 1.74201699999999,0 10.802408,0 17.44530200000002,-4.32276 21.10845800000002,-7.94517 2.434431,-2.31034 4.33493299999999,-5.12471 5.56815599999999,-8.24627 l 0.77337699999999,-2.26298 z" />
        <path
           style="fill:#007bff;fill-opacity:1;stroke-width:0.391506"
           id="path953"
           d="m -187.38518,112.9308 h 16.68806 c 0.80486,0 1.45706,-0.65247 1.45706,-1.45706 v 0 -14.864825 c 0.005,-0.804862 -0.64426,-1.460764 -1.44886,-1.465262 -0.003,0 -0.006,0 -0.008,0 h -16.68806 c -0.80487,0 -1.45706,0.652462 -1.45706,1.45706 0,0.0026 0,0.0056 0,0.0082 V 111.47347 c 0,0.80486 0.65219,1.45733 1.45706,1.45733 v 0" />
        <path
           style="fill:#007bff;fill-opacity:1;stroke-width:0.391506"
           id="path955"
           d="m -164.38813,112.9308 h 16.68807 c 0.80486,0 1.45706,-0.65247 1.45706,-1.45706 v 0 -14.864825 c 0.004,-0.804862 -0.64426,-1.460764 -1.44913,-1.465262 -0.003,0 -0.006,0 -0.008,0 h -16.68806 c -0.80936,0 -1.46527,0.655902 -1.46527,1.465262 v 14.864555 c 0.005,0.80619 0.65935,1.45733 1.46553,1.45733" />
        <path
           style="fill:#007bff;fill-opacity:1;stroke-width:0.391506"
           id="path957"
           d="m -141.0413,112.9308 h 16.68807 c 0.80486,0 1.45706,-0.65247 1.45706,-1.45706 v 0 -14.864825 c 0.004,-0.804862 -0.64426,-1.460764 -1.44912,-1.465262 -0.003,0 -0.006,0 -0.008,0 h -16.68806 c -0.80486,0 -1.45706,0.652462 -1.45706,1.45706 0,0.0026 0,0.0056 0,0.0082 V 111.47347 c 2.6e-4,0.80486 0.65273,1.45733 1.45732,1.45733 v 0" />
        <path
           style="fill:#007bff;fill-opacity:1;stroke-width:0.391506"
           id="path959"
           d="m -117.97095,112.9308 h 16.68806 C -100.4767,112.9308 -99.822124,112.27992 -99.817626,111.47374 V 96.60891499999999 C -99.817626,95.79955499999998 -100.47353,95.143653 -101.28289,95.143653 v 0 h -16.68806 c -0.80487,0 -1.45706,0.652462 -1.45706,1.45705999999998 0,0.0026 0,0.0056 0,0.0082 V 111.47347 c 0,0.80486 0.65246,1.45733 1.45706,1.45733 v 0" />
        <path
           style="fill:#007bff;fill-opacity:1;stroke-width:0.391506"
           id="path961"
           d="m -164.38813,91.545584 h 16.68807 c 0.80592,-0.0045 1.45706,-0.65934100000001 1.45706,-1.46526200000001 V 75.215766 c 0,-0.804863 -0.65247,-1.457061 -1.45706,-1.457061 v 0 h -16.68807 c -0.80592,0 -1.46076,0.650875 -1.46526,1.457061 v 14.86455599999999 c 0.004,0.807508 0.65775,1.460764 1.46526,1.465262" />
        <path
           style="fill:#007bff;fill-opacity:1;stroke-width:0.391506"
           id="path963"
           d="m -141.0413,91.545584 h 16.68807 c 0.80592,-0.0045 1.45706,-0.65934100000001 1.45706,-1.46526200000001 V 75.215766 c 0,-0.804863 -0.65246,-1.457061 -1.45706,-1.457061 v 0 h -16.68807 c -0.80486,0 -1.45706,0.652463 -1.45706,1.457061 v 0 14.86455599999999 c 0,0.805921 0.65114,1.460764 1.45706,1.465262" />
        <path
           style="fill:#007bff;fill-opacity:1;stroke-width:0.391506"
           id="path965"
           d="m -117.97095,91.545584 h 16.68806 c 0.80751,-0.0045 1.46076599999995,-0.65775400000001 1.46526399999999,-1.46526200000001 V 75.215766 C -99.82212599999998,74.40958 -100.4767,73.758705 -101.28289,73.758705 h -16.68806 c -0.80487,0 -1.45706,0.652463 -1.45706,1.457061 v 0 14.86455599999999 c 0,0.805921 0.65114,1.460764 1.45706,1.465262" />
        <path
           style="fill:#007bff;fill-opacity:1;stroke-width:0.391506"
           id="path967"
           d="m -117.97095,70.15243499999999 h 16.68806 c 0.80619,0 1.46076599999995,-0.65114000000001 1.46526399999999,-1.457061 V 53.822351 C -99.82212599999998,53.016166 -100.4767,52.365291 -101.28289,52.365291 h -16.68806 c -0.80487,0 -1.45706,0.652198 -1.45706,1.45706 v 0 14.87275899999999 c 0,0.804862 0.65246,1.45732500000001 1.45706,1.45732500000001" />
        <path
           style="fill:#007bff;fill-opacity:1;stroke-width:0.391506"
           id="path969"
           d="m -94.697145,112.9308 h 16.68806499999999 c 0.806185,0 1.460764,-0.65088 1.465262,-1.45706 V 96.60891499999999 c 0,-0.80936000000001 -0.655902,-1.465262 -1.465262,-1.465262 v 0 H -94.697145 c -0.804598,0 -1.45706,0.652462 -1.45706,1.45705999999998 0,0.0026 0,0.0056 0,0.0082 V 111.47347 c 0,0.80486 0.652462,1.45733 1.45706,1.45733" />
      </g>
      <g
         transform="matrix(0.2529968310602775,0,0,0.2529968310602775,89.97971303797783,3.900921934636688)"
         id="g1360"
         style="stroke-width:1.47971">
        <path
           style="fill:#222123;stroke-width:0.137637"
           d="m 52.331745,29.762368 c 0,1.872885 -0.42955,3.515462 -1.253768,4.836295 -0.284816,2.13044800000001 -0.972859,4.14137000000001 -1.989528,5.96467700000001 -0.0573,0.18566100000001 -0.124363,0.37420500000001 -0.203148,0.566656 -4.264802,4.02668099999999 -10.014705,6.494406 -16.34196,6.494406 -6.328185,0 -12.078088,-2.46772500000001 -16.342983,-6.494406 -0.07776,-0.19245100000001 -0.145757,-0.38099500000001 -0.203148,-0.566656 -1.016669,-1.823307 -1.704805,-3.834229 -1.988598,-5.96467700000001 -0.824218,-1.320833 -1.254791,-2.96341 -1.254791,-4.836295 0,-2.80984 1.985621,-4.566083 3.15,-5.408812 0.230309,-0.423782 0.479128,-0.837798 0.744504,-1.241117 -0.0059,-0.04669 -0.0087,-0.0933 -0.0107,-0.14092 -0.08167,-2.269415 0.806731,-4.453347 2.500746,-6.147455 0.476244,-0.475314 0.992299,-0.856309 1.564815,-1.153682 -0.46164,-0.08744 -0.800871,-0.170127 -0.87668,-0.189568 C 19.344405,15.360265 18.96834,14.994896 18.82835,14.530279 18.131471,14.168725 17.668808,13.752755 17.583326,13.67397 17.351994,13.458172 17.204284,13.173449 17.156659,12.871146 16.514195,12.488197 16.177941,12.15678 16.085575,12.059578 15.793969,11.751507 15.660863,11.331631 15.714254,10.919475 15.378,10.616242 15.171875,10.37133 15.124251,10.313008 14.838504,9.962150499999998 14.743256,9.498556699999998 14.858875,9.0679838 14.597406,8.7278228 14.455556,8.466353599999999 14.424395,8.4071022 c -0.0048,-0.00967 -0.0097,-0.01944 -0.0146,-0.029114 C 14.213434,7.977552400000003 14.220224,7.507168400000002 14.427279,7.113523 14.187204,6.7587584 14.061817,6.4837089 14.033633,6.416644 13.846019,5.985140900000001 13.888807,5.4875031 14.147393,5.0947878 14.18339,5.03935 14.223201,4.987912 14.264965,4.9392644 13.927688,4.474647400000002 13.89755,3.8332063 14.239665,3.3278481 14.505971,2.9352258 14.966681,2.7184046 15.440972,2.7184046 h 0.60163 l 0.002,-0.00391 c 0.24007599999999,-0.4723373 0.72403999999999,-0.7726873 1.253768,-0.7726873 0.358672,0 0.74255,0.021394 1.114802,0.053484 0.260446,-0.2993268 0.642464,-0.4801507 1.053597,-0.4801507 0.151617,0 0.31393,0.011627 0.481081,0.030137 0.266306,-0.340161 0.692042,-0.5354955 1.133312,-0.5354955 0.08455,0 0.170127,0.00679 0.254679,0.021394 0.44899,0.078692 0.839752,0.1739407 1.178983,0.2779331 0.05637,-0.048555 0.11757199999998,-0.093295 0.181754,-0.1321764 0.223518,-0.136083 0.475314,-0.2051011499999987 0.727946,-0.2051011499999987 0.218682,0 0.438294,0.051531099999999 0.638558,0.1545002499999989 0.16715,0.085575 0.322674,0.1710572 0.4675,0.2556091 0.036,0.020371 0.07097,0.041764 0.105946,0.062228 0.179801,-0.080645 0.375135,-0.1234328 0.573446,-0.1234328 0.164267,0 0.330488,0.029114 0.489825,0.089389 0.275049,0.1030622 0.566656,0.277933 0.847565,0.4791275 0.168174,-0.067995 0.346021,-0.102039 0.524799,-0.102039 0.183707,0 0.368345,0.035997 0.541355,0.1088292 0.336255,0.141943 0.674555,0.3781117 0.987462,0.6444177 0.0719,-0.010697 0.143804,-0.016557 0.216729,-0.016557 0.31393,0 0.625907,0.1059457 0.879563,0.311977 0.09915,0.080645 2.217976,1.824330900000001 2.845837,4.386281800000001 C 33.17004,4.6601184 35.288767,2.9165258 35.387923,2.8358806 c 0.253656,-0.2060313 0.565633,-0.311977 0.879563,-0.311977 0.07292,0 0.145757,0.00586 0.217751,0.016557 0.311977,-0.266306 0.650185,-0.5024747 0.986532,-0.6444177 C 37.64571,1.8231179 37.829418,1.7872137 38.01414799999999,1.7872137 c 0.177847,0 0.355695,0.034044 0.523869,0.102039 0.280909,-0.2011945 0.572423,-0.3761584 0.847565,-0.4791275 0.16036,-0.060275 0.326581,-0.089389 0.490848,-0.089389 0.19728700000001,0 0.39262200000001,0.042788 0.572423,0.1234328 0.03497,-0.021394 0.06995,-0.041764 0.106876,-0.062228 0.14482600000001,-0.084552 0.300349,-0.170126999999999 0.466477,-0.2556091 0.201194,-0.1030622 0.419876,-0.1545002499999996 0.638557,-0.1545002499999996 0.252726,0 0.505452,0.0690181 0.727947,0.2051011500000005 0.06511,0.038881 0.125386,0.083622 0.182684,0.1321764 0.338208,-0.103992400000001 0.72897,-0.199241200000001 1.17796,-0.2779331 0.08548,-0.014604 0.170127,-0.021394 0.254679,-0.021394 0.44127000000001,0 0.866913,0.1953345 1.13331200000002,0.5354955 0.16714999999999,-0.01851 0.32946399999998,-0.030137 0.48108100000001,-0.030137 0.41206200000002,0 0.793058,0.1808239 1.054527,0.4801507 0.373182,-0.032091 0.759107,-0.053484 1.11870800000002,-0.053484 0.530659,0 1.01564599999998,0.30035 1.25088499999998,0.776594 9.2999999999e-4,0 9.2999999999e-4,0 9.2999999999e-4,0 H 49.651896 c 0.474291,0 0.93397800000001,0.2186816 1.19842400000001,0.6132572 0.33923099999999,0.5063813 0.30806999999998,1.1458691 -0.03014,1.607602600000002 0.04279,0.048555 0.0826,0.100085599999999 0.11859599999999,0.155523399999999 0.257563,0.392622300000002 0.30035,0.890260099999999 0.113759,1.3218562 -0.02911,0.067065 -0.15449999999999,0.342114399999999 -0.393645,0.696879 0.20603100000001,0.393645399999999 0.213845,0.863099199999999 0.01656,1.263534899999999 -0.0048,0.010697 -0.0098,0.020371 -0.0146,0.030137 -0.03107,0.059252 -0.171987,0.3207206 -0.43345600000001,0.6608816 0.115619,0.430573000000001 0.01944,0.8941667 -0.266306,1.2450238 -0.04669,0.05832 -0.252726,0.303234 -0.590003,0.606467 0.05348,0.412063 -0.07972,0.831939 -0.371322,1.140103 -0.09134,0.0972 -0.428619,0.428619 -1.07006100000001,0.811568 -0.04855,0.302303 -0.196357,0.587026 -0.427689,0.802824 -0.08548,0.07869 -0.547216,0.494755 -1.24409500000001,0.856309 -0.14091899999999,0.464617 -0.516055,0.829986 -0.99918199999999,0.950535 -0.07581,0.01944 -0.415039,0.102039 -0.87667900000001,0.189568 0.572423,0.297373 1.08950100000001,0.678368 1.56481500000001,1.153682 1.69410700000001,1.694108 2.582414,3.877947 2.50176900000001,6.147455 -0.002,0.04762 -0.0059,0.09432 -0.0107,0.14092 0.264353,0.403319 0.51317199999999,0.817428 0.74348000000001,1.241117 1.164752,0.842543 3.15037299999999,2.598879 3.15037299999999,5.408719 z"
           id="path1194" />
        <path
           style="fill:#81c756;stroke-width:0.137637"
           d="m 19.893853,6.0162084 c 0,0 5.759018,1.7475923 9.654825,5.301284600000001 C 30.24444,10.942171 31.469373,10.01917 31.301479,8.2279526 31.068659,5.744693500000003 28.81822,3.9209207 28.81822,3.9209207 v 0.8923995 c 0,0 -1.008856,-1.319251799999999 -1.746104,-1.6296475 L 26.878083,4.0372843 C 26.878083,4.0372843 25.83044,2.9508526 25.209555,2.7180325 c 0,0 0.194032,0.4267593 0,0.9700682 0,0 -0.426759,-0.6208846 -1.784892,-1.3192518 v 0.9311873 c 0,0 -0.543216,-0.5820037 -2.328014,-0.8923994 0,0 0.426759,0.3491836 0.659672,1.0088559 0,0 -1.474403,-0.504428 -2.28932,-0.504428 l 0.717901,0.7179007 c 0,0 -1.649088,-0.2909553 -2.890671,-0.2909553 l 0.582003,0.7759429 h -2.483352 c 0,0 1.047644,1.0476438 1.047644,1.746104 h -1.12521899999994 c 0,0 0.50442800000001,1.164100400000002 1.66852799999994,1.7073162 0,0 -0.387972,0.1940322 -1.31925199999993,0.1940322 0,0 0.50442799999995,0.970068199999999 1.55207199999997,1.5520719 L 16.207799,9.4309338 c 0,0 0.85361200000001,1.047644200000001 2.095288,1.435615199999999 l -1.202889,0.23282 c 0,0 0.69846100000001,0.737248 2.36680300000001,1.280371 L 18.535814,12.651348 c 0,0 1.12521900000001,1.047644 2.444471,1.047644 l -0.814824,0.426759 c 0,0 1.55207199999998,0.387972 2.677292,0.387972 l -0.69846099999999,0.69846 c 0,0 5.411044,0.748503 6.41655099999999,-3.204323 C 27.69476800000001,10.988866 25.429632,8.8786024 19.893853,6.0162084 Z"
           id="path1196" />
        <g
           id="g1204"
           transform="matrix(0.09301641,0,0,0.09301641,8.731139999999998,0)"
           style="stroke-width:1.47971">
          <path
             style="fill:#cb1948;stroke-width:1.47971"
             d="m 255.997,230.703 c 27.949,0 52.977,-14.183 55.898,-27.532 2.921,-13.349 -15.434,-37.96 -55.898,-37.96 -40.4639999999999,0 -58.817,24.612 -55.8979999999997,37.96 2.9199999999999,13.35 27.949,27.532 55.8979999999997,27.532 z"
             id="path1198" />
          <path
             style="fill:#cb1948;stroke-width:1.47971"
             d="M 315.183,505.125 C 296.187,509.618 276.365,512 256,512 c -20.376,0 -40.187,-2.382 -59.183,-6.875 -0.293,-1.881 -0.251,-3.657 0.125,-5.277 3.082,-13.343 29.529,-19.968 59.058,-19.968 29.529,0 55.965,6.625 59.058,19.968 0.376,1.609 0.418,3.396 0.125,5.277 z"
             id="path1200" />
          <path
             style="fill:#cb1948;stroke-width:1.47971"
             d="m 162.297,409.506 c -19.489,-22.183 -43.204,-36.546 -57.858,-27.779 -14.655,8.769 -25.12000000000002,43.776 3.096,75.8920000000001 28.216,32.116 64.28,26.243 74.862,12.84 10.581,-13.404 -0.611,-38.77 -20.1,-60.9530000000001 z"
             id="path1202" />
        </g>
        <path
           style="fill:#cb1948;stroke-width:0.137637"
           d="m 25.660778,16.300847 c 0.404621,0.02716 0.619489,0.492708 0.377832,0.818265 -0.681159,0.917328 -1.662575,2.073894 -2.963037,3.214833 -1.604719,1.407432 -3.197532,2.416009 -4.276895,3.025638 -0.338208,0.191056 -0.751107,-0.05014 -0.76506,-0.438293 -0.07692,-2.144866 0.875843,-3.892086 2.093055,-5.109299 1.285859,-1.286044 2.92425,-1.685829 5.534105,-1.511144 z"
           id="path1206" />
        <g
           id="g1214"
           transform="matrix(0.09301641,0,0,0.09301641,8.731139999999998,0)"
           style="stroke-width:1.47971">
          <path
             style="fill:#cb1948;stroke-width:1.47971"
             d="m 91.22499999999999,270.332 c -17.52000000000001,11.68 -32.954,27.114 -32.954,49.64 0,22.526 6.46599999999997,41.506 19.60499999999989,54.646 C 91.01599999999999,387.758 103.194,334.978 103.739,322.474 c 0.815,-18.669 6.048,-60.694 -12.51400000000001,-52.142 z"
             id="path1208" />
          <ellipse
             style="fill:#cb1948;stroke-width:1.47971"
             cx="256"
             cy="404.7929992675781"
             rx="63.8120002746582"
             ry="56.72800064086914"
             id="ellipse1210" />
          <ellipse
             transform="matrix(-0.7070999999999999,-0.7070999999999999,0.7070999999999999,-0.7070999999999999,105.1524,636.8993)"
             style="fill:#cb1948;stroke-width:1.47971"
             cx="184.4819946289062"
             cy="296.6719970703125"
             rx="55.9640007019043"
             ry="64.91899871826172"
             id="ellipse1212" />
        </g>
        <path
           style="fill:#81c756;stroke-width:0.137637"
           d="m 45.19227,6.0162084 c 0,0 -5.75901799999999,1.7475923 -9.654824,5.301284600000001 C 34.84168300000001,10.942171 33.61675000000001,10.01917 33.78464500000001,8.227952599999998 34.017465,5.744693499999999 36.267904,3.920920699999998 36.267904,3.920920699999998 v 0.8923995 c 0,0 1.00885600000001,-1.3192518 1.74610400000001,-1.6296475 l 0.194032,0.8536116 c 0,0 1.04764399999999,-1.0864317 1.668529,-1.3192518 0,0 -0.19403299999999,0.4267593 0,0.9700682 0,0 0.42675899999999,-0.6208846 1.78489199999999,-1.3192518 v 0.9311873 c 0,0 0.54321500000002,-0.5820037 2.32801400000002,-0.8923994 0,0 -0.42675899999999,0.3491836 -0.65967200000001,1.0088559 0,0 1.47440300000001,-0.504428 2.28931999999999,-0.504428 l -0.71790099999999,0.7179007 c 0,0 1.649088,-0.2909553 2.89067099999999,-0.2909553 L 47.209889,4.114953 h 2.48326 c 0,0 -1.047644,1.0476438 -1.047644,1.746104 h 1.125219 c 0,0 -0.50442799999999,1.164100400000002 -1.668528,1.7073162 0,0 0.387971,0.1940322 1.319252,0.1940322 0,0 -0.504428,0.970068199999999 -1.552072,1.5520719 L 48.878232,9.4309338 C 48.878232,9.4309338 48.02462,10.478578 46.782944,10.866549 l 1.202888,0.23282 c 0,0 -0.69845999999999,0.737248 -2.366895,1.280371 l 0.93118700000001,0.271608 c 0,0 -1.12521900000001,1.047644 -2.444471,1.047644 l 0.814824,0.426759 c 0,0 -1.55207200000001,0.387972 -2.677292,0.387972 L 42.941645,15.212183 c 0,0 -5.411043,0.748503 -6.416551,-3.204323 C 37.391356,10.988866 39.656492,8.8786024 45.19227,6.0162084 Z"
           id="path1216" />
        <g
           id="g1222"
           transform="matrix(0.09301641,0,0,0.09301641,8.731139999999998,0)"
           style="stroke-width:1.47971">
          <path
             style="fill:#cb1948;stroke-width:1.47971"
             d="m 255.997,230.703 c -27.949,0 -52.977,-14.183 -55.898,-27.532 -2.92,-13.349 15.434,-37.96 55.898,-37.96 40.464,0 58.817,24.612 55.898,37.96 -2.9209999999998,13.35 -27.949,27.532 -55.898,27.532 z"
             id="path1218" />
          <path
             style="fill:#cb1948;stroke-width:1.47971"
             d="m 349.697,409.506 c 19.489,-22.183 43.204,-36.546 57.858,-27.779 14.655,8.769 25.12,43.776 -3.096,75.8920000000001 -28.216,32.116 -64.28,26.243 -74.862,12.84 -10.581,-13.404 0.611,-38.77 20.1,-60.9530000000001 z"
             id="path1220" />
        </g>
        <path
           style="fill:#cb1948;stroke-width:0.137637"
           d="m 39.425346,16.300847 c -0.404621,0.02716 -0.61948899999999,0.492708 -0.37774,0.818265 0.68116,0.917328 1.66257600000001,2.073894 2.96303799999999,3.214833 C 43.615363,21.741377 45.208176,22.749954 46.287539,23.359583 c 0.33820699999999,0.191056 0.75110699999999,-0.05014 0.76506,-0.438293 0.07692,-2.144866 -0.87593600000001,-3.892086 -2.09305599999999,-5.109299 C 43.67359200000002,16.525947 42.035201,16.126162 39.425346,16.300847 Z"
           id="path1224" />
        <g
           id="g1230"
           transform="matrix(0.09301641,0,0,0.09301641,8.731139999999998,0)"
           style="stroke-width:1.47971">
          <path
             style="fill:#cb1948;stroke-width:1.47971"
             d="m 420.769,270.332 c 17.52,11.68 32.954,27.114 32.954,49.64 0,22.526 -6.466,41.506 -19.605,54.646 -13.14,13.14 -25.318,-39.64 -25.863,-52.144 -0.815,-18.669 -6.049,-60.694 12.514,-52.142 z"
             id="path1226" />
          <ellipse
             transform="matrix(-0.7070999999999999,0.7070999999999999,-0.7070999999999999,-0.7070999999999999,768.8735,274.8859)"
             style="fill:#cb1948;stroke-width:1.47971"
             cx="327.5060119628906"
             cy="296.6820068359375"
             rx="55.9640007019043"
             ry="64.91899871826172"
             id="ellipse1228" />
        </g>
      </g>
    </g>
    <g
       transform="matrix(0.09301641,0,0,0.09301641,8.731139999999998,0)"
       id="g1232" />
    <g
       transform="matrix(0.09301641,0,0,0.09301641,8.731139999999998,0)"
       id="g1234" />
    <g
       transform="matrix(0.09301641,0,0,0.09301641,8.731139999999998,0)"
       id="g1236" />
    <g
       transform="matrix(0.09301641,0,0,0.09301641,8.731139999999998,0)"
       id="g1238" />
    <g
       transform="matrix(0.09301641,0,0,0.09301641,8.731139999999998,0)"
       id="g1240" />
    <g
       transform="matrix(0.09301641,0,0,0.09301641,8.731139999999998,0)"
       id="g1242" />
    <g
       transform="matrix(0.09301641,0,0,0.09301641,8.731139999999998,0)"
       id="g1244" />
    <g
       transform="matrix(0.09301641,0,0,0.09301641,8.731139999999998,0)"
       id="g1246" />
    <g
       transform="matrix(0.09301641,0,0,0.09301641,8.731139999999998,0)"
       id="g1248" />
    <g
       transform="matrix(0.09301641,0,0,0.09301641,8.731139999999998,0)"
       id="g1250" />
    <g
       transform="matrix(0.09301641,0,0,0.09301641,8.731139999999998,0)"
       id="g1252" />
    <g
       transform="matrix(0.09301641,0,0,0.09301641,8.731139999999998,0)"
       id="g1254" />
    <g
       transform="matrix(0.09301641,0,0,0.09301641,8.731139999999998,0)"
       id="g1256" />
    <g
       transform="matrix(0.09301641,0,0,0.09301641,8.731139999999998,0)"
       id="g1258" />
    <g
       transform="matrix(0.09301641,0,0,0.09301641,8.731139999999998,0)"
       id="g1260" />
  </g>
  <style
     type="text/css"
     id="style960">
	.st0{fill:#FFFFFF;}
</style>
  <style
     type="text/css"
     id="style1017">
	.st0{fill:#FFFFFF;}
</style>
</svg>
