<?xml version="1.0" encoding="UTF-8" standalone="no"?>
<svg
   inkscape:export-ydpi="96"
   inkscape:export-xdpi="96"
   inkscape:export-filename="C:\work\repos\hugosites\dicastro.github.io\content\es\blog\2020\10\14\monto-un-cluster-kubernetes-con-rpi-parte-iii\featured.png"
   sodipodi:docname="featured.svg"
   inkscape:version="1.1 (c68e22c387, 2021-05-23)"
   id="svg8"
   version="1.1"
   viewBox="0 0 169.3333333333334 95.24999999999999"
   height="360"
   width="640"
   xmlns:inkscape="http://www.inkscape.org/namespaces/inkscape"
   xmlns:sodipodi="http://sodipodi.sourceforge.net/DTD/sodipodi-0.dtd"
   xmlns="http://www.w3.org/2000/svg"
   xmlns:svg="http://www.w3.org/2000/svg"
   xmlns:rdf="http://www.w3.org/1999/02/22-rdf-syntax-ns#"
   xmlns:cc="http://creativecommons.org/ns#"
   xmlns:dc="http://purl.org/dc/elements/1.1/">
  <defs
     id="defs2">
    <style
       id="style1121">.cls-1{fill:#008fbe;}</style>
    <style
       id="style1002">.cls-1{fill:#384745;}.cls-2{fill:#ffc61c;}</style>
  </defs>
  <sodipodi:namedview
     inkscape:window-maximized="0"
     inkscape:window-y="4"
     inkscape:window-x="1275"
     inkscape:window-height="1352"
     inkscape:window-width="2554"
     units="px"
     fit-margin-bottom="0"
     fit-margin-right="0"
     fit-margin-left="0"
     fit-margin-top="0"
     showgrid="false"
     inkscape:document-rotation="0"
     inkscape:current-layer="layer1"
     inkscape:document-units="px"
     inkscape:cy="298"
     inkscape:cx="368.5"
     inkscape:zoom="1"
     inkscape:pageshadow="2"
     inkscape:pageopacity="1"
     borderopacity="1.0"
     bordercolor="#666666"
     pagecolor="#e5e5e5"
     id="base"
     inkscape:pagecheckerboard="1" />
  <metadata
     id="metadata5">
    <rdf:RDF>
      <cc:Work
         rdf:about="">
        <dc:format>image/svg+xml</dc:format>
        <dc:type
           rdf:resource="http://purl.org/dc/dcmitype/StillImage" />
      </cc:Work>
    </rdf:RDF>
  </metadata>
  <g
     transform="translate(32.347991,-98.115519)"
     id="layer1"
     inkscape:groupmode="layer"
     inkscape:label="Layer 1">
    <g
       transform="matrix(0.5171251599999997,0,0,0.5171251599999997,-21.98289898682749,116.9463747122597)"
       id="g1024">
      <path
         class="cls-1"
         d="m 163.81972,30.43153 h 12.49638 v 14.14308 c 0,1.57118 -0.22411,3.89019 -0.37392,5.6124 h 0.29962 a 42.96588,42.96588 0 0 1 3.14237,-4.71476 l 12.34717,-15.04072 h 13.46893 l -16.46209,19.82978 17.36034,30.67946 h -14.36718 l -11.67364,-21.17564 -3.7416,4.565 v 16.61064 h -12.49638 z"
         id="path1006" />
      <path
         class="cls-1"
         d="m 218.29711,65.07792 c -1.34708,4.86336 1.42137,7.93143000000001 5.6118,7.93143000000001 4.71415,0 7.10868,-3.74161000000001 7.10868,-9.0544 0,-5.6867 -2.84335,-7.85591 -6.65986,-7.85591 a 9.076159999999999,9.076159999999999 0 0 0 -6.21043,2.39453 L 212.7596,52.65584 228.399,39.71 h -18.5576 v -9.2785 h 31.054 v 9.80223 l -11.97272,9.87777 c 7.63241,-0.74783 14.89091,4.26533 14.89091,13.99325999999999 0,10.55128000000002 -8.60557,17.73487 -19.45586,17.73487 -10.251,0 -18.85662,-6.36023999999999 -16.6119,-15.26599999999999 z"
         id="path1008" />
      <path
         class="cls-1"
         d="m 259.30374,64.33008999999998 c -0.89765,4.04000000000002 0.67354,8.67926 8.60557,8.67926 5.23727,0 7.03378,-2.09491 7.03378,-4.86457999999999 0,-4.18982 -4.191,-5.23727 -9.12991,-7.03256 -7.40709,-2.54556 -16.53638,-6.13614 -16.53638,-16.68741 0,-9.42830999999999 7.25849,-15.19053 19.60445,-14.89091 15.1162299999999,0.2984 19.38156,9.2042 17.73487,16.91152000000001 l -11.44892,1.04745 c 0.74905,-5.83650999999999 -1.34708,-9.1299 -7.25789,-9.1299 -3.96571,0 -6.211,1.4981 -6.211,4.64045999999999 0,4.18982 4.04062,5.46138 8.97949,7.18359000000001 7.633,2.54312999999999 16.68619,5.61240999999999 16.68619,16.08699999999997 0,9.05439 -6.73416,15.56566000000001 -19.90407,15.56566000000001 -12.34657,0 -20.80233,-5.68792000000002 -19.08073,-16.46209 z"
         id="path1010" />
      <path
         class="cls-2"
         d="M 121.58689,0 H 14.39255 A 14.43487,14.43487 0 0 0 0,14.39247 V 96.96990999999998 A 14.43487,14.43487 0 0 0 14.39255,111.36238 H 121.58689 A 14.43487,14.43487 0 0 0 135.97944,96.96990999999998 V 14.39247 A 14.43487,14.43487 0 0 0 121.58689,0 Z M 57.45811,80.98064999999998 31.29766,96.18344 A 6.999949213851492,6.999949213851492 0 1 1 24.26348,84.07899999999999 L 50.42393,68.87626 a 6.99993,6.99993 0 1 1 7.03418,12.10438999999998 z M 67.74961,57.81844 h -0.03145 A 6.99967,6.99967 0 0 1 60.74893,50.788 l 0.13125,-30.13725 a 7.000560000000001,7.000560000000001 0 0 1 6.99931,-6.96958 h 0.03145 a 6.99991,6.99991 0 0 1 6.96923999999999,7.03042 L 74.74893000000001,50.84884 A 7.000560000000001,7.000560000000001 0 0 1 67.74961,57.81844 Z m 46.2875,35.81006 A 6.997,6.997 0 0 1 104.475,96.19061 L 78.27627000000001,81.06472999999998 a 6.99994,6.99994 0 1 1 7,-12.12420999999999 L 111.475,84.06638999999998 A 6.99956,6.99956 0 0 1 114.03711,93.6285 Z"
         id="path1012" />
    </g>
  </g>
  <style
     type="text/css"
     id="style960">
	.st0{fill:#FFFFFF;}
</style>
  <style
     type="text/css"
     id="style1017">
	.st0{fill:#FFFFFF;}
</style>
</svg>
